M48
;GenerationSoftware,Autodesk,EAGLE,9.6.1*%
;CreationDate,2024-04-02T00:01:35Z*%
FMAT,2
ICI,OFF
METRIC,TZ,000.000
T2C0.250
T1C1.016
%
G90
M71
T1
X-10001Y16510
X5556Y7302
X-4921Y16510
X-7461Y16510
T2
X-6350Y8414
X-6350Y6667
X6826Y5874
X6826Y3969
X159Y3810
X-1587Y3810
X-2699Y21114
X-2699Y19209
X2540Y21431
X4445Y19050
X-4763Y7144
X-952Y19368
X-9208Y10636
X-4734Y7909
X131Y20254
X-5398Y9049
X4175Y12653
X-352Y5715
X-916Y7583
X-2699Y1746
X4763Y4445
X3175Y16986
X3651Y4949
X8890Y6032
X3175Y16224
X3810Y22066
X-318Y16192
X1270Y7454
X-4128Y10954
X-4135Y13176
X318Y19022
X-1905Y5080
X3651Y7937
X-3877Y22334
M30