M48
;GenerationSoftware,Autodesk,EAGLE,9.6.1*%
;CreationDate,2024-07-14T17:39:27Z*%
FMAT,2
ICI,OFF
METRIC,TZ,000.000
T3C0.250
T2C0.350
T1C1.016
%
G90
M71
T1
X8890Y14446
X-8096Y16351
X-8096Y13811
X-8096Y11271
T2
X-4763Y14922
X-3969Y16986
X2540Y19526
X4763Y18733
X8731Y3969
X7144Y5080
X-3016Y3651
X-952Y3651
X-6985Y7144
X-6985Y8890
X4763Y16408
T3
X-1111Y6191
X1587Y6032
X-1746Y17780
X5556Y7873
X-1506Y2829
X-8201Y7558
X-6124Y18415
X8910Y6013
X4210Y19920
X-159Y12382
X-4128Y9843
X485Y13335
X-6624Y4763
M30