G04 EAGLE Gerber RS-274X export*
G75*
%MOMM*%
%FSLAX34Y34*%
%LPD*%
%INSilkscreen Top*%
%IPPOS*%
%AMOC8*
5,1,8,0,0,1.08239X$1,22.5*%
G01*
%ADD10C,0.101600*%
%ADD11C,0.152400*%
%ADD12C,0.127000*%
%ADD13C,0.076200*%
%ADD14C,0.254000*%
%ADD15R,0.259075X0.015238*%
%ADD16R,1.310638X0.015238*%
%ADD17R,0.015238X0.015238*%
%ADD18R,0.304800X0.015238*%
%ADD19R,1.356356X0.015238*%
%ADD20R,0.335275X0.015238*%
%ADD21R,1.402075X0.015238*%
%ADD22R,0.365756X0.015238*%
%ADD23R,1.417319X0.015238*%
%ADD24R,0.381000X0.015238*%
%ADD25R,1.447800X0.015238*%
%ADD26R,0.396238X0.015238*%
%ADD27R,1.463037X0.015238*%
%ADD28R,0.411475X0.015238*%
%ADD29R,1.478275X0.015238*%
%ADD30R,0.426719X0.015238*%
%ADD31R,1.493519X0.015238*%
%ADD32R,0.441956X0.015238*%
%ADD33R,1.508756X0.015238*%
%ADD34R,0.457200X0.015238*%
%ADD35R,1.524000X0.015238*%
%ADD36R,0.472438X0.015238*%
%ADD37R,1.539238X0.015238*%
%ADD38R,0.487675X0.015238*%
%ADD39R,1.554475X0.015238*%
%ADD40R,0.502919X0.015238*%
%ADD41R,1.569719X0.015238*%
%ADD42R,0.518156X0.015238*%
%ADD43R,1.584956X0.015238*%
%ADD44R,0.533400X0.015238*%
%ADD45R,1.600200X0.015238*%
%ADD46R,0.548638X0.015238*%
%ADD47R,1.615438X0.015238*%
%ADD48R,0.563875X0.015238*%
%ADD49R,1.630675X0.015238*%
%ADD50R,0.579119X0.015238*%
%ADD51R,1.645919X0.015238*%
%ADD52R,0.594356X0.015238*%
%ADD53R,1.661156X0.015238*%
%ADD54R,0.609600X0.015238*%
%ADD55R,1.676400X0.015238*%
%ADD56R,0.624838X0.015238*%
%ADD57R,1.691638X0.015238*%
%ADD58R,0.640075X0.015238*%
%ADD59R,1.706875X0.015238*%
%ADD60R,0.655319X0.015238*%
%ADD61R,1.722119X0.015238*%
%ADD62R,0.670556X0.015238*%
%ADD63R,1.737356X0.015238*%
%ADD64R,0.685800X0.015238*%
%ADD65R,1.752600X0.015238*%
%ADD66R,0.701037X0.015238*%
%ADD67R,0.716275X0.015238*%
%ADD68R,0.731519X0.015238*%
%ADD69R,1.767838X0.015238*%
%ADD70R,1.783075X0.015238*%
%ADD71R,0.746756X0.015238*%
%ADD72R,1.798319X0.015238*%
%ADD73R,0.030481X0.015238*%
%ADD74R,0.762000X0.015238*%
%ADD75R,0.807719X0.015238*%
%ADD76R,0.868681X0.015238*%
%ADD77R,0.777238X0.015238*%
%ADD78R,0.853438X0.015238*%
%ADD79R,0.838200X0.015238*%
%ADD80R,0.792475X0.015238*%
%ADD81R,0.822963X0.015238*%
%ADD82R,0.822956X0.015238*%
%ADD83R,0.868675X0.015238*%
%ADD84R,0.883919X0.015238*%
%ADD85R,0.899156X0.015238*%
%ADD86R,0.914400X0.015238*%
%ADD87R,0.929638X0.015238*%
%ADD88R,0.944875X0.015238*%
%ADD89R,0.960119X0.015238*%
%ADD90R,0.975356X0.015238*%
%ADD91R,0.990600X0.015238*%
%ADD92R,1.005837X0.015238*%
%ADD93R,1.021075X0.015238*%
%ADD94R,1.036319X0.015238*%
%ADD95R,1.051556X0.015238*%
%ADD96R,1.066800X0.015238*%
%ADD97R,1.082037X0.015238*%
%ADD98R,1.097275X0.015238*%
%ADD99R,1.112519X0.015238*%
%ADD100R,1.127756X0.015238*%
%ADD101R,1.143000X0.015238*%
%ADD102R,1.158238X0.015238*%
%ADD103R,1.173475X0.015238*%
%ADD104R,1.188719X0.015238*%
%ADD105R,1.203956X0.015238*%
%ADD106R,1.219200X0.015238*%
%ADD107R,1.234438X0.015238*%
%ADD108R,1.249675X0.015238*%
%ADD109R,1.264919X0.015238*%
%ADD110R,1.280156X0.015238*%
%ADD111R,1.295400X0.015238*%
%ADD112R,1.325875X0.015238*%
%ADD113R,0.670563X0.015238*%
%ADD114R,1.341119X0.015238*%
%ADD115R,1.371600X0.015238*%
%ADD116R,1.386838X0.015238*%
%ADD117R,0.045719X0.015238*%
%ADD118R,0.060956X0.015238*%
%ADD119R,1.432556X0.015238*%
%ADD120R,0.106681X0.015238*%
%ADD121R,0.121919X0.015238*%
%ADD122R,0.152400X0.015238*%
%ADD123R,0.182875X0.015238*%
%ADD124R,0.030475X0.015238*%
%ADD125R,0.213363X0.015238*%
%ADD126R,0.076200X0.015238*%
%ADD127R,0.320038X0.015238*%
%ADD128R,0.243838X0.015238*%
%ADD129R,0.106675X0.015238*%
%ADD130R,0.274319X0.015238*%
%ADD131R,0.259081X0.015238*%
%ADD132R,0.198119X0.015238*%
%ADD133R,0.228600X0.015238*%


D10*
X-111691Y141400D02*
X-110688Y144487D01*
X-110655Y144595D01*
X-110625Y144705D01*
X-110600Y144815D01*
X-110578Y144926D01*
X-110561Y145038D01*
X-110547Y145151D01*
X-110537Y145264D01*
X-110531Y145377D01*
X-110529Y145490D01*
X-110531Y145603D01*
X-110537Y145716D01*
X-110547Y145829D01*
X-110561Y145942D01*
X-110578Y146054D01*
X-110600Y146165D01*
X-110625Y146275D01*
X-110655Y146385D01*
X-110688Y146493D01*
X-110725Y146600D01*
X-110765Y146706D01*
X-110810Y146810D01*
X-110858Y146913D01*
X-110909Y147014D01*
X-110964Y147113D01*
X-111022Y147210D01*
X-111084Y147305D01*
X-111149Y147398D01*
X-111217Y147488D01*
X-111288Y147576D01*
X-111363Y147662D01*
X-111440Y147745D01*
X-111520Y147825D01*
X-111603Y147902D01*
X-111689Y147977D01*
X-111777Y148048D01*
X-111867Y148116D01*
X-111960Y148181D01*
X-112055Y148243D01*
X-112152Y148301D01*
X-112251Y148356D01*
X-112352Y148407D01*
X-112455Y148455D01*
X-112559Y148500D01*
X-112665Y148540D01*
X-112772Y148577D01*
X-112880Y148610D01*
X-112990Y148640D01*
X-113100Y148665D01*
X-113211Y148687D01*
X-113323Y148704D01*
X-113436Y148718D01*
X-113549Y148728D01*
X-113662Y148734D01*
X-113775Y148736D01*
X-113888Y148734D01*
X-114001Y148728D01*
X-114114Y148718D01*
X-114227Y148704D01*
X-114339Y148687D01*
X-114450Y148665D01*
X-114560Y148640D01*
X-114670Y148610D01*
X-114778Y148577D01*
X-114885Y148540D01*
X-114991Y148500D01*
X-115095Y148455D01*
X-115198Y148407D01*
X-115299Y148356D01*
X-115398Y148301D01*
X-115495Y148243D01*
X-115590Y148181D01*
X-115683Y148116D01*
X-115773Y148048D01*
X-115861Y147977D01*
X-115947Y147902D01*
X-116030Y147825D01*
X-116110Y147745D01*
X-116187Y147662D01*
X-116262Y147576D01*
X-116333Y147488D01*
X-116401Y147398D01*
X-116466Y147305D01*
X-116528Y147210D01*
X-116586Y147113D01*
X-116641Y147014D01*
X-116692Y146913D01*
X-116740Y146810D01*
X-116785Y146706D01*
X-116825Y146600D01*
X-116862Y146493D01*
X-121600Y148715D02*
X-122804Y145010D01*
X-121600Y148714D02*
X-121567Y148809D01*
X-121530Y148903D01*
X-121490Y148995D01*
X-121446Y149086D01*
X-121399Y149175D01*
X-121348Y149262D01*
X-121294Y149347D01*
X-121237Y149430D01*
X-121177Y149510D01*
X-121113Y149588D01*
X-121047Y149664D01*
X-120977Y149737D01*
X-120905Y149807D01*
X-120830Y149875D01*
X-120753Y149939D01*
X-120673Y150000D01*
X-120591Y150059D01*
X-120507Y150114D01*
X-120420Y150165D01*
X-120332Y150214D01*
X-120242Y150258D01*
X-120150Y150300D01*
X-120057Y150337D01*
X-119962Y150371D01*
X-119866Y150402D01*
X-119769Y150428D01*
X-119671Y150451D01*
X-119572Y150470D01*
X-119472Y150485D01*
X-119372Y150497D01*
X-119272Y150504D01*
X-119171Y150508D01*
X-119071Y150507D01*
X-118970Y150503D01*
X-118870Y150495D01*
X-118770Y150483D01*
X-118670Y150467D01*
X-118572Y150447D01*
X-118474Y150423D01*
X-118377Y150396D01*
X-118281Y150365D01*
X-118187Y150330D01*
X-118094Y150292D01*
X-118002Y150250D01*
X-117912Y150204D01*
X-117824Y150155D01*
X-117738Y150103D01*
X-117654Y150047D01*
X-117573Y149988D01*
X-117493Y149926D01*
X-117417Y149861D01*
X-117342Y149793D01*
X-117271Y149723D01*
X-117202Y149649D01*
X-117136Y149573D01*
X-117073Y149494D01*
X-117013Y149413D01*
X-116957Y149330D01*
X-116903Y149245D01*
X-116853Y149157D01*
X-116807Y149068D01*
X-116764Y148977D01*
X-116724Y148884D01*
X-116688Y148790D01*
X-116656Y148695D01*
X-116627Y148598D01*
X-116603Y148501D01*
X-116582Y148402D01*
X-116565Y148303D01*
X-116551Y148203D01*
X-116542Y148103D01*
X-116537Y148003D01*
X-116535Y147902D01*
X-116537Y147801D01*
X-116544Y147701D01*
X-116554Y147601D01*
X-116568Y147501D01*
X-116586Y147402D01*
X-116607Y147304D01*
X-116633Y147206D01*
X-116662Y147110D01*
X-116661Y147110D02*
X-117464Y144640D01*
X-119472Y155264D02*
X-107156Y155357D01*
X-117065Y162672D01*
X-104627Y163141D02*
X-103624Y166228D01*
X-103591Y166336D01*
X-103561Y166446D01*
X-103536Y166556D01*
X-103514Y166667D01*
X-103497Y166779D01*
X-103483Y166892D01*
X-103473Y167005D01*
X-103467Y167118D01*
X-103465Y167231D01*
X-103467Y167344D01*
X-103473Y167457D01*
X-103483Y167570D01*
X-103497Y167683D01*
X-103514Y167795D01*
X-103536Y167906D01*
X-103561Y168016D01*
X-103591Y168126D01*
X-103624Y168234D01*
X-103661Y168341D01*
X-103701Y168447D01*
X-103746Y168551D01*
X-103794Y168654D01*
X-103845Y168755D01*
X-103900Y168854D01*
X-103958Y168951D01*
X-104020Y169046D01*
X-104085Y169139D01*
X-104153Y169229D01*
X-104224Y169317D01*
X-104299Y169403D01*
X-104376Y169486D01*
X-104456Y169566D01*
X-104539Y169643D01*
X-104625Y169718D01*
X-104713Y169789D01*
X-104803Y169857D01*
X-104896Y169922D01*
X-104991Y169984D01*
X-105088Y170042D01*
X-105187Y170097D01*
X-105288Y170148D01*
X-105391Y170196D01*
X-105495Y170241D01*
X-105601Y170281D01*
X-105708Y170318D01*
X-105816Y170351D01*
X-105926Y170381D01*
X-106036Y170406D01*
X-106147Y170428D01*
X-106259Y170445D01*
X-106372Y170459D01*
X-106485Y170469D01*
X-106598Y170475D01*
X-106711Y170477D01*
X-106824Y170475D01*
X-106937Y170469D01*
X-107050Y170459D01*
X-107163Y170445D01*
X-107275Y170428D01*
X-107386Y170406D01*
X-107496Y170381D01*
X-107606Y170351D01*
X-107714Y170318D01*
X-107821Y170281D01*
X-107927Y170241D01*
X-108031Y170196D01*
X-108134Y170148D01*
X-108235Y170097D01*
X-108334Y170042D01*
X-108431Y169984D01*
X-108526Y169922D01*
X-108619Y169857D01*
X-108709Y169789D01*
X-108797Y169718D01*
X-108883Y169643D01*
X-108966Y169566D01*
X-109046Y169486D01*
X-109123Y169403D01*
X-109198Y169317D01*
X-109269Y169229D01*
X-109337Y169139D01*
X-109402Y169046D01*
X-109464Y168951D01*
X-109522Y168854D01*
X-109577Y168755D01*
X-109628Y168654D01*
X-109676Y168551D01*
X-109721Y168447D01*
X-109761Y168341D01*
X-109798Y168234D01*
X-114536Y170456D02*
X-115739Y166752D01*
X-114535Y170455D02*
X-114502Y170550D01*
X-114465Y170644D01*
X-114425Y170736D01*
X-114381Y170827D01*
X-114334Y170916D01*
X-114283Y171003D01*
X-114229Y171088D01*
X-114172Y171171D01*
X-114112Y171251D01*
X-114048Y171329D01*
X-113982Y171405D01*
X-113912Y171478D01*
X-113840Y171548D01*
X-113765Y171616D01*
X-113688Y171680D01*
X-113608Y171741D01*
X-113526Y171800D01*
X-113442Y171855D01*
X-113355Y171906D01*
X-113267Y171955D01*
X-113177Y171999D01*
X-113085Y172041D01*
X-112992Y172078D01*
X-112897Y172112D01*
X-112801Y172143D01*
X-112704Y172169D01*
X-112606Y172192D01*
X-112507Y172211D01*
X-112407Y172226D01*
X-112307Y172238D01*
X-112207Y172245D01*
X-112106Y172249D01*
X-112006Y172248D01*
X-111905Y172244D01*
X-111805Y172236D01*
X-111705Y172224D01*
X-111605Y172208D01*
X-111507Y172188D01*
X-111409Y172164D01*
X-111312Y172137D01*
X-111216Y172106D01*
X-111122Y172071D01*
X-111029Y172033D01*
X-110937Y171991D01*
X-110847Y171945D01*
X-110759Y171896D01*
X-110673Y171844D01*
X-110589Y171788D01*
X-110508Y171729D01*
X-110428Y171667D01*
X-110352Y171602D01*
X-110277Y171534D01*
X-110206Y171464D01*
X-110137Y171390D01*
X-110071Y171314D01*
X-110008Y171235D01*
X-109948Y171154D01*
X-109892Y171071D01*
X-109838Y170986D01*
X-109788Y170898D01*
X-109742Y170809D01*
X-109699Y170718D01*
X-109659Y170625D01*
X-109623Y170531D01*
X-109591Y170436D01*
X-109562Y170339D01*
X-109538Y170242D01*
X-109517Y170143D01*
X-109500Y170044D01*
X-109486Y169944D01*
X-109477Y169844D01*
X-109472Y169744D01*
X-109470Y169643D01*
X-109472Y169542D01*
X-109479Y169442D01*
X-109489Y169342D01*
X-109503Y169242D01*
X-109521Y169143D01*
X-109542Y169045D01*
X-109568Y168947D01*
X-109597Y168851D01*
X-110399Y166382D01*
X104209Y167727D02*
X105212Y164640D01*
X105249Y164533D01*
X105289Y164427D01*
X105334Y164323D01*
X105382Y164220D01*
X105433Y164119D01*
X105488Y164020D01*
X105546Y163923D01*
X105608Y163828D01*
X105673Y163735D01*
X105741Y163645D01*
X105812Y163557D01*
X105887Y163471D01*
X105964Y163388D01*
X106044Y163308D01*
X106127Y163231D01*
X106213Y163156D01*
X106301Y163085D01*
X106391Y163017D01*
X106484Y162952D01*
X106579Y162890D01*
X106676Y162832D01*
X106775Y162777D01*
X106876Y162726D01*
X106979Y162678D01*
X107083Y162633D01*
X107189Y162593D01*
X107296Y162556D01*
X107404Y162523D01*
X107514Y162493D01*
X107624Y162468D01*
X107735Y162446D01*
X107847Y162429D01*
X107960Y162415D01*
X108073Y162405D01*
X108186Y162399D01*
X108299Y162397D01*
X108412Y162399D01*
X108525Y162405D01*
X108638Y162415D01*
X108751Y162429D01*
X108863Y162446D01*
X108974Y162468D01*
X109084Y162493D01*
X109194Y162523D01*
X109302Y162556D01*
X109409Y162593D01*
X109515Y162633D01*
X109619Y162678D01*
X109722Y162726D01*
X109823Y162777D01*
X109922Y162832D01*
X110019Y162890D01*
X110114Y162952D01*
X110207Y163017D01*
X110297Y163085D01*
X110385Y163156D01*
X110471Y163231D01*
X110554Y163308D01*
X110634Y163388D01*
X110711Y163471D01*
X110786Y163557D01*
X110857Y163645D01*
X110925Y163735D01*
X110990Y163828D01*
X111052Y163923D01*
X111110Y164020D01*
X111165Y164119D01*
X111216Y164220D01*
X111264Y164323D01*
X111309Y164427D01*
X111349Y164533D01*
X111386Y164640D01*
X111419Y164748D01*
X111449Y164858D01*
X111474Y164968D01*
X111496Y165079D01*
X111513Y165191D01*
X111527Y165304D01*
X111537Y165417D01*
X111543Y165530D01*
X111545Y165643D01*
X111543Y165756D01*
X111537Y165869D01*
X111527Y165982D01*
X111513Y166095D01*
X111496Y166207D01*
X111474Y166318D01*
X111449Y166428D01*
X111419Y166538D01*
X111386Y166646D01*
X116525Y167633D02*
X115321Y171337D01*
X116524Y167633D02*
X116553Y167537D01*
X116579Y167439D01*
X116600Y167341D01*
X116618Y167242D01*
X116632Y167142D01*
X116642Y167042D01*
X116649Y166942D01*
X116651Y166841D01*
X116649Y166740D01*
X116644Y166640D01*
X116635Y166540D01*
X116621Y166440D01*
X116604Y166341D01*
X116583Y166242D01*
X116559Y166145D01*
X116530Y166048D01*
X116498Y165953D01*
X116462Y165859D01*
X116422Y165766D01*
X116379Y165675D01*
X116333Y165586D01*
X116283Y165498D01*
X116229Y165413D01*
X116173Y165330D01*
X116113Y165249D01*
X116050Y165170D01*
X115984Y165094D01*
X115915Y165020D01*
X115844Y164950D01*
X115769Y164882D01*
X115693Y164817D01*
X115613Y164755D01*
X115532Y164696D01*
X115448Y164640D01*
X115362Y164588D01*
X115274Y164539D01*
X115184Y164493D01*
X115092Y164451D01*
X114999Y164413D01*
X114905Y164378D01*
X114809Y164347D01*
X114712Y164320D01*
X114614Y164296D01*
X114516Y164276D01*
X114416Y164260D01*
X114316Y164248D01*
X114216Y164240D01*
X114115Y164236D01*
X114015Y164235D01*
X113914Y164239D01*
X113814Y164246D01*
X113714Y164258D01*
X113614Y164273D01*
X113515Y164292D01*
X113417Y164315D01*
X113320Y164341D01*
X113224Y164372D01*
X113129Y164406D01*
X113036Y164443D01*
X112944Y164485D01*
X112854Y164529D01*
X112766Y164578D01*
X112679Y164629D01*
X112595Y164684D01*
X112513Y164743D01*
X112433Y164804D01*
X112356Y164868D01*
X112281Y164936D01*
X112209Y165006D01*
X112139Y165079D01*
X112073Y165155D01*
X112009Y165233D01*
X111949Y165313D01*
X111892Y165396D01*
X111838Y165481D01*
X111787Y165568D01*
X111740Y165657D01*
X111696Y165748D01*
X111656Y165840D01*
X111619Y165934D01*
X111586Y166029D01*
X110783Y168498D01*
X118652Y161084D02*
X108744Y153770D01*
X121060Y153676D01*
X111273Y145986D02*
X112276Y142899D01*
X112313Y142792D01*
X112353Y142686D01*
X112398Y142582D01*
X112446Y142479D01*
X112497Y142378D01*
X112552Y142279D01*
X112610Y142182D01*
X112672Y142087D01*
X112737Y141994D01*
X112805Y141904D01*
X112876Y141816D01*
X112951Y141730D01*
X113028Y141647D01*
X113108Y141567D01*
X113191Y141490D01*
X113277Y141415D01*
X113365Y141344D01*
X113455Y141276D01*
X113548Y141211D01*
X113643Y141149D01*
X113740Y141091D01*
X113839Y141036D01*
X113940Y140985D01*
X114043Y140937D01*
X114147Y140892D01*
X114253Y140852D01*
X114360Y140815D01*
X114468Y140782D01*
X114578Y140752D01*
X114688Y140727D01*
X114799Y140705D01*
X114911Y140688D01*
X115024Y140674D01*
X115137Y140664D01*
X115250Y140658D01*
X115363Y140656D01*
X115476Y140658D01*
X115589Y140664D01*
X115702Y140674D01*
X115815Y140688D01*
X115927Y140705D01*
X116038Y140727D01*
X116148Y140752D01*
X116258Y140782D01*
X116366Y140815D01*
X116473Y140852D01*
X116579Y140892D01*
X116683Y140937D01*
X116786Y140985D01*
X116887Y141036D01*
X116986Y141091D01*
X117083Y141149D01*
X117178Y141211D01*
X117271Y141276D01*
X117361Y141344D01*
X117449Y141415D01*
X117535Y141490D01*
X117618Y141567D01*
X117698Y141647D01*
X117775Y141730D01*
X117850Y141816D01*
X117921Y141904D01*
X117989Y141994D01*
X118054Y142087D01*
X118116Y142182D01*
X118174Y142279D01*
X118229Y142378D01*
X118280Y142479D01*
X118328Y142582D01*
X118373Y142686D01*
X118413Y142792D01*
X118450Y142899D01*
X118483Y143007D01*
X118513Y143117D01*
X118538Y143227D01*
X118560Y143338D01*
X118577Y143450D01*
X118591Y143563D01*
X118601Y143676D01*
X118607Y143789D01*
X118609Y143902D01*
X118607Y144015D01*
X118601Y144128D01*
X118591Y144241D01*
X118577Y144354D01*
X118560Y144466D01*
X118538Y144577D01*
X118513Y144687D01*
X118483Y144797D01*
X118450Y144905D01*
X123589Y145892D02*
X122385Y149596D01*
X123588Y145892D02*
X123617Y145796D01*
X123643Y145698D01*
X123664Y145600D01*
X123682Y145501D01*
X123696Y145401D01*
X123706Y145301D01*
X123713Y145201D01*
X123715Y145100D01*
X123713Y144999D01*
X123708Y144899D01*
X123699Y144799D01*
X123685Y144699D01*
X123668Y144600D01*
X123647Y144501D01*
X123623Y144404D01*
X123594Y144307D01*
X123562Y144212D01*
X123526Y144118D01*
X123486Y144025D01*
X123443Y143934D01*
X123397Y143845D01*
X123347Y143757D01*
X123293Y143672D01*
X123237Y143589D01*
X123177Y143508D01*
X123114Y143429D01*
X123048Y143353D01*
X122979Y143279D01*
X122908Y143209D01*
X122833Y143141D01*
X122757Y143076D01*
X122677Y143014D01*
X122596Y142955D01*
X122512Y142899D01*
X122426Y142847D01*
X122338Y142798D01*
X122248Y142752D01*
X122156Y142710D01*
X122063Y142672D01*
X121969Y142637D01*
X121873Y142606D01*
X121776Y142579D01*
X121678Y142555D01*
X121580Y142535D01*
X121480Y142519D01*
X121380Y142507D01*
X121280Y142499D01*
X121179Y142495D01*
X121079Y142494D01*
X120978Y142498D01*
X120878Y142505D01*
X120778Y142517D01*
X120678Y142532D01*
X120579Y142551D01*
X120481Y142574D01*
X120384Y142600D01*
X120288Y142631D01*
X120193Y142665D01*
X120100Y142702D01*
X120008Y142744D01*
X119918Y142788D01*
X119830Y142837D01*
X119743Y142888D01*
X119659Y142943D01*
X119577Y143002D01*
X119497Y143063D01*
X119420Y143127D01*
X119345Y143195D01*
X119273Y143265D01*
X119203Y143338D01*
X119137Y143414D01*
X119073Y143492D01*
X119013Y143572D01*
X118956Y143655D01*
X118902Y143740D01*
X118851Y143827D01*
X118804Y143916D01*
X118760Y144007D01*
X118720Y144099D01*
X118683Y144193D01*
X118650Y144288D01*
X117848Y146757D01*
X-11430Y232283D02*
X-14676Y232283D01*
X-11430Y232283D02*
X-11317Y232285D01*
X-11204Y232291D01*
X-11091Y232301D01*
X-10978Y232315D01*
X-10866Y232332D01*
X-10755Y232354D01*
X-10645Y232379D01*
X-10535Y232409D01*
X-10427Y232442D01*
X-10320Y232479D01*
X-10214Y232519D01*
X-10110Y232564D01*
X-10007Y232612D01*
X-9906Y232663D01*
X-9807Y232718D01*
X-9710Y232776D01*
X-9615Y232838D01*
X-9522Y232903D01*
X-9432Y232971D01*
X-9344Y233042D01*
X-9258Y233117D01*
X-9175Y233194D01*
X-9095Y233274D01*
X-9018Y233357D01*
X-8943Y233443D01*
X-8872Y233531D01*
X-8804Y233621D01*
X-8739Y233714D01*
X-8677Y233809D01*
X-8619Y233906D01*
X-8564Y234005D01*
X-8513Y234106D01*
X-8465Y234209D01*
X-8420Y234313D01*
X-8380Y234419D01*
X-8343Y234526D01*
X-8310Y234634D01*
X-8280Y234744D01*
X-8255Y234854D01*
X-8233Y234965D01*
X-8216Y235077D01*
X-8202Y235190D01*
X-8192Y235303D01*
X-8186Y235416D01*
X-8184Y235529D01*
X-8186Y235642D01*
X-8192Y235755D01*
X-8202Y235868D01*
X-8216Y235981D01*
X-8233Y236093D01*
X-8255Y236204D01*
X-8280Y236314D01*
X-8310Y236424D01*
X-8343Y236532D01*
X-8380Y236639D01*
X-8420Y236745D01*
X-8465Y236849D01*
X-8513Y236952D01*
X-8564Y237053D01*
X-8619Y237152D01*
X-8677Y237249D01*
X-8739Y237344D01*
X-8804Y237437D01*
X-8872Y237527D01*
X-8943Y237615D01*
X-9018Y237701D01*
X-9095Y237784D01*
X-9175Y237864D01*
X-9258Y237941D01*
X-9344Y238016D01*
X-9432Y238087D01*
X-9522Y238155D01*
X-9615Y238220D01*
X-9710Y238282D01*
X-9807Y238340D01*
X-9906Y238395D01*
X-10007Y238446D01*
X-10110Y238494D01*
X-10214Y238539D01*
X-10320Y238579D01*
X-10427Y238616D01*
X-10535Y238649D01*
X-10645Y238679D01*
X-10755Y238704D01*
X-10866Y238726D01*
X-10978Y238743D01*
X-11091Y238757D01*
X-11204Y238767D01*
X-11317Y238773D01*
X-11430Y238775D01*
X-10781Y243967D02*
X-14676Y243967D01*
X-10781Y243967D02*
X-10680Y243965D01*
X-10580Y243959D01*
X-10480Y243949D01*
X-10380Y243936D01*
X-10281Y243918D01*
X-10182Y243897D01*
X-10085Y243872D01*
X-9988Y243843D01*
X-9893Y243810D01*
X-9799Y243774D01*
X-9707Y243734D01*
X-9616Y243691D01*
X-9527Y243644D01*
X-9440Y243594D01*
X-9354Y243540D01*
X-9271Y243483D01*
X-9191Y243423D01*
X-9112Y243360D01*
X-9036Y243293D01*
X-8963Y243224D01*
X-8893Y243152D01*
X-8825Y243078D01*
X-8760Y243001D01*
X-8699Y242921D01*
X-8640Y242839D01*
X-8585Y242755D01*
X-8533Y242669D01*
X-8484Y242581D01*
X-8439Y242491D01*
X-8397Y242399D01*
X-8359Y242306D01*
X-8325Y242211D01*
X-8294Y242116D01*
X-8267Y242019D01*
X-8244Y241921D01*
X-8224Y241822D01*
X-8209Y241722D01*
X-8197Y241622D01*
X-8189Y241522D01*
X-8185Y241421D01*
X-8185Y241321D01*
X-8189Y241220D01*
X-8197Y241120D01*
X-8209Y241020D01*
X-8224Y240920D01*
X-8244Y240821D01*
X-8267Y240723D01*
X-8294Y240626D01*
X-8325Y240531D01*
X-8359Y240436D01*
X-8397Y240343D01*
X-8439Y240251D01*
X-8484Y240161D01*
X-8533Y240073D01*
X-8585Y239987D01*
X-8640Y239903D01*
X-8699Y239821D01*
X-8760Y239741D01*
X-8825Y239664D01*
X-8893Y239590D01*
X-8963Y239518D01*
X-9036Y239449D01*
X-9112Y239382D01*
X-9191Y239319D01*
X-9271Y239259D01*
X-9354Y239202D01*
X-9440Y239148D01*
X-9527Y239098D01*
X-9616Y239051D01*
X-9707Y239008D01*
X-9799Y238968D01*
X-9893Y238932D01*
X-9988Y238899D01*
X-10085Y238870D01*
X-10182Y238845D01*
X-10281Y238824D01*
X-10380Y238806D01*
X-10480Y238793D01*
X-10580Y238783D01*
X-10680Y238777D01*
X-10781Y238775D01*
X-10781Y238774D02*
X-13377Y238774D01*
X-3895Y243967D02*
X0Y232283D01*
X3895Y243967D01*
X8184Y232283D02*
X11430Y232283D01*
X11543Y232285D01*
X11656Y232291D01*
X11769Y232301D01*
X11882Y232315D01*
X11994Y232332D01*
X12105Y232354D01*
X12215Y232379D01*
X12325Y232409D01*
X12433Y232442D01*
X12540Y232479D01*
X12646Y232519D01*
X12750Y232564D01*
X12853Y232612D01*
X12954Y232663D01*
X13053Y232718D01*
X13150Y232776D01*
X13245Y232838D01*
X13338Y232903D01*
X13428Y232971D01*
X13516Y233042D01*
X13602Y233117D01*
X13685Y233194D01*
X13765Y233274D01*
X13842Y233357D01*
X13917Y233443D01*
X13988Y233531D01*
X14056Y233621D01*
X14121Y233714D01*
X14183Y233809D01*
X14241Y233906D01*
X14296Y234005D01*
X14347Y234106D01*
X14395Y234209D01*
X14440Y234313D01*
X14480Y234419D01*
X14517Y234526D01*
X14550Y234634D01*
X14580Y234744D01*
X14605Y234854D01*
X14627Y234965D01*
X14644Y235077D01*
X14658Y235190D01*
X14668Y235303D01*
X14674Y235416D01*
X14676Y235529D01*
X14674Y235642D01*
X14668Y235755D01*
X14658Y235868D01*
X14644Y235981D01*
X14627Y236093D01*
X14605Y236204D01*
X14580Y236314D01*
X14550Y236424D01*
X14517Y236532D01*
X14480Y236639D01*
X14440Y236745D01*
X14395Y236849D01*
X14347Y236952D01*
X14296Y237053D01*
X14241Y237152D01*
X14183Y237249D01*
X14121Y237344D01*
X14056Y237437D01*
X13988Y237527D01*
X13917Y237615D01*
X13842Y237701D01*
X13765Y237784D01*
X13685Y237864D01*
X13602Y237941D01*
X13516Y238016D01*
X13428Y238087D01*
X13338Y238155D01*
X13245Y238220D01*
X13150Y238282D01*
X13053Y238340D01*
X12954Y238395D01*
X12853Y238446D01*
X12750Y238494D01*
X12646Y238539D01*
X12540Y238579D01*
X12433Y238616D01*
X12325Y238649D01*
X12215Y238679D01*
X12105Y238704D01*
X11994Y238726D01*
X11882Y238743D01*
X11769Y238757D01*
X11656Y238767D01*
X11543Y238773D01*
X11430Y238775D01*
X12079Y243967D02*
X8184Y243967D01*
X12079Y243967D02*
X12180Y243965D01*
X12280Y243959D01*
X12380Y243949D01*
X12480Y243936D01*
X12579Y243918D01*
X12678Y243897D01*
X12775Y243872D01*
X12872Y243843D01*
X12967Y243810D01*
X13061Y243774D01*
X13153Y243734D01*
X13244Y243691D01*
X13333Y243644D01*
X13420Y243594D01*
X13506Y243540D01*
X13589Y243483D01*
X13669Y243423D01*
X13748Y243360D01*
X13824Y243293D01*
X13897Y243224D01*
X13967Y243152D01*
X14035Y243078D01*
X14100Y243001D01*
X14161Y242921D01*
X14220Y242839D01*
X14275Y242755D01*
X14327Y242669D01*
X14376Y242581D01*
X14421Y242491D01*
X14463Y242399D01*
X14501Y242306D01*
X14535Y242211D01*
X14566Y242116D01*
X14593Y242019D01*
X14616Y241921D01*
X14636Y241822D01*
X14651Y241722D01*
X14663Y241622D01*
X14671Y241522D01*
X14675Y241421D01*
X14675Y241321D01*
X14671Y241220D01*
X14663Y241120D01*
X14651Y241020D01*
X14636Y240920D01*
X14616Y240821D01*
X14593Y240723D01*
X14566Y240626D01*
X14535Y240531D01*
X14501Y240436D01*
X14463Y240343D01*
X14421Y240251D01*
X14376Y240161D01*
X14327Y240073D01*
X14275Y239987D01*
X14220Y239903D01*
X14161Y239821D01*
X14100Y239741D01*
X14035Y239664D01*
X13967Y239590D01*
X13897Y239518D01*
X13824Y239449D01*
X13748Y239382D01*
X13669Y239319D01*
X13589Y239259D01*
X13506Y239202D01*
X13420Y239148D01*
X13333Y239098D01*
X13244Y239051D01*
X13153Y239008D01*
X13061Y238968D01*
X12967Y238932D01*
X12872Y238899D01*
X12775Y238870D01*
X12678Y238845D01*
X12579Y238824D01*
X12480Y238806D01*
X12380Y238793D01*
X12280Y238783D01*
X12180Y238777D01*
X12079Y238775D01*
X12079Y238774D02*
X9483Y238774D01*
D11*
X29926Y208915D02*
X29926Y191135D01*
X29926Y208915D02*
X34865Y208915D01*
X35005Y208913D01*
X35144Y208907D01*
X35284Y208897D01*
X35423Y208883D01*
X35562Y208866D01*
X35700Y208844D01*
X35837Y208818D01*
X35974Y208789D01*
X36110Y208756D01*
X36244Y208719D01*
X36378Y208678D01*
X36510Y208633D01*
X36642Y208584D01*
X36771Y208532D01*
X36899Y208477D01*
X37026Y208417D01*
X37151Y208354D01*
X37274Y208288D01*
X37395Y208218D01*
X37514Y208145D01*
X37631Y208068D01*
X37745Y207988D01*
X37858Y207905D01*
X37968Y207819D01*
X38075Y207729D01*
X38180Y207637D01*
X38282Y207542D01*
X38382Y207444D01*
X38479Y207343D01*
X38573Y207239D01*
X38663Y207133D01*
X38751Y207024D01*
X38836Y206913D01*
X38917Y206799D01*
X38996Y206684D01*
X39071Y206566D01*
X39142Y206446D01*
X39210Y206323D01*
X39275Y206200D01*
X39336Y206074D01*
X39394Y205946D01*
X39448Y205818D01*
X39498Y205687D01*
X39545Y205555D01*
X39588Y205422D01*
X39627Y205288D01*
X39662Y205153D01*
X39693Y205017D01*
X39721Y204879D01*
X39744Y204742D01*
X39764Y204603D01*
X39780Y204464D01*
X39792Y204325D01*
X39800Y204186D01*
X39804Y204046D01*
X39804Y203906D01*
X39800Y203766D01*
X39792Y203627D01*
X39780Y203488D01*
X39764Y203349D01*
X39744Y203210D01*
X39721Y203073D01*
X39693Y202935D01*
X39662Y202799D01*
X39627Y202664D01*
X39588Y202530D01*
X39545Y202397D01*
X39498Y202265D01*
X39448Y202134D01*
X39394Y202006D01*
X39336Y201878D01*
X39275Y201752D01*
X39210Y201629D01*
X39142Y201507D01*
X39071Y201386D01*
X38996Y201268D01*
X38917Y201153D01*
X38836Y201039D01*
X38751Y200928D01*
X38663Y200819D01*
X38573Y200713D01*
X38479Y200609D01*
X38382Y200508D01*
X38282Y200410D01*
X38180Y200315D01*
X38075Y200223D01*
X37968Y200133D01*
X37858Y200047D01*
X37745Y199964D01*
X37631Y199884D01*
X37514Y199807D01*
X37395Y199734D01*
X37274Y199664D01*
X37151Y199598D01*
X37026Y199535D01*
X36899Y199475D01*
X36771Y199420D01*
X36642Y199368D01*
X36510Y199319D01*
X36378Y199274D01*
X36244Y199233D01*
X36110Y199196D01*
X35974Y199163D01*
X35837Y199134D01*
X35700Y199108D01*
X35562Y199086D01*
X35423Y199069D01*
X35284Y199055D01*
X35144Y199045D01*
X35005Y199039D01*
X34865Y199037D01*
X29926Y199037D01*
X45921Y204964D02*
X50860Y208915D01*
X50860Y191135D01*
X45921Y191135D02*
X55799Y191135D01*
X-11349Y35878D02*
X-11349Y18098D01*
X-11349Y35878D02*
X-6410Y35878D01*
X-6270Y35876D01*
X-6131Y35870D01*
X-5991Y35860D01*
X-5852Y35846D01*
X-5713Y35829D01*
X-5575Y35807D01*
X-5438Y35781D01*
X-5301Y35752D01*
X-5165Y35719D01*
X-5031Y35682D01*
X-4897Y35641D01*
X-4765Y35596D01*
X-4633Y35547D01*
X-4504Y35495D01*
X-4376Y35440D01*
X-4249Y35380D01*
X-4124Y35317D01*
X-4001Y35251D01*
X-3880Y35181D01*
X-3761Y35108D01*
X-3644Y35031D01*
X-3530Y34951D01*
X-3417Y34868D01*
X-3307Y34782D01*
X-3200Y34692D01*
X-3095Y34600D01*
X-2993Y34505D01*
X-2893Y34407D01*
X-2796Y34306D01*
X-2702Y34202D01*
X-2612Y34096D01*
X-2524Y33987D01*
X-2439Y33876D01*
X-2358Y33762D01*
X-2279Y33647D01*
X-2204Y33529D01*
X-2133Y33409D01*
X-2065Y33286D01*
X-2000Y33163D01*
X-1939Y33037D01*
X-1881Y32909D01*
X-1827Y32781D01*
X-1777Y32650D01*
X-1730Y32518D01*
X-1687Y32385D01*
X-1648Y32251D01*
X-1613Y32116D01*
X-1582Y31980D01*
X-1554Y31842D01*
X-1531Y31705D01*
X-1511Y31566D01*
X-1495Y31427D01*
X-1483Y31288D01*
X-1475Y31149D01*
X-1471Y31009D01*
X-1471Y30869D01*
X-1475Y30729D01*
X-1483Y30590D01*
X-1495Y30451D01*
X-1511Y30312D01*
X-1531Y30173D01*
X-1554Y30036D01*
X-1582Y29898D01*
X-1613Y29762D01*
X-1648Y29627D01*
X-1687Y29493D01*
X-1730Y29360D01*
X-1777Y29228D01*
X-1827Y29097D01*
X-1881Y28969D01*
X-1939Y28841D01*
X-2000Y28715D01*
X-2065Y28592D01*
X-2133Y28470D01*
X-2204Y28349D01*
X-2279Y28231D01*
X-2358Y28116D01*
X-2439Y28002D01*
X-2524Y27891D01*
X-2612Y27782D01*
X-2702Y27676D01*
X-2796Y27572D01*
X-2893Y27471D01*
X-2993Y27373D01*
X-3095Y27278D01*
X-3200Y27186D01*
X-3307Y27096D01*
X-3417Y27010D01*
X-3530Y26927D01*
X-3644Y26847D01*
X-3761Y26770D01*
X-3880Y26697D01*
X-4001Y26627D01*
X-4124Y26561D01*
X-4249Y26498D01*
X-4376Y26438D01*
X-4504Y26383D01*
X-4633Y26331D01*
X-4765Y26282D01*
X-4897Y26237D01*
X-5031Y26196D01*
X-5165Y26159D01*
X-5301Y26126D01*
X-5438Y26097D01*
X-5575Y26071D01*
X-5713Y26049D01*
X-5852Y26032D01*
X-5991Y26018D01*
X-6131Y26008D01*
X-6270Y26002D01*
X-6410Y26000D01*
X-11349Y26000D01*
X4646Y18098D02*
X9585Y18098D01*
X9585Y18097D02*
X9725Y18099D01*
X9864Y18105D01*
X10004Y18115D01*
X10143Y18129D01*
X10282Y18146D01*
X10420Y18168D01*
X10557Y18194D01*
X10694Y18223D01*
X10830Y18256D01*
X10964Y18293D01*
X11098Y18334D01*
X11230Y18379D01*
X11362Y18428D01*
X11491Y18480D01*
X11619Y18535D01*
X11746Y18595D01*
X11871Y18658D01*
X11994Y18724D01*
X12115Y18794D01*
X12234Y18867D01*
X12351Y18944D01*
X12465Y19024D01*
X12578Y19107D01*
X12688Y19193D01*
X12795Y19283D01*
X12900Y19375D01*
X13002Y19470D01*
X13102Y19568D01*
X13199Y19669D01*
X13293Y19773D01*
X13383Y19879D01*
X13471Y19988D01*
X13556Y20099D01*
X13637Y20213D01*
X13716Y20328D01*
X13791Y20446D01*
X13862Y20567D01*
X13930Y20689D01*
X13995Y20812D01*
X14056Y20938D01*
X14114Y21066D01*
X14168Y21194D01*
X14218Y21325D01*
X14265Y21457D01*
X14308Y21590D01*
X14347Y21724D01*
X14382Y21859D01*
X14413Y21995D01*
X14441Y22133D01*
X14464Y22270D01*
X14484Y22409D01*
X14500Y22548D01*
X14512Y22687D01*
X14520Y22826D01*
X14524Y22966D01*
X14524Y23106D01*
X14520Y23246D01*
X14512Y23385D01*
X14500Y23524D01*
X14484Y23663D01*
X14464Y23802D01*
X14441Y23939D01*
X14413Y24077D01*
X14382Y24213D01*
X14347Y24348D01*
X14308Y24482D01*
X14265Y24615D01*
X14218Y24747D01*
X14168Y24878D01*
X14114Y25006D01*
X14056Y25134D01*
X13995Y25260D01*
X13930Y25383D01*
X13862Y25506D01*
X13791Y25626D01*
X13716Y25744D01*
X13637Y25859D01*
X13556Y25973D01*
X13471Y26084D01*
X13383Y26193D01*
X13293Y26299D01*
X13199Y26403D01*
X13102Y26504D01*
X13002Y26602D01*
X12900Y26697D01*
X12795Y26789D01*
X12688Y26879D01*
X12578Y26965D01*
X12465Y27048D01*
X12351Y27128D01*
X12234Y27205D01*
X12115Y27278D01*
X11994Y27348D01*
X11871Y27414D01*
X11746Y27477D01*
X11619Y27537D01*
X11491Y27592D01*
X11362Y27644D01*
X11230Y27693D01*
X11098Y27738D01*
X10964Y27779D01*
X10830Y27816D01*
X10694Y27849D01*
X10557Y27878D01*
X10420Y27904D01*
X10282Y27926D01*
X10143Y27943D01*
X10004Y27957D01*
X9864Y27967D01*
X9725Y27973D01*
X9585Y27975D01*
X10573Y35878D02*
X4646Y35878D01*
X10573Y35877D02*
X10697Y35875D01*
X10821Y35869D01*
X10945Y35859D01*
X11068Y35846D01*
X11191Y35828D01*
X11313Y35807D01*
X11435Y35782D01*
X11556Y35753D01*
X11675Y35720D01*
X11794Y35684D01*
X11911Y35643D01*
X12027Y35600D01*
X12142Y35552D01*
X12255Y35501D01*
X12367Y35446D01*
X12476Y35388D01*
X12584Y35327D01*
X12690Y35262D01*
X12794Y35194D01*
X12895Y35122D01*
X12995Y35048D01*
X13091Y34970D01*
X13186Y34890D01*
X13278Y34806D01*
X13367Y34720D01*
X13453Y34631D01*
X13537Y34539D01*
X13617Y34444D01*
X13695Y34348D01*
X13769Y34248D01*
X13841Y34147D01*
X13909Y34043D01*
X13974Y33937D01*
X14035Y33829D01*
X14093Y33720D01*
X14148Y33608D01*
X14199Y33495D01*
X14247Y33380D01*
X14290Y33264D01*
X14331Y33147D01*
X14367Y33028D01*
X14400Y32909D01*
X14429Y32788D01*
X14454Y32666D01*
X14475Y32544D01*
X14493Y32421D01*
X14506Y32298D01*
X14516Y32174D01*
X14522Y32050D01*
X14524Y31926D01*
X14522Y31802D01*
X14516Y31678D01*
X14506Y31554D01*
X14493Y31431D01*
X14475Y31308D01*
X14454Y31186D01*
X14429Y31064D01*
X14400Y30943D01*
X14367Y30824D01*
X14331Y30705D01*
X14290Y30588D01*
X14247Y30472D01*
X14199Y30357D01*
X14148Y30244D01*
X14093Y30132D01*
X14035Y30023D01*
X13974Y29915D01*
X13909Y29809D01*
X13841Y29705D01*
X13769Y29604D01*
X13695Y29504D01*
X13617Y29408D01*
X13537Y29313D01*
X13453Y29221D01*
X13367Y29132D01*
X13278Y29046D01*
X13186Y28962D01*
X13091Y28882D01*
X12995Y28804D01*
X12895Y28730D01*
X12794Y28658D01*
X12690Y28590D01*
X12584Y28525D01*
X12476Y28464D01*
X12367Y28406D01*
X12255Y28351D01*
X12142Y28300D01*
X12027Y28252D01*
X11911Y28209D01*
X11794Y28168D01*
X11675Y28132D01*
X11556Y28099D01*
X11435Y28070D01*
X11313Y28045D01*
X11191Y28024D01*
X11068Y28006D01*
X10945Y27993D01*
X10821Y27983D01*
X10697Y27977D01*
X10573Y27975D01*
X6622Y27975D01*
X-75460Y92481D02*
X-93240Y92481D01*
X-75460Y92481D02*
X-75460Y87543D01*
X-75462Y87403D01*
X-75468Y87264D01*
X-75478Y87124D01*
X-75492Y86985D01*
X-75509Y86846D01*
X-75531Y86708D01*
X-75557Y86571D01*
X-75586Y86434D01*
X-75619Y86298D01*
X-75656Y86164D01*
X-75697Y86030D01*
X-75742Y85898D01*
X-75791Y85766D01*
X-75843Y85637D01*
X-75898Y85509D01*
X-75958Y85382D01*
X-76021Y85257D01*
X-76087Y85134D01*
X-76157Y85013D01*
X-76230Y84894D01*
X-76307Y84777D01*
X-76387Y84663D01*
X-76470Y84550D01*
X-76556Y84440D01*
X-76646Y84333D01*
X-76738Y84228D01*
X-76833Y84126D01*
X-76931Y84026D01*
X-77032Y83929D01*
X-77136Y83835D01*
X-77242Y83745D01*
X-77351Y83657D01*
X-77462Y83572D01*
X-77576Y83491D01*
X-77691Y83412D01*
X-77809Y83337D01*
X-77929Y83266D01*
X-78052Y83198D01*
X-78175Y83133D01*
X-78301Y83072D01*
X-78429Y83014D01*
X-78557Y82960D01*
X-78688Y82910D01*
X-78820Y82863D01*
X-78953Y82820D01*
X-79087Y82781D01*
X-79222Y82746D01*
X-79358Y82715D01*
X-79496Y82687D01*
X-79633Y82664D01*
X-79772Y82644D01*
X-79911Y82628D01*
X-80050Y82616D01*
X-80189Y82608D01*
X-80329Y82604D01*
X-80469Y82604D01*
X-80609Y82608D01*
X-80748Y82616D01*
X-80887Y82628D01*
X-81026Y82644D01*
X-81165Y82664D01*
X-81302Y82687D01*
X-81440Y82715D01*
X-81576Y82746D01*
X-81711Y82781D01*
X-81845Y82820D01*
X-81978Y82863D01*
X-82110Y82910D01*
X-82241Y82960D01*
X-82369Y83014D01*
X-82497Y83072D01*
X-82623Y83133D01*
X-82746Y83198D01*
X-82868Y83266D01*
X-82989Y83337D01*
X-83107Y83412D01*
X-83222Y83491D01*
X-83336Y83572D01*
X-83447Y83657D01*
X-83556Y83745D01*
X-83662Y83835D01*
X-83766Y83929D01*
X-83867Y84026D01*
X-83965Y84126D01*
X-84060Y84228D01*
X-84152Y84333D01*
X-84242Y84440D01*
X-84328Y84550D01*
X-84411Y84663D01*
X-84491Y84777D01*
X-84568Y84894D01*
X-84641Y85013D01*
X-84711Y85134D01*
X-84777Y85257D01*
X-84840Y85382D01*
X-84900Y85509D01*
X-84955Y85637D01*
X-85007Y85766D01*
X-85056Y85898D01*
X-85101Y86030D01*
X-85142Y86164D01*
X-85179Y86298D01*
X-85212Y86434D01*
X-85241Y86571D01*
X-85267Y86708D01*
X-85289Y86846D01*
X-85306Y86985D01*
X-85320Y87124D01*
X-85330Y87264D01*
X-85336Y87403D01*
X-85338Y87543D01*
X-85338Y92481D01*
X-89289Y76486D02*
X-75460Y72535D01*
X-89289Y76486D02*
X-89289Y66609D01*
X-85338Y69572D02*
X-93240Y69572D01*
X-86326Y54239D02*
X-80399Y54239D01*
X-86326Y54239D02*
X-90771Y50782D01*
X-86326Y54239D02*
X-90771Y57696D01*
X-86326Y54239D02*
X-84350Y48806D01*
X-86326Y54239D02*
X-84350Y59672D01*
X-52624Y191135D02*
X-52624Y208915D01*
X-47685Y208915D01*
X-47545Y208913D01*
X-47406Y208907D01*
X-47266Y208897D01*
X-47127Y208883D01*
X-46988Y208866D01*
X-46850Y208844D01*
X-46713Y208818D01*
X-46576Y208789D01*
X-46440Y208756D01*
X-46306Y208719D01*
X-46172Y208678D01*
X-46040Y208633D01*
X-45908Y208584D01*
X-45779Y208532D01*
X-45651Y208477D01*
X-45524Y208417D01*
X-45399Y208354D01*
X-45276Y208288D01*
X-45155Y208218D01*
X-45036Y208145D01*
X-44919Y208068D01*
X-44805Y207988D01*
X-44692Y207905D01*
X-44582Y207819D01*
X-44475Y207729D01*
X-44370Y207637D01*
X-44268Y207542D01*
X-44168Y207444D01*
X-44071Y207343D01*
X-43977Y207239D01*
X-43887Y207133D01*
X-43799Y207024D01*
X-43714Y206913D01*
X-43633Y206799D01*
X-43554Y206684D01*
X-43479Y206566D01*
X-43408Y206446D01*
X-43340Y206323D01*
X-43275Y206200D01*
X-43214Y206074D01*
X-43156Y205946D01*
X-43102Y205818D01*
X-43052Y205687D01*
X-43005Y205555D01*
X-42962Y205422D01*
X-42923Y205288D01*
X-42888Y205153D01*
X-42857Y205017D01*
X-42829Y204879D01*
X-42806Y204742D01*
X-42786Y204603D01*
X-42770Y204464D01*
X-42758Y204325D01*
X-42750Y204186D01*
X-42746Y204046D01*
X-42746Y203906D01*
X-42750Y203766D01*
X-42758Y203627D01*
X-42770Y203488D01*
X-42786Y203349D01*
X-42806Y203210D01*
X-42829Y203073D01*
X-42857Y202935D01*
X-42888Y202799D01*
X-42923Y202664D01*
X-42962Y202530D01*
X-43005Y202397D01*
X-43052Y202265D01*
X-43102Y202134D01*
X-43156Y202006D01*
X-43214Y201878D01*
X-43275Y201752D01*
X-43340Y201629D01*
X-43408Y201507D01*
X-43479Y201386D01*
X-43554Y201268D01*
X-43633Y201153D01*
X-43714Y201039D01*
X-43799Y200928D01*
X-43887Y200819D01*
X-43977Y200713D01*
X-44071Y200609D01*
X-44168Y200508D01*
X-44268Y200410D01*
X-44370Y200315D01*
X-44475Y200223D01*
X-44582Y200133D01*
X-44692Y200047D01*
X-44805Y199964D01*
X-44919Y199884D01*
X-45036Y199807D01*
X-45155Y199734D01*
X-45276Y199664D01*
X-45399Y199598D01*
X-45524Y199535D01*
X-45651Y199475D01*
X-45779Y199420D01*
X-45908Y199368D01*
X-46040Y199319D01*
X-46172Y199274D01*
X-46306Y199233D01*
X-46440Y199196D01*
X-46576Y199163D01*
X-46713Y199134D01*
X-46850Y199108D01*
X-46988Y199086D01*
X-47127Y199069D01*
X-47266Y199055D01*
X-47406Y199045D01*
X-47545Y199039D01*
X-47685Y199037D01*
X-52624Y199037D01*
X-36629Y191135D02*
X-30702Y191135D01*
X-30578Y191137D01*
X-30454Y191143D01*
X-30330Y191153D01*
X-30207Y191166D01*
X-30084Y191184D01*
X-29962Y191205D01*
X-29840Y191230D01*
X-29719Y191259D01*
X-29600Y191292D01*
X-29481Y191328D01*
X-29364Y191369D01*
X-29248Y191412D01*
X-29133Y191460D01*
X-29020Y191511D01*
X-28908Y191566D01*
X-28799Y191624D01*
X-28691Y191685D01*
X-28585Y191750D01*
X-28481Y191818D01*
X-28380Y191890D01*
X-28280Y191964D01*
X-28184Y192042D01*
X-28089Y192122D01*
X-27997Y192206D01*
X-27908Y192292D01*
X-27822Y192381D01*
X-27738Y192473D01*
X-27658Y192568D01*
X-27580Y192664D01*
X-27506Y192764D01*
X-27434Y192865D01*
X-27366Y192969D01*
X-27301Y193075D01*
X-27240Y193183D01*
X-27182Y193292D01*
X-27127Y193404D01*
X-27076Y193517D01*
X-27028Y193632D01*
X-26985Y193748D01*
X-26944Y193865D01*
X-26908Y193984D01*
X-26875Y194103D01*
X-26846Y194224D01*
X-26821Y194346D01*
X-26800Y194468D01*
X-26782Y194591D01*
X-26769Y194714D01*
X-26759Y194838D01*
X-26753Y194962D01*
X-26751Y195086D01*
X-26751Y197062D01*
X-26753Y197186D01*
X-26759Y197310D01*
X-26769Y197434D01*
X-26782Y197557D01*
X-26800Y197680D01*
X-26821Y197802D01*
X-26846Y197924D01*
X-26875Y198045D01*
X-26908Y198164D01*
X-26944Y198283D01*
X-26985Y198400D01*
X-27028Y198516D01*
X-27076Y198631D01*
X-27127Y198744D01*
X-27182Y198856D01*
X-27240Y198965D01*
X-27301Y199073D01*
X-27366Y199179D01*
X-27434Y199283D01*
X-27506Y199384D01*
X-27580Y199484D01*
X-27658Y199580D01*
X-27738Y199675D01*
X-27822Y199767D01*
X-27908Y199856D01*
X-27997Y199942D01*
X-28089Y200026D01*
X-28184Y200106D01*
X-28280Y200184D01*
X-28380Y200258D01*
X-28481Y200330D01*
X-28585Y200398D01*
X-28691Y200463D01*
X-28799Y200524D01*
X-28908Y200582D01*
X-29020Y200637D01*
X-29133Y200688D01*
X-29248Y200736D01*
X-29364Y200779D01*
X-29481Y200820D01*
X-29600Y200856D01*
X-29719Y200889D01*
X-29840Y200918D01*
X-29962Y200943D01*
X-30084Y200964D01*
X-30207Y200982D01*
X-30330Y200995D01*
X-30454Y201005D01*
X-30578Y201011D01*
X-30702Y201013D01*
X-36629Y201013D01*
X-36629Y208915D01*
X-26751Y208915D01*
X60798Y153226D02*
X60798Y135446D01*
X60798Y153226D02*
X65737Y153226D01*
X65877Y153224D01*
X66016Y153218D01*
X66156Y153208D01*
X66295Y153194D01*
X66434Y153177D01*
X66572Y153155D01*
X66709Y153129D01*
X66846Y153100D01*
X66982Y153067D01*
X67116Y153030D01*
X67250Y152989D01*
X67382Y152944D01*
X67514Y152895D01*
X67643Y152843D01*
X67771Y152788D01*
X67898Y152728D01*
X68023Y152665D01*
X68146Y152599D01*
X68267Y152529D01*
X68386Y152456D01*
X68503Y152379D01*
X68617Y152299D01*
X68730Y152216D01*
X68840Y152130D01*
X68947Y152040D01*
X69052Y151948D01*
X69154Y151853D01*
X69254Y151755D01*
X69351Y151654D01*
X69445Y151550D01*
X69535Y151444D01*
X69623Y151335D01*
X69708Y151224D01*
X69789Y151110D01*
X69868Y150995D01*
X69943Y150877D01*
X70014Y150757D01*
X70082Y150634D01*
X70147Y150511D01*
X70208Y150385D01*
X70266Y150257D01*
X70320Y150129D01*
X70370Y149998D01*
X70417Y149866D01*
X70460Y149733D01*
X70499Y149599D01*
X70534Y149464D01*
X70565Y149328D01*
X70593Y149190D01*
X70616Y149053D01*
X70636Y148914D01*
X70652Y148775D01*
X70664Y148636D01*
X70672Y148497D01*
X70676Y148357D01*
X70676Y148217D01*
X70672Y148077D01*
X70664Y147938D01*
X70652Y147799D01*
X70636Y147660D01*
X70616Y147521D01*
X70593Y147384D01*
X70565Y147246D01*
X70534Y147110D01*
X70499Y146975D01*
X70460Y146841D01*
X70417Y146708D01*
X70370Y146576D01*
X70320Y146445D01*
X70266Y146317D01*
X70208Y146189D01*
X70147Y146063D01*
X70082Y145940D01*
X70014Y145818D01*
X69943Y145697D01*
X69868Y145579D01*
X69789Y145464D01*
X69708Y145350D01*
X69623Y145239D01*
X69535Y145130D01*
X69445Y145024D01*
X69351Y144920D01*
X69254Y144819D01*
X69154Y144721D01*
X69052Y144626D01*
X68947Y144534D01*
X68840Y144444D01*
X68730Y144358D01*
X68617Y144275D01*
X68503Y144195D01*
X68386Y144118D01*
X68267Y144045D01*
X68146Y143975D01*
X68023Y143909D01*
X67898Y143846D01*
X67771Y143786D01*
X67643Y143731D01*
X67514Y143679D01*
X67382Y143630D01*
X67250Y143585D01*
X67116Y143544D01*
X66982Y143507D01*
X66846Y143474D01*
X66709Y143445D01*
X66572Y143419D01*
X66434Y143397D01*
X66295Y143380D01*
X66156Y143366D01*
X66016Y143356D01*
X65877Y143350D01*
X65737Y143348D01*
X60798Y143348D01*
X66724Y143348D02*
X70676Y135446D01*
X-59387Y164627D02*
X-64326Y164627D01*
X-59387Y164627D02*
X-59247Y164625D01*
X-59108Y164619D01*
X-58968Y164609D01*
X-58829Y164595D01*
X-58690Y164578D01*
X-58552Y164556D01*
X-58415Y164530D01*
X-58278Y164501D01*
X-58142Y164468D01*
X-58008Y164431D01*
X-57874Y164390D01*
X-57742Y164345D01*
X-57610Y164296D01*
X-57481Y164244D01*
X-57353Y164189D01*
X-57226Y164129D01*
X-57101Y164066D01*
X-56978Y164000D01*
X-56857Y163930D01*
X-56738Y163857D01*
X-56621Y163780D01*
X-56507Y163700D01*
X-56394Y163617D01*
X-56284Y163531D01*
X-56177Y163441D01*
X-56072Y163349D01*
X-55970Y163254D01*
X-55870Y163156D01*
X-55773Y163055D01*
X-55679Y162951D01*
X-55589Y162845D01*
X-55501Y162736D01*
X-55416Y162625D01*
X-55335Y162511D01*
X-55256Y162396D01*
X-55181Y162278D01*
X-55110Y162158D01*
X-55042Y162035D01*
X-54977Y161912D01*
X-54916Y161786D01*
X-54858Y161658D01*
X-54804Y161530D01*
X-54754Y161399D01*
X-54707Y161267D01*
X-54664Y161134D01*
X-54625Y161000D01*
X-54590Y160865D01*
X-54559Y160729D01*
X-54531Y160591D01*
X-54508Y160454D01*
X-54488Y160315D01*
X-54472Y160176D01*
X-54460Y160037D01*
X-54452Y159898D01*
X-54448Y159758D01*
X-54448Y159618D01*
X-54452Y159478D01*
X-54460Y159339D01*
X-54472Y159200D01*
X-54488Y159061D01*
X-54508Y158922D01*
X-54531Y158785D01*
X-54559Y158647D01*
X-54590Y158511D01*
X-54625Y158376D01*
X-54664Y158242D01*
X-54707Y158109D01*
X-54754Y157977D01*
X-54804Y157846D01*
X-54858Y157718D01*
X-54916Y157590D01*
X-54977Y157464D01*
X-55042Y157341D01*
X-55110Y157219D01*
X-55181Y157098D01*
X-55256Y156980D01*
X-55335Y156865D01*
X-55416Y156751D01*
X-55501Y156640D01*
X-55589Y156531D01*
X-55679Y156425D01*
X-55773Y156321D01*
X-55870Y156220D01*
X-55970Y156122D01*
X-56072Y156027D01*
X-56177Y155935D01*
X-56284Y155845D01*
X-56394Y155759D01*
X-56507Y155676D01*
X-56621Y155596D01*
X-56738Y155519D01*
X-56857Y155446D01*
X-56978Y155376D01*
X-57101Y155310D01*
X-57226Y155247D01*
X-57353Y155187D01*
X-57481Y155132D01*
X-57610Y155080D01*
X-57742Y155031D01*
X-57874Y154986D01*
X-58008Y154945D01*
X-58142Y154908D01*
X-58278Y154875D01*
X-58415Y154846D01*
X-58552Y154820D01*
X-58690Y154798D01*
X-58829Y154781D01*
X-58968Y154767D01*
X-59108Y154757D01*
X-59247Y154751D01*
X-59387Y154749D01*
X-59387Y154750D02*
X-64326Y154750D01*
X-64326Y172530D01*
X-59387Y172530D01*
X-59387Y172529D02*
X-59263Y172527D01*
X-59139Y172521D01*
X-59015Y172511D01*
X-58892Y172498D01*
X-58769Y172480D01*
X-58647Y172459D01*
X-58525Y172434D01*
X-58404Y172405D01*
X-58285Y172372D01*
X-58166Y172336D01*
X-58049Y172295D01*
X-57933Y172252D01*
X-57818Y172204D01*
X-57705Y172153D01*
X-57593Y172098D01*
X-57484Y172040D01*
X-57376Y171979D01*
X-57270Y171914D01*
X-57166Y171846D01*
X-57065Y171774D01*
X-56965Y171700D01*
X-56869Y171622D01*
X-56774Y171542D01*
X-56682Y171458D01*
X-56593Y171372D01*
X-56507Y171283D01*
X-56423Y171191D01*
X-56343Y171096D01*
X-56265Y171000D01*
X-56191Y170900D01*
X-56119Y170799D01*
X-56051Y170695D01*
X-55986Y170589D01*
X-55925Y170481D01*
X-55867Y170372D01*
X-55812Y170260D01*
X-55761Y170147D01*
X-55713Y170032D01*
X-55670Y169916D01*
X-55629Y169799D01*
X-55593Y169680D01*
X-55560Y169561D01*
X-55531Y169440D01*
X-55506Y169318D01*
X-55485Y169196D01*
X-55467Y169073D01*
X-55454Y168950D01*
X-55444Y168826D01*
X-55438Y168702D01*
X-55436Y168578D01*
X-55438Y168454D01*
X-55444Y168330D01*
X-55454Y168206D01*
X-55467Y168083D01*
X-55485Y167960D01*
X-55506Y167838D01*
X-55531Y167716D01*
X-55560Y167595D01*
X-55593Y167476D01*
X-55629Y167357D01*
X-55670Y167240D01*
X-55713Y167124D01*
X-55761Y167009D01*
X-55812Y166896D01*
X-55867Y166784D01*
X-55925Y166675D01*
X-55986Y166567D01*
X-56051Y166461D01*
X-56119Y166357D01*
X-56191Y166256D01*
X-56265Y166156D01*
X-56343Y166060D01*
X-56423Y165965D01*
X-56507Y165873D01*
X-56593Y165784D01*
X-56682Y165698D01*
X-56774Y165614D01*
X-56869Y165534D01*
X-56965Y165456D01*
X-57065Y165382D01*
X-57166Y165310D01*
X-57270Y165242D01*
X-57376Y165177D01*
X-57484Y165116D01*
X-57593Y165058D01*
X-57705Y165003D01*
X-57818Y164952D01*
X-57933Y164904D01*
X-58049Y164861D01*
X-58166Y164820D01*
X-58285Y164784D01*
X-58404Y164751D01*
X-58525Y164722D01*
X-58647Y164697D01*
X-58769Y164676D01*
X-58892Y164658D01*
X-59015Y164645D01*
X-59139Y164635D01*
X-59263Y164629D01*
X-59387Y164627D01*
X-64326Y120142D02*
X-64326Y102362D01*
X-64326Y120142D02*
X-59387Y120142D01*
X-59248Y120140D01*
X-59110Y120134D01*
X-58972Y120125D01*
X-58834Y120111D01*
X-58697Y120094D01*
X-58560Y120072D01*
X-58423Y120047D01*
X-58288Y120018D01*
X-58153Y119985D01*
X-58020Y119949D01*
X-57887Y119909D01*
X-57756Y119865D01*
X-57626Y119817D01*
X-57497Y119766D01*
X-57370Y119711D01*
X-57244Y119653D01*
X-57120Y119591D01*
X-56998Y119526D01*
X-56878Y119457D01*
X-56759Y119385D01*
X-56643Y119310D01*
X-56529Y119231D01*
X-56417Y119149D01*
X-56308Y119064D01*
X-56200Y118977D01*
X-56096Y118886D01*
X-55994Y118792D01*
X-55895Y118695D01*
X-55798Y118596D01*
X-55704Y118494D01*
X-55613Y118390D01*
X-55526Y118282D01*
X-55441Y118173D01*
X-55359Y118061D01*
X-55280Y117947D01*
X-55205Y117831D01*
X-55133Y117712D01*
X-55064Y117592D01*
X-54999Y117470D01*
X-54937Y117346D01*
X-54879Y117220D01*
X-54824Y117093D01*
X-54773Y116964D01*
X-54725Y116834D01*
X-54681Y116703D01*
X-54641Y116570D01*
X-54605Y116437D01*
X-54572Y116302D01*
X-54543Y116167D01*
X-54518Y116030D01*
X-54496Y115893D01*
X-54479Y115756D01*
X-54465Y115618D01*
X-54456Y115480D01*
X-54450Y115342D01*
X-54448Y115203D01*
X-54448Y107301D01*
X-54450Y107162D01*
X-54456Y107024D01*
X-54465Y106886D01*
X-54479Y106748D01*
X-54496Y106611D01*
X-54518Y106474D01*
X-54543Y106337D01*
X-54572Y106202D01*
X-54605Y106067D01*
X-54641Y105934D01*
X-54681Y105801D01*
X-54725Y105670D01*
X-54773Y105540D01*
X-54824Y105411D01*
X-54879Y105284D01*
X-54937Y105158D01*
X-54999Y105034D01*
X-55064Y104912D01*
X-55133Y104792D01*
X-55205Y104673D01*
X-55280Y104557D01*
X-55359Y104443D01*
X-55441Y104331D01*
X-55526Y104222D01*
X-55613Y104114D01*
X-55704Y104010D01*
X-55798Y103908D01*
X-55895Y103809D01*
X-55994Y103712D01*
X-56096Y103618D01*
X-56200Y103527D01*
X-56308Y103440D01*
X-56417Y103355D01*
X-56529Y103273D01*
X-56643Y103194D01*
X-56759Y103119D01*
X-56878Y103047D01*
X-56998Y102978D01*
X-57120Y102913D01*
X-57244Y102851D01*
X-57370Y102793D01*
X-57497Y102738D01*
X-57626Y102687D01*
X-57756Y102639D01*
X-57887Y102595D01*
X-58020Y102555D01*
X-58153Y102519D01*
X-58288Y102486D01*
X-58423Y102457D01*
X-58560Y102432D01*
X-58697Y102410D01*
X-58834Y102393D01*
X-58972Y102379D01*
X-59110Y102370D01*
X-59248Y102364D01*
X-59387Y102362D01*
X-64326Y102362D01*
X-60374Y129350D02*
X-56423Y129350D01*
X-60374Y129350D02*
X-60498Y129352D01*
X-60622Y129358D01*
X-60746Y129368D01*
X-60869Y129381D01*
X-60992Y129399D01*
X-61114Y129420D01*
X-61236Y129445D01*
X-61357Y129474D01*
X-61476Y129507D01*
X-61595Y129543D01*
X-61712Y129584D01*
X-61828Y129627D01*
X-61943Y129675D01*
X-62056Y129726D01*
X-62168Y129781D01*
X-62277Y129839D01*
X-62385Y129900D01*
X-62491Y129965D01*
X-62595Y130033D01*
X-62696Y130105D01*
X-62796Y130179D01*
X-62892Y130257D01*
X-62987Y130337D01*
X-63079Y130421D01*
X-63168Y130507D01*
X-63254Y130596D01*
X-63338Y130688D01*
X-63418Y130783D01*
X-63496Y130879D01*
X-63570Y130979D01*
X-63642Y131080D01*
X-63710Y131184D01*
X-63775Y131290D01*
X-63836Y131398D01*
X-63894Y131507D01*
X-63949Y131619D01*
X-64000Y131732D01*
X-64048Y131847D01*
X-64091Y131963D01*
X-64132Y132080D01*
X-64168Y132199D01*
X-64201Y132318D01*
X-64230Y132439D01*
X-64255Y132561D01*
X-64276Y132683D01*
X-64294Y132806D01*
X-64307Y132929D01*
X-64317Y133053D01*
X-64323Y133177D01*
X-64325Y133301D01*
X-64326Y133301D02*
X-64326Y143178D01*
X-64325Y143178D02*
X-64323Y143302D01*
X-64317Y143426D01*
X-64307Y143550D01*
X-64294Y143673D01*
X-64276Y143796D01*
X-64255Y143918D01*
X-64230Y144040D01*
X-64201Y144161D01*
X-64168Y144280D01*
X-64132Y144399D01*
X-64091Y144516D01*
X-64048Y144632D01*
X-64000Y144747D01*
X-63949Y144860D01*
X-63894Y144972D01*
X-63836Y145081D01*
X-63775Y145189D01*
X-63710Y145295D01*
X-63642Y145399D01*
X-63570Y145500D01*
X-63496Y145600D01*
X-63418Y145696D01*
X-63338Y145791D01*
X-63254Y145883D01*
X-63168Y145972D01*
X-63079Y146058D01*
X-62987Y146142D01*
X-62892Y146222D01*
X-62796Y146300D01*
X-62696Y146374D01*
X-62595Y146446D01*
X-62491Y146514D01*
X-62385Y146579D01*
X-62277Y146640D01*
X-62168Y146698D01*
X-62056Y146753D01*
X-61943Y146804D01*
X-61829Y146852D01*
X-61712Y146895D01*
X-61595Y146936D01*
X-61476Y146972D01*
X-61357Y147005D01*
X-61236Y147034D01*
X-61114Y147059D01*
X-60992Y147080D01*
X-60869Y147098D01*
X-60746Y147111D01*
X-60622Y147121D01*
X-60498Y147127D01*
X-60374Y147129D01*
X-60374Y147130D02*
X-56423Y147130D01*
X79165Y98523D02*
X92786Y87094D01*
X79165Y98523D02*
X82340Y102307D01*
X82431Y102413D01*
X82525Y102516D01*
X82622Y102616D01*
X82722Y102714D01*
X82825Y102809D01*
X82930Y102900D01*
X83038Y102989D01*
X83149Y103075D01*
X83262Y103158D01*
X83377Y103237D01*
X83494Y103313D01*
X83613Y103386D01*
X83735Y103455D01*
X83858Y103521D01*
X83983Y103583D01*
X84110Y103642D01*
X84238Y103697D01*
X84368Y103749D01*
X84500Y103797D01*
X84632Y103841D01*
X84766Y103881D01*
X84901Y103917D01*
X85037Y103950D01*
X85174Y103979D01*
X85311Y104004D01*
X85449Y104025D01*
X85588Y104042D01*
X85727Y104055D01*
X85867Y104064D01*
X86007Y104070D01*
X86146Y104071D01*
X86286Y104068D01*
X86426Y104062D01*
X86565Y104051D01*
X86704Y104037D01*
X86843Y104018D01*
X86981Y103996D01*
X87118Y103970D01*
X87254Y103940D01*
X87390Y103906D01*
X87525Y103868D01*
X87658Y103826D01*
X87790Y103781D01*
X87921Y103732D01*
X88051Y103679D01*
X88179Y103623D01*
X88305Y103563D01*
X88429Y103499D01*
X88552Y103432D01*
X88673Y103362D01*
X88791Y103288D01*
X88908Y103211D01*
X89022Y103130D01*
X89134Y103047D01*
X89244Y102960D01*
X89351Y102870D01*
X89455Y102777D01*
X89557Y102682D01*
X89656Y102583D01*
X89753Y102482D01*
X89846Y102378D01*
X89936Y102271D01*
X90024Y102162D01*
X90108Y102050D01*
X90189Y101936D01*
X90266Y101820D01*
X90341Y101702D01*
X90412Y101581D01*
X90479Y101459D01*
X90544Y101335D01*
X90604Y101209D01*
X90661Y101081D01*
X90714Y100952D01*
X90764Y100821D01*
X90810Y100689D01*
X90852Y100556D01*
X90891Y100422D01*
X90925Y100286D01*
X90956Y100150D01*
X90983Y100013D01*
X91006Y99875D01*
X91025Y99736D01*
X91040Y99597D01*
X91051Y99458D01*
X91058Y99318D01*
X91062Y99179D01*
X91061Y99039D01*
X91057Y98899D01*
X91048Y98760D01*
X91035Y98620D01*
X91019Y98482D01*
X90999Y98343D01*
X90974Y98206D01*
X90946Y98069D01*
X90914Y97933D01*
X90878Y97798D01*
X90839Y97663D01*
X90795Y97531D01*
X90748Y97399D01*
X90697Y97269D01*
X90643Y97140D01*
X90584Y97013D01*
X90523Y96888D01*
X90457Y96764D01*
X90389Y96642D01*
X90316Y96523D01*
X90241Y96405D01*
X90162Y96290D01*
X90080Y96176D01*
X89995Y96066D01*
X89906Y95957D01*
X89907Y95957D02*
X86732Y92174D01*
X92939Y114937D02*
X93025Y115037D01*
X93114Y115134D01*
X93206Y115228D01*
X93301Y115320D01*
X93398Y115409D01*
X93498Y115494D01*
X93601Y115577D01*
X93705Y115657D01*
X93813Y115734D01*
X93922Y115807D01*
X94033Y115877D01*
X94147Y115944D01*
X94262Y116007D01*
X94380Y116067D01*
X94499Y116124D01*
X94619Y116177D01*
X94742Y116226D01*
X94865Y116272D01*
X94990Y116314D01*
X95116Y116352D01*
X95243Y116387D01*
X95371Y116417D01*
X95500Y116444D01*
X95630Y116467D01*
X95760Y116486D01*
X95891Y116502D01*
X96022Y116513D01*
X96154Y116521D01*
X96285Y116525D01*
X96417Y116524D01*
X96549Y116520D01*
X96680Y116512D01*
X96812Y116500D01*
X96942Y116485D01*
X97073Y116465D01*
X97202Y116441D01*
X97331Y116414D01*
X97459Y116383D01*
X97586Y116348D01*
X97712Y116309D01*
X97837Y116267D01*
X97960Y116221D01*
X98082Y116171D01*
X98203Y116118D01*
X98321Y116061D01*
X98439Y116001D01*
X98554Y115937D01*
X98667Y115870D01*
X98778Y115799D01*
X98888Y115725D01*
X98994Y115648D01*
X99099Y115568D01*
X99201Y115485D01*
X92939Y114937D02*
X92844Y114822D01*
X92753Y114703D01*
X92664Y114583D01*
X92579Y114460D01*
X92497Y114335D01*
X92418Y114207D01*
X92343Y114078D01*
X92271Y113947D01*
X92202Y113814D01*
X92138Y113679D01*
X92076Y113543D01*
X92018Y113405D01*
X91964Y113265D01*
X91914Y113125D01*
X91867Y112982D01*
X91824Y112839D01*
X91784Y112695D01*
X91749Y112549D01*
X91717Y112403D01*
X91689Y112256D01*
X91665Y112109D01*
X91645Y111960D01*
X91629Y111812D01*
X91617Y111663D01*
X91608Y111513D01*
X91604Y111364D01*
X91603Y111214D01*
X91607Y111065D01*
X91614Y110915D01*
X91625Y110766D01*
X91640Y110617D01*
X91659Y110469D01*
X91682Y110321D01*
X91709Y110174D01*
X91739Y110027D01*
X91774Y109882D01*
X91812Y109737D01*
X91854Y109593D01*
X91899Y109451D01*
X91949Y109310D01*
X92002Y109170D01*
X92059Y109031D01*
X92119Y108895D01*
X92183Y108759D01*
X92251Y108626D01*
X92322Y108494D01*
X92396Y108364D01*
X92474Y108236D01*
X100898Y112128D02*
X100887Y112261D01*
X100873Y112394D01*
X100856Y112526D01*
X100834Y112658D01*
X100809Y112788D01*
X100781Y112919D01*
X100749Y113048D01*
X100713Y113176D01*
X100673Y113304D01*
X100630Y113430D01*
X100584Y113555D01*
X100534Y113679D01*
X100480Y113801D01*
X100424Y113921D01*
X100364Y114040D01*
X100300Y114158D01*
X100233Y114273D01*
X100164Y114387D01*
X100091Y114498D01*
X100015Y114608D01*
X99935Y114715D01*
X99853Y114820D01*
X99768Y114923D01*
X99681Y115023D01*
X99590Y115121D01*
X99497Y115216D01*
X99401Y115309D01*
X99302Y115399D01*
X99201Y115486D01*
X100897Y112128D02*
X103067Y99347D01*
X109416Y106914D01*
X112071Y120834D02*
X107531Y124644D01*
X112071Y120834D02*
X117698Y120626D01*
X112071Y120834D02*
X113253Y115329D01*
X112071Y120834D02*
X114049Y126266D01*
X112071Y120834D02*
X107065Y117943D01*
D10*
X64519Y10381D02*
X61893Y8473D01*
X64519Y10381D02*
X64609Y10449D01*
X64697Y10520D01*
X64783Y10595D01*
X64866Y10672D01*
X64946Y10752D01*
X65023Y10835D01*
X65098Y10921D01*
X65169Y11009D01*
X65237Y11099D01*
X65302Y11192D01*
X65364Y11287D01*
X65422Y11384D01*
X65477Y11483D01*
X65528Y11584D01*
X65576Y11687D01*
X65621Y11791D01*
X65661Y11897D01*
X65698Y12004D01*
X65731Y12112D01*
X65761Y12222D01*
X65786Y12332D01*
X65808Y12443D01*
X65825Y12555D01*
X65839Y12668D01*
X65849Y12781D01*
X65855Y12894D01*
X65857Y13007D01*
X65855Y13120D01*
X65849Y13233D01*
X65839Y13346D01*
X65825Y13459D01*
X65808Y13571D01*
X65786Y13682D01*
X65761Y13792D01*
X65731Y13902D01*
X65698Y14010D01*
X65661Y14117D01*
X65621Y14223D01*
X65576Y14327D01*
X65528Y14430D01*
X65477Y14531D01*
X65422Y14630D01*
X65364Y14727D01*
X65302Y14822D01*
X65237Y14915D01*
X65169Y15005D01*
X65098Y15093D01*
X65023Y15179D01*
X64946Y15262D01*
X64866Y15342D01*
X64783Y15419D01*
X64697Y15494D01*
X64609Y15565D01*
X64519Y15633D01*
X64426Y15698D01*
X64331Y15760D01*
X64234Y15818D01*
X64135Y15873D01*
X64034Y15924D01*
X63931Y15972D01*
X63827Y16017D01*
X63721Y16057D01*
X63614Y16094D01*
X63506Y16127D01*
X63396Y16157D01*
X63286Y16182D01*
X63175Y16204D01*
X63063Y16221D01*
X62950Y16235D01*
X62837Y16245D01*
X62724Y16251D01*
X62611Y16253D01*
X62498Y16251D01*
X62385Y16245D01*
X62272Y16235D01*
X62159Y16221D01*
X62047Y16204D01*
X61936Y16182D01*
X61826Y16157D01*
X61716Y16127D01*
X61608Y16094D01*
X61501Y16057D01*
X61395Y16017D01*
X61291Y15972D01*
X61188Y15924D01*
X61087Y15873D01*
X60988Y15818D01*
X60891Y15760D01*
X60796Y15698D01*
X60703Y15633D01*
X58176Y20215D02*
X55025Y17926D01*
X58176Y20215D02*
X58259Y20273D01*
X58343Y20327D01*
X58430Y20378D01*
X58519Y20426D01*
X58609Y20470D01*
X58702Y20510D01*
X58795Y20547D01*
X58890Y20581D01*
X58986Y20610D01*
X59084Y20636D01*
X59182Y20658D01*
X59281Y20677D01*
X59381Y20691D01*
X59481Y20702D01*
X59581Y20708D01*
X59682Y20711D01*
X59783Y20710D01*
X59883Y20705D01*
X59983Y20696D01*
X60083Y20683D01*
X60182Y20666D01*
X60281Y20646D01*
X60379Y20621D01*
X60475Y20593D01*
X60571Y20561D01*
X60665Y20526D01*
X60758Y20487D01*
X60849Y20444D01*
X60938Y20398D01*
X61026Y20348D01*
X61112Y20295D01*
X61195Y20239D01*
X61276Y20179D01*
X61355Y20117D01*
X61432Y20051D01*
X61505Y19982D01*
X61576Y19911D01*
X61645Y19837D01*
X61710Y19760D01*
X61772Y19681D01*
X61831Y19600D01*
X61887Y19516D01*
X61940Y19430D01*
X61989Y19343D01*
X62035Y19253D01*
X62078Y19162D01*
X62116Y19069D01*
X62152Y18974D01*
X62183Y18879D01*
X62211Y18782D01*
X62235Y18684D01*
X62255Y18586D01*
X62271Y18486D01*
X62284Y18386D01*
X62292Y18286D01*
X62297Y18185D01*
X62298Y18085D01*
X62295Y17984D01*
X62288Y17884D01*
X62277Y17784D01*
X62262Y17684D01*
X62243Y17585D01*
X62221Y17487D01*
X62195Y17390D01*
X62165Y17294D01*
X62131Y17199D01*
X62094Y17105D01*
X62053Y17013D01*
X62008Y16923D01*
X61960Y16834D01*
X61909Y16748D01*
X61854Y16663D01*
X61796Y16581D01*
X61735Y16501D01*
X61671Y16423D01*
X61604Y16348D01*
X61534Y16276D01*
X61461Y16206D01*
X61386Y16139D01*
X61308Y16076D01*
X61228Y16015D01*
X61229Y16014D02*
X59128Y14488D01*
X63747Y24263D02*
X73766Y17099D01*
X70049Y28841D01*
X80387Y21910D02*
X83013Y23818D01*
X83013Y23817D02*
X83103Y23885D01*
X83191Y23956D01*
X83277Y24031D01*
X83360Y24108D01*
X83440Y24188D01*
X83517Y24271D01*
X83592Y24357D01*
X83663Y24445D01*
X83731Y24535D01*
X83796Y24628D01*
X83858Y24723D01*
X83916Y24820D01*
X83971Y24919D01*
X84022Y25020D01*
X84070Y25123D01*
X84115Y25227D01*
X84155Y25333D01*
X84192Y25440D01*
X84225Y25548D01*
X84255Y25658D01*
X84280Y25768D01*
X84302Y25879D01*
X84319Y25991D01*
X84333Y26104D01*
X84343Y26217D01*
X84349Y26330D01*
X84351Y26443D01*
X84349Y26556D01*
X84343Y26669D01*
X84333Y26782D01*
X84319Y26895D01*
X84302Y27007D01*
X84280Y27118D01*
X84255Y27228D01*
X84225Y27338D01*
X84192Y27446D01*
X84155Y27553D01*
X84115Y27659D01*
X84070Y27763D01*
X84022Y27866D01*
X83971Y27967D01*
X83916Y28066D01*
X83858Y28163D01*
X83796Y28258D01*
X83731Y28351D01*
X83663Y28441D01*
X83592Y28529D01*
X83517Y28615D01*
X83440Y28698D01*
X83360Y28778D01*
X83277Y28855D01*
X83191Y28930D01*
X83103Y29001D01*
X83013Y29069D01*
X82920Y29134D01*
X82825Y29196D01*
X82728Y29254D01*
X82629Y29309D01*
X82528Y29360D01*
X82425Y29408D01*
X82321Y29453D01*
X82215Y29493D01*
X82108Y29530D01*
X82000Y29563D01*
X81890Y29593D01*
X81780Y29618D01*
X81669Y29640D01*
X81557Y29657D01*
X81444Y29671D01*
X81331Y29681D01*
X81218Y29687D01*
X81105Y29689D01*
X80992Y29687D01*
X80879Y29681D01*
X80766Y29671D01*
X80653Y29657D01*
X80541Y29640D01*
X80430Y29618D01*
X80320Y29593D01*
X80210Y29563D01*
X80102Y29530D01*
X79995Y29493D01*
X79889Y29453D01*
X79785Y29408D01*
X79682Y29360D01*
X79581Y29309D01*
X79482Y29254D01*
X79385Y29196D01*
X79290Y29134D01*
X79197Y29069D01*
X76670Y33652D02*
X73520Y31363D01*
X76671Y33651D02*
X76754Y33709D01*
X76838Y33763D01*
X76925Y33814D01*
X77014Y33862D01*
X77104Y33906D01*
X77197Y33946D01*
X77290Y33983D01*
X77385Y34017D01*
X77481Y34046D01*
X77579Y34072D01*
X77677Y34094D01*
X77776Y34113D01*
X77876Y34127D01*
X77976Y34138D01*
X78076Y34144D01*
X78177Y34147D01*
X78278Y34146D01*
X78378Y34141D01*
X78478Y34132D01*
X78578Y34119D01*
X78677Y34102D01*
X78776Y34082D01*
X78874Y34057D01*
X78970Y34029D01*
X79066Y33997D01*
X79160Y33962D01*
X79253Y33923D01*
X79344Y33880D01*
X79433Y33834D01*
X79521Y33784D01*
X79607Y33731D01*
X79690Y33675D01*
X79771Y33615D01*
X79850Y33553D01*
X79927Y33487D01*
X80000Y33418D01*
X80071Y33347D01*
X80140Y33273D01*
X80205Y33196D01*
X80267Y33117D01*
X80326Y33036D01*
X80382Y32952D01*
X80435Y32866D01*
X80484Y32779D01*
X80530Y32689D01*
X80573Y32598D01*
X80611Y32505D01*
X80647Y32410D01*
X80678Y32315D01*
X80706Y32218D01*
X80730Y32120D01*
X80750Y32022D01*
X80766Y31922D01*
X80779Y31822D01*
X80787Y31722D01*
X80792Y31621D01*
X80793Y31521D01*
X80790Y31420D01*
X80783Y31320D01*
X80772Y31220D01*
X80757Y31120D01*
X80738Y31021D01*
X80716Y30923D01*
X80690Y30826D01*
X80660Y30730D01*
X80626Y30635D01*
X80589Y30541D01*
X80548Y30449D01*
X80503Y30359D01*
X80455Y30270D01*
X80404Y30184D01*
X80349Y30099D01*
X80291Y30017D01*
X80230Y29937D01*
X80166Y29859D01*
X80099Y29784D01*
X80029Y29712D01*
X79956Y29642D01*
X79881Y29575D01*
X79803Y29512D01*
X79723Y29451D01*
X77622Y27925D01*
X-82531Y22630D02*
X-85157Y24537D01*
X-82531Y22629D02*
X-82438Y22564D01*
X-82343Y22502D01*
X-82246Y22444D01*
X-82147Y22389D01*
X-82046Y22338D01*
X-81943Y22290D01*
X-81839Y22245D01*
X-81733Y22205D01*
X-81626Y22168D01*
X-81518Y22135D01*
X-81408Y22105D01*
X-81298Y22080D01*
X-81187Y22058D01*
X-81075Y22041D01*
X-80962Y22027D01*
X-80849Y22017D01*
X-80736Y22011D01*
X-80623Y22009D01*
X-80510Y22011D01*
X-80397Y22017D01*
X-80284Y22027D01*
X-80171Y22041D01*
X-80059Y22058D01*
X-79948Y22080D01*
X-79838Y22105D01*
X-79728Y22135D01*
X-79620Y22168D01*
X-79513Y22205D01*
X-79407Y22245D01*
X-79303Y22290D01*
X-79200Y22338D01*
X-79099Y22389D01*
X-79000Y22444D01*
X-78903Y22502D01*
X-78808Y22564D01*
X-78715Y22629D01*
X-78625Y22697D01*
X-78537Y22768D01*
X-78451Y22843D01*
X-78368Y22920D01*
X-78288Y23000D01*
X-78211Y23083D01*
X-78136Y23169D01*
X-78065Y23257D01*
X-77997Y23347D01*
X-77932Y23440D01*
X-77870Y23535D01*
X-77812Y23632D01*
X-77757Y23731D01*
X-77706Y23832D01*
X-77658Y23935D01*
X-77613Y24039D01*
X-77573Y24145D01*
X-77536Y24252D01*
X-77503Y24360D01*
X-77473Y24470D01*
X-77448Y24580D01*
X-77426Y24691D01*
X-77409Y24803D01*
X-77395Y24916D01*
X-77385Y25029D01*
X-77379Y25142D01*
X-77377Y25255D01*
X-77379Y25368D01*
X-77385Y25481D01*
X-77395Y25594D01*
X-77409Y25707D01*
X-77426Y25819D01*
X-77448Y25930D01*
X-77473Y26040D01*
X-77503Y26150D01*
X-77536Y26258D01*
X-77573Y26365D01*
X-77613Y26471D01*
X-77658Y26575D01*
X-77706Y26678D01*
X-77757Y26779D01*
X-77812Y26878D01*
X-77870Y26975D01*
X-77932Y27070D01*
X-77997Y27163D01*
X-78065Y27253D01*
X-78136Y27342D01*
X-78211Y27427D01*
X-78288Y27510D01*
X-78368Y27590D01*
X-78451Y27667D01*
X-78537Y27742D01*
X-78625Y27813D01*
X-78715Y27881D01*
X-75138Y31701D02*
X-78289Y33990D01*
X-75138Y31700D02*
X-75058Y31639D01*
X-74980Y31576D01*
X-74905Y31509D01*
X-74832Y31439D01*
X-74762Y31367D01*
X-74695Y31292D01*
X-74631Y31214D01*
X-74570Y31134D01*
X-74512Y31052D01*
X-74457Y30967D01*
X-74406Y30881D01*
X-74358Y30792D01*
X-74313Y30702D01*
X-74272Y30610D01*
X-74235Y30516D01*
X-74201Y30421D01*
X-74171Y30325D01*
X-74145Y30228D01*
X-74123Y30130D01*
X-74104Y30031D01*
X-74089Y29931D01*
X-74078Y29831D01*
X-74071Y29731D01*
X-74068Y29630D01*
X-74069Y29530D01*
X-74074Y29429D01*
X-74082Y29329D01*
X-74095Y29229D01*
X-74111Y29129D01*
X-74131Y29031D01*
X-74155Y28933D01*
X-74183Y28836D01*
X-74214Y28741D01*
X-74250Y28646D01*
X-74288Y28553D01*
X-74331Y28462D01*
X-74377Y28372D01*
X-74426Y28285D01*
X-74479Y28199D01*
X-74535Y28115D01*
X-74594Y28034D01*
X-74656Y27955D01*
X-74721Y27878D01*
X-74790Y27804D01*
X-74861Y27733D01*
X-74934Y27664D01*
X-75011Y27598D01*
X-75090Y27536D01*
X-75171Y27476D01*
X-75254Y27420D01*
X-75340Y27367D01*
X-75428Y27317D01*
X-75517Y27271D01*
X-75608Y27228D01*
X-75701Y27189D01*
X-75795Y27154D01*
X-75891Y27122D01*
X-75987Y27094D01*
X-76085Y27069D01*
X-76183Y27049D01*
X-76283Y27032D01*
X-76383Y27019D01*
X-76483Y27010D01*
X-76583Y27005D01*
X-76684Y27004D01*
X-76785Y27007D01*
X-76885Y27013D01*
X-76985Y27024D01*
X-77085Y27038D01*
X-77184Y27057D01*
X-77282Y27079D01*
X-77380Y27105D01*
X-77476Y27134D01*
X-77571Y27168D01*
X-77664Y27205D01*
X-77757Y27245D01*
X-77847Y27289D01*
X-77936Y27337D01*
X-78023Y27388D01*
X-78107Y27442D01*
X-78190Y27500D01*
X-78190Y27499D02*
X-80291Y29026D01*
X-69567Y27653D02*
X-73284Y15911D01*
X-63265Y23074D01*
X-66662Y11100D02*
X-64037Y9193D01*
X-64037Y9192D02*
X-63944Y9127D01*
X-63849Y9065D01*
X-63752Y9007D01*
X-63653Y8952D01*
X-63552Y8901D01*
X-63449Y8853D01*
X-63345Y8808D01*
X-63239Y8768D01*
X-63132Y8731D01*
X-63024Y8698D01*
X-62914Y8668D01*
X-62804Y8643D01*
X-62693Y8621D01*
X-62581Y8604D01*
X-62468Y8590D01*
X-62355Y8580D01*
X-62242Y8574D01*
X-62129Y8572D01*
X-62016Y8574D01*
X-61903Y8580D01*
X-61790Y8590D01*
X-61677Y8604D01*
X-61565Y8621D01*
X-61454Y8643D01*
X-61344Y8668D01*
X-61234Y8698D01*
X-61126Y8731D01*
X-61019Y8768D01*
X-60913Y8808D01*
X-60809Y8853D01*
X-60706Y8901D01*
X-60605Y8952D01*
X-60506Y9007D01*
X-60409Y9065D01*
X-60314Y9127D01*
X-60221Y9192D01*
X-60131Y9260D01*
X-60043Y9331D01*
X-59957Y9406D01*
X-59874Y9483D01*
X-59794Y9563D01*
X-59717Y9646D01*
X-59642Y9732D01*
X-59571Y9820D01*
X-59503Y9910D01*
X-59438Y10003D01*
X-59376Y10098D01*
X-59318Y10195D01*
X-59263Y10294D01*
X-59212Y10395D01*
X-59164Y10498D01*
X-59119Y10602D01*
X-59079Y10708D01*
X-59042Y10815D01*
X-59009Y10923D01*
X-58979Y11033D01*
X-58954Y11143D01*
X-58932Y11254D01*
X-58915Y11366D01*
X-58901Y11479D01*
X-58891Y11592D01*
X-58885Y11705D01*
X-58883Y11818D01*
X-58885Y11931D01*
X-58891Y12044D01*
X-58901Y12157D01*
X-58915Y12270D01*
X-58932Y12382D01*
X-58954Y12493D01*
X-58979Y12603D01*
X-59009Y12713D01*
X-59042Y12821D01*
X-59079Y12928D01*
X-59119Y13034D01*
X-59164Y13138D01*
X-59212Y13241D01*
X-59263Y13342D01*
X-59318Y13441D01*
X-59376Y13538D01*
X-59438Y13633D01*
X-59503Y13726D01*
X-59571Y13816D01*
X-59642Y13905D01*
X-59717Y13990D01*
X-59794Y14073D01*
X-59874Y14153D01*
X-59957Y14230D01*
X-60043Y14305D01*
X-60131Y14376D01*
X-60221Y14444D01*
X-56644Y18264D02*
X-59795Y20553D01*
X-56644Y18263D02*
X-56564Y18202D01*
X-56486Y18139D01*
X-56411Y18072D01*
X-56338Y18002D01*
X-56268Y17930D01*
X-56201Y17855D01*
X-56137Y17777D01*
X-56076Y17697D01*
X-56018Y17615D01*
X-55963Y17530D01*
X-55912Y17444D01*
X-55864Y17355D01*
X-55819Y17265D01*
X-55778Y17173D01*
X-55741Y17079D01*
X-55707Y16984D01*
X-55677Y16888D01*
X-55651Y16791D01*
X-55629Y16693D01*
X-55610Y16594D01*
X-55595Y16494D01*
X-55584Y16394D01*
X-55577Y16294D01*
X-55574Y16193D01*
X-55575Y16093D01*
X-55580Y15992D01*
X-55588Y15892D01*
X-55601Y15792D01*
X-55617Y15692D01*
X-55637Y15594D01*
X-55661Y15496D01*
X-55689Y15399D01*
X-55720Y15304D01*
X-55756Y15209D01*
X-55794Y15116D01*
X-55837Y15025D01*
X-55883Y14935D01*
X-55932Y14848D01*
X-55985Y14762D01*
X-56041Y14678D01*
X-56100Y14597D01*
X-56162Y14518D01*
X-56227Y14441D01*
X-56296Y14367D01*
X-56367Y14296D01*
X-56440Y14227D01*
X-56517Y14161D01*
X-56596Y14099D01*
X-56677Y14039D01*
X-56760Y13983D01*
X-56846Y13930D01*
X-56934Y13880D01*
X-57023Y13834D01*
X-57114Y13791D01*
X-57207Y13752D01*
X-57301Y13717D01*
X-57397Y13685D01*
X-57493Y13657D01*
X-57591Y13632D01*
X-57689Y13612D01*
X-57789Y13595D01*
X-57889Y13582D01*
X-57989Y13573D01*
X-58089Y13568D01*
X-58190Y13567D01*
X-58291Y13570D01*
X-58391Y13576D01*
X-58491Y13587D01*
X-58591Y13601D01*
X-58690Y13620D01*
X-58788Y13642D01*
X-58886Y13668D01*
X-58982Y13697D01*
X-59077Y13731D01*
X-59170Y13768D01*
X-59263Y13808D01*
X-59353Y13852D01*
X-59442Y13900D01*
X-59529Y13951D01*
X-59613Y14005D01*
X-59696Y14063D01*
X-61797Y15589D01*
D12*
X-26000Y101563D02*
X22000Y101563D01*
X26000Y106063D01*
X-26000Y101563D02*
X-26000Y136563D01*
X26000Y136563D01*
X26000Y106063D01*
D13*
X-5883Y111371D02*
X-5883Y118737D01*
X-3837Y118737D01*
X-3748Y118735D01*
X-3659Y118729D01*
X-3570Y118719D01*
X-3482Y118706D01*
X-3394Y118689D01*
X-3307Y118667D01*
X-3222Y118642D01*
X-3137Y118614D01*
X-3054Y118581D01*
X-2972Y118545D01*
X-2892Y118506D01*
X-2814Y118463D01*
X-2738Y118417D01*
X-2663Y118367D01*
X-2591Y118314D01*
X-2522Y118258D01*
X-2455Y118199D01*
X-2390Y118138D01*
X-2329Y118073D01*
X-2270Y118006D01*
X-2214Y117937D01*
X-2161Y117865D01*
X-2111Y117790D01*
X-2065Y117714D01*
X-2022Y117636D01*
X-1983Y117556D01*
X-1947Y117474D01*
X-1914Y117391D01*
X-1886Y117306D01*
X-1861Y117221D01*
X-1839Y117134D01*
X-1822Y117046D01*
X-1809Y116958D01*
X-1799Y116869D01*
X-1793Y116780D01*
X-1791Y116691D01*
X-1791Y113417D01*
X-1793Y113328D01*
X-1799Y113239D01*
X-1809Y113150D01*
X-1822Y113062D01*
X-1839Y112974D01*
X-1861Y112887D01*
X-1886Y112802D01*
X-1914Y112717D01*
X-1947Y112634D01*
X-1983Y112552D01*
X-2022Y112472D01*
X-2065Y112394D01*
X-2111Y112318D01*
X-2161Y112243D01*
X-2214Y112171D01*
X-2270Y112102D01*
X-2329Y112035D01*
X-2390Y111970D01*
X-2455Y111909D01*
X-2522Y111850D01*
X-2591Y111794D01*
X-2663Y111741D01*
X-2738Y111691D01*
X-2814Y111645D01*
X-2892Y111602D01*
X-2972Y111563D01*
X-3054Y111527D01*
X-3137Y111494D01*
X-3222Y111466D01*
X-3307Y111441D01*
X-3394Y111419D01*
X-3482Y111402D01*
X-3570Y111389D01*
X-3659Y111379D01*
X-3748Y111373D01*
X-3837Y111371D01*
X-5883Y111371D01*
X3927Y118737D02*
X4012Y118735D01*
X4097Y118729D01*
X4181Y118719D01*
X4265Y118706D01*
X4349Y118688D01*
X4431Y118667D01*
X4512Y118642D01*
X4592Y118613D01*
X4671Y118580D01*
X4748Y118544D01*
X4823Y118504D01*
X4897Y118461D01*
X4968Y118415D01*
X5037Y118365D01*
X5104Y118312D01*
X5168Y118256D01*
X5229Y118197D01*
X5288Y118136D01*
X5344Y118072D01*
X5397Y118005D01*
X5447Y117936D01*
X5493Y117865D01*
X5536Y117791D01*
X5576Y117716D01*
X5612Y117639D01*
X5645Y117560D01*
X5674Y117480D01*
X5699Y117399D01*
X5720Y117317D01*
X5738Y117233D01*
X5751Y117149D01*
X5761Y117065D01*
X5767Y116980D01*
X5769Y116895D01*
X3927Y118737D02*
X3831Y118735D01*
X3735Y118729D01*
X3640Y118719D01*
X3545Y118706D01*
X3450Y118688D01*
X3357Y118667D01*
X3264Y118642D01*
X3173Y118613D01*
X3082Y118581D01*
X2993Y118545D01*
X2906Y118505D01*
X2820Y118462D01*
X2736Y118416D01*
X2654Y118366D01*
X2574Y118312D01*
X2497Y118256D01*
X2422Y118196D01*
X2349Y118134D01*
X2279Y118068D01*
X2211Y118000D01*
X2146Y117929D01*
X2085Y117856D01*
X2026Y117780D01*
X1970Y117701D01*
X1918Y117621D01*
X1869Y117538D01*
X1823Y117454D01*
X1781Y117368D01*
X1743Y117280D01*
X1708Y117191D01*
X1676Y117100D01*
X5154Y115463D02*
X5214Y115522D01*
X5271Y115584D01*
X5326Y115648D01*
X5377Y115715D01*
X5426Y115784D01*
X5472Y115854D01*
X5515Y115927D01*
X5555Y116001D01*
X5591Y116077D01*
X5624Y116155D01*
X5654Y116234D01*
X5681Y116314D01*
X5704Y116395D01*
X5723Y116477D01*
X5739Y116559D01*
X5752Y116643D01*
X5761Y116727D01*
X5766Y116811D01*
X5768Y116895D01*
X5155Y115463D02*
X1676Y111371D01*
X5768Y111371D01*
D11*
X-6350Y167069D02*
X-6350Y176467D01*
X-16764Y186881D01*
X-6350Y176721D02*
X3048Y186119D01*
X3048Y187135D01*
D13*
X-9798Y199321D02*
X-9798Y202595D01*
X-9797Y202595D02*
X-9795Y202684D01*
X-9789Y202773D01*
X-9779Y202862D01*
X-9766Y202950D01*
X-9749Y203038D01*
X-9727Y203125D01*
X-9702Y203210D01*
X-9674Y203295D01*
X-9641Y203378D01*
X-9605Y203460D01*
X-9566Y203540D01*
X-9523Y203618D01*
X-9477Y203694D01*
X-9427Y203769D01*
X-9374Y203841D01*
X-9318Y203910D01*
X-9259Y203977D01*
X-9198Y204042D01*
X-9133Y204103D01*
X-9066Y204162D01*
X-8997Y204218D01*
X-8925Y204271D01*
X-8850Y204321D01*
X-8774Y204367D01*
X-8696Y204410D01*
X-8616Y204449D01*
X-8534Y204485D01*
X-8451Y204518D01*
X-8366Y204546D01*
X-8281Y204571D01*
X-8194Y204593D01*
X-8106Y204610D01*
X-8018Y204623D01*
X-7929Y204633D01*
X-7840Y204639D01*
X-7751Y204641D01*
X-7662Y204639D01*
X-7573Y204633D01*
X-7484Y204623D01*
X-7396Y204610D01*
X-7308Y204593D01*
X-7221Y204571D01*
X-7136Y204546D01*
X-7051Y204518D01*
X-6968Y204485D01*
X-6886Y204449D01*
X-6806Y204410D01*
X-6728Y204367D01*
X-6652Y204321D01*
X-6577Y204271D01*
X-6505Y204218D01*
X-6436Y204162D01*
X-6369Y204103D01*
X-6304Y204042D01*
X-6243Y203977D01*
X-6184Y203910D01*
X-6128Y203841D01*
X-6075Y203769D01*
X-6025Y203694D01*
X-5979Y203618D01*
X-5936Y203540D01*
X-5897Y203460D01*
X-5861Y203378D01*
X-5828Y203295D01*
X-5800Y203210D01*
X-5775Y203125D01*
X-5753Y203038D01*
X-5736Y202950D01*
X-5723Y202862D01*
X-5713Y202773D01*
X-5707Y202684D01*
X-5705Y202595D01*
X-5705Y199321D01*
X-5707Y199232D01*
X-5713Y199143D01*
X-5723Y199054D01*
X-5736Y198966D01*
X-5753Y198878D01*
X-5775Y198791D01*
X-5800Y198706D01*
X-5828Y198621D01*
X-5861Y198538D01*
X-5897Y198456D01*
X-5936Y198376D01*
X-5979Y198298D01*
X-6025Y198222D01*
X-6075Y198147D01*
X-6128Y198075D01*
X-6184Y198006D01*
X-6243Y197939D01*
X-6304Y197874D01*
X-6369Y197813D01*
X-6436Y197754D01*
X-6505Y197698D01*
X-6577Y197645D01*
X-6652Y197595D01*
X-6728Y197549D01*
X-6806Y197506D01*
X-6886Y197467D01*
X-6968Y197431D01*
X-7051Y197398D01*
X-7136Y197370D01*
X-7221Y197345D01*
X-7308Y197323D01*
X-7396Y197306D01*
X-7484Y197293D01*
X-7573Y197283D01*
X-7662Y197277D01*
X-7751Y197275D01*
X-7840Y197277D01*
X-7929Y197283D01*
X-8018Y197293D01*
X-8106Y197306D01*
X-8194Y197323D01*
X-8281Y197345D01*
X-8366Y197370D01*
X-8451Y197398D01*
X-8534Y197431D01*
X-8616Y197467D01*
X-8696Y197506D01*
X-8774Y197549D01*
X-8850Y197595D01*
X-8925Y197645D01*
X-8997Y197698D01*
X-9066Y197754D01*
X-9133Y197813D01*
X-9198Y197874D01*
X-9259Y197939D01*
X-9318Y198006D01*
X-9374Y198075D01*
X-9427Y198147D01*
X-9477Y198222D01*
X-9523Y198298D01*
X-9566Y198376D01*
X-9605Y198456D01*
X-9641Y198538D01*
X-9674Y198621D01*
X-9702Y198706D01*
X-9727Y198791D01*
X-9749Y198878D01*
X-9766Y198966D01*
X-9779Y199054D01*
X-9789Y199143D01*
X-9795Y199232D01*
X-9797Y199321D01*
X-6524Y198912D02*
X-4887Y197275D01*
X-2702Y197275D02*
X-656Y197275D01*
X-567Y197277D01*
X-478Y197283D01*
X-389Y197293D01*
X-301Y197306D01*
X-213Y197323D01*
X-126Y197345D01*
X-41Y197370D01*
X44Y197398D01*
X127Y197431D01*
X209Y197467D01*
X289Y197506D01*
X367Y197549D01*
X443Y197595D01*
X518Y197645D01*
X590Y197698D01*
X659Y197754D01*
X726Y197813D01*
X791Y197874D01*
X852Y197939D01*
X911Y198006D01*
X967Y198075D01*
X1020Y198147D01*
X1070Y198222D01*
X1116Y198298D01*
X1159Y198376D01*
X1198Y198456D01*
X1234Y198538D01*
X1267Y198621D01*
X1295Y198706D01*
X1320Y198791D01*
X1342Y198878D01*
X1359Y198966D01*
X1372Y199054D01*
X1382Y199143D01*
X1388Y199232D01*
X1390Y199321D01*
X1388Y199410D01*
X1382Y199499D01*
X1372Y199588D01*
X1359Y199676D01*
X1342Y199764D01*
X1320Y199851D01*
X1295Y199936D01*
X1267Y200021D01*
X1234Y200104D01*
X1198Y200186D01*
X1159Y200266D01*
X1116Y200344D01*
X1070Y200420D01*
X1020Y200495D01*
X967Y200567D01*
X911Y200636D01*
X852Y200703D01*
X791Y200768D01*
X726Y200829D01*
X659Y200888D01*
X590Y200944D01*
X518Y200997D01*
X443Y201047D01*
X367Y201093D01*
X289Y201136D01*
X209Y201175D01*
X127Y201211D01*
X44Y201244D01*
X-41Y201272D01*
X-126Y201297D01*
X-213Y201319D01*
X-301Y201336D01*
X-389Y201349D01*
X-478Y201359D01*
X-567Y201365D01*
X-656Y201367D01*
X-247Y204641D02*
X-2702Y204641D01*
X-247Y204641D02*
X-168Y204639D01*
X-89Y204633D01*
X-10Y204624D01*
X68Y204611D01*
X145Y204593D01*
X221Y204573D01*
X296Y204548D01*
X370Y204520D01*
X443Y204489D01*
X514Y204453D01*
X583Y204415D01*
X650Y204373D01*
X715Y204328D01*
X778Y204280D01*
X839Y204229D01*
X896Y204175D01*
X952Y204119D01*
X1004Y204060D01*
X1054Y203998D01*
X1100Y203934D01*
X1144Y203868D01*
X1184Y203800D01*
X1220Y203730D01*
X1254Y203658D01*
X1284Y203584D01*
X1310Y203510D01*
X1333Y203434D01*
X1351Y203357D01*
X1367Y203280D01*
X1378Y203201D01*
X1386Y203123D01*
X1390Y203044D01*
X1390Y202964D01*
X1386Y202885D01*
X1378Y202807D01*
X1367Y202728D01*
X1351Y202651D01*
X1333Y202574D01*
X1310Y202498D01*
X1284Y202424D01*
X1254Y202350D01*
X1220Y202278D01*
X1184Y202208D01*
X1144Y202140D01*
X1100Y202074D01*
X1054Y202010D01*
X1004Y201948D01*
X952Y201889D01*
X896Y201833D01*
X839Y201779D01*
X778Y201728D01*
X715Y201680D01*
X650Y201635D01*
X583Y201593D01*
X514Y201555D01*
X443Y201519D01*
X370Y201488D01*
X296Y201460D01*
X221Y201435D01*
X145Y201415D01*
X68Y201397D01*
X-10Y201384D01*
X-89Y201375D01*
X-168Y201369D01*
X-247Y201367D01*
X-1884Y201367D01*
D11*
X-25400Y71057D02*
X-25400Y61659D01*
X-14986Y51245D01*
X-25400Y61405D02*
X-34798Y52007D01*
X-34798Y50991D01*
D13*
X-30665Y38633D02*
X-30665Y35359D01*
X-30665Y38633D02*
X-30663Y38722D01*
X-30657Y38811D01*
X-30647Y38900D01*
X-30634Y38988D01*
X-30617Y39076D01*
X-30595Y39163D01*
X-30570Y39248D01*
X-30542Y39333D01*
X-30509Y39416D01*
X-30473Y39498D01*
X-30434Y39578D01*
X-30391Y39656D01*
X-30345Y39732D01*
X-30295Y39807D01*
X-30242Y39879D01*
X-30186Y39948D01*
X-30127Y40015D01*
X-30066Y40080D01*
X-30001Y40141D01*
X-29934Y40200D01*
X-29865Y40256D01*
X-29793Y40309D01*
X-29718Y40359D01*
X-29642Y40405D01*
X-29564Y40448D01*
X-29484Y40487D01*
X-29402Y40523D01*
X-29319Y40556D01*
X-29234Y40584D01*
X-29149Y40609D01*
X-29062Y40631D01*
X-28974Y40648D01*
X-28886Y40661D01*
X-28797Y40671D01*
X-28708Y40677D01*
X-28619Y40679D01*
X-28530Y40677D01*
X-28441Y40671D01*
X-28352Y40661D01*
X-28264Y40648D01*
X-28176Y40631D01*
X-28089Y40609D01*
X-28004Y40584D01*
X-27919Y40556D01*
X-27836Y40523D01*
X-27754Y40487D01*
X-27674Y40448D01*
X-27596Y40405D01*
X-27520Y40359D01*
X-27445Y40309D01*
X-27373Y40256D01*
X-27304Y40200D01*
X-27237Y40141D01*
X-27172Y40080D01*
X-27111Y40015D01*
X-27052Y39948D01*
X-26996Y39879D01*
X-26943Y39807D01*
X-26893Y39732D01*
X-26847Y39656D01*
X-26804Y39578D01*
X-26765Y39498D01*
X-26729Y39416D01*
X-26696Y39333D01*
X-26668Y39248D01*
X-26643Y39163D01*
X-26621Y39076D01*
X-26604Y38988D01*
X-26591Y38900D01*
X-26581Y38811D01*
X-26575Y38722D01*
X-26573Y38633D01*
X-26573Y35359D01*
X-26575Y35270D01*
X-26581Y35181D01*
X-26591Y35092D01*
X-26604Y35004D01*
X-26621Y34916D01*
X-26643Y34829D01*
X-26668Y34744D01*
X-26696Y34659D01*
X-26729Y34576D01*
X-26765Y34494D01*
X-26804Y34414D01*
X-26847Y34336D01*
X-26893Y34260D01*
X-26943Y34185D01*
X-26996Y34113D01*
X-27052Y34044D01*
X-27111Y33977D01*
X-27172Y33912D01*
X-27237Y33851D01*
X-27304Y33792D01*
X-27373Y33736D01*
X-27445Y33683D01*
X-27520Y33633D01*
X-27596Y33587D01*
X-27674Y33544D01*
X-27754Y33505D01*
X-27836Y33469D01*
X-27919Y33436D01*
X-28004Y33408D01*
X-28089Y33383D01*
X-28176Y33361D01*
X-28264Y33344D01*
X-28352Y33331D01*
X-28441Y33321D01*
X-28530Y33315D01*
X-28619Y33313D01*
X-28708Y33315D01*
X-28797Y33321D01*
X-28886Y33331D01*
X-28974Y33344D01*
X-29062Y33361D01*
X-29149Y33383D01*
X-29234Y33408D01*
X-29319Y33436D01*
X-29402Y33469D01*
X-29484Y33505D01*
X-29564Y33544D01*
X-29642Y33587D01*
X-29718Y33633D01*
X-29793Y33683D01*
X-29865Y33736D01*
X-29934Y33792D01*
X-30001Y33851D01*
X-30066Y33912D01*
X-30127Y33977D01*
X-30186Y34044D01*
X-30242Y34113D01*
X-30295Y34185D01*
X-30345Y34260D01*
X-30391Y34336D01*
X-30434Y34414D01*
X-30473Y34494D01*
X-30509Y34576D01*
X-30542Y34659D01*
X-30570Y34744D01*
X-30595Y34829D01*
X-30617Y34916D01*
X-30634Y35004D01*
X-30647Y35092D01*
X-30657Y35181D01*
X-30663Y35270D01*
X-30665Y35359D01*
X-27391Y34950D02*
X-25754Y33313D01*
X-19477Y38837D02*
X-19479Y38922D01*
X-19485Y39007D01*
X-19495Y39091D01*
X-19508Y39175D01*
X-19526Y39259D01*
X-19547Y39341D01*
X-19572Y39422D01*
X-19601Y39502D01*
X-19634Y39581D01*
X-19670Y39658D01*
X-19710Y39733D01*
X-19753Y39807D01*
X-19799Y39878D01*
X-19849Y39947D01*
X-19902Y40014D01*
X-19958Y40078D01*
X-20017Y40139D01*
X-20078Y40198D01*
X-20142Y40254D01*
X-20209Y40307D01*
X-20278Y40357D01*
X-20349Y40403D01*
X-20423Y40446D01*
X-20498Y40486D01*
X-20575Y40522D01*
X-20654Y40555D01*
X-20734Y40584D01*
X-20815Y40609D01*
X-20897Y40630D01*
X-20981Y40648D01*
X-21065Y40661D01*
X-21149Y40671D01*
X-21234Y40677D01*
X-21319Y40679D01*
X-21415Y40677D01*
X-21511Y40671D01*
X-21606Y40661D01*
X-21701Y40648D01*
X-21796Y40630D01*
X-21889Y40609D01*
X-21982Y40584D01*
X-22073Y40555D01*
X-22164Y40523D01*
X-22253Y40487D01*
X-22340Y40447D01*
X-22426Y40404D01*
X-22510Y40358D01*
X-22592Y40308D01*
X-22672Y40254D01*
X-22749Y40198D01*
X-22824Y40138D01*
X-22897Y40076D01*
X-22967Y40010D01*
X-23035Y39942D01*
X-23100Y39871D01*
X-23161Y39798D01*
X-23220Y39722D01*
X-23276Y39643D01*
X-23328Y39563D01*
X-23377Y39480D01*
X-23423Y39396D01*
X-23465Y39310D01*
X-23503Y39222D01*
X-23538Y39133D01*
X-23570Y39042D01*
X-20091Y37405D02*
X-20031Y37464D01*
X-19974Y37526D01*
X-19919Y37590D01*
X-19868Y37657D01*
X-19819Y37726D01*
X-19773Y37796D01*
X-19730Y37869D01*
X-19690Y37943D01*
X-19654Y38019D01*
X-19621Y38097D01*
X-19591Y38176D01*
X-19564Y38256D01*
X-19541Y38337D01*
X-19522Y38419D01*
X-19506Y38501D01*
X-19493Y38585D01*
X-19484Y38669D01*
X-19479Y38753D01*
X-19477Y38837D01*
X-20091Y37405D02*
X-23570Y33313D01*
X-19477Y33313D01*
D11*
X15875Y61659D02*
X15875Y71057D01*
X15875Y61659D02*
X26289Y51245D01*
X15875Y61405D02*
X6477Y52007D01*
X6477Y50991D01*
D13*
X20691Y38051D02*
X20691Y34777D01*
X20692Y38051D02*
X20694Y38140D01*
X20700Y38229D01*
X20710Y38318D01*
X20723Y38406D01*
X20740Y38494D01*
X20762Y38581D01*
X20787Y38666D01*
X20815Y38751D01*
X20848Y38834D01*
X20884Y38916D01*
X20923Y38996D01*
X20966Y39074D01*
X21012Y39150D01*
X21062Y39225D01*
X21115Y39297D01*
X21171Y39366D01*
X21230Y39433D01*
X21291Y39498D01*
X21356Y39559D01*
X21423Y39618D01*
X21492Y39674D01*
X21564Y39727D01*
X21639Y39777D01*
X21715Y39823D01*
X21793Y39866D01*
X21873Y39905D01*
X21955Y39941D01*
X22038Y39974D01*
X22123Y40002D01*
X22208Y40027D01*
X22295Y40049D01*
X22383Y40066D01*
X22471Y40079D01*
X22560Y40089D01*
X22649Y40095D01*
X22738Y40097D01*
X22827Y40095D01*
X22916Y40089D01*
X23005Y40079D01*
X23093Y40066D01*
X23181Y40049D01*
X23268Y40027D01*
X23353Y40002D01*
X23438Y39974D01*
X23521Y39941D01*
X23603Y39905D01*
X23683Y39866D01*
X23761Y39823D01*
X23837Y39777D01*
X23912Y39727D01*
X23984Y39674D01*
X24053Y39618D01*
X24120Y39559D01*
X24185Y39498D01*
X24246Y39433D01*
X24305Y39366D01*
X24361Y39297D01*
X24414Y39225D01*
X24464Y39150D01*
X24510Y39074D01*
X24553Y38996D01*
X24592Y38916D01*
X24628Y38834D01*
X24661Y38751D01*
X24689Y38666D01*
X24714Y38581D01*
X24736Y38494D01*
X24753Y38406D01*
X24766Y38318D01*
X24776Y38229D01*
X24782Y38140D01*
X24784Y38051D01*
X24784Y34777D01*
X24782Y34688D01*
X24776Y34599D01*
X24766Y34510D01*
X24753Y34422D01*
X24736Y34334D01*
X24714Y34247D01*
X24689Y34162D01*
X24661Y34077D01*
X24628Y33994D01*
X24592Y33912D01*
X24553Y33832D01*
X24510Y33754D01*
X24464Y33678D01*
X24414Y33603D01*
X24361Y33531D01*
X24305Y33462D01*
X24246Y33395D01*
X24185Y33330D01*
X24120Y33269D01*
X24053Y33210D01*
X23984Y33154D01*
X23912Y33101D01*
X23837Y33051D01*
X23761Y33005D01*
X23683Y32962D01*
X23603Y32923D01*
X23521Y32887D01*
X23438Y32854D01*
X23353Y32826D01*
X23268Y32801D01*
X23181Y32779D01*
X23093Y32762D01*
X23005Y32749D01*
X22916Y32739D01*
X22827Y32733D01*
X22738Y32731D01*
X22649Y32733D01*
X22560Y32739D01*
X22471Y32749D01*
X22383Y32762D01*
X22295Y32779D01*
X22208Y32801D01*
X22123Y32826D01*
X22038Y32854D01*
X21955Y32887D01*
X21873Y32923D01*
X21793Y32962D01*
X21715Y33005D01*
X21639Y33051D01*
X21564Y33101D01*
X21492Y33154D01*
X21423Y33210D01*
X21356Y33269D01*
X21291Y33330D01*
X21230Y33395D01*
X21171Y33462D01*
X21115Y33531D01*
X21062Y33603D01*
X21012Y33678D01*
X20966Y33754D01*
X20923Y33832D01*
X20884Y33912D01*
X20848Y33994D01*
X20815Y34077D01*
X20787Y34162D01*
X20762Y34247D01*
X20740Y34334D01*
X20723Y34422D01*
X20710Y34510D01*
X20700Y34599D01*
X20694Y34688D01*
X20692Y34777D01*
X23965Y34368D02*
X25602Y32731D01*
X27787Y38460D02*
X29833Y40097D01*
X29833Y32731D01*
X27787Y32731D02*
X31879Y32731D01*
D14*
X25400Y80836D02*
X25400Y87186D01*
D13*
X33459Y79888D02*
X40825Y79888D01*
X33459Y79888D02*
X33459Y81934D01*
X33460Y81934D02*
X33462Y82023D01*
X33468Y82112D01*
X33478Y82201D01*
X33491Y82289D01*
X33508Y82377D01*
X33530Y82464D01*
X33555Y82549D01*
X33583Y82634D01*
X33616Y82717D01*
X33652Y82799D01*
X33691Y82879D01*
X33734Y82957D01*
X33780Y83033D01*
X33830Y83108D01*
X33883Y83180D01*
X33939Y83249D01*
X33998Y83316D01*
X34059Y83381D01*
X34124Y83442D01*
X34191Y83501D01*
X34260Y83557D01*
X34332Y83610D01*
X34407Y83660D01*
X34483Y83706D01*
X34561Y83749D01*
X34641Y83788D01*
X34723Y83824D01*
X34806Y83857D01*
X34891Y83885D01*
X34976Y83910D01*
X35063Y83932D01*
X35151Y83949D01*
X35239Y83962D01*
X35328Y83972D01*
X35417Y83978D01*
X35506Y83980D01*
X35595Y83978D01*
X35684Y83972D01*
X35773Y83962D01*
X35861Y83949D01*
X35949Y83932D01*
X36036Y83910D01*
X36121Y83885D01*
X36206Y83857D01*
X36289Y83824D01*
X36371Y83788D01*
X36451Y83749D01*
X36529Y83706D01*
X36605Y83660D01*
X36680Y83610D01*
X36752Y83557D01*
X36821Y83501D01*
X36888Y83442D01*
X36953Y83381D01*
X37014Y83316D01*
X37073Y83249D01*
X37129Y83180D01*
X37182Y83108D01*
X37232Y83033D01*
X37278Y82957D01*
X37321Y82879D01*
X37360Y82799D01*
X37396Y82717D01*
X37429Y82634D01*
X37457Y82549D01*
X37482Y82464D01*
X37504Y82377D01*
X37521Y82289D01*
X37534Y82201D01*
X37544Y82112D01*
X37550Y82023D01*
X37552Y81934D01*
X37552Y79888D01*
X37552Y82344D02*
X40825Y83980D01*
X39189Y87152D02*
X33459Y88789D01*
X39189Y87152D02*
X39189Y91244D01*
X37552Y90017D02*
X40825Y90017D01*
D14*
X-15875Y87186D02*
X-15875Y80836D01*
D13*
X-23792Y84003D02*
X-31158Y84003D01*
X-31158Y86049D01*
X-31156Y86138D01*
X-31150Y86227D01*
X-31140Y86316D01*
X-31127Y86404D01*
X-31110Y86492D01*
X-31088Y86579D01*
X-31063Y86664D01*
X-31035Y86749D01*
X-31002Y86832D01*
X-30966Y86914D01*
X-30927Y86994D01*
X-30884Y87072D01*
X-30838Y87148D01*
X-30788Y87223D01*
X-30735Y87295D01*
X-30679Y87364D01*
X-30620Y87431D01*
X-30559Y87496D01*
X-30494Y87557D01*
X-30427Y87616D01*
X-30358Y87672D01*
X-30286Y87725D01*
X-30211Y87775D01*
X-30135Y87821D01*
X-30057Y87864D01*
X-29977Y87903D01*
X-29895Y87939D01*
X-29812Y87972D01*
X-29727Y88000D01*
X-29642Y88025D01*
X-29555Y88047D01*
X-29467Y88064D01*
X-29379Y88077D01*
X-29290Y88087D01*
X-29201Y88093D01*
X-29112Y88095D01*
X-29023Y88093D01*
X-28934Y88087D01*
X-28845Y88077D01*
X-28757Y88064D01*
X-28669Y88047D01*
X-28582Y88025D01*
X-28497Y88000D01*
X-28412Y87972D01*
X-28329Y87939D01*
X-28247Y87903D01*
X-28167Y87864D01*
X-28089Y87821D01*
X-28013Y87775D01*
X-27938Y87725D01*
X-27866Y87672D01*
X-27797Y87616D01*
X-27730Y87557D01*
X-27665Y87496D01*
X-27604Y87431D01*
X-27545Y87364D01*
X-27489Y87295D01*
X-27436Y87223D01*
X-27386Y87148D01*
X-27340Y87072D01*
X-27297Y86994D01*
X-27258Y86914D01*
X-27222Y86832D01*
X-27189Y86749D01*
X-27161Y86664D01*
X-27136Y86579D01*
X-27114Y86492D01*
X-27097Y86404D01*
X-27084Y86316D01*
X-27074Y86227D01*
X-27068Y86138D01*
X-27066Y86049D01*
X-27066Y84003D01*
X-27066Y86458D02*
X-23792Y88095D01*
X-23792Y91267D02*
X-23792Y93722D01*
X-23794Y93802D01*
X-23800Y93882D01*
X-23810Y93962D01*
X-23823Y94041D01*
X-23841Y94120D01*
X-23862Y94197D01*
X-23888Y94273D01*
X-23917Y94348D01*
X-23949Y94422D01*
X-23985Y94494D01*
X-24025Y94564D01*
X-24068Y94631D01*
X-24114Y94697D01*
X-24164Y94760D01*
X-24216Y94821D01*
X-24271Y94880D01*
X-24330Y94935D01*
X-24390Y94987D01*
X-24454Y95037D01*
X-24520Y95083D01*
X-24587Y95126D01*
X-24657Y95166D01*
X-24729Y95202D01*
X-24803Y95234D01*
X-24877Y95263D01*
X-24954Y95289D01*
X-25031Y95310D01*
X-25110Y95328D01*
X-25189Y95341D01*
X-25269Y95351D01*
X-25349Y95357D01*
X-25429Y95359D01*
X-26248Y95359D01*
X-26326Y95357D01*
X-26404Y95352D01*
X-26481Y95342D01*
X-26558Y95329D01*
X-26634Y95313D01*
X-26709Y95293D01*
X-26783Y95269D01*
X-26856Y95242D01*
X-26928Y95211D01*
X-26998Y95177D01*
X-27067Y95140D01*
X-27133Y95099D01*
X-27198Y95055D01*
X-27260Y95009D01*
X-27320Y94959D01*
X-27378Y94907D01*
X-27433Y94852D01*
X-27485Y94794D01*
X-27535Y94734D01*
X-27581Y94672D01*
X-27625Y94607D01*
X-27666Y94541D01*
X-27703Y94472D01*
X-27737Y94402D01*
X-27768Y94330D01*
X-27795Y94257D01*
X-27819Y94183D01*
X-27839Y94108D01*
X-27855Y94032D01*
X-27868Y93955D01*
X-27878Y93878D01*
X-27883Y93800D01*
X-27885Y93722D01*
X-27884Y93722D02*
X-27884Y91267D01*
X-31158Y91267D01*
X-31158Y95359D01*
D14*
X-15875Y150940D02*
X-15875Y157290D01*
D13*
X-7904Y143706D02*
X-538Y143706D01*
X-7904Y143706D02*
X-7904Y145752D01*
X-7902Y145841D01*
X-7896Y145930D01*
X-7886Y146019D01*
X-7873Y146107D01*
X-7856Y146195D01*
X-7834Y146282D01*
X-7809Y146367D01*
X-7781Y146452D01*
X-7748Y146535D01*
X-7712Y146617D01*
X-7673Y146697D01*
X-7630Y146775D01*
X-7584Y146851D01*
X-7534Y146926D01*
X-7481Y146998D01*
X-7425Y147067D01*
X-7366Y147134D01*
X-7305Y147199D01*
X-7240Y147260D01*
X-7173Y147319D01*
X-7104Y147375D01*
X-7032Y147428D01*
X-6957Y147478D01*
X-6881Y147524D01*
X-6803Y147567D01*
X-6723Y147606D01*
X-6641Y147642D01*
X-6558Y147675D01*
X-6473Y147703D01*
X-6388Y147728D01*
X-6301Y147750D01*
X-6213Y147767D01*
X-6125Y147780D01*
X-6036Y147790D01*
X-5947Y147796D01*
X-5858Y147798D01*
X-5769Y147796D01*
X-5680Y147790D01*
X-5591Y147780D01*
X-5503Y147767D01*
X-5415Y147750D01*
X-5328Y147728D01*
X-5243Y147703D01*
X-5158Y147675D01*
X-5075Y147642D01*
X-4993Y147606D01*
X-4913Y147567D01*
X-4835Y147524D01*
X-4759Y147478D01*
X-4684Y147428D01*
X-4612Y147375D01*
X-4543Y147319D01*
X-4476Y147260D01*
X-4411Y147199D01*
X-4350Y147134D01*
X-4291Y147067D01*
X-4235Y146998D01*
X-4182Y146926D01*
X-4132Y146851D01*
X-4086Y146775D01*
X-4043Y146697D01*
X-4004Y146617D01*
X-3968Y146535D01*
X-3935Y146452D01*
X-3907Y146367D01*
X-3882Y146282D01*
X-3860Y146195D01*
X-3843Y146107D01*
X-3830Y146019D01*
X-3820Y145930D01*
X-3814Y145841D01*
X-3812Y145752D01*
X-3812Y143706D01*
X-3812Y146161D02*
X-538Y147798D01*
X-4631Y150970D02*
X-4631Y153425D01*
X-4629Y153503D01*
X-4624Y153581D01*
X-4614Y153658D01*
X-4601Y153735D01*
X-4585Y153811D01*
X-4565Y153886D01*
X-4541Y153960D01*
X-4514Y154033D01*
X-4483Y154105D01*
X-4449Y154175D01*
X-4412Y154244D01*
X-4371Y154310D01*
X-4327Y154375D01*
X-4281Y154437D01*
X-4231Y154497D01*
X-4179Y154555D01*
X-4124Y154610D01*
X-4066Y154662D01*
X-4006Y154712D01*
X-3944Y154758D01*
X-3879Y154802D01*
X-3813Y154843D01*
X-3744Y154880D01*
X-3674Y154914D01*
X-3602Y154945D01*
X-3529Y154972D01*
X-3455Y154996D01*
X-3380Y155016D01*
X-3304Y155032D01*
X-3227Y155045D01*
X-3150Y155055D01*
X-3072Y155060D01*
X-2994Y155062D01*
X-2585Y155062D01*
X-2496Y155060D01*
X-2407Y155054D01*
X-2318Y155044D01*
X-2230Y155031D01*
X-2142Y155014D01*
X-2055Y154992D01*
X-1970Y154967D01*
X-1885Y154939D01*
X-1802Y154906D01*
X-1720Y154870D01*
X-1640Y154831D01*
X-1562Y154788D01*
X-1486Y154742D01*
X-1411Y154692D01*
X-1339Y154639D01*
X-1270Y154583D01*
X-1203Y154524D01*
X-1138Y154463D01*
X-1077Y154398D01*
X-1018Y154331D01*
X-962Y154262D01*
X-909Y154190D01*
X-859Y154115D01*
X-813Y154039D01*
X-770Y153961D01*
X-731Y153881D01*
X-695Y153799D01*
X-662Y153716D01*
X-634Y153631D01*
X-609Y153546D01*
X-587Y153459D01*
X-570Y153371D01*
X-557Y153283D01*
X-547Y153194D01*
X-541Y153105D01*
X-539Y153016D01*
X-541Y152927D01*
X-547Y152838D01*
X-557Y152749D01*
X-570Y152661D01*
X-587Y152573D01*
X-609Y152486D01*
X-634Y152401D01*
X-662Y152316D01*
X-695Y152233D01*
X-731Y152151D01*
X-770Y152071D01*
X-813Y151993D01*
X-859Y151917D01*
X-909Y151842D01*
X-962Y151770D01*
X-1018Y151701D01*
X-1077Y151634D01*
X-1138Y151569D01*
X-1203Y151508D01*
X-1270Y151449D01*
X-1339Y151393D01*
X-1411Y151340D01*
X-1486Y151290D01*
X-1562Y151244D01*
X-1640Y151201D01*
X-1720Y151162D01*
X-1802Y151126D01*
X-1885Y151093D01*
X-1970Y151065D01*
X-2055Y151040D01*
X-2142Y151018D01*
X-2230Y151001D01*
X-2318Y150988D01*
X-2407Y150978D01*
X-2496Y150972D01*
X-2585Y150970D01*
X-4631Y150970D01*
X-4631Y150969D02*
X-4745Y150971D01*
X-4859Y150977D01*
X-4973Y150987D01*
X-5087Y151001D01*
X-5200Y151019D01*
X-5312Y151041D01*
X-5423Y151066D01*
X-5533Y151096D01*
X-5643Y151129D01*
X-5751Y151166D01*
X-5857Y151207D01*
X-5963Y151252D01*
X-6066Y151300D01*
X-6168Y151352D01*
X-6268Y151408D01*
X-6366Y151466D01*
X-6462Y151529D01*
X-6555Y151594D01*
X-6647Y151663D01*
X-6735Y151735D01*
X-6822Y151810D01*
X-6905Y151888D01*
X-6986Y151969D01*
X-7064Y152052D01*
X-7139Y152139D01*
X-7211Y152227D01*
X-7280Y152319D01*
X-7345Y152412D01*
X-7407Y152508D01*
X-7466Y152606D01*
X-7522Y152706D01*
X-7574Y152808D01*
X-7622Y152911D01*
X-7667Y153017D01*
X-7708Y153123D01*
X-7745Y153231D01*
X-7778Y153341D01*
X-7808Y153451D01*
X-7833Y153562D01*
X-7855Y153674D01*
X-7873Y153787D01*
X-7887Y153901D01*
X-7897Y154015D01*
X-7903Y154129D01*
X-7905Y154243D01*
D14*
X9525Y157290D02*
X9525Y150940D01*
D13*
X19489Y148938D02*
X26855Y148938D01*
X19489Y148938D02*
X19489Y150984D01*
X19490Y150984D02*
X19492Y151073D01*
X19498Y151162D01*
X19508Y151251D01*
X19521Y151339D01*
X19538Y151427D01*
X19560Y151514D01*
X19585Y151599D01*
X19613Y151684D01*
X19646Y151767D01*
X19682Y151849D01*
X19721Y151929D01*
X19764Y152007D01*
X19810Y152083D01*
X19860Y152158D01*
X19913Y152230D01*
X19969Y152299D01*
X20028Y152366D01*
X20089Y152431D01*
X20154Y152492D01*
X20221Y152551D01*
X20290Y152607D01*
X20362Y152660D01*
X20437Y152710D01*
X20513Y152756D01*
X20591Y152799D01*
X20671Y152838D01*
X20753Y152874D01*
X20836Y152907D01*
X20921Y152935D01*
X21006Y152960D01*
X21093Y152982D01*
X21181Y152999D01*
X21269Y153012D01*
X21358Y153022D01*
X21447Y153028D01*
X21536Y153030D01*
X21625Y153028D01*
X21714Y153022D01*
X21803Y153012D01*
X21891Y152999D01*
X21979Y152982D01*
X22066Y152960D01*
X22151Y152935D01*
X22236Y152907D01*
X22319Y152874D01*
X22401Y152838D01*
X22481Y152799D01*
X22559Y152756D01*
X22635Y152710D01*
X22710Y152660D01*
X22782Y152607D01*
X22851Y152551D01*
X22918Y152492D01*
X22983Y152431D01*
X23044Y152366D01*
X23103Y152299D01*
X23159Y152230D01*
X23212Y152158D01*
X23262Y152083D01*
X23308Y152007D01*
X23351Y151929D01*
X23390Y151849D01*
X23426Y151767D01*
X23459Y151684D01*
X23487Y151599D01*
X23512Y151514D01*
X23534Y151427D01*
X23551Y151339D01*
X23564Y151251D01*
X23574Y151162D01*
X23580Y151073D01*
X23582Y150984D01*
X23582Y148938D01*
X23582Y151393D02*
X26855Y153030D01*
X23582Y157839D02*
X23582Y160294D01*
X23582Y157839D02*
X23580Y157761D01*
X23575Y157683D01*
X23565Y157606D01*
X23552Y157529D01*
X23536Y157453D01*
X23516Y157378D01*
X23492Y157304D01*
X23465Y157231D01*
X23434Y157159D01*
X23400Y157089D01*
X23363Y157021D01*
X23322Y156954D01*
X23278Y156889D01*
X23232Y156827D01*
X23182Y156767D01*
X23130Y156709D01*
X23075Y156654D01*
X23017Y156602D01*
X22957Y156552D01*
X22895Y156506D01*
X22830Y156462D01*
X22764Y156421D01*
X22695Y156384D01*
X22625Y156350D01*
X22553Y156319D01*
X22480Y156292D01*
X22406Y156268D01*
X22331Y156248D01*
X22255Y156232D01*
X22178Y156219D01*
X22101Y156209D01*
X22023Y156204D01*
X21945Y156202D01*
X21536Y156202D01*
X21447Y156204D01*
X21358Y156210D01*
X21269Y156220D01*
X21181Y156233D01*
X21093Y156250D01*
X21006Y156272D01*
X20921Y156297D01*
X20836Y156325D01*
X20753Y156358D01*
X20671Y156394D01*
X20591Y156433D01*
X20513Y156476D01*
X20437Y156522D01*
X20362Y156572D01*
X20290Y156625D01*
X20221Y156681D01*
X20154Y156740D01*
X20089Y156801D01*
X20028Y156866D01*
X19969Y156933D01*
X19913Y157002D01*
X19860Y157074D01*
X19810Y157149D01*
X19764Y157225D01*
X19721Y157303D01*
X19682Y157383D01*
X19646Y157465D01*
X19613Y157548D01*
X19585Y157633D01*
X19560Y157718D01*
X19538Y157805D01*
X19521Y157893D01*
X19508Y157981D01*
X19498Y158070D01*
X19492Y158159D01*
X19490Y158248D01*
X19492Y158337D01*
X19498Y158426D01*
X19508Y158515D01*
X19521Y158603D01*
X19538Y158691D01*
X19560Y158778D01*
X19585Y158863D01*
X19613Y158948D01*
X19646Y159031D01*
X19682Y159113D01*
X19721Y159193D01*
X19764Y159271D01*
X19810Y159347D01*
X19860Y159422D01*
X19913Y159494D01*
X19969Y159563D01*
X20028Y159630D01*
X20089Y159695D01*
X20154Y159756D01*
X20221Y159815D01*
X20290Y159871D01*
X20362Y159924D01*
X20437Y159974D01*
X20513Y160020D01*
X20591Y160063D01*
X20671Y160102D01*
X20753Y160138D01*
X20836Y160171D01*
X20921Y160199D01*
X21006Y160224D01*
X21093Y160246D01*
X21181Y160263D01*
X21269Y160276D01*
X21358Y160286D01*
X21447Y160292D01*
X21536Y160294D01*
X23582Y160294D01*
X23582Y160295D02*
X23694Y160293D01*
X23805Y160287D01*
X23917Y160278D01*
X24028Y160265D01*
X24138Y160247D01*
X24248Y160227D01*
X24357Y160202D01*
X24465Y160174D01*
X24572Y160142D01*
X24678Y160106D01*
X24783Y160067D01*
X24886Y160024D01*
X24988Y159978D01*
X25088Y159928D01*
X25187Y159875D01*
X25283Y159818D01*
X25378Y159759D01*
X25470Y159696D01*
X25560Y159630D01*
X25648Y159561D01*
X25734Y159489D01*
X25817Y159414D01*
X25897Y159336D01*
X25975Y159256D01*
X26050Y159173D01*
X26122Y159087D01*
X26191Y158999D01*
X26257Y158909D01*
X26320Y158817D01*
X26379Y158722D01*
X26436Y158626D01*
X26489Y158527D01*
X26539Y158427D01*
X26585Y158325D01*
X26628Y158222D01*
X26667Y158117D01*
X26703Y158011D01*
X26735Y157904D01*
X26763Y157796D01*
X26788Y157687D01*
X26808Y157577D01*
X26826Y157467D01*
X26839Y157356D01*
X26848Y157244D01*
X26854Y157133D01*
X26856Y157021D01*
D14*
X-41275Y87186D02*
X-41275Y80836D01*
D13*
X-49220Y80701D02*
X-56586Y80701D01*
X-56586Y82747D01*
X-56584Y82836D01*
X-56578Y82925D01*
X-56568Y83014D01*
X-56555Y83102D01*
X-56538Y83190D01*
X-56516Y83277D01*
X-56491Y83362D01*
X-56463Y83447D01*
X-56430Y83530D01*
X-56394Y83612D01*
X-56355Y83692D01*
X-56312Y83770D01*
X-56266Y83846D01*
X-56216Y83921D01*
X-56163Y83993D01*
X-56107Y84062D01*
X-56048Y84129D01*
X-55987Y84194D01*
X-55922Y84255D01*
X-55855Y84314D01*
X-55786Y84370D01*
X-55714Y84423D01*
X-55639Y84473D01*
X-55563Y84519D01*
X-55485Y84562D01*
X-55405Y84601D01*
X-55323Y84637D01*
X-55240Y84670D01*
X-55155Y84698D01*
X-55070Y84723D01*
X-54983Y84745D01*
X-54895Y84762D01*
X-54807Y84775D01*
X-54718Y84785D01*
X-54629Y84791D01*
X-54540Y84793D01*
X-54451Y84791D01*
X-54362Y84785D01*
X-54273Y84775D01*
X-54185Y84762D01*
X-54097Y84745D01*
X-54010Y84723D01*
X-53925Y84698D01*
X-53840Y84670D01*
X-53757Y84637D01*
X-53675Y84601D01*
X-53595Y84562D01*
X-53517Y84519D01*
X-53441Y84473D01*
X-53366Y84423D01*
X-53294Y84370D01*
X-53225Y84314D01*
X-53158Y84255D01*
X-53093Y84194D01*
X-53032Y84129D01*
X-52973Y84062D01*
X-52917Y83993D01*
X-52864Y83921D01*
X-52814Y83846D01*
X-52768Y83770D01*
X-52725Y83692D01*
X-52686Y83612D01*
X-52650Y83530D01*
X-52617Y83447D01*
X-52589Y83362D01*
X-52564Y83277D01*
X-52542Y83190D01*
X-52525Y83102D01*
X-52512Y83014D01*
X-52502Y82925D01*
X-52496Y82836D01*
X-52494Y82747D01*
X-52494Y80701D01*
X-52494Y83156D02*
X-49220Y84793D01*
X-51266Y87965D02*
X-51355Y87967D01*
X-51444Y87973D01*
X-51533Y87983D01*
X-51621Y87996D01*
X-51709Y88013D01*
X-51796Y88035D01*
X-51881Y88060D01*
X-51966Y88088D01*
X-52049Y88121D01*
X-52131Y88157D01*
X-52211Y88196D01*
X-52289Y88239D01*
X-52365Y88285D01*
X-52440Y88335D01*
X-52512Y88388D01*
X-52581Y88444D01*
X-52648Y88503D01*
X-52713Y88564D01*
X-52774Y88629D01*
X-52833Y88696D01*
X-52889Y88765D01*
X-52942Y88837D01*
X-52992Y88912D01*
X-53038Y88988D01*
X-53081Y89066D01*
X-53120Y89146D01*
X-53156Y89228D01*
X-53189Y89311D01*
X-53217Y89396D01*
X-53242Y89481D01*
X-53264Y89568D01*
X-53281Y89656D01*
X-53294Y89744D01*
X-53304Y89833D01*
X-53310Y89922D01*
X-53312Y90011D01*
X-53310Y90100D01*
X-53304Y90189D01*
X-53294Y90278D01*
X-53281Y90366D01*
X-53264Y90454D01*
X-53242Y90541D01*
X-53217Y90626D01*
X-53189Y90711D01*
X-53156Y90794D01*
X-53120Y90876D01*
X-53081Y90956D01*
X-53038Y91034D01*
X-52992Y91110D01*
X-52942Y91185D01*
X-52889Y91257D01*
X-52833Y91326D01*
X-52774Y91393D01*
X-52713Y91458D01*
X-52648Y91519D01*
X-52581Y91578D01*
X-52512Y91634D01*
X-52440Y91687D01*
X-52365Y91737D01*
X-52289Y91783D01*
X-52211Y91826D01*
X-52131Y91865D01*
X-52049Y91901D01*
X-51966Y91934D01*
X-51881Y91962D01*
X-51796Y91987D01*
X-51709Y92009D01*
X-51621Y92026D01*
X-51533Y92039D01*
X-51444Y92049D01*
X-51355Y92055D01*
X-51266Y92057D01*
X-51177Y92055D01*
X-51088Y92049D01*
X-50999Y92039D01*
X-50911Y92026D01*
X-50823Y92009D01*
X-50736Y91987D01*
X-50651Y91962D01*
X-50566Y91934D01*
X-50483Y91901D01*
X-50401Y91865D01*
X-50321Y91826D01*
X-50243Y91783D01*
X-50167Y91737D01*
X-50092Y91687D01*
X-50020Y91634D01*
X-49951Y91578D01*
X-49884Y91519D01*
X-49819Y91458D01*
X-49758Y91393D01*
X-49699Y91326D01*
X-49643Y91257D01*
X-49590Y91185D01*
X-49540Y91110D01*
X-49494Y91034D01*
X-49451Y90956D01*
X-49412Y90876D01*
X-49376Y90794D01*
X-49343Y90711D01*
X-49315Y90626D01*
X-49290Y90541D01*
X-49268Y90454D01*
X-49251Y90366D01*
X-49238Y90278D01*
X-49228Y90189D01*
X-49222Y90100D01*
X-49220Y90011D01*
X-49222Y89922D01*
X-49228Y89833D01*
X-49238Y89744D01*
X-49251Y89656D01*
X-49268Y89568D01*
X-49290Y89481D01*
X-49315Y89396D01*
X-49343Y89311D01*
X-49376Y89228D01*
X-49412Y89146D01*
X-49451Y89066D01*
X-49494Y88988D01*
X-49540Y88912D01*
X-49590Y88837D01*
X-49643Y88765D01*
X-49699Y88696D01*
X-49758Y88629D01*
X-49819Y88564D01*
X-49884Y88503D01*
X-49951Y88444D01*
X-50020Y88388D01*
X-50092Y88335D01*
X-50167Y88285D01*
X-50243Y88239D01*
X-50321Y88196D01*
X-50401Y88157D01*
X-50483Y88121D01*
X-50566Y88088D01*
X-50651Y88060D01*
X-50736Y88035D01*
X-50823Y88013D01*
X-50911Y87996D01*
X-50999Y87983D01*
X-51088Y87973D01*
X-51177Y87967D01*
X-51266Y87965D01*
X-54949Y88374D02*
X-55028Y88376D01*
X-55107Y88382D01*
X-55186Y88391D01*
X-55264Y88404D01*
X-55341Y88422D01*
X-55417Y88442D01*
X-55492Y88467D01*
X-55566Y88495D01*
X-55639Y88526D01*
X-55710Y88562D01*
X-55779Y88600D01*
X-55846Y88642D01*
X-55911Y88687D01*
X-55974Y88735D01*
X-56035Y88786D01*
X-56092Y88840D01*
X-56148Y88896D01*
X-56200Y88955D01*
X-56250Y89017D01*
X-56296Y89081D01*
X-56340Y89147D01*
X-56380Y89215D01*
X-56416Y89285D01*
X-56450Y89357D01*
X-56480Y89431D01*
X-56506Y89505D01*
X-56529Y89581D01*
X-56547Y89658D01*
X-56563Y89735D01*
X-56574Y89814D01*
X-56582Y89892D01*
X-56586Y89971D01*
X-56586Y90051D01*
X-56582Y90130D01*
X-56574Y90208D01*
X-56563Y90287D01*
X-56547Y90364D01*
X-56529Y90441D01*
X-56506Y90517D01*
X-56480Y90591D01*
X-56450Y90665D01*
X-56416Y90737D01*
X-56380Y90807D01*
X-56340Y90875D01*
X-56296Y90941D01*
X-56250Y91005D01*
X-56200Y91067D01*
X-56148Y91126D01*
X-56092Y91182D01*
X-56035Y91236D01*
X-55974Y91287D01*
X-55911Y91335D01*
X-55846Y91380D01*
X-55779Y91422D01*
X-55710Y91460D01*
X-55639Y91496D01*
X-55566Y91527D01*
X-55492Y91555D01*
X-55417Y91580D01*
X-55341Y91600D01*
X-55264Y91618D01*
X-55186Y91631D01*
X-55107Y91640D01*
X-55028Y91646D01*
X-54949Y91648D01*
X-54870Y91646D01*
X-54791Y91640D01*
X-54712Y91631D01*
X-54634Y91618D01*
X-54557Y91600D01*
X-54481Y91580D01*
X-54406Y91555D01*
X-54332Y91527D01*
X-54259Y91496D01*
X-54188Y91460D01*
X-54119Y91422D01*
X-54052Y91380D01*
X-53987Y91335D01*
X-53924Y91287D01*
X-53863Y91236D01*
X-53806Y91182D01*
X-53750Y91126D01*
X-53698Y91067D01*
X-53648Y91005D01*
X-53602Y90941D01*
X-53558Y90875D01*
X-53518Y90807D01*
X-53482Y90737D01*
X-53448Y90665D01*
X-53418Y90591D01*
X-53392Y90517D01*
X-53369Y90441D01*
X-53351Y90364D01*
X-53335Y90287D01*
X-53324Y90208D01*
X-53316Y90130D01*
X-53312Y90051D01*
X-53312Y89971D01*
X-53316Y89892D01*
X-53324Y89814D01*
X-53335Y89735D01*
X-53351Y89658D01*
X-53369Y89581D01*
X-53392Y89505D01*
X-53418Y89431D01*
X-53448Y89357D01*
X-53482Y89285D01*
X-53518Y89215D01*
X-53558Y89147D01*
X-53602Y89081D01*
X-53648Y89017D01*
X-53698Y88955D01*
X-53750Y88896D01*
X-53806Y88840D01*
X-53863Y88786D01*
X-53924Y88735D01*
X-53987Y88687D01*
X-54052Y88642D01*
X-54119Y88600D01*
X-54188Y88562D01*
X-54259Y88526D01*
X-54332Y88495D01*
X-54406Y88467D01*
X-54481Y88442D01*
X-54557Y88422D01*
X-54634Y88404D01*
X-54712Y88391D01*
X-54791Y88382D01*
X-54870Y88376D01*
X-54949Y88374D01*
D14*
X0Y87186D02*
X0Y80836D01*
D13*
X8451Y83698D02*
X15817Y83698D01*
X8451Y83698D02*
X8451Y85744D01*
X8453Y85833D01*
X8459Y85922D01*
X8469Y86011D01*
X8482Y86099D01*
X8499Y86187D01*
X8521Y86274D01*
X8546Y86359D01*
X8574Y86444D01*
X8607Y86527D01*
X8643Y86609D01*
X8682Y86689D01*
X8725Y86767D01*
X8771Y86843D01*
X8821Y86918D01*
X8874Y86990D01*
X8930Y87059D01*
X8989Y87126D01*
X9050Y87191D01*
X9115Y87252D01*
X9182Y87311D01*
X9251Y87367D01*
X9323Y87420D01*
X9398Y87470D01*
X9474Y87516D01*
X9552Y87559D01*
X9632Y87598D01*
X9714Y87634D01*
X9797Y87667D01*
X9882Y87695D01*
X9967Y87720D01*
X10054Y87742D01*
X10142Y87759D01*
X10230Y87772D01*
X10319Y87782D01*
X10408Y87788D01*
X10497Y87790D01*
X10586Y87788D01*
X10675Y87782D01*
X10764Y87772D01*
X10852Y87759D01*
X10940Y87742D01*
X11027Y87720D01*
X11112Y87695D01*
X11197Y87667D01*
X11280Y87634D01*
X11362Y87598D01*
X11442Y87559D01*
X11520Y87516D01*
X11596Y87470D01*
X11671Y87420D01*
X11743Y87367D01*
X11812Y87311D01*
X11879Y87252D01*
X11944Y87191D01*
X12005Y87126D01*
X12064Y87059D01*
X12120Y86990D01*
X12173Y86918D01*
X12223Y86843D01*
X12269Y86767D01*
X12312Y86689D01*
X12351Y86609D01*
X12387Y86527D01*
X12420Y86444D01*
X12448Y86359D01*
X12473Y86274D01*
X12495Y86187D01*
X12512Y86099D01*
X12525Y86011D01*
X12535Y85922D01*
X12541Y85833D01*
X12543Y85744D01*
X12543Y83698D01*
X12543Y86153D02*
X15817Y87790D01*
X9269Y90962D02*
X8451Y90962D01*
X8451Y95054D01*
X15817Y93008D01*
D12*
X-56238Y47625D02*
X-56238Y45125D01*
X-56238Y47625D02*
X-56238Y50125D01*
X-56238Y47625D02*
X-61238Y45125D01*
X-61238Y50125D02*
X-56238Y47625D01*
X-61238Y50125D02*
X-61238Y45125D01*
D13*
X-62804Y55191D02*
X-62804Y62557D01*
X-60758Y62557D01*
X-60669Y62555D01*
X-60580Y62549D01*
X-60491Y62539D01*
X-60403Y62526D01*
X-60315Y62509D01*
X-60228Y62487D01*
X-60143Y62462D01*
X-60058Y62434D01*
X-59975Y62401D01*
X-59893Y62365D01*
X-59813Y62326D01*
X-59735Y62283D01*
X-59659Y62237D01*
X-59584Y62187D01*
X-59512Y62134D01*
X-59443Y62078D01*
X-59376Y62019D01*
X-59311Y61958D01*
X-59250Y61893D01*
X-59191Y61826D01*
X-59135Y61757D01*
X-59082Y61685D01*
X-59032Y61610D01*
X-58986Y61534D01*
X-58943Y61456D01*
X-58904Y61376D01*
X-58868Y61294D01*
X-58835Y61211D01*
X-58807Y61126D01*
X-58782Y61041D01*
X-58760Y60954D01*
X-58743Y60866D01*
X-58730Y60778D01*
X-58720Y60689D01*
X-58714Y60600D01*
X-58712Y60511D01*
X-58711Y60511D02*
X-58711Y57237D01*
X-58712Y57237D02*
X-58714Y57148D01*
X-58720Y57059D01*
X-58730Y56970D01*
X-58743Y56882D01*
X-58760Y56794D01*
X-58782Y56707D01*
X-58807Y56622D01*
X-58835Y56537D01*
X-58868Y56454D01*
X-58904Y56372D01*
X-58943Y56292D01*
X-58986Y56214D01*
X-59032Y56138D01*
X-59082Y56063D01*
X-59135Y55991D01*
X-59191Y55922D01*
X-59250Y55855D01*
X-59311Y55790D01*
X-59376Y55729D01*
X-59443Y55670D01*
X-59512Y55614D01*
X-59584Y55561D01*
X-59659Y55511D01*
X-59735Y55465D01*
X-59813Y55422D01*
X-59893Y55383D01*
X-59975Y55347D01*
X-60058Y55314D01*
X-60143Y55286D01*
X-60228Y55261D01*
X-60315Y55239D01*
X-60403Y55222D01*
X-60491Y55209D01*
X-60580Y55199D01*
X-60669Y55193D01*
X-60758Y55191D01*
X-62804Y55191D01*
X-55245Y60920D02*
X-53199Y62557D01*
X-53199Y55191D01*
X-55245Y55191D02*
X-51152Y55191D01*
D11*
X82550Y157163D02*
X95250Y157163D01*
X101600Y150813D01*
X101600Y138113D01*
X95250Y131763D01*
X76200Y138113D02*
X76200Y150813D01*
X82550Y157163D01*
X76200Y138113D02*
X82550Y131763D01*
X95250Y131763D01*
X-68263Y157163D02*
X-68263Y169863D01*
X-68263Y157163D02*
X-74613Y150813D01*
X-87313Y150813D01*
X-93663Y157163D01*
X-74613Y150813D02*
X-68263Y144463D01*
X-68263Y131763D01*
X-74613Y125413D01*
X-87313Y125413D01*
X-93663Y131763D01*
X-93663Y144463D01*
X-87313Y150813D01*
X-87313Y176213D02*
X-74613Y176213D01*
X-68263Y169863D01*
X-87313Y176213D02*
X-93663Y169863D01*
X-93663Y157163D01*
X-74613Y125413D02*
X-68263Y119063D01*
X-68263Y106363D01*
X-74613Y100013D01*
X-87313Y100013D01*
X-93663Y106363D01*
X-93663Y119063D01*
X-87313Y125413D01*
D15*
X51943Y39840D03*
D16*
X63297Y39840D03*
D17*
X50114Y39992D03*
X53315Y39992D03*
X70231Y39992D03*
D18*
X51714Y39992D03*
D19*
X63373Y39992D03*
D17*
X49809Y40145D03*
X53315Y40145D03*
D20*
X51562Y40145D03*
D21*
X63602Y40145D03*
D17*
X53315Y40297D03*
X70841Y40297D03*
D22*
X51410Y40297D03*
D23*
X63678Y40297D03*
D17*
X53315Y40449D03*
D24*
X51333Y40449D03*
D25*
X63830Y40449D03*
D17*
X49200Y40602D03*
X53315Y40602D03*
D26*
X51257Y40602D03*
D27*
X63906Y40602D03*
D17*
X53315Y40754D03*
D28*
X51181Y40754D03*
D29*
X63983Y40754D03*
D17*
X53315Y40907D03*
X71450Y40907D03*
D30*
X51105Y40907D03*
D29*
X63983Y40907D03*
D17*
X48895Y41059D03*
X53315Y41059D03*
D30*
X51105Y41059D03*
D31*
X64059Y41059D03*
D17*
X53315Y41211D03*
D32*
X51029Y41211D03*
D33*
X64135Y41211D03*
D17*
X53315Y41364D03*
X71755Y41364D03*
D34*
X50952Y41364D03*
D33*
X64135Y41364D03*
D17*
X48590Y41516D03*
X53315Y41516D03*
D34*
X50952Y41516D03*
D35*
X64211Y41516D03*
D17*
X53315Y41669D03*
X71907Y41669D03*
D36*
X50876Y41669D03*
D35*
X64211Y41669D03*
D17*
X48438Y41821D03*
X53315Y41821D03*
D36*
X50876Y41821D03*
D37*
X64287Y41821D03*
D17*
X53315Y41973D03*
D38*
X50800Y41973D03*
D39*
X64364Y41973D03*
D17*
X53315Y42126D03*
X72212Y42126D03*
D40*
X50724Y42126D03*
D39*
X64364Y42126D03*
D17*
X53315Y42278D03*
D40*
X50724Y42278D03*
D41*
X64440Y42278D03*
D17*
X53315Y42431D03*
X72365Y42431D03*
D42*
X50648Y42431D03*
D41*
X64440Y42431D03*
D17*
X47981Y42583D03*
X53315Y42583D03*
D42*
X50648Y42583D03*
D43*
X64516Y42583D03*
D17*
X53315Y42735D03*
X72517Y42735D03*
D44*
X50571Y42735D03*
D43*
X64516Y42735D03*
D17*
X47828Y42888D03*
X53315Y42888D03*
D44*
X50571Y42888D03*
D45*
X64592Y42888D03*
D17*
X53315Y43040D03*
D46*
X50495Y43040D03*
D47*
X64668Y43040D03*
D17*
X53315Y43193D03*
X72822Y43193D03*
D48*
X50419Y43193D03*
D47*
X64668Y43193D03*
D17*
X47523Y43345D03*
X53315Y43345D03*
D48*
X50419Y43345D03*
D49*
X64745Y43345D03*
D17*
X53315Y43497D03*
X72974Y43497D03*
D50*
X50343Y43497D03*
D49*
X64745Y43497D03*
D17*
X47371Y43650D03*
X53315Y43650D03*
D50*
X50343Y43650D03*
D51*
X64821Y43650D03*
D17*
X53315Y43802D03*
D52*
X50267Y43802D03*
D53*
X64897Y43802D03*
D17*
X47219Y43955D03*
X53315Y43955D03*
D52*
X50267Y43955D03*
D53*
X64897Y43955D03*
D17*
X53315Y44107D03*
D54*
X50190Y44107D03*
D55*
X64973Y44107D03*
D17*
X53315Y44259D03*
X73431Y44259D03*
D56*
X50114Y44259D03*
D55*
X64973Y44259D03*
D17*
X46914Y44412D03*
X53315Y44412D03*
D56*
X50114Y44412D03*
D57*
X65049Y44412D03*
D17*
X53315Y44564D03*
X73584Y44564D03*
D58*
X50038Y44564D03*
D57*
X65049Y44564D03*
D17*
X46761Y44717D03*
X53315Y44717D03*
D58*
X50038Y44717D03*
D59*
X65126Y44717D03*
D17*
X53315Y44869D03*
D60*
X49962Y44869D03*
D61*
X65202Y44869D03*
D17*
X46609Y45021D03*
X53315Y45021D03*
D60*
X49962Y45021D03*
D61*
X65202Y45021D03*
D17*
X53315Y45174D03*
D62*
X49886Y45174D03*
D63*
X65278Y45174D03*
D17*
X53315Y45326D03*
X74041Y45326D03*
D64*
X49809Y45326D03*
D63*
X65278Y45326D03*
D17*
X46304Y45479D03*
X53315Y45479D03*
D64*
X49809Y45479D03*
D65*
X65354Y45479D03*
D17*
X53315Y45631D03*
X56667Y45631D03*
X74193Y45631D03*
D66*
X49733Y45631D03*
D63*
X65430Y45631D03*
D17*
X46152Y45783D03*
X53315Y45783D03*
X56667Y45783D03*
D66*
X49733Y45783D03*
D65*
X65507Y45783D03*
D17*
X53315Y45936D03*
X56667Y45936D03*
X74346Y45936D03*
D67*
X49657Y45936D03*
D65*
X65507Y45936D03*
D17*
X53315Y46088D03*
X56667Y46088D03*
D68*
X49581Y46088D03*
D69*
X65583Y46088D03*
D17*
X53315Y46241D03*
X56667Y46241D03*
D68*
X49581Y46241D03*
D70*
X65659Y46241D03*
D17*
X53315Y46393D03*
X56667Y46393D03*
X74651Y46393D03*
D71*
X49505Y46393D03*
D70*
X65659Y46393D03*
D17*
X45695Y46545D03*
X53315Y46545D03*
X56667Y46545D03*
D71*
X49505Y46545D03*
D72*
X65735Y46545D03*
D17*
X53315Y46698D03*
X56667Y46698D03*
D73*
X64973Y46698D03*
D17*
X65964Y46698D03*
X74803Y46698D03*
D74*
X49428Y46698D03*
D75*
X60782Y46698D03*
D76*
X70383Y46698D03*
D17*
X45542Y46850D03*
X53315Y46850D03*
X56667Y46850D03*
X64592Y46850D03*
X66269Y46850D03*
D74*
X49428Y46850D03*
D77*
X60630Y46850D03*
D78*
X70612Y46850D03*
D17*
X53315Y47003D03*
X56667Y47003D03*
X64440Y47003D03*
X74955Y47003D03*
D77*
X49352Y47003D03*
D74*
X60554Y47003D03*
D79*
X70688Y47003D03*
D17*
X53315Y47155D03*
X56667Y47155D03*
X66726Y47155D03*
X75108Y47155D03*
D80*
X49276Y47155D03*
D71*
X60477Y47155D03*
D81*
X70917Y47155D03*
D17*
X45237Y47307D03*
X53315Y47307D03*
X56667Y47307D03*
X64135Y47307D03*
D80*
X49276Y47307D03*
D68*
X60401Y47307D03*
D79*
X70993Y47307D03*
D17*
X53315Y47460D03*
X56667Y47460D03*
X75260Y47460D03*
D75*
X49200Y47460D03*
D68*
X60401Y47460D03*
D82*
X71069Y47460D03*
D17*
X45085Y47612D03*
X53315Y47612D03*
X56667Y47612D03*
D75*
X49200Y47612D03*
D67*
X60325Y47612D03*
D79*
X71145Y47612D03*
D17*
X53315Y47765D03*
X56667Y47765D03*
X67031Y47765D03*
X75413Y47765D03*
D82*
X49124Y47765D03*
D67*
X60325Y47765D03*
D82*
X71222Y47765D03*
D17*
X44933Y47917D03*
X53315Y47917D03*
X56667Y47917D03*
X63830Y47917D03*
D82*
X49124Y47917D03*
D66*
X60249Y47917D03*
D79*
X71298Y47917D03*
D17*
X53315Y48069D03*
X56667Y48069D03*
X63830Y48069D03*
X75565Y48069D03*
D79*
X49047Y48069D03*
D66*
X60249Y48069D03*
D79*
X71298Y48069D03*
D17*
X53315Y48222D03*
X56667Y48222D03*
X63830Y48222D03*
D78*
X48971Y48222D03*
D66*
X60249Y48222D03*
D78*
X71374Y48222D03*
D17*
X44628Y48374D03*
X53315Y48374D03*
X56667Y48374D03*
X63830Y48374D03*
X75717Y48374D03*
D78*
X48971Y48374D03*
D66*
X60249Y48374D03*
D78*
X71374Y48374D03*
D17*
X53315Y48527D03*
X56667Y48527D03*
X63830Y48527D03*
D83*
X48895Y48527D03*
D66*
X60249Y48527D03*
D76*
X71450Y48527D03*
D17*
X44475Y48679D03*
X53315Y48679D03*
X56667Y48679D03*
X63830Y48679D03*
D83*
X48895Y48679D03*
D66*
X60249Y48679D03*
D84*
X71526Y48679D03*
D17*
X53315Y48831D03*
X56667Y48831D03*
X63830Y48831D03*
X76022Y48831D03*
D84*
X48819Y48831D03*
D66*
X60249Y48831D03*
D84*
X71526Y48831D03*
D17*
X44323Y48984D03*
X53315Y48984D03*
X56667Y48984D03*
X63830Y48984D03*
D84*
X48819Y48984D03*
D66*
X60249Y48984D03*
D85*
X71603Y48984D03*
D17*
X53315Y49136D03*
X56667Y49136D03*
X63830Y49136D03*
X76175Y49136D03*
D85*
X48743Y49136D03*
D66*
X60249Y49136D03*
D85*
X71603Y49136D03*
D17*
X53315Y49289D03*
X56667Y49289D03*
X63830Y49289D03*
D86*
X48666Y49289D03*
D66*
X60249Y49289D03*
D86*
X71679Y49289D03*
D17*
X44018Y49441D03*
X53315Y49441D03*
X56667Y49441D03*
X63830Y49441D03*
X67183Y49441D03*
X76327Y49441D03*
D86*
X48666Y49441D03*
D66*
X60249Y49441D03*
D85*
X71755Y49441D03*
D17*
X53315Y49593D03*
X56667Y49593D03*
X63830Y49593D03*
X67183Y49593D03*
D87*
X48590Y49593D03*
D66*
X60249Y49593D03*
D86*
X71831Y49593D03*
D17*
X43866Y49746D03*
X53315Y49746D03*
X56667Y49746D03*
X63830Y49746D03*
X67183Y49746D03*
D87*
X48590Y49746D03*
D66*
X60249Y49746D03*
D87*
X71907Y49746D03*
D17*
X53315Y49898D03*
X56667Y49898D03*
X63830Y49898D03*
X67183Y49898D03*
X76632Y49898D03*
D88*
X48514Y49898D03*
D66*
X60249Y49898D03*
D87*
X71907Y49898D03*
D17*
X43713Y50051D03*
X53315Y50051D03*
X56667Y50051D03*
X63830Y50051D03*
X67183Y50051D03*
D88*
X48514Y50051D03*
D66*
X60249Y50051D03*
D88*
X71984Y50051D03*
D17*
X53315Y50203D03*
X56667Y50203D03*
X63830Y50203D03*
X67183Y50203D03*
X76784Y50203D03*
D89*
X48438Y50203D03*
D66*
X60249Y50203D03*
D88*
X71984Y50203D03*
D17*
X53315Y50355D03*
X56667Y50355D03*
X63830Y50355D03*
X67183Y50355D03*
D90*
X48362Y50355D03*
D66*
X60249Y50355D03*
D89*
X72060Y50355D03*
D17*
X43409Y50508D03*
X53315Y50508D03*
X56667Y50508D03*
X67183Y50508D03*
D90*
X48362Y50508D03*
D66*
X60249Y50508D03*
D90*
X72136Y50508D03*
D17*
X53315Y50660D03*
X56667Y50660D03*
X67183Y50660D03*
X77089Y50660D03*
D91*
X48285Y50660D03*
D66*
X60249Y50660D03*
D90*
X72136Y50660D03*
D17*
X43256Y50813D03*
X53315Y50813D03*
X56667Y50813D03*
X67183Y50813D03*
D91*
X48285Y50813D03*
D66*
X60249Y50813D03*
D91*
X72212Y50813D03*
D17*
X53315Y50965D03*
X56667Y50965D03*
X67183Y50965D03*
X77241Y50965D03*
D92*
X48209Y50965D03*
D66*
X60249Y50965D03*
D91*
X72212Y50965D03*
D17*
X43104Y51117D03*
X53315Y51117D03*
X56667Y51117D03*
X67183Y51117D03*
D92*
X48209Y51117D03*
D66*
X60249Y51117D03*
D92*
X72288Y51117D03*
D17*
X53315Y51270D03*
X56667Y51270D03*
X67183Y51270D03*
X77394Y51270D03*
D93*
X48133Y51270D03*
D66*
X60249Y51270D03*
D92*
X72288Y51270D03*
D17*
X53315Y51422D03*
X56667Y51422D03*
X67183Y51422D03*
D94*
X48057Y51422D03*
D66*
X60249Y51422D03*
D93*
X72365Y51422D03*
D17*
X42799Y51575D03*
X53315Y51575D03*
X56667Y51575D03*
X67183Y51575D03*
D94*
X48057Y51575D03*
D66*
X60249Y51575D03*
D94*
X72441Y51575D03*
D17*
X53315Y51727D03*
X56667Y51727D03*
X67183Y51727D03*
X77699Y51727D03*
D95*
X47981Y51727D03*
D66*
X60249Y51727D03*
D94*
X72441Y51727D03*
D17*
X42647Y51879D03*
X53315Y51879D03*
X56667Y51879D03*
X67183Y51879D03*
D95*
X47981Y51879D03*
D66*
X60249Y51879D03*
D95*
X72517Y51879D03*
D17*
X53315Y52032D03*
X56667Y52032D03*
X67183Y52032D03*
X77851Y52032D03*
D96*
X47904Y52032D03*
D66*
X60249Y52032D03*
D95*
X72517Y52032D03*
D17*
X42494Y52184D03*
X53315Y52184D03*
X56667Y52184D03*
X67183Y52184D03*
D96*
X47904Y52184D03*
D66*
X60249Y52184D03*
D96*
X72593Y52184D03*
D17*
X53315Y52337D03*
X56667Y52337D03*
X67183Y52337D03*
X78003Y52337D03*
D97*
X47828Y52337D03*
D66*
X60249Y52337D03*
D96*
X72593Y52337D03*
D17*
X53315Y52489D03*
X56667Y52489D03*
X67183Y52489D03*
D98*
X47752Y52489D03*
D66*
X60249Y52489D03*
D97*
X72669Y52489D03*
D17*
X42189Y52641D03*
X53315Y52641D03*
X56667Y52641D03*
X67183Y52641D03*
D98*
X47752Y52641D03*
D66*
X60249Y52641D03*
D98*
X72746Y52641D03*
D17*
X53315Y52794D03*
X56667Y52794D03*
X67183Y52794D03*
X78308Y52794D03*
D99*
X47676Y52794D03*
D66*
X60249Y52794D03*
D98*
X72746Y52794D03*
D17*
X42037Y52946D03*
X53315Y52946D03*
X56667Y52946D03*
X67183Y52946D03*
D99*
X47676Y52946D03*
D66*
X60249Y52946D03*
D99*
X72822Y52946D03*
D17*
X53315Y53099D03*
X56667Y53099D03*
X67183Y53099D03*
X78461Y53099D03*
D100*
X47600Y53099D03*
D66*
X60249Y53099D03*
D99*
X72822Y53099D03*
D17*
X53315Y53251D03*
X56667Y53251D03*
X67183Y53251D03*
D101*
X47523Y53251D03*
D66*
X60249Y53251D03*
D100*
X72898Y53251D03*
D17*
X41732Y53403D03*
X53315Y53403D03*
X56667Y53403D03*
X67183Y53403D03*
X78613Y53403D03*
D101*
X47523Y53403D03*
D66*
X60249Y53403D03*
D100*
X72898Y53403D03*
D17*
X53315Y53556D03*
X56667Y53556D03*
X67183Y53556D03*
X78765Y53556D03*
D102*
X47447Y53556D03*
D66*
X60249Y53556D03*
D101*
X72974Y53556D03*
D17*
X41580Y53708D03*
X53315Y53708D03*
X56667Y53708D03*
X67183Y53708D03*
D102*
X47447Y53708D03*
D66*
X60249Y53708D03*
D102*
X73050Y53708D03*
D17*
X53315Y53861D03*
X56667Y53861D03*
X67183Y53861D03*
X78918Y53861D03*
D103*
X47371Y53861D03*
D66*
X60249Y53861D03*
D102*
X73050Y53861D03*
D17*
X41427Y54013D03*
X53315Y54013D03*
X56667Y54013D03*
X67183Y54013D03*
D103*
X47371Y54013D03*
D66*
X60249Y54013D03*
D103*
X73127Y54013D03*
D17*
X53315Y54165D03*
X56667Y54165D03*
X67183Y54165D03*
X79070Y54165D03*
D104*
X47295Y54165D03*
D66*
X60249Y54165D03*
D103*
X73127Y54165D03*
D17*
X53315Y54318D03*
X56667Y54318D03*
X67183Y54318D03*
D105*
X47219Y54318D03*
D66*
X60249Y54318D03*
D104*
X73203Y54318D03*
D17*
X41123Y54470D03*
X53315Y54470D03*
X56667Y54470D03*
X67183Y54470D03*
D105*
X47219Y54470D03*
D66*
X60249Y54470D03*
D105*
X73279Y54470D03*
D17*
X53315Y54623D03*
X56667Y54623D03*
X67183Y54623D03*
X79375Y54623D03*
D106*
X47142Y54623D03*
D66*
X60249Y54623D03*
D105*
X73279Y54623D03*
D17*
X40970Y54775D03*
X53315Y54775D03*
X56667Y54775D03*
X67183Y54775D03*
D106*
X47142Y54775D03*
D66*
X60249Y54775D03*
D106*
X73355Y54775D03*
D17*
X53315Y54927D03*
X56667Y54927D03*
X67183Y54927D03*
X79527Y54927D03*
D107*
X47066Y54927D03*
D66*
X60249Y54927D03*
D106*
X73355Y54927D03*
D17*
X40818Y55080D03*
X53315Y55080D03*
X56667Y55080D03*
X67183Y55080D03*
D107*
X47066Y55080D03*
D66*
X60249Y55080D03*
D107*
X73431Y55080D03*
D17*
X53315Y55232D03*
X56667Y55232D03*
X67183Y55232D03*
X79680Y55232D03*
D108*
X46990Y55232D03*
D66*
X60249Y55232D03*
D107*
X73431Y55232D03*
D17*
X53315Y55385D03*
X56667Y55385D03*
X67183Y55385D03*
D109*
X46914Y55385D03*
D66*
X60249Y55385D03*
D108*
X73508Y55385D03*
D17*
X40513Y55537D03*
X53315Y55537D03*
X56667Y55537D03*
X67183Y55537D03*
D109*
X46914Y55537D03*
D66*
X60249Y55537D03*
D109*
X73584Y55537D03*
D17*
X56667Y55689D03*
X67183Y55689D03*
X79985Y55689D03*
D110*
X46838Y55689D03*
D66*
X60249Y55689D03*
D109*
X73584Y55689D03*
D17*
X40361Y55842D03*
X56667Y55842D03*
X67183Y55842D03*
D110*
X46838Y55842D03*
D66*
X60249Y55842D03*
D110*
X73660Y55842D03*
D17*
X56667Y55994D03*
X67183Y55994D03*
X80137Y55994D03*
D111*
X46761Y55994D03*
D66*
X60249Y55994D03*
D110*
X73660Y55994D03*
D17*
X40208Y56147D03*
X56667Y56147D03*
X67183Y56147D03*
D111*
X46761Y56147D03*
D66*
X60249Y56147D03*
D111*
X73736Y56147D03*
D17*
X56667Y56299D03*
X67183Y56299D03*
X80289Y56299D03*
D16*
X46685Y56299D03*
D66*
X60249Y56299D03*
D111*
X73736Y56299D03*
D17*
X56820Y56451D03*
X63678Y56451D03*
X67183Y56451D03*
X80442Y56451D03*
D112*
X46609Y56451D03*
D113*
X60249Y56451D03*
D16*
X73812Y56451D03*
D17*
X39903Y56604D03*
X67183Y56604D03*
D112*
X46609Y56604D03*
X73889Y56604D03*
D17*
X67183Y56756D03*
X80594Y56756D03*
D114*
X46533Y56756D03*
D112*
X73889Y56756D03*
D17*
X39751Y56909D03*
X67183Y56909D03*
D114*
X46533Y56909D03*
X73965Y56909D03*
D17*
X67183Y57061D03*
X80747Y57061D03*
D19*
X46457Y57061D03*
D114*
X73965Y57061D03*
D17*
X39599Y57213D03*
X67183Y57213D03*
D19*
X46457Y57213D03*
X74041Y57213D03*
D17*
X67183Y57366D03*
X80899Y57366D03*
D115*
X46380Y57366D03*
D19*
X74041Y57366D03*
D17*
X39446Y57518D03*
X67183Y57518D03*
D115*
X46380Y57518D03*
X74117Y57518D03*
D17*
X39446Y57671D03*
X67183Y57671D03*
D115*
X46380Y57671D03*
X74117Y57671D03*
D17*
X67183Y57823D03*
D116*
X46304Y57823D03*
D115*
X74117Y57823D03*
D17*
X67183Y57975D03*
X81051Y57975D03*
D116*
X46304Y57975D03*
D115*
X74117Y57975D03*
D17*
X67183Y58128D03*
X81051Y58128D03*
D116*
X46304Y58128D03*
D115*
X74117Y58128D03*
D17*
X67183Y58280D03*
X81051Y58280D03*
D116*
X46304Y58280D03*
D115*
X74117Y58280D03*
D17*
X67183Y58433D03*
X81051Y58433D03*
D116*
X46304Y58433D03*
D115*
X74117Y58433D03*
D17*
X67183Y58585D03*
X81051Y58585D03*
D116*
X46304Y58585D03*
D115*
X74117Y58585D03*
D17*
X67183Y58737D03*
D116*
X46304Y58737D03*
D115*
X74117Y58737D03*
D17*
X39446Y58890D03*
X67183Y58890D03*
D115*
X46380Y58890D03*
X74117Y58890D03*
D17*
X67183Y59042D03*
X80899Y59042D03*
D115*
X46380Y59042D03*
D19*
X74041Y59042D03*
D17*
X67183Y59195D03*
X80899Y59195D03*
D115*
X46380Y59195D03*
D19*
X74041Y59195D03*
D17*
X39599Y59347D03*
X67183Y59347D03*
D19*
X46457Y59347D03*
X74041Y59347D03*
D17*
X67183Y59499D03*
X80747Y59499D03*
D19*
X46457Y59499D03*
D114*
X73965Y59499D03*
D17*
X39751Y59652D03*
X67183Y59652D03*
D114*
X46533Y59652D03*
X73965Y59652D03*
D17*
X67183Y59804D03*
D114*
X46533Y59804D03*
D112*
X73889Y59804D03*
D17*
X67183Y59957D03*
X80442Y59957D03*
D112*
X46609Y59957D03*
D16*
X73812Y59957D03*
D17*
X40056Y60109D03*
X67183Y60109D03*
D16*
X46685Y60109D03*
D66*
X60249Y60109D03*
D16*
X73812Y60109D03*
D17*
X56667Y60261D03*
X67183Y60261D03*
X80289Y60261D03*
D16*
X46685Y60261D03*
D66*
X60249Y60261D03*
D111*
X73736Y60261D03*
D17*
X40208Y60414D03*
X56667Y60414D03*
X67183Y60414D03*
D111*
X46761Y60414D03*
D66*
X60249Y60414D03*
D111*
X73736Y60414D03*
D17*
X56667Y60566D03*
X67183Y60566D03*
X80137Y60566D03*
D111*
X46761Y60566D03*
D66*
X60249Y60566D03*
D110*
X73660Y60566D03*
D17*
X40361Y60719D03*
X56667Y60719D03*
X67183Y60719D03*
X79985Y60719D03*
D110*
X46838Y60719D03*
D66*
X60249Y60719D03*
D109*
X73584Y60719D03*
D17*
X40513Y60871D03*
X56667Y60871D03*
X67183Y60871D03*
D109*
X46914Y60871D03*
D66*
X60249Y60871D03*
D109*
X73584Y60871D03*
D17*
X56667Y61023D03*
X67183Y61023D03*
X79832Y61023D03*
D109*
X46914Y61023D03*
D66*
X60249Y61023D03*
D108*
X73508Y61023D03*
D17*
X40665Y61176D03*
X56667Y61176D03*
X67183Y61176D03*
D108*
X46990Y61176D03*
D66*
X60249Y61176D03*
D108*
X73508Y61176D03*
D17*
X56667Y61328D03*
X67183Y61328D03*
X79680Y61328D03*
D108*
X46990Y61328D03*
D66*
X60249Y61328D03*
D107*
X73431Y61328D03*
D17*
X40818Y61481D03*
X56667Y61481D03*
X67183Y61481D03*
D107*
X47066Y61481D03*
D66*
X60249Y61481D03*
D107*
X73431Y61481D03*
D17*
X56667Y61633D03*
X67183Y61633D03*
X79527Y61633D03*
D107*
X47066Y61633D03*
D66*
X60249Y61633D03*
D106*
X73355Y61633D03*
D17*
X56667Y61785D03*
X67183Y61785D03*
X79375Y61785D03*
D106*
X47142Y61785D03*
D66*
X60249Y61785D03*
D105*
X73279Y61785D03*
D17*
X41123Y61938D03*
X56667Y61938D03*
X67183Y61938D03*
D105*
X47219Y61938D03*
D66*
X60249Y61938D03*
D105*
X73279Y61938D03*
D17*
X56667Y62090D03*
X67183Y62090D03*
X79223Y62090D03*
D105*
X47219Y62090D03*
D66*
X60249Y62090D03*
D104*
X73203Y62090D03*
D17*
X41275Y62243D03*
X56667Y62243D03*
X67183Y62243D03*
D104*
X47295Y62243D03*
D66*
X60249Y62243D03*
D104*
X73203Y62243D03*
D17*
X56667Y62395D03*
X67183Y62395D03*
X79070Y62395D03*
D104*
X47295Y62395D03*
D66*
X60249Y62395D03*
D103*
X73127Y62395D03*
D17*
X41427Y62547D03*
X56667Y62547D03*
X67183Y62547D03*
D103*
X47371Y62547D03*
D66*
X60249Y62547D03*
D103*
X73127Y62547D03*
D17*
X56667Y62700D03*
X67183Y62700D03*
D103*
X47371Y62700D03*
D66*
X60249Y62700D03*
D102*
X73050Y62700D03*
D17*
X56667Y62852D03*
X67183Y62852D03*
X78765Y62852D03*
D102*
X47447Y62852D03*
D66*
X60249Y62852D03*
D101*
X72974Y62852D03*
D17*
X41732Y63005D03*
X56667Y63005D03*
X67183Y63005D03*
D101*
X47523Y63005D03*
D66*
X60249Y63005D03*
D101*
X72974Y63005D03*
D17*
X56667Y63157D03*
X67183Y63157D03*
X78613Y63157D03*
D101*
X47523Y63157D03*
D66*
X60249Y63157D03*
D100*
X72898Y63157D03*
D17*
X41885Y63309D03*
X56667Y63309D03*
X67183Y63309D03*
D100*
X47600Y63309D03*
D66*
X60249Y63309D03*
D100*
X72898Y63309D03*
D17*
X56667Y63462D03*
X67183Y63462D03*
X78461Y63462D03*
D100*
X47600Y63462D03*
D66*
X60249Y63462D03*
D99*
X72822Y63462D03*
D17*
X42037Y63614D03*
X56667Y63614D03*
X67183Y63614D03*
D99*
X47676Y63614D03*
D66*
X60249Y63614D03*
D99*
X72822Y63614D03*
D17*
X56667Y63767D03*
X67183Y63767D03*
D99*
X47676Y63767D03*
D66*
X60249Y63767D03*
D98*
X72746Y63767D03*
D17*
X56667Y63919D03*
X67183Y63919D03*
X78156Y63919D03*
D98*
X47752Y63919D03*
D66*
X60249Y63919D03*
D97*
X72669Y63919D03*
D17*
X42342Y64071D03*
X56667Y64071D03*
X67183Y64071D03*
D97*
X47828Y64071D03*
D66*
X60249Y64071D03*
D97*
X72669Y64071D03*
D17*
X56667Y64224D03*
X67183Y64224D03*
X78003Y64224D03*
D97*
X47828Y64224D03*
D66*
X60249Y64224D03*
D96*
X72593Y64224D03*
D17*
X56667Y64376D03*
X67183Y64376D03*
D96*
X47904Y64376D03*
D66*
X60249Y64376D03*
D96*
X72593Y64376D03*
D17*
X42647Y64529D03*
X56667Y64529D03*
X67183Y64529D03*
X77851Y64529D03*
D95*
X47981Y64529D03*
D66*
X60249Y64529D03*
D95*
X72517Y64529D03*
D17*
X56667Y64681D03*
X67183Y64681D03*
X77699Y64681D03*
D95*
X47981Y64681D03*
D66*
X60249Y64681D03*
D94*
X72441Y64681D03*
D17*
X42799Y64833D03*
X56667Y64833D03*
X67183Y64833D03*
D94*
X48057Y64833D03*
D66*
X60249Y64833D03*
D94*
X72441Y64833D03*
D17*
X56667Y64986D03*
X67183Y64986D03*
X77546Y64986D03*
D94*
X48057Y64986D03*
D66*
X60249Y64986D03*
D93*
X72365Y64986D03*
D17*
X42951Y65138D03*
X53315Y65138D03*
X56667Y65138D03*
X67183Y65138D03*
D93*
X48133Y65138D03*
D66*
X60249Y65138D03*
D93*
X72365Y65138D03*
D17*
X43104Y65291D03*
X53315Y65291D03*
X56667Y65291D03*
X67183Y65291D03*
X77394Y65291D03*
D92*
X48209Y65291D03*
D66*
X60249Y65291D03*
D92*
X72288Y65291D03*
D17*
X53315Y65443D03*
X56667Y65443D03*
X67183Y65443D03*
D92*
X48209Y65443D03*
D66*
X60249Y65443D03*
D92*
X72288Y65443D03*
D17*
X43256Y65595D03*
X53315Y65595D03*
X56667Y65595D03*
X67183Y65595D03*
X77241Y65595D03*
D91*
X48285Y65595D03*
D66*
X60249Y65595D03*
D91*
X72212Y65595D03*
D17*
X53315Y65748D03*
X56667Y65748D03*
X67183Y65748D03*
X77089Y65748D03*
D91*
X48285Y65748D03*
D66*
X60249Y65748D03*
D90*
X72136Y65748D03*
D17*
X43409Y65900D03*
X53315Y65900D03*
X56667Y65900D03*
X67183Y65900D03*
D90*
X48362Y65900D03*
D66*
X60249Y65900D03*
D90*
X72136Y65900D03*
D17*
X53315Y66053D03*
X56667Y66053D03*
X67183Y66053D03*
X76937Y66053D03*
D90*
X48362Y66053D03*
D66*
X60249Y66053D03*
D89*
X72060Y66053D03*
D17*
X43561Y66205D03*
X53315Y66205D03*
X56667Y66205D03*
X67183Y66205D03*
D89*
X48438Y66205D03*
D66*
X60249Y66205D03*
D89*
X72060Y66205D03*
D17*
X43713Y66357D03*
X53315Y66357D03*
X56667Y66357D03*
X67183Y66357D03*
X76784Y66357D03*
D88*
X48514Y66357D03*
D66*
X60249Y66357D03*
D88*
X71984Y66357D03*
D17*
X53315Y66510D03*
X56667Y66510D03*
X67183Y66510D03*
D88*
X48514Y66510D03*
D66*
X60249Y66510D03*
D88*
X71984Y66510D03*
D17*
X43866Y66662D03*
X53315Y66662D03*
X56667Y66662D03*
X67183Y66662D03*
D87*
X48590Y66662D03*
D66*
X60249Y66662D03*
D87*
X71907Y66662D03*
D17*
X53315Y66815D03*
X56667Y66815D03*
X67183Y66815D03*
X76479Y66815D03*
D87*
X48590Y66815D03*
D66*
X60249Y66815D03*
D86*
X71831Y66815D03*
D17*
X44018Y66967D03*
X53315Y66967D03*
X56667Y66967D03*
X67183Y66967D03*
D86*
X48666Y66967D03*
D66*
X60249Y66967D03*
D86*
X71831Y66967D03*
D17*
X53315Y67119D03*
X56667Y67119D03*
X67183Y67119D03*
X76327Y67119D03*
D86*
X48666Y67119D03*
D66*
X60249Y67119D03*
D85*
X71755Y67119D03*
D17*
X44171Y67272D03*
X53315Y67272D03*
X56667Y67272D03*
X67183Y67272D03*
D85*
X48743Y67272D03*
D66*
X60249Y67272D03*
D85*
X71755Y67272D03*
D17*
X44323Y67424D03*
X53315Y67424D03*
X56667Y67424D03*
X67183Y67424D03*
X76175Y67424D03*
D84*
X48819Y67424D03*
D66*
X60249Y67424D03*
D84*
X71679Y67424D03*
D17*
X53315Y67577D03*
X56667Y67577D03*
X67183Y67577D03*
X76022Y67577D03*
D84*
X48819Y67577D03*
D66*
X60249Y67577D03*
D83*
X71603Y67577D03*
D17*
X44475Y67729D03*
X53315Y67729D03*
X56667Y67729D03*
X67183Y67729D03*
D83*
X48895Y67729D03*
D66*
X60249Y67729D03*
D83*
X71603Y67729D03*
D17*
X53315Y67881D03*
X56667Y67881D03*
X67183Y67881D03*
X75870Y67881D03*
D83*
X48895Y67881D03*
D66*
X60249Y67881D03*
D78*
X71526Y67881D03*
D17*
X44628Y68034D03*
X53315Y68034D03*
X56667Y68034D03*
X67183Y68034D03*
D78*
X48971Y68034D03*
D66*
X60249Y68034D03*
D78*
X71526Y68034D03*
D17*
X53315Y68186D03*
X56667Y68186D03*
X67183Y68186D03*
X75717Y68186D03*
D78*
X48971Y68186D03*
D66*
X60249Y68186D03*
D79*
X71450Y68186D03*
D17*
X53315Y68339D03*
X56667Y68339D03*
X67183Y68339D03*
D79*
X49047Y68339D03*
D66*
X60249Y68339D03*
D79*
X71450Y68339D03*
D17*
X44933Y68491D03*
X53315Y68491D03*
X56667Y68491D03*
X67183Y68491D03*
X75565Y68491D03*
D82*
X49124Y68491D03*
D66*
X60249Y68491D03*
D82*
X71374Y68491D03*
D17*
X53315Y68643D03*
X67183Y68643D03*
X75413Y68643D03*
D82*
X49124Y68643D03*
D67*
X60173Y68643D03*
D75*
X71298Y68643D03*
D17*
X45085Y68796D03*
X67183Y68796D03*
D82*
X49276Y68796D03*
D67*
X60173Y68796D03*
D75*
X71298Y68796D03*
D17*
X53467Y68948D03*
X56515Y68948D03*
X67183Y68948D03*
X75260Y68948D03*
D82*
X49276Y68948D03*
D67*
X60173Y68948D03*
D80*
X71222Y68948D03*
D17*
X45237Y69101D03*
X67183Y69101D03*
D82*
X49428Y69101D03*
D68*
X60096Y69101D03*
D80*
X71222Y69101D03*
D17*
X45390Y69253D03*
X53619Y69253D03*
X67183Y69253D03*
X75108Y69253D03*
D75*
X49505Y69253D03*
D71*
X60020Y69253D03*
D77*
X71145Y69253D03*
D17*
X53772Y69405D03*
X56210Y69405D03*
X67183Y69405D03*
D81*
X49581Y69405D03*
D71*
X60020Y69405D03*
D77*
X71145Y69405D03*
D17*
X45542Y69558D03*
X53924Y69558D03*
X56058Y69558D03*
X67183Y69558D03*
X74955Y69558D03*
D82*
X49733Y69558D03*
D74*
X59944Y69558D03*
X71069Y69558D03*
D17*
X54229Y69710D03*
X55753Y69710D03*
X67183Y69710D03*
X74803Y69710D03*
D78*
X49886Y69710D03*
D80*
X59792Y69710D03*
D71*
X70993Y69710D03*
D17*
X45695Y69863D03*
D117*
X54686Y69863D03*
X55296Y69863D03*
D17*
X67183Y69863D03*
D76*
X50114Y69863D03*
D82*
X59639Y69863D03*
D71*
X70993Y69863D03*
D17*
X67183Y70015D03*
X74651Y70015D03*
D72*
X54762Y70015D03*
D68*
X70917Y70015D03*
D17*
X45847Y70167D03*
X67183Y70167D03*
D70*
X54839Y70167D03*
D68*
X70917Y70167D03*
D17*
X45999Y70320D03*
X67183Y70320D03*
X74498Y70320D03*
D69*
X54915Y70320D03*
D67*
X70841Y70320D03*
D17*
X67183Y70472D03*
D69*
X54915Y70472D03*
D67*
X70841Y70472D03*
D17*
X46152Y70625D03*
X67183Y70625D03*
D65*
X54991Y70625D03*
D66*
X70764Y70625D03*
D17*
X67183Y70777D03*
X74193Y70777D03*
D65*
X54991Y70777D03*
D64*
X70688Y70777D03*
D17*
X46304Y70929D03*
X67183Y70929D03*
D63*
X55067Y70929D03*
D64*
X70688Y70929D03*
D17*
X67183Y71082D03*
X74041Y71082D03*
D63*
X55067Y71082D03*
D62*
X70612Y71082D03*
D17*
X46457Y71234D03*
X67183Y71234D03*
D61*
X55143Y71234D03*
D62*
X70612Y71234D03*
D17*
X46609Y71387D03*
X67183Y71387D03*
X73889Y71387D03*
D59*
X55220Y71387D03*
D60*
X70536Y71387D03*
D17*
X67183Y71539D03*
X73736Y71539D03*
D59*
X55220Y71539D03*
D58*
X70460Y71539D03*
D17*
X46761Y71691D03*
X67183Y71691D03*
D57*
X55296Y71691D03*
D58*
X70460Y71691D03*
D17*
X67183Y71844D03*
X73584Y71844D03*
D57*
X55296Y71844D03*
D56*
X70383Y71844D03*
D17*
X46914Y71996D03*
X67183Y71996D03*
D55*
X55372Y71996D03*
D56*
X70383Y71996D03*
D17*
X47066Y72149D03*
X67183Y72149D03*
X73431Y72149D03*
D53*
X55448Y72149D03*
D54*
X70307Y72149D03*
D17*
X67183Y72301D03*
D53*
X55448Y72301D03*
D54*
X70307Y72301D03*
D17*
X47219Y72453D03*
X67183Y72453D03*
X73279Y72453D03*
D51*
X55524Y72453D03*
D52*
X70231Y72453D03*
D17*
X67183Y72606D03*
X73127Y72606D03*
D51*
X55524Y72606D03*
D50*
X70155Y72606D03*
D17*
X47371Y72758D03*
X67183Y72758D03*
D49*
X55601Y72758D03*
D50*
X70155Y72758D03*
D17*
X67183Y72911D03*
X72974Y72911D03*
D49*
X55601Y72911D03*
D48*
X70079Y72911D03*
D17*
X47523Y73063D03*
X67183Y73063D03*
D47*
X55677Y73063D03*
D48*
X70079Y73063D03*
D17*
X47676Y73215D03*
X67183Y73215D03*
X72822Y73215D03*
D45*
X55753Y73215D03*
D46*
X70002Y73215D03*
D17*
X67183Y73368D03*
D45*
X55753Y73368D03*
D46*
X70002Y73368D03*
D17*
X47828Y73520D03*
X67183Y73520D03*
X72669Y73520D03*
D43*
X55829Y73520D03*
D44*
X69926Y73520D03*
D17*
X67183Y73673D03*
X72517Y73673D03*
D43*
X55829Y73673D03*
D42*
X69850Y73673D03*
D17*
X47981Y73825D03*
X67183Y73825D03*
D41*
X55905Y73825D03*
D42*
X69850Y73825D03*
D17*
X67183Y73977D03*
X72365Y73977D03*
D41*
X55905Y73977D03*
D40*
X69774Y73977D03*
D17*
X48133Y74130D03*
X67183Y74130D03*
D39*
X55982Y74130D03*
D40*
X69774Y74130D03*
D17*
X48285Y74282D03*
X67183Y74282D03*
X72212Y74282D03*
D37*
X56058Y74282D03*
D38*
X69698Y74282D03*
D17*
X67183Y74435D03*
X72060Y74435D03*
D37*
X56058Y74435D03*
D36*
X69621Y74435D03*
D17*
X48438Y74587D03*
X67183Y74587D03*
D35*
X56134Y74587D03*
D36*
X69621Y74587D03*
D17*
X67183Y74739D03*
X71907Y74739D03*
D35*
X56134Y74739D03*
D34*
X69545Y74739D03*
D73*
X48819Y74892D03*
D17*
X48590Y74892D03*
X67183Y74892D03*
D29*
X56363Y74892D03*
D34*
X69545Y74892D03*
D118*
X49124Y75044D03*
D17*
X67183Y75044D03*
X71755Y75044D03*
X48743Y75044D03*
D119*
X56591Y75044D03*
D32*
X69469Y75044D03*
D120*
X49352Y75197D03*
D17*
X48743Y75197D03*
X67183Y75197D03*
D116*
X56820Y75197D03*
D32*
X69469Y75197D03*
D121*
X49581Y75349D03*
D17*
X48895Y75349D03*
X67183Y75349D03*
X71603Y75349D03*
D19*
X56972Y75349D03*
D30*
X69393Y75349D03*
D122*
X49886Y75501D03*
D17*
X67183Y75501D03*
X71450Y75501D03*
X49047Y75501D03*
D16*
X57201Y75501D03*
D28*
X69317Y75501D03*
D123*
X50038Y75654D03*
D124*
X67412Y75654D03*
D17*
X49047Y75654D03*
X67183Y75654D03*
D110*
X57353Y75654D03*
D24*
X69469Y75654D03*
D125*
X50343Y75806D03*
D126*
X67640Y75806D03*
D17*
X49200Y75806D03*
X67183Y75806D03*
D107*
X57582Y75806D03*
D127*
X69621Y75806D03*
D128*
X50648Y75959D03*
D129*
X67793Y75959D03*
D17*
X49352Y75959D03*
X67183Y75959D03*
D104*
X57810Y75959D03*
D130*
X69698Y75959D03*
D131*
X50876Y76111D03*
D122*
X68021Y76111D03*
D17*
X49505Y76111D03*
X67183Y76111D03*
X70841Y76111D03*
D102*
X57963Y76111D03*
D132*
X69774Y76111D03*
D130*
X51257Y76263D03*
D123*
X68174Y76263D03*
D17*
X49809Y76263D03*
X67183Y76263D03*
X70688Y76263D03*
D99*
X58191Y76263D03*
D122*
X69850Y76263D03*
D130*
X51562Y76416D03*
D133*
X68402Y76416D03*
D17*
X50114Y76416D03*
X67183Y76416D03*
X70383Y76416D03*
D97*
X58344Y76416D03*
D126*
X69926Y76416D03*
D128*
X52172Y76568D03*
D133*
X68402Y76568D03*
D117*
X50571Y76568D03*
D17*
X67183Y76568D03*
D124*
X69850Y76568D03*
D17*
X50876Y76568D03*
D94*
X58572Y76568D03*
D17*
X69621Y76568D03*
M02*
