G04 EAGLE Gerber RS-274X export*
G75*
%MOMM*%
%FSLAX34Y34*%
%LPD*%
%INSilkscreen Top*%
%IPPOS*%
%AMOC8*
5,1,8,0,0,1.08239X$1,22.5*%
G01*
%ADD10C,0.101600*%
%ADD11C,0.152400*%
%ADD12R,0.751331X0.014731*%
%ADD13R,0.883919X0.014731*%
%ADD14R,1.001775X0.014731*%
%ADD15R,1.119631X0.014731*%
%ADD16R,1.134363X0.014731*%
%ADD17R,1.149094X0.014731*%
%ADD18R,1.163825X0.014731*%
%ADD19R,1.178556X0.014731*%
%ADD20R,1.193288X0.014731*%
%ADD21R,1.222756X0.014731*%
%ADD22R,1.237488X0.014731*%
%ADD23R,1.266950X0.014731*%
%ADD24R,1.281681X0.014731*%
%ADD25R,1.311144X0.014731*%
%ADD26R,1.325881X0.014731*%
%ADD27R,1.355344X0.014731*%
%ADD28R,1.370075X0.014731*%
%ADD29R,1.384806X0.014731*%
%ADD30R,1.399538X0.014731*%
%ADD31R,1.414275X0.014731*%
%ADD32R,1.443738X0.014731*%
%ADD33R,1.458469X0.014731*%
%ADD34R,1.487931X0.014731*%
%ADD35R,1.502663X0.014731*%
%ADD36R,1.517394X0.014731*%
%ADD37R,1.532125X0.014731*%
%ADD38R,1.546856X0.014731*%
%ADD39R,1.576319X0.014731*%
%ADD40R,1.605788X0.014731*%
%ADD41R,1.620519X0.014731*%
%ADD42R,1.649981X0.014731*%
%ADD43R,1.664713X0.014731*%
%ADD44R,1.694175X0.014731*%
%ADD45R,1.708913X0.014731*%
%ADD46R,1.738375X0.014731*%
%ADD47R,1.753106X0.014731*%
%ADD48R,1.767838X0.014731*%
%ADD49R,1.782569X0.014731*%
%ADD50R,1.797306X0.014731*%
%ADD51R,0.117856X0.014731*%
%ADD52R,1.826769X0.014731*%
%ADD53R,0.235713X0.014731*%
%ADD54R,0.353569X0.014731*%
%ADD55R,1.856231X0.014731*%
%ADD56R,0.486156X0.014731*%
%ADD57R,1.870963X0.014731*%
%ADD58R,0.604013X0.014731*%
%ADD59R,0.721869X0.014731*%
%ADD60R,1.885694X0.014731*%
%ADD61R,0.839719X0.014731*%
%ADD62R,0.972306X0.014731*%
%ADD63R,1.090169X0.014731*%
%ADD64R,1.208025X0.014731*%
%ADD65R,1.252219X0.014731*%
%ADD66R,1.296412X0.014731*%
%ADD67R,1.340612X0.014731*%
%ADD68R,1.826763X0.014731*%
%ADD69R,1.414269X0.014731*%
%ADD70R,1.812031X0.014731*%
%ADD71R,1.429000X0.014731*%
%ADD72R,1.458462X0.014731*%
%ADD73R,1.473200X0.014731*%
%ADD74R,1.723644X0.014731*%
%ADD75R,1.694181X0.014731*%
%ADD76R,1.679450X0.014731*%
%ADD77R,1.561594X0.014731*%
%ADD78R,1.576325X0.014731*%
%ADD79R,1.591056X0.014731*%
%ADD80R,1.635250X0.014731*%
%ADD81R,1.561588X0.014731*%
%ADD82R,1.443731X0.014731*%
%ADD83R,1.797300X0.014731*%
%ADD84R,1.841500X0.014731*%
%ADD85R,1.311150X0.014731*%
%ADD86R,1.296419X0.014731*%
%ADD87R,1.193294X0.014731*%
%ADD88R,0.957575X0.014731*%
%ADD89R,0.589281X0.014731*%
%ADD90R,0.471425X0.014731*%
%ADD91R,0.220975X0.014731*%
%ADD92R,1.812038X0.014731*%
%ADD93R,0.103119X0.014731*%
%ADD94R,0.029463X0.014731*%
%ADD95R,0.162050X0.014731*%
%ADD96R,0.265175X0.014731*%
%ADD97R,0.397763X0.014731*%
%ADD98R,0.515619X0.014731*%
%ADD99R,0.648206X0.014731*%
%ADD100R,1.679444X0.014731*%
%ADD101R,1.016506X0.014731*%
%ADD102R,1.104900X0.014731*%
%ADD103R,1.222750X0.014731*%
%ADD104R,1.434338X0.014731*%
%ADD105R,1.208019X0.014731*%
%ADD106R,0.987044X0.014731*%
%ADD107R,0.854456X0.014731*%
%ADD108R,0.618744X0.014731*%
%ADD109R,0.500888X0.014731*%
%ADD110R,0.368300X0.014731*%
%ADD111R,0.132587X0.014731*%
%ADD112R,0.014731X0.014731*%
%ADD113R,1.664719X0.014731*%
%ADD114R,1.075438X0.014731*%
%ADD115R,0.942844X0.014731*%
%ADD116R,0.707131X0.014731*%
%ADD117R,0.456694X0.014731*%
%ADD118R,0.088388X0.014731*%
%ADD119C,0.254000*%
%ADD120C,0.076200*%
%ADD121C,0.127000*%


D10*
X-116454Y130287D02*
X-115451Y133374D01*
X-115418Y133482D01*
X-115388Y133592D01*
X-115363Y133702D01*
X-115341Y133813D01*
X-115324Y133925D01*
X-115310Y134038D01*
X-115300Y134151D01*
X-115294Y134264D01*
X-115292Y134377D01*
X-115294Y134490D01*
X-115300Y134603D01*
X-115310Y134716D01*
X-115324Y134829D01*
X-115341Y134941D01*
X-115363Y135052D01*
X-115388Y135162D01*
X-115418Y135272D01*
X-115451Y135380D01*
X-115488Y135487D01*
X-115528Y135593D01*
X-115573Y135697D01*
X-115621Y135800D01*
X-115672Y135901D01*
X-115727Y136000D01*
X-115785Y136097D01*
X-115847Y136192D01*
X-115912Y136285D01*
X-115980Y136375D01*
X-116051Y136463D01*
X-116126Y136549D01*
X-116203Y136632D01*
X-116283Y136712D01*
X-116366Y136789D01*
X-116452Y136864D01*
X-116540Y136935D01*
X-116630Y137003D01*
X-116723Y137068D01*
X-116818Y137130D01*
X-116915Y137188D01*
X-117014Y137243D01*
X-117115Y137294D01*
X-117218Y137342D01*
X-117322Y137387D01*
X-117428Y137427D01*
X-117535Y137464D01*
X-117643Y137497D01*
X-117753Y137527D01*
X-117863Y137552D01*
X-117974Y137574D01*
X-118086Y137591D01*
X-118199Y137605D01*
X-118312Y137615D01*
X-118425Y137621D01*
X-118538Y137623D01*
X-118651Y137621D01*
X-118764Y137615D01*
X-118877Y137605D01*
X-118990Y137591D01*
X-119102Y137574D01*
X-119213Y137552D01*
X-119323Y137527D01*
X-119433Y137497D01*
X-119541Y137464D01*
X-119648Y137427D01*
X-119754Y137387D01*
X-119858Y137342D01*
X-119961Y137294D01*
X-120062Y137243D01*
X-120161Y137188D01*
X-120258Y137130D01*
X-120353Y137068D01*
X-120446Y137003D01*
X-120536Y136935D01*
X-120624Y136864D01*
X-120710Y136789D01*
X-120793Y136712D01*
X-120873Y136632D01*
X-120950Y136549D01*
X-121025Y136463D01*
X-121096Y136375D01*
X-121164Y136285D01*
X-121229Y136192D01*
X-121291Y136097D01*
X-121349Y136000D01*
X-121404Y135901D01*
X-121455Y135800D01*
X-121503Y135697D01*
X-121548Y135593D01*
X-121588Y135487D01*
X-121625Y135380D01*
X-126363Y137602D02*
X-127566Y133898D01*
X-126362Y137602D02*
X-126329Y137697D01*
X-126292Y137791D01*
X-126252Y137883D01*
X-126208Y137974D01*
X-126161Y138063D01*
X-126110Y138150D01*
X-126056Y138235D01*
X-125999Y138318D01*
X-125939Y138398D01*
X-125875Y138476D01*
X-125809Y138552D01*
X-125739Y138625D01*
X-125667Y138695D01*
X-125592Y138763D01*
X-125515Y138827D01*
X-125435Y138888D01*
X-125353Y138947D01*
X-125269Y139002D01*
X-125182Y139053D01*
X-125094Y139102D01*
X-125004Y139146D01*
X-124912Y139188D01*
X-124819Y139225D01*
X-124724Y139259D01*
X-124628Y139290D01*
X-124531Y139316D01*
X-124433Y139339D01*
X-124334Y139358D01*
X-124234Y139373D01*
X-124134Y139385D01*
X-124034Y139392D01*
X-123933Y139396D01*
X-123833Y139395D01*
X-123732Y139391D01*
X-123632Y139383D01*
X-123532Y139371D01*
X-123432Y139355D01*
X-123334Y139335D01*
X-123236Y139311D01*
X-123139Y139284D01*
X-123043Y139253D01*
X-122949Y139218D01*
X-122856Y139180D01*
X-122764Y139138D01*
X-122674Y139092D01*
X-122586Y139043D01*
X-122500Y138991D01*
X-122416Y138935D01*
X-122335Y138876D01*
X-122255Y138814D01*
X-122179Y138749D01*
X-122104Y138681D01*
X-122033Y138611D01*
X-121964Y138537D01*
X-121898Y138461D01*
X-121835Y138382D01*
X-121775Y138301D01*
X-121719Y138218D01*
X-121665Y138133D01*
X-121615Y138045D01*
X-121569Y137956D01*
X-121526Y137865D01*
X-121486Y137772D01*
X-121450Y137678D01*
X-121418Y137583D01*
X-121389Y137486D01*
X-121365Y137389D01*
X-121344Y137290D01*
X-121327Y137191D01*
X-121313Y137091D01*
X-121304Y136991D01*
X-121299Y136891D01*
X-121297Y136790D01*
X-121299Y136689D01*
X-121306Y136589D01*
X-121316Y136489D01*
X-121330Y136389D01*
X-121348Y136290D01*
X-121369Y136192D01*
X-121395Y136094D01*
X-121424Y135998D01*
X-121424Y135997D02*
X-122226Y133528D01*
X-124235Y144151D02*
X-111919Y144245D01*
X-121827Y151559D01*
X-109390Y152029D02*
X-108387Y155115D01*
X-108386Y155115D02*
X-108353Y155223D01*
X-108323Y155333D01*
X-108298Y155443D01*
X-108276Y155554D01*
X-108259Y155666D01*
X-108245Y155779D01*
X-108235Y155892D01*
X-108229Y156005D01*
X-108227Y156118D01*
X-108229Y156231D01*
X-108235Y156344D01*
X-108245Y156457D01*
X-108259Y156570D01*
X-108276Y156682D01*
X-108298Y156793D01*
X-108323Y156903D01*
X-108353Y157013D01*
X-108386Y157121D01*
X-108423Y157228D01*
X-108463Y157334D01*
X-108508Y157438D01*
X-108556Y157541D01*
X-108607Y157642D01*
X-108662Y157741D01*
X-108720Y157838D01*
X-108782Y157933D01*
X-108847Y158026D01*
X-108915Y158116D01*
X-108986Y158204D01*
X-109061Y158290D01*
X-109138Y158373D01*
X-109218Y158453D01*
X-109301Y158530D01*
X-109387Y158605D01*
X-109475Y158676D01*
X-109565Y158744D01*
X-109658Y158809D01*
X-109753Y158871D01*
X-109850Y158929D01*
X-109949Y158984D01*
X-110050Y159035D01*
X-110153Y159083D01*
X-110257Y159128D01*
X-110363Y159168D01*
X-110470Y159205D01*
X-110578Y159238D01*
X-110688Y159268D01*
X-110798Y159293D01*
X-110909Y159315D01*
X-111021Y159332D01*
X-111134Y159346D01*
X-111247Y159356D01*
X-111360Y159362D01*
X-111473Y159364D01*
X-111586Y159362D01*
X-111699Y159356D01*
X-111812Y159346D01*
X-111925Y159332D01*
X-112037Y159315D01*
X-112148Y159293D01*
X-112258Y159268D01*
X-112368Y159238D01*
X-112476Y159205D01*
X-112583Y159168D01*
X-112689Y159128D01*
X-112793Y159083D01*
X-112896Y159035D01*
X-112997Y158984D01*
X-113096Y158929D01*
X-113193Y158871D01*
X-113288Y158809D01*
X-113381Y158744D01*
X-113471Y158676D01*
X-113559Y158605D01*
X-113645Y158530D01*
X-113728Y158453D01*
X-113808Y158373D01*
X-113885Y158290D01*
X-113960Y158204D01*
X-114031Y158116D01*
X-114099Y158026D01*
X-114164Y157933D01*
X-114226Y157838D01*
X-114284Y157741D01*
X-114339Y157642D01*
X-114390Y157541D01*
X-114438Y157438D01*
X-114483Y157334D01*
X-114523Y157228D01*
X-114560Y157121D01*
X-119298Y159343D02*
X-120502Y155639D01*
X-119298Y159343D02*
X-119265Y159438D01*
X-119228Y159532D01*
X-119188Y159624D01*
X-119144Y159715D01*
X-119097Y159804D01*
X-119046Y159891D01*
X-118992Y159976D01*
X-118935Y160059D01*
X-118875Y160139D01*
X-118811Y160217D01*
X-118745Y160293D01*
X-118675Y160366D01*
X-118603Y160436D01*
X-118528Y160504D01*
X-118451Y160568D01*
X-118371Y160629D01*
X-118289Y160688D01*
X-118205Y160743D01*
X-118118Y160794D01*
X-118030Y160843D01*
X-117940Y160887D01*
X-117848Y160929D01*
X-117755Y160966D01*
X-117660Y161000D01*
X-117564Y161031D01*
X-117467Y161057D01*
X-117369Y161080D01*
X-117270Y161099D01*
X-117170Y161114D01*
X-117070Y161126D01*
X-116970Y161133D01*
X-116869Y161137D01*
X-116769Y161136D01*
X-116668Y161132D01*
X-116568Y161124D01*
X-116468Y161112D01*
X-116368Y161096D01*
X-116270Y161076D01*
X-116172Y161052D01*
X-116075Y161025D01*
X-115979Y160994D01*
X-115885Y160959D01*
X-115792Y160921D01*
X-115700Y160879D01*
X-115610Y160833D01*
X-115522Y160784D01*
X-115436Y160732D01*
X-115352Y160676D01*
X-115271Y160617D01*
X-115191Y160555D01*
X-115115Y160490D01*
X-115040Y160422D01*
X-114969Y160352D01*
X-114900Y160278D01*
X-114834Y160202D01*
X-114771Y160123D01*
X-114711Y160042D01*
X-114655Y159959D01*
X-114601Y159874D01*
X-114551Y159786D01*
X-114505Y159697D01*
X-114462Y159606D01*
X-114422Y159513D01*
X-114386Y159419D01*
X-114354Y159324D01*
X-114325Y159227D01*
X-114301Y159130D01*
X-114280Y159031D01*
X-114263Y158932D01*
X-114249Y158832D01*
X-114240Y158732D01*
X-114235Y158632D01*
X-114233Y158531D01*
X-114235Y158430D01*
X-114242Y158330D01*
X-114252Y158230D01*
X-114266Y158130D01*
X-114284Y158031D01*
X-114305Y157933D01*
X-114331Y157835D01*
X-114360Y157739D01*
X-114360Y157738D02*
X-115162Y155269D01*
X104209Y167727D02*
X105212Y164640D01*
X105249Y164533D01*
X105289Y164427D01*
X105334Y164323D01*
X105382Y164220D01*
X105433Y164119D01*
X105488Y164020D01*
X105546Y163923D01*
X105608Y163828D01*
X105673Y163735D01*
X105741Y163645D01*
X105812Y163557D01*
X105887Y163471D01*
X105964Y163388D01*
X106044Y163308D01*
X106127Y163231D01*
X106213Y163156D01*
X106301Y163085D01*
X106391Y163017D01*
X106484Y162952D01*
X106579Y162890D01*
X106676Y162832D01*
X106775Y162777D01*
X106876Y162726D01*
X106979Y162678D01*
X107083Y162633D01*
X107189Y162593D01*
X107296Y162556D01*
X107404Y162523D01*
X107514Y162493D01*
X107624Y162468D01*
X107735Y162446D01*
X107847Y162429D01*
X107960Y162415D01*
X108073Y162405D01*
X108186Y162399D01*
X108299Y162397D01*
X108412Y162399D01*
X108525Y162405D01*
X108638Y162415D01*
X108751Y162429D01*
X108863Y162446D01*
X108974Y162468D01*
X109084Y162493D01*
X109194Y162523D01*
X109302Y162556D01*
X109409Y162593D01*
X109515Y162633D01*
X109619Y162678D01*
X109722Y162726D01*
X109823Y162777D01*
X109922Y162832D01*
X110019Y162890D01*
X110114Y162952D01*
X110207Y163017D01*
X110297Y163085D01*
X110385Y163156D01*
X110471Y163231D01*
X110554Y163308D01*
X110634Y163388D01*
X110711Y163471D01*
X110786Y163557D01*
X110857Y163645D01*
X110925Y163735D01*
X110990Y163828D01*
X111052Y163923D01*
X111110Y164020D01*
X111165Y164119D01*
X111216Y164220D01*
X111264Y164323D01*
X111309Y164427D01*
X111349Y164533D01*
X111386Y164640D01*
X111419Y164748D01*
X111449Y164858D01*
X111474Y164968D01*
X111496Y165079D01*
X111513Y165191D01*
X111527Y165304D01*
X111537Y165417D01*
X111543Y165530D01*
X111545Y165643D01*
X111543Y165756D01*
X111537Y165869D01*
X111527Y165982D01*
X111513Y166095D01*
X111496Y166207D01*
X111474Y166318D01*
X111449Y166428D01*
X111419Y166538D01*
X111386Y166646D01*
X116525Y167633D02*
X115321Y171337D01*
X116524Y167633D02*
X116553Y167537D01*
X116579Y167439D01*
X116600Y167341D01*
X116618Y167242D01*
X116632Y167142D01*
X116642Y167042D01*
X116649Y166942D01*
X116651Y166841D01*
X116649Y166740D01*
X116644Y166640D01*
X116635Y166540D01*
X116621Y166440D01*
X116604Y166341D01*
X116583Y166242D01*
X116559Y166145D01*
X116530Y166048D01*
X116498Y165953D01*
X116462Y165859D01*
X116422Y165766D01*
X116379Y165675D01*
X116333Y165586D01*
X116283Y165498D01*
X116229Y165413D01*
X116173Y165330D01*
X116113Y165249D01*
X116050Y165170D01*
X115984Y165094D01*
X115915Y165020D01*
X115844Y164950D01*
X115769Y164882D01*
X115693Y164817D01*
X115613Y164755D01*
X115532Y164696D01*
X115448Y164640D01*
X115362Y164588D01*
X115274Y164539D01*
X115184Y164493D01*
X115092Y164451D01*
X114999Y164413D01*
X114905Y164378D01*
X114809Y164347D01*
X114712Y164320D01*
X114614Y164296D01*
X114516Y164276D01*
X114416Y164260D01*
X114316Y164248D01*
X114216Y164240D01*
X114115Y164236D01*
X114015Y164235D01*
X113914Y164239D01*
X113814Y164246D01*
X113714Y164258D01*
X113614Y164273D01*
X113515Y164292D01*
X113417Y164315D01*
X113320Y164341D01*
X113224Y164372D01*
X113129Y164406D01*
X113036Y164443D01*
X112944Y164485D01*
X112854Y164529D01*
X112766Y164578D01*
X112679Y164629D01*
X112595Y164684D01*
X112513Y164743D01*
X112433Y164804D01*
X112356Y164868D01*
X112281Y164936D01*
X112209Y165006D01*
X112139Y165079D01*
X112073Y165155D01*
X112009Y165233D01*
X111949Y165313D01*
X111892Y165396D01*
X111838Y165481D01*
X111787Y165568D01*
X111740Y165657D01*
X111696Y165748D01*
X111656Y165840D01*
X111619Y165934D01*
X111586Y166029D01*
X110783Y168498D01*
X118652Y161084D02*
X108744Y153770D01*
X121060Y153676D01*
X111273Y145986D02*
X112276Y142899D01*
X112313Y142792D01*
X112353Y142686D01*
X112398Y142582D01*
X112446Y142479D01*
X112497Y142378D01*
X112552Y142279D01*
X112610Y142182D01*
X112672Y142087D01*
X112737Y141994D01*
X112805Y141904D01*
X112876Y141816D01*
X112951Y141730D01*
X113028Y141647D01*
X113108Y141567D01*
X113191Y141490D01*
X113277Y141415D01*
X113365Y141344D01*
X113455Y141276D01*
X113548Y141211D01*
X113643Y141149D01*
X113740Y141091D01*
X113839Y141036D01*
X113940Y140985D01*
X114043Y140937D01*
X114147Y140892D01*
X114253Y140852D01*
X114360Y140815D01*
X114468Y140782D01*
X114578Y140752D01*
X114688Y140727D01*
X114799Y140705D01*
X114911Y140688D01*
X115024Y140674D01*
X115137Y140664D01*
X115250Y140658D01*
X115363Y140656D01*
X115476Y140658D01*
X115589Y140664D01*
X115702Y140674D01*
X115815Y140688D01*
X115927Y140705D01*
X116038Y140727D01*
X116148Y140752D01*
X116258Y140782D01*
X116366Y140815D01*
X116473Y140852D01*
X116579Y140892D01*
X116683Y140937D01*
X116786Y140985D01*
X116887Y141036D01*
X116986Y141091D01*
X117083Y141149D01*
X117178Y141211D01*
X117271Y141276D01*
X117361Y141344D01*
X117449Y141415D01*
X117535Y141490D01*
X117618Y141567D01*
X117698Y141647D01*
X117775Y141730D01*
X117850Y141816D01*
X117921Y141904D01*
X117989Y141994D01*
X118054Y142087D01*
X118116Y142182D01*
X118174Y142279D01*
X118229Y142378D01*
X118280Y142479D01*
X118328Y142582D01*
X118373Y142686D01*
X118413Y142792D01*
X118450Y142899D01*
X118483Y143007D01*
X118513Y143117D01*
X118538Y143227D01*
X118560Y143338D01*
X118577Y143450D01*
X118591Y143563D01*
X118601Y143676D01*
X118607Y143789D01*
X118609Y143902D01*
X118607Y144015D01*
X118601Y144128D01*
X118591Y144241D01*
X118577Y144354D01*
X118560Y144466D01*
X118538Y144577D01*
X118513Y144687D01*
X118483Y144797D01*
X118450Y144905D01*
X123589Y145892D02*
X122385Y149596D01*
X123588Y145892D02*
X123617Y145796D01*
X123643Y145698D01*
X123664Y145600D01*
X123682Y145501D01*
X123696Y145401D01*
X123706Y145301D01*
X123713Y145201D01*
X123715Y145100D01*
X123713Y144999D01*
X123708Y144899D01*
X123699Y144799D01*
X123685Y144699D01*
X123668Y144600D01*
X123647Y144501D01*
X123623Y144404D01*
X123594Y144307D01*
X123562Y144212D01*
X123526Y144118D01*
X123486Y144025D01*
X123443Y143934D01*
X123397Y143845D01*
X123347Y143757D01*
X123293Y143672D01*
X123237Y143589D01*
X123177Y143508D01*
X123114Y143429D01*
X123048Y143353D01*
X122979Y143279D01*
X122908Y143209D01*
X122833Y143141D01*
X122757Y143076D01*
X122677Y143014D01*
X122596Y142955D01*
X122512Y142899D01*
X122426Y142847D01*
X122338Y142798D01*
X122248Y142752D01*
X122156Y142710D01*
X122063Y142672D01*
X121969Y142637D01*
X121873Y142606D01*
X121776Y142579D01*
X121678Y142555D01*
X121580Y142535D01*
X121480Y142519D01*
X121380Y142507D01*
X121280Y142499D01*
X121179Y142495D01*
X121079Y142494D01*
X120978Y142498D01*
X120878Y142505D01*
X120778Y142517D01*
X120678Y142532D01*
X120579Y142551D01*
X120481Y142574D01*
X120384Y142600D01*
X120288Y142631D01*
X120193Y142665D01*
X120100Y142702D01*
X120008Y142744D01*
X119918Y142788D01*
X119830Y142837D01*
X119743Y142888D01*
X119659Y142943D01*
X119577Y143002D01*
X119497Y143063D01*
X119420Y143127D01*
X119345Y143195D01*
X119273Y143265D01*
X119203Y143338D01*
X119137Y143414D01*
X119073Y143492D01*
X119013Y143572D01*
X118956Y143655D01*
X118902Y143740D01*
X118851Y143827D01*
X118804Y143916D01*
X118760Y144007D01*
X118720Y144099D01*
X118683Y144193D01*
X118650Y144288D01*
X117848Y146757D01*
X-11430Y232283D02*
X-14676Y232283D01*
X-11430Y232283D02*
X-11317Y232285D01*
X-11204Y232291D01*
X-11091Y232301D01*
X-10978Y232315D01*
X-10866Y232332D01*
X-10755Y232354D01*
X-10645Y232379D01*
X-10535Y232409D01*
X-10427Y232442D01*
X-10320Y232479D01*
X-10214Y232519D01*
X-10110Y232564D01*
X-10007Y232612D01*
X-9906Y232663D01*
X-9807Y232718D01*
X-9710Y232776D01*
X-9615Y232838D01*
X-9522Y232903D01*
X-9432Y232971D01*
X-9344Y233042D01*
X-9258Y233117D01*
X-9175Y233194D01*
X-9095Y233274D01*
X-9018Y233357D01*
X-8943Y233443D01*
X-8872Y233531D01*
X-8804Y233621D01*
X-8739Y233714D01*
X-8677Y233809D01*
X-8619Y233906D01*
X-8564Y234005D01*
X-8513Y234106D01*
X-8465Y234209D01*
X-8420Y234313D01*
X-8380Y234419D01*
X-8343Y234526D01*
X-8310Y234634D01*
X-8280Y234744D01*
X-8255Y234854D01*
X-8233Y234965D01*
X-8216Y235077D01*
X-8202Y235190D01*
X-8192Y235303D01*
X-8186Y235416D01*
X-8184Y235529D01*
X-8186Y235642D01*
X-8192Y235755D01*
X-8202Y235868D01*
X-8216Y235981D01*
X-8233Y236093D01*
X-8255Y236204D01*
X-8280Y236314D01*
X-8310Y236424D01*
X-8343Y236532D01*
X-8380Y236639D01*
X-8420Y236745D01*
X-8465Y236849D01*
X-8513Y236952D01*
X-8564Y237053D01*
X-8619Y237152D01*
X-8677Y237249D01*
X-8739Y237344D01*
X-8804Y237437D01*
X-8872Y237527D01*
X-8943Y237615D01*
X-9018Y237701D01*
X-9095Y237784D01*
X-9175Y237864D01*
X-9258Y237941D01*
X-9344Y238016D01*
X-9432Y238087D01*
X-9522Y238155D01*
X-9615Y238220D01*
X-9710Y238282D01*
X-9807Y238340D01*
X-9906Y238395D01*
X-10007Y238446D01*
X-10110Y238494D01*
X-10214Y238539D01*
X-10320Y238579D01*
X-10427Y238616D01*
X-10535Y238649D01*
X-10645Y238679D01*
X-10755Y238704D01*
X-10866Y238726D01*
X-10978Y238743D01*
X-11091Y238757D01*
X-11204Y238767D01*
X-11317Y238773D01*
X-11430Y238775D01*
X-10781Y243967D02*
X-14676Y243967D01*
X-10781Y243967D02*
X-10680Y243965D01*
X-10580Y243959D01*
X-10480Y243949D01*
X-10380Y243936D01*
X-10281Y243918D01*
X-10182Y243897D01*
X-10085Y243872D01*
X-9988Y243843D01*
X-9893Y243810D01*
X-9799Y243774D01*
X-9707Y243734D01*
X-9616Y243691D01*
X-9527Y243644D01*
X-9440Y243594D01*
X-9354Y243540D01*
X-9271Y243483D01*
X-9191Y243423D01*
X-9112Y243360D01*
X-9036Y243293D01*
X-8963Y243224D01*
X-8893Y243152D01*
X-8825Y243078D01*
X-8760Y243001D01*
X-8699Y242921D01*
X-8640Y242839D01*
X-8585Y242755D01*
X-8533Y242669D01*
X-8484Y242581D01*
X-8439Y242491D01*
X-8397Y242399D01*
X-8359Y242306D01*
X-8325Y242211D01*
X-8294Y242116D01*
X-8267Y242019D01*
X-8244Y241921D01*
X-8224Y241822D01*
X-8209Y241722D01*
X-8197Y241622D01*
X-8189Y241522D01*
X-8185Y241421D01*
X-8185Y241321D01*
X-8189Y241220D01*
X-8197Y241120D01*
X-8209Y241020D01*
X-8224Y240920D01*
X-8244Y240821D01*
X-8267Y240723D01*
X-8294Y240626D01*
X-8325Y240531D01*
X-8359Y240436D01*
X-8397Y240343D01*
X-8439Y240251D01*
X-8484Y240161D01*
X-8533Y240073D01*
X-8585Y239987D01*
X-8640Y239903D01*
X-8699Y239821D01*
X-8760Y239741D01*
X-8825Y239664D01*
X-8893Y239590D01*
X-8963Y239518D01*
X-9036Y239449D01*
X-9112Y239382D01*
X-9191Y239319D01*
X-9271Y239259D01*
X-9354Y239202D01*
X-9440Y239148D01*
X-9527Y239098D01*
X-9616Y239051D01*
X-9707Y239008D01*
X-9799Y238968D01*
X-9893Y238932D01*
X-9988Y238899D01*
X-10085Y238870D01*
X-10182Y238845D01*
X-10281Y238824D01*
X-10380Y238806D01*
X-10480Y238793D01*
X-10580Y238783D01*
X-10680Y238777D01*
X-10781Y238775D01*
X-10781Y238774D02*
X-13377Y238774D01*
X-3895Y243967D02*
X0Y232283D01*
X3895Y243967D01*
X8184Y232283D02*
X11430Y232283D01*
X11543Y232285D01*
X11656Y232291D01*
X11769Y232301D01*
X11882Y232315D01*
X11994Y232332D01*
X12105Y232354D01*
X12215Y232379D01*
X12325Y232409D01*
X12433Y232442D01*
X12540Y232479D01*
X12646Y232519D01*
X12750Y232564D01*
X12853Y232612D01*
X12954Y232663D01*
X13053Y232718D01*
X13150Y232776D01*
X13245Y232838D01*
X13338Y232903D01*
X13428Y232971D01*
X13516Y233042D01*
X13602Y233117D01*
X13685Y233194D01*
X13765Y233274D01*
X13842Y233357D01*
X13917Y233443D01*
X13988Y233531D01*
X14056Y233621D01*
X14121Y233714D01*
X14183Y233809D01*
X14241Y233906D01*
X14296Y234005D01*
X14347Y234106D01*
X14395Y234209D01*
X14440Y234313D01*
X14480Y234419D01*
X14517Y234526D01*
X14550Y234634D01*
X14580Y234744D01*
X14605Y234854D01*
X14627Y234965D01*
X14644Y235077D01*
X14658Y235190D01*
X14668Y235303D01*
X14674Y235416D01*
X14676Y235529D01*
X14674Y235642D01*
X14668Y235755D01*
X14658Y235868D01*
X14644Y235981D01*
X14627Y236093D01*
X14605Y236204D01*
X14580Y236314D01*
X14550Y236424D01*
X14517Y236532D01*
X14480Y236639D01*
X14440Y236745D01*
X14395Y236849D01*
X14347Y236952D01*
X14296Y237053D01*
X14241Y237152D01*
X14183Y237249D01*
X14121Y237344D01*
X14056Y237437D01*
X13988Y237527D01*
X13917Y237615D01*
X13842Y237701D01*
X13765Y237784D01*
X13685Y237864D01*
X13602Y237941D01*
X13516Y238016D01*
X13428Y238087D01*
X13338Y238155D01*
X13245Y238220D01*
X13150Y238282D01*
X13053Y238340D01*
X12954Y238395D01*
X12853Y238446D01*
X12750Y238494D01*
X12646Y238539D01*
X12540Y238579D01*
X12433Y238616D01*
X12325Y238649D01*
X12215Y238679D01*
X12105Y238704D01*
X11994Y238726D01*
X11882Y238743D01*
X11769Y238757D01*
X11656Y238767D01*
X11543Y238773D01*
X11430Y238775D01*
X12079Y243967D02*
X8184Y243967D01*
X12079Y243967D02*
X12180Y243965D01*
X12280Y243959D01*
X12380Y243949D01*
X12480Y243936D01*
X12579Y243918D01*
X12678Y243897D01*
X12775Y243872D01*
X12872Y243843D01*
X12967Y243810D01*
X13061Y243774D01*
X13153Y243734D01*
X13244Y243691D01*
X13333Y243644D01*
X13420Y243594D01*
X13506Y243540D01*
X13589Y243483D01*
X13669Y243423D01*
X13748Y243360D01*
X13824Y243293D01*
X13897Y243224D01*
X13967Y243152D01*
X14035Y243078D01*
X14100Y243001D01*
X14161Y242921D01*
X14220Y242839D01*
X14275Y242755D01*
X14327Y242669D01*
X14376Y242581D01*
X14421Y242491D01*
X14463Y242399D01*
X14501Y242306D01*
X14535Y242211D01*
X14566Y242116D01*
X14593Y242019D01*
X14616Y241921D01*
X14636Y241822D01*
X14651Y241722D01*
X14663Y241622D01*
X14671Y241522D01*
X14675Y241421D01*
X14675Y241321D01*
X14671Y241220D01*
X14663Y241120D01*
X14651Y241020D01*
X14636Y240920D01*
X14616Y240821D01*
X14593Y240723D01*
X14566Y240626D01*
X14535Y240531D01*
X14501Y240436D01*
X14463Y240343D01*
X14421Y240251D01*
X14376Y240161D01*
X14327Y240073D01*
X14275Y239987D01*
X14220Y239903D01*
X14161Y239821D01*
X14100Y239741D01*
X14035Y239664D01*
X13967Y239590D01*
X13897Y239518D01*
X13824Y239449D01*
X13748Y239382D01*
X13669Y239319D01*
X13589Y239259D01*
X13506Y239202D01*
X13420Y239148D01*
X13333Y239098D01*
X13244Y239051D01*
X13153Y239008D01*
X13061Y238968D01*
X12967Y238932D01*
X12872Y238899D01*
X12775Y238870D01*
X12678Y238845D01*
X12579Y238824D01*
X12480Y238806D01*
X12380Y238793D01*
X12280Y238783D01*
X12180Y238777D01*
X12079Y238775D01*
X12079Y238774D02*
X9483Y238774D01*
D11*
X48735Y206883D02*
X38284Y192499D01*
X48735Y206883D02*
X52730Y203980D01*
X52730Y203981D02*
X52842Y203897D01*
X52951Y203810D01*
X53058Y203720D01*
X53163Y203627D01*
X53265Y203531D01*
X53364Y203433D01*
X53460Y203331D01*
X53553Y203227D01*
X53643Y203120D01*
X53730Y203011D01*
X53814Y202899D01*
X53895Y202785D01*
X53973Y202669D01*
X54047Y202551D01*
X54118Y202430D01*
X54186Y202308D01*
X54250Y202184D01*
X54310Y202058D01*
X54367Y201930D01*
X54420Y201801D01*
X54470Y201670D01*
X54516Y201538D01*
X54558Y201405D01*
X54596Y201270D01*
X54630Y201135D01*
X54661Y200998D01*
X54688Y200861D01*
X54711Y200723D01*
X54729Y200585D01*
X54744Y200446D01*
X54756Y200306D01*
X54763Y200167D01*
X54766Y200027D01*
X54765Y199887D01*
X54760Y199747D01*
X54752Y199608D01*
X54739Y199469D01*
X54722Y199330D01*
X54702Y199192D01*
X54677Y199054D01*
X54649Y198917D01*
X54617Y198781D01*
X54581Y198646D01*
X54541Y198512D01*
X54498Y198379D01*
X54450Y198248D01*
X54399Y198118D01*
X54345Y197989D01*
X54286Y197862D01*
X54225Y197737D01*
X54159Y197613D01*
X54090Y197491D01*
X54018Y197372D01*
X53942Y197254D01*
X53863Y197139D01*
X53781Y197026D01*
X53696Y196915D01*
X53607Y196807D01*
X53516Y196701D01*
X53422Y196598D01*
X53324Y196498D01*
X53224Y196400D01*
X53121Y196305D01*
X53016Y196214D01*
X52908Y196125D01*
X52798Y196039D01*
X52685Y195957D01*
X52570Y195877D01*
X52452Y195801D01*
X52333Y195729D01*
X52211Y195660D01*
X52088Y195594D01*
X51963Y195532D01*
X51836Y195473D01*
X51707Y195418D01*
X51577Y195367D01*
X51446Y195319D01*
X51313Y195275D01*
X51179Y195235D01*
X51044Y195198D01*
X50908Y195166D01*
X50772Y195137D01*
X50634Y195112D01*
X50496Y195092D01*
X50357Y195075D01*
X50218Y195062D01*
X50079Y195052D01*
X49939Y195047D01*
X49799Y195046D01*
X49659Y195049D01*
X49520Y195056D01*
X49380Y195066D01*
X49241Y195081D01*
X49103Y195099D01*
X48965Y195122D01*
X48827Y195148D01*
X48691Y195178D01*
X48555Y195212D01*
X48421Y195250D01*
X48287Y195292D01*
X48155Y195338D01*
X48024Y195387D01*
X47895Y195440D01*
X47767Y195496D01*
X47641Y195556D01*
X47517Y195620D01*
X47394Y195687D01*
X47273Y195757D01*
X47155Y195831D01*
X47038Y195909D01*
X46924Y195989D01*
X42929Y198892D01*
X59352Y194285D02*
X65670Y194579D01*
X55220Y180194D01*
X59215Y177291D02*
X51224Y183097D01*
X-11349Y39053D02*
X-11349Y21273D01*
X-11349Y39053D02*
X-6410Y39053D01*
X-6270Y39051D01*
X-6131Y39045D01*
X-5991Y39035D01*
X-5852Y39021D01*
X-5713Y39004D01*
X-5575Y38982D01*
X-5438Y38956D01*
X-5301Y38927D01*
X-5165Y38894D01*
X-5031Y38857D01*
X-4897Y38816D01*
X-4765Y38771D01*
X-4633Y38722D01*
X-4504Y38670D01*
X-4376Y38615D01*
X-4249Y38555D01*
X-4124Y38492D01*
X-4001Y38426D01*
X-3880Y38356D01*
X-3761Y38283D01*
X-3644Y38206D01*
X-3530Y38126D01*
X-3417Y38043D01*
X-3307Y37957D01*
X-3200Y37867D01*
X-3095Y37775D01*
X-2993Y37680D01*
X-2893Y37582D01*
X-2796Y37481D01*
X-2702Y37377D01*
X-2612Y37271D01*
X-2524Y37162D01*
X-2439Y37051D01*
X-2358Y36937D01*
X-2279Y36822D01*
X-2204Y36704D01*
X-2133Y36584D01*
X-2065Y36461D01*
X-2000Y36338D01*
X-1939Y36212D01*
X-1881Y36084D01*
X-1827Y35956D01*
X-1777Y35825D01*
X-1730Y35693D01*
X-1687Y35560D01*
X-1648Y35426D01*
X-1613Y35291D01*
X-1582Y35155D01*
X-1554Y35017D01*
X-1531Y34880D01*
X-1511Y34741D01*
X-1495Y34602D01*
X-1483Y34463D01*
X-1475Y34324D01*
X-1471Y34184D01*
X-1471Y34044D01*
X-1475Y33904D01*
X-1483Y33765D01*
X-1495Y33626D01*
X-1511Y33487D01*
X-1531Y33348D01*
X-1554Y33211D01*
X-1582Y33073D01*
X-1613Y32937D01*
X-1648Y32802D01*
X-1687Y32668D01*
X-1730Y32535D01*
X-1777Y32403D01*
X-1827Y32272D01*
X-1881Y32144D01*
X-1939Y32016D01*
X-2000Y31890D01*
X-2065Y31767D01*
X-2133Y31645D01*
X-2204Y31524D01*
X-2279Y31406D01*
X-2358Y31291D01*
X-2439Y31177D01*
X-2524Y31066D01*
X-2612Y30957D01*
X-2702Y30851D01*
X-2796Y30747D01*
X-2893Y30646D01*
X-2993Y30548D01*
X-3095Y30453D01*
X-3200Y30361D01*
X-3307Y30271D01*
X-3417Y30185D01*
X-3530Y30102D01*
X-3644Y30022D01*
X-3761Y29945D01*
X-3880Y29872D01*
X-4001Y29802D01*
X-4124Y29736D01*
X-4249Y29673D01*
X-4376Y29613D01*
X-4504Y29558D01*
X-4633Y29506D01*
X-4765Y29457D01*
X-4897Y29412D01*
X-5031Y29371D01*
X-5165Y29334D01*
X-5301Y29301D01*
X-5438Y29272D01*
X-5575Y29246D01*
X-5713Y29224D01*
X-5852Y29207D01*
X-5991Y29193D01*
X-6131Y29183D01*
X-6270Y29177D01*
X-6410Y29175D01*
X-11349Y29175D01*
X4646Y21273D02*
X9585Y21273D01*
X9585Y21272D02*
X9725Y21274D01*
X9864Y21280D01*
X10004Y21290D01*
X10143Y21304D01*
X10282Y21321D01*
X10420Y21343D01*
X10557Y21369D01*
X10694Y21398D01*
X10830Y21431D01*
X10964Y21468D01*
X11098Y21509D01*
X11230Y21554D01*
X11362Y21603D01*
X11491Y21655D01*
X11619Y21710D01*
X11746Y21770D01*
X11871Y21833D01*
X11994Y21899D01*
X12115Y21969D01*
X12234Y22042D01*
X12351Y22119D01*
X12465Y22199D01*
X12578Y22282D01*
X12688Y22368D01*
X12795Y22458D01*
X12900Y22550D01*
X13002Y22645D01*
X13102Y22743D01*
X13199Y22844D01*
X13293Y22948D01*
X13383Y23054D01*
X13471Y23163D01*
X13556Y23274D01*
X13637Y23388D01*
X13716Y23503D01*
X13791Y23621D01*
X13862Y23742D01*
X13930Y23864D01*
X13995Y23987D01*
X14056Y24113D01*
X14114Y24241D01*
X14168Y24369D01*
X14218Y24500D01*
X14265Y24632D01*
X14308Y24765D01*
X14347Y24899D01*
X14382Y25034D01*
X14413Y25170D01*
X14441Y25308D01*
X14464Y25445D01*
X14484Y25584D01*
X14500Y25723D01*
X14512Y25862D01*
X14520Y26001D01*
X14524Y26141D01*
X14524Y26281D01*
X14520Y26421D01*
X14512Y26560D01*
X14500Y26699D01*
X14484Y26838D01*
X14464Y26977D01*
X14441Y27114D01*
X14413Y27252D01*
X14382Y27388D01*
X14347Y27523D01*
X14308Y27657D01*
X14265Y27790D01*
X14218Y27922D01*
X14168Y28053D01*
X14114Y28181D01*
X14056Y28309D01*
X13995Y28435D01*
X13930Y28558D01*
X13862Y28681D01*
X13791Y28801D01*
X13716Y28919D01*
X13637Y29034D01*
X13556Y29148D01*
X13471Y29259D01*
X13383Y29368D01*
X13293Y29474D01*
X13199Y29578D01*
X13102Y29679D01*
X13002Y29777D01*
X12900Y29872D01*
X12795Y29964D01*
X12688Y30054D01*
X12578Y30140D01*
X12465Y30223D01*
X12351Y30303D01*
X12234Y30380D01*
X12115Y30453D01*
X11994Y30523D01*
X11871Y30589D01*
X11746Y30652D01*
X11619Y30712D01*
X11491Y30767D01*
X11362Y30819D01*
X11230Y30868D01*
X11098Y30913D01*
X10964Y30954D01*
X10830Y30991D01*
X10694Y31024D01*
X10557Y31053D01*
X10420Y31079D01*
X10282Y31101D01*
X10143Y31118D01*
X10004Y31132D01*
X9864Y31142D01*
X9725Y31148D01*
X9585Y31150D01*
X10573Y39053D02*
X4646Y39053D01*
X10573Y39052D02*
X10697Y39050D01*
X10821Y39044D01*
X10945Y39034D01*
X11068Y39021D01*
X11191Y39003D01*
X11313Y38982D01*
X11435Y38957D01*
X11556Y38928D01*
X11675Y38895D01*
X11794Y38859D01*
X11911Y38818D01*
X12027Y38775D01*
X12142Y38727D01*
X12255Y38676D01*
X12367Y38621D01*
X12476Y38563D01*
X12584Y38502D01*
X12690Y38437D01*
X12794Y38369D01*
X12895Y38297D01*
X12995Y38223D01*
X13091Y38145D01*
X13186Y38065D01*
X13278Y37981D01*
X13367Y37895D01*
X13453Y37806D01*
X13537Y37714D01*
X13617Y37619D01*
X13695Y37523D01*
X13769Y37423D01*
X13841Y37322D01*
X13909Y37218D01*
X13974Y37112D01*
X14035Y37004D01*
X14093Y36895D01*
X14148Y36783D01*
X14199Y36670D01*
X14247Y36555D01*
X14290Y36439D01*
X14331Y36322D01*
X14367Y36203D01*
X14400Y36084D01*
X14429Y35963D01*
X14454Y35841D01*
X14475Y35719D01*
X14493Y35596D01*
X14506Y35473D01*
X14516Y35349D01*
X14522Y35225D01*
X14524Y35101D01*
X14522Y34977D01*
X14516Y34853D01*
X14506Y34729D01*
X14493Y34606D01*
X14475Y34483D01*
X14454Y34361D01*
X14429Y34239D01*
X14400Y34118D01*
X14367Y33999D01*
X14331Y33880D01*
X14290Y33763D01*
X14247Y33647D01*
X14199Y33532D01*
X14148Y33419D01*
X14093Y33307D01*
X14035Y33198D01*
X13974Y33090D01*
X13909Y32984D01*
X13841Y32880D01*
X13769Y32779D01*
X13695Y32679D01*
X13617Y32583D01*
X13537Y32488D01*
X13453Y32396D01*
X13367Y32307D01*
X13278Y32221D01*
X13186Y32137D01*
X13091Y32057D01*
X12995Y31979D01*
X12895Y31905D01*
X12794Y31833D01*
X12690Y31765D01*
X12584Y31700D01*
X12476Y31639D01*
X12367Y31581D01*
X12255Y31526D01*
X12142Y31475D01*
X12027Y31427D01*
X11911Y31384D01*
X11794Y31343D01*
X11675Y31307D01*
X11556Y31274D01*
X11435Y31245D01*
X11313Y31220D01*
X11191Y31199D01*
X11068Y31181D01*
X10945Y31168D01*
X10821Y31158D01*
X10697Y31152D01*
X10573Y31150D01*
X6622Y31150D01*
X-82855Y107125D02*
X-99765Y101631D01*
X-82855Y107125D02*
X-81329Y102428D01*
X-81287Y102295D01*
X-81250Y102160D01*
X-81216Y102024D01*
X-81186Y101888D01*
X-81160Y101750D01*
X-81138Y101612D01*
X-81120Y101474D01*
X-81106Y101335D01*
X-81096Y101195D01*
X-81089Y101056D01*
X-81087Y100916D01*
X-81089Y100776D01*
X-81094Y100637D01*
X-81104Y100497D01*
X-81117Y100358D01*
X-81134Y100219D01*
X-81156Y100081D01*
X-81181Y99944D01*
X-81210Y99807D01*
X-81243Y99671D01*
X-81280Y99536D01*
X-81320Y99402D01*
X-81364Y99270D01*
X-81413Y99139D01*
X-81464Y99009D01*
X-81520Y98880D01*
X-81579Y98754D01*
X-81641Y98629D01*
X-81707Y98505D01*
X-81777Y98384D01*
X-81850Y98265D01*
X-81926Y98148D01*
X-82006Y98033D01*
X-82089Y97920D01*
X-82175Y97810D01*
X-82264Y97702D01*
X-82356Y97597D01*
X-82451Y97495D01*
X-82548Y97395D01*
X-82649Y97298D01*
X-82752Y97204D01*
X-82858Y97113D01*
X-82967Y97024D01*
X-83078Y96939D01*
X-83191Y96858D01*
X-83307Y96779D01*
X-83425Y96704D01*
X-83544Y96632D01*
X-83666Y96563D01*
X-83790Y96498D01*
X-83915Y96437D01*
X-84043Y96379D01*
X-84171Y96324D01*
X-84302Y96274D01*
X-84433Y96227D01*
X-84566Y96184D01*
X-84700Y96144D01*
X-84836Y96109D01*
X-84972Y96077D01*
X-85109Y96049D01*
X-85246Y96025D01*
X-85385Y96005D01*
X-85524Y95989D01*
X-85663Y95976D01*
X-85802Y95968D01*
X-85942Y95964D01*
X-86082Y95963D01*
X-86222Y95967D01*
X-86361Y95974D01*
X-86501Y95986D01*
X-86639Y96001D01*
X-86778Y96021D01*
X-86916Y96044D01*
X-87053Y96071D01*
X-87189Y96102D01*
X-87325Y96137D01*
X-87459Y96175D01*
X-87592Y96218D01*
X-87724Y96264D01*
X-87855Y96314D01*
X-87984Y96368D01*
X-88111Y96425D01*
X-88237Y96486D01*
X-88361Y96550D01*
X-88483Y96618D01*
X-88604Y96689D01*
X-88722Y96764D01*
X-88838Y96842D01*
X-88952Y96923D01*
X-89063Y97007D01*
X-89172Y97095D01*
X-89279Y97185D01*
X-89382Y97279D01*
X-89484Y97375D01*
X-89582Y97474D01*
X-89678Y97576D01*
X-89770Y97681D01*
X-89860Y97788D01*
X-89946Y97898D01*
X-90030Y98010D01*
X-90110Y98125D01*
X-90187Y98241D01*
X-90261Y98360D01*
X-90331Y98481D01*
X-90398Y98604D01*
X-90461Y98729D01*
X-90521Y98855D01*
X-90577Y98983D01*
X-90629Y99112D01*
X-90678Y99243D01*
X-90723Y99376D01*
X-92249Y104073D01*
X-91064Y87640D02*
X-76691Y88155D01*
X-91064Y87640D02*
X-88012Y78245D01*
X-92685Y79843D02*
X-85170Y82285D01*
X-41753Y193167D02*
X-52204Y207551D01*
X-48208Y210454D01*
X-48094Y210534D01*
X-47977Y210612D01*
X-47859Y210686D01*
X-47738Y210756D01*
X-47615Y210823D01*
X-47491Y210887D01*
X-47365Y210947D01*
X-47237Y211003D01*
X-47108Y211056D01*
X-46977Y211105D01*
X-46845Y211151D01*
X-46711Y211193D01*
X-46577Y211231D01*
X-46441Y211265D01*
X-46305Y211295D01*
X-46167Y211321D01*
X-46029Y211344D01*
X-45891Y211362D01*
X-45752Y211377D01*
X-45612Y211387D01*
X-45473Y211394D01*
X-45333Y211397D01*
X-45193Y211396D01*
X-45054Y211391D01*
X-44914Y211381D01*
X-44775Y211368D01*
X-44636Y211351D01*
X-44498Y211331D01*
X-44360Y211306D01*
X-44224Y211277D01*
X-44088Y211245D01*
X-43953Y211208D01*
X-43819Y211168D01*
X-43686Y211124D01*
X-43555Y211076D01*
X-43425Y211025D01*
X-43296Y210970D01*
X-43169Y210911D01*
X-43044Y210849D01*
X-42921Y210783D01*
X-42799Y210714D01*
X-42680Y210642D01*
X-42562Y210566D01*
X-42447Y210486D01*
X-42334Y210404D01*
X-42224Y210318D01*
X-42116Y210229D01*
X-42011Y210138D01*
X-41908Y210043D01*
X-41808Y209945D01*
X-41710Y209845D01*
X-41616Y209742D01*
X-41525Y209636D01*
X-41436Y209528D01*
X-41351Y209417D01*
X-41269Y209304D01*
X-41190Y209189D01*
X-41114Y209071D01*
X-41042Y208952D01*
X-40973Y208830D01*
X-40907Y208706D01*
X-40846Y208581D01*
X-40787Y208454D01*
X-40733Y208325D01*
X-40682Y208195D01*
X-40634Y208064D01*
X-40591Y207931D01*
X-40551Y207797D01*
X-40515Y207662D01*
X-40483Y207526D01*
X-40455Y207389D01*
X-40430Y207251D01*
X-40410Y207113D01*
X-40393Y206974D01*
X-40380Y206835D01*
X-40372Y206696D01*
X-40367Y206556D01*
X-40366Y206416D01*
X-40369Y206276D01*
X-40376Y206137D01*
X-40388Y205997D01*
X-40403Y205858D01*
X-40421Y205720D01*
X-40444Y205582D01*
X-40471Y205445D01*
X-40502Y205308D01*
X-40536Y205173D01*
X-40574Y205038D01*
X-40616Y204905D01*
X-40662Y204773D01*
X-40712Y204642D01*
X-40765Y204513D01*
X-40822Y204385D01*
X-40882Y204259D01*
X-40946Y204135D01*
X-41014Y204013D01*
X-41085Y203892D01*
X-41159Y203774D01*
X-41237Y203658D01*
X-41318Y203544D01*
X-41402Y203432D01*
X-41489Y203323D01*
X-41579Y203216D01*
X-41672Y203112D01*
X-41768Y203010D01*
X-41867Y202912D01*
X-41969Y202816D01*
X-42074Y202723D01*
X-42181Y202633D01*
X-42290Y202546D01*
X-42402Y202462D01*
X-42402Y202463D02*
X-46398Y199560D01*
X-28813Y202568D02*
X-24018Y206052D01*
X-23918Y206126D01*
X-23822Y206204D01*
X-23727Y206284D01*
X-23635Y206368D01*
X-23546Y206454D01*
X-23460Y206543D01*
X-23376Y206635D01*
X-23296Y206730D01*
X-23218Y206826D01*
X-23144Y206926D01*
X-23072Y207027D01*
X-23004Y207131D01*
X-22939Y207237D01*
X-22878Y207345D01*
X-22820Y207454D01*
X-22765Y207566D01*
X-22714Y207679D01*
X-22666Y207794D01*
X-22623Y207910D01*
X-22582Y208027D01*
X-22546Y208146D01*
X-22513Y208265D01*
X-22484Y208386D01*
X-22459Y208508D01*
X-22438Y208630D01*
X-22420Y208753D01*
X-22407Y208876D01*
X-22397Y209000D01*
X-22391Y209124D01*
X-22389Y209248D01*
X-22391Y209372D01*
X-22397Y209496D01*
X-22407Y209620D01*
X-22420Y209743D01*
X-22438Y209866D01*
X-22459Y209988D01*
X-22484Y210110D01*
X-22513Y210231D01*
X-22546Y210350D01*
X-22582Y210469D01*
X-22623Y210586D01*
X-22666Y210702D01*
X-22714Y210817D01*
X-22765Y210930D01*
X-22820Y211042D01*
X-22878Y211151D01*
X-22939Y211259D01*
X-23004Y211365D01*
X-23072Y211469D01*
X-23144Y211570D01*
X-23144Y211571D02*
X-24305Y213169D01*
X-24379Y213269D01*
X-24457Y213365D01*
X-24537Y213460D01*
X-24621Y213552D01*
X-24707Y213641D01*
X-24796Y213727D01*
X-24888Y213811D01*
X-24983Y213891D01*
X-25079Y213969D01*
X-25179Y214043D01*
X-25280Y214115D01*
X-25384Y214183D01*
X-25490Y214248D01*
X-25598Y214309D01*
X-25707Y214367D01*
X-25819Y214422D01*
X-25932Y214473D01*
X-26047Y214521D01*
X-26163Y214564D01*
X-26280Y214605D01*
X-26399Y214641D01*
X-26518Y214674D01*
X-26639Y214703D01*
X-26761Y214728D01*
X-26883Y214749D01*
X-27006Y214767D01*
X-27129Y214780D01*
X-27253Y214790D01*
X-27377Y214796D01*
X-27501Y214798D01*
X-27625Y214796D01*
X-27749Y214790D01*
X-27873Y214780D01*
X-27996Y214767D01*
X-28119Y214749D01*
X-28241Y214728D01*
X-28363Y214703D01*
X-28484Y214674D01*
X-28603Y214641D01*
X-28722Y214605D01*
X-28839Y214564D01*
X-28956Y214521D01*
X-29070Y214473D01*
X-29183Y214422D01*
X-29295Y214367D01*
X-29404Y214309D01*
X-29512Y214248D01*
X-29618Y214183D01*
X-29722Y214115D01*
X-29823Y214043D01*
X-29824Y214043D02*
X-34618Y210559D01*
X-39263Y216952D01*
X-31272Y222758D01*
X71910Y81788D02*
X71910Y64008D01*
X71910Y81788D02*
X76849Y81788D01*
X76989Y81786D01*
X77128Y81780D01*
X77268Y81770D01*
X77407Y81756D01*
X77546Y81739D01*
X77684Y81717D01*
X77821Y81691D01*
X77958Y81662D01*
X78094Y81629D01*
X78228Y81592D01*
X78362Y81551D01*
X78494Y81506D01*
X78626Y81457D01*
X78755Y81405D01*
X78883Y81350D01*
X79010Y81290D01*
X79135Y81227D01*
X79258Y81161D01*
X79379Y81091D01*
X79498Y81018D01*
X79615Y80941D01*
X79729Y80861D01*
X79842Y80778D01*
X79952Y80692D01*
X80059Y80602D01*
X80164Y80510D01*
X80266Y80415D01*
X80366Y80317D01*
X80463Y80216D01*
X80557Y80112D01*
X80647Y80006D01*
X80735Y79897D01*
X80820Y79786D01*
X80901Y79672D01*
X80980Y79557D01*
X81055Y79439D01*
X81126Y79319D01*
X81194Y79196D01*
X81259Y79073D01*
X81320Y78947D01*
X81378Y78819D01*
X81432Y78691D01*
X81482Y78560D01*
X81529Y78428D01*
X81572Y78295D01*
X81611Y78161D01*
X81646Y78026D01*
X81677Y77890D01*
X81705Y77752D01*
X81728Y77615D01*
X81748Y77476D01*
X81764Y77337D01*
X81776Y77198D01*
X81784Y77059D01*
X81788Y76919D01*
X81788Y76779D01*
X81784Y76639D01*
X81776Y76500D01*
X81764Y76361D01*
X81748Y76222D01*
X81728Y76083D01*
X81705Y75946D01*
X81677Y75808D01*
X81646Y75672D01*
X81611Y75537D01*
X81572Y75403D01*
X81529Y75270D01*
X81482Y75138D01*
X81432Y75007D01*
X81378Y74879D01*
X81320Y74751D01*
X81259Y74625D01*
X81194Y74502D01*
X81126Y74380D01*
X81055Y74259D01*
X80980Y74141D01*
X80901Y74026D01*
X80820Y73912D01*
X80735Y73801D01*
X80647Y73692D01*
X80557Y73586D01*
X80463Y73482D01*
X80366Y73381D01*
X80266Y73283D01*
X80164Y73188D01*
X80059Y73096D01*
X79952Y73006D01*
X79842Y72920D01*
X79729Y72837D01*
X79615Y72757D01*
X79498Y72680D01*
X79379Y72607D01*
X79258Y72537D01*
X79135Y72471D01*
X79010Y72408D01*
X78883Y72348D01*
X78755Y72293D01*
X78626Y72241D01*
X78494Y72192D01*
X78362Y72147D01*
X78228Y72106D01*
X78094Y72069D01*
X77958Y72036D01*
X77821Y72007D01*
X77684Y71981D01*
X77546Y71959D01*
X77407Y71942D01*
X77268Y71928D01*
X77128Y71918D01*
X76989Y71912D01*
X76849Y71910D01*
X71910Y71910D01*
X77837Y71910D02*
X81788Y64008D01*
X-48740Y180150D02*
X-48740Y185088D01*
X-48738Y185228D01*
X-48732Y185367D01*
X-48722Y185507D01*
X-48708Y185646D01*
X-48691Y185785D01*
X-48669Y185923D01*
X-48643Y186060D01*
X-48614Y186197D01*
X-48581Y186333D01*
X-48544Y186467D01*
X-48503Y186601D01*
X-48458Y186733D01*
X-48409Y186865D01*
X-48357Y186994D01*
X-48302Y187122D01*
X-48242Y187249D01*
X-48179Y187374D01*
X-48113Y187497D01*
X-48043Y187618D01*
X-47970Y187737D01*
X-47893Y187854D01*
X-47813Y187968D01*
X-47730Y188081D01*
X-47644Y188191D01*
X-47554Y188298D01*
X-47462Y188403D01*
X-47367Y188505D01*
X-47269Y188605D01*
X-47168Y188702D01*
X-47064Y188796D01*
X-46958Y188886D01*
X-46849Y188974D01*
X-46738Y189059D01*
X-46624Y189140D01*
X-46509Y189219D01*
X-46391Y189294D01*
X-46271Y189365D01*
X-46148Y189433D01*
X-46025Y189498D01*
X-45899Y189559D01*
X-45771Y189617D01*
X-45643Y189671D01*
X-45512Y189721D01*
X-45380Y189768D01*
X-45247Y189811D01*
X-45113Y189850D01*
X-44978Y189885D01*
X-44842Y189916D01*
X-44704Y189944D01*
X-44567Y189967D01*
X-44428Y189987D01*
X-44289Y190003D01*
X-44150Y190015D01*
X-44011Y190023D01*
X-43871Y190027D01*
X-43731Y190027D01*
X-43591Y190023D01*
X-43452Y190015D01*
X-43313Y190003D01*
X-43174Y189987D01*
X-43035Y189967D01*
X-42898Y189944D01*
X-42760Y189916D01*
X-42624Y189885D01*
X-42489Y189850D01*
X-42355Y189811D01*
X-42222Y189768D01*
X-42090Y189721D01*
X-41959Y189671D01*
X-41831Y189617D01*
X-41703Y189559D01*
X-41577Y189498D01*
X-41454Y189433D01*
X-41332Y189365D01*
X-41211Y189294D01*
X-41093Y189219D01*
X-40978Y189140D01*
X-40864Y189059D01*
X-40753Y188974D01*
X-40644Y188886D01*
X-40538Y188796D01*
X-40434Y188702D01*
X-40333Y188605D01*
X-40235Y188505D01*
X-40140Y188403D01*
X-40048Y188298D01*
X-39958Y188191D01*
X-39872Y188081D01*
X-39789Y187968D01*
X-39709Y187854D01*
X-39632Y187737D01*
X-39559Y187618D01*
X-39489Y187497D01*
X-39423Y187374D01*
X-39360Y187249D01*
X-39300Y187122D01*
X-39245Y186994D01*
X-39193Y186865D01*
X-39144Y186733D01*
X-39099Y186601D01*
X-39058Y186467D01*
X-39021Y186333D01*
X-38988Y186197D01*
X-38959Y186060D01*
X-38933Y185923D01*
X-38911Y185785D01*
X-38894Y185646D01*
X-38880Y185507D01*
X-38870Y185367D01*
X-38864Y185228D01*
X-38862Y185088D01*
X-38862Y180150D01*
X-56642Y180150D01*
X-56642Y185088D01*
X-56640Y185212D01*
X-56634Y185336D01*
X-56624Y185460D01*
X-56611Y185583D01*
X-56593Y185706D01*
X-56572Y185828D01*
X-56547Y185950D01*
X-56518Y186071D01*
X-56485Y186190D01*
X-56449Y186309D01*
X-56408Y186426D01*
X-56365Y186542D01*
X-56317Y186657D01*
X-56266Y186770D01*
X-56211Y186882D01*
X-56153Y186991D01*
X-56092Y187099D01*
X-56027Y187205D01*
X-55959Y187309D01*
X-55887Y187410D01*
X-55813Y187510D01*
X-55735Y187606D01*
X-55655Y187701D01*
X-55571Y187793D01*
X-55485Y187882D01*
X-55396Y187968D01*
X-55304Y188052D01*
X-55209Y188132D01*
X-55113Y188210D01*
X-55013Y188284D01*
X-54912Y188356D01*
X-54808Y188424D01*
X-54702Y188489D01*
X-54594Y188550D01*
X-54485Y188608D01*
X-54373Y188663D01*
X-54260Y188714D01*
X-54145Y188762D01*
X-54029Y188805D01*
X-53912Y188846D01*
X-53793Y188882D01*
X-53674Y188915D01*
X-53553Y188944D01*
X-53431Y188969D01*
X-53309Y188990D01*
X-53186Y189008D01*
X-53063Y189021D01*
X-52939Y189031D01*
X-52815Y189037D01*
X-52691Y189039D01*
X-52567Y189037D01*
X-52443Y189031D01*
X-52319Y189021D01*
X-52196Y189008D01*
X-52073Y188990D01*
X-51951Y188969D01*
X-51829Y188944D01*
X-51708Y188915D01*
X-51589Y188882D01*
X-51470Y188846D01*
X-51353Y188805D01*
X-51237Y188762D01*
X-51122Y188714D01*
X-51009Y188663D01*
X-50897Y188608D01*
X-50788Y188550D01*
X-50680Y188489D01*
X-50574Y188424D01*
X-50470Y188356D01*
X-50369Y188284D01*
X-50269Y188210D01*
X-50173Y188132D01*
X-50078Y188052D01*
X-49986Y187968D01*
X-49897Y187882D01*
X-49811Y187793D01*
X-49727Y187701D01*
X-49647Y187606D01*
X-49569Y187510D01*
X-49495Y187410D01*
X-49423Y187309D01*
X-49355Y187205D01*
X-49290Y187099D01*
X-49229Y186991D01*
X-49171Y186882D01*
X-49116Y186770D01*
X-49065Y186657D01*
X-49017Y186542D01*
X-48974Y186426D01*
X-48933Y186309D01*
X-48897Y186190D01*
X-48864Y186071D01*
X-48835Y185950D01*
X-48810Y185828D01*
X-48789Y185706D01*
X-48771Y185583D01*
X-48758Y185460D01*
X-48748Y185336D01*
X-48742Y185212D01*
X-48740Y185088D01*
X-86487Y180150D02*
X-104267Y180150D01*
X-104267Y185088D01*
X-104265Y185227D01*
X-104259Y185365D01*
X-104250Y185503D01*
X-104236Y185641D01*
X-104219Y185778D01*
X-104197Y185915D01*
X-104172Y186052D01*
X-104143Y186187D01*
X-104110Y186322D01*
X-104074Y186455D01*
X-104034Y186588D01*
X-103990Y186719D01*
X-103942Y186849D01*
X-103891Y186978D01*
X-103836Y187105D01*
X-103778Y187231D01*
X-103716Y187355D01*
X-103651Y187477D01*
X-103582Y187597D01*
X-103510Y187716D01*
X-103435Y187832D01*
X-103356Y187946D01*
X-103274Y188058D01*
X-103189Y188167D01*
X-103102Y188275D01*
X-103011Y188379D01*
X-102917Y188481D01*
X-102820Y188580D01*
X-102721Y188677D01*
X-102619Y188771D01*
X-102515Y188862D01*
X-102407Y188949D01*
X-102298Y189034D01*
X-102186Y189116D01*
X-102072Y189195D01*
X-101956Y189270D01*
X-101837Y189342D01*
X-101717Y189411D01*
X-101595Y189476D01*
X-101471Y189538D01*
X-101345Y189596D01*
X-101218Y189651D01*
X-101089Y189702D01*
X-100959Y189750D01*
X-100828Y189794D01*
X-100695Y189834D01*
X-100562Y189870D01*
X-100427Y189903D01*
X-100292Y189932D01*
X-100155Y189957D01*
X-100018Y189979D01*
X-99881Y189996D01*
X-99743Y190010D01*
X-99605Y190019D01*
X-99467Y190025D01*
X-99328Y190027D01*
X-91426Y190027D01*
X-91287Y190025D01*
X-91149Y190019D01*
X-91011Y190010D01*
X-90873Y189996D01*
X-90736Y189979D01*
X-90599Y189957D01*
X-90462Y189932D01*
X-90327Y189903D01*
X-90192Y189870D01*
X-90059Y189834D01*
X-89926Y189794D01*
X-89795Y189750D01*
X-89665Y189702D01*
X-89536Y189651D01*
X-89409Y189596D01*
X-89283Y189538D01*
X-89159Y189476D01*
X-89037Y189411D01*
X-88917Y189342D01*
X-88798Y189270D01*
X-88682Y189195D01*
X-88568Y189116D01*
X-88456Y189034D01*
X-88347Y188949D01*
X-88239Y188862D01*
X-88135Y188771D01*
X-88033Y188677D01*
X-87934Y188580D01*
X-87837Y188481D01*
X-87743Y188379D01*
X-87652Y188275D01*
X-87565Y188167D01*
X-87480Y188058D01*
X-87398Y187946D01*
X-87319Y187832D01*
X-87244Y187716D01*
X-87172Y187597D01*
X-87103Y187477D01*
X-87038Y187355D01*
X-86976Y187231D01*
X-86918Y187105D01*
X-86863Y186978D01*
X-86812Y186849D01*
X-86764Y186719D01*
X-86720Y186588D01*
X-86680Y186455D01*
X-86644Y186322D01*
X-86611Y186187D01*
X-86582Y186052D01*
X-86557Y185915D01*
X-86535Y185778D01*
X-86518Y185641D01*
X-86504Y185503D01*
X-86495Y185365D01*
X-86489Y185227D01*
X-86487Y185088D01*
X-86487Y180150D01*
X-64262Y184101D02*
X-64262Y188052D01*
X-64262Y184101D02*
X-64264Y183977D01*
X-64270Y183853D01*
X-64280Y183729D01*
X-64293Y183606D01*
X-64311Y183483D01*
X-64332Y183361D01*
X-64357Y183239D01*
X-64386Y183118D01*
X-64419Y182999D01*
X-64455Y182880D01*
X-64496Y182763D01*
X-64539Y182647D01*
X-64587Y182532D01*
X-64638Y182419D01*
X-64693Y182307D01*
X-64751Y182198D01*
X-64812Y182090D01*
X-64877Y181984D01*
X-64945Y181880D01*
X-65017Y181779D01*
X-65091Y181679D01*
X-65169Y181583D01*
X-65249Y181488D01*
X-65333Y181396D01*
X-65419Y181307D01*
X-65508Y181221D01*
X-65600Y181137D01*
X-65695Y181057D01*
X-65791Y180979D01*
X-65891Y180905D01*
X-65992Y180833D01*
X-66096Y180765D01*
X-66202Y180700D01*
X-66310Y180639D01*
X-66419Y180581D01*
X-66531Y180526D01*
X-66644Y180475D01*
X-66759Y180427D01*
X-66875Y180384D01*
X-66992Y180343D01*
X-67111Y180307D01*
X-67230Y180274D01*
X-67351Y180245D01*
X-67473Y180220D01*
X-67595Y180199D01*
X-67718Y180181D01*
X-67841Y180168D01*
X-67965Y180158D01*
X-68089Y180152D01*
X-68213Y180150D01*
X-78091Y180150D01*
X-78215Y180152D01*
X-78339Y180158D01*
X-78463Y180168D01*
X-78586Y180181D01*
X-78709Y180199D01*
X-78831Y180220D01*
X-78953Y180245D01*
X-79074Y180274D01*
X-79193Y180307D01*
X-79312Y180343D01*
X-79429Y180384D01*
X-79545Y180427D01*
X-79660Y180475D01*
X-79773Y180526D01*
X-79885Y180581D01*
X-79994Y180639D01*
X-80102Y180700D01*
X-80208Y180765D01*
X-80312Y180833D01*
X-80413Y180905D01*
X-80513Y180979D01*
X-80609Y181057D01*
X-80704Y181137D01*
X-80796Y181221D01*
X-80885Y181307D01*
X-80971Y181396D01*
X-81055Y181488D01*
X-81135Y181583D01*
X-81213Y181679D01*
X-81287Y181779D01*
X-81359Y181880D01*
X-81427Y181984D01*
X-81492Y182090D01*
X-81553Y182198D01*
X-81611Y182307D01*
X-81666Y182419D01*
X-81717Y182532D01*
X-81765Y182647D01*
X-81808Y182763D01*
X-81849Y182880D01*
X-81885Y182999D01*
X-81918Y183118D01*
X-81947Y183239D01*
X-81972Y183361D01*
X-81993Y183483D01*
X-82011Y183606D01*
X-82024Y183729D01*
X-82034Y183853D01*
X-82040Y183977D01*
X-82042Y184101D01*
X-82042Y188052D01*
X79165Y98523D02*
X92786Y87094D01*
X79165Y98523D02*
X82340Y102307D01*
X82431Y102413D01*
X82525Y102516D01*
X82622Y102616D01*
X82722Y102714D01*
X82825Y102809D01*
X82930Y102900D01*
X83038Y102989D01*
X83149Y103075D01*
X83262Y103158D01*
X83377Y103237D01*
X83494Y103313D01*
X83613Y103386D01*
X83735Y103455D01*
X83858Y103521D01*
X83983Y103583D01*
X84110Y103642D01*
X84238Y103697D01*
X84368Y103749D01*
X84500Y103797D01*
X84632Y103841D01*
X84766Y103881D01*
X84901Y103917D01*
X85037Y103950D01*
X85174Y103979D01*
X85311Y104004D01*
X85449Y104025D01*
X85588Y104042D01*
X85727Y104055D01*
X85867Y104064D01*
X86007Y104070D01*
X86146Y104071D01*
X86286Y104068D01*
X86426Y104062D01*
X86565Y104051D01*
X86704Y104037D01*
X86843Y104018D01*
X86981Y103996D01*
X87118Y103970D01*
X87254Y103940D01*
X87390Y103906D01*
X87525Y103868D01*
X87658Y103826D01*
X87790Y103781D01*
X87921Y103732D01*
X88051Y103679D01*
X88179Y103623D01*
X88305Y103563D01*
X88429Y103499D01*
X88552Y103432D01*
X88673Y103362D01*
X88791Y103288D01*
X88908Y103211D01*
X89022Y103130D01*
X89134Y103047D01*
X89244Y102960D01*
X89351Y102870D01*
X89455Y102777D01*
X89557Y102682D01*
X89656Y102583D01*
X89753Y102482D01*
X89846Y102378D01*
X89936Y102271D01*
X90024Y102162D01*
X90108Y102050D01*
X90189Y101936D01*
X90266Y101820D01*
X90341Y101702D01*
X90412Y101581D01*
X90479Y101459D01*
X90544Y101335D01*
X90604Y101209D01*
X90661Y101081D01*
X90714Y100952D01*
X90764Y100821D01*
X90810Y100689D01*
X90852Y100556D01*
X90891Y100422D01*
X90925Y100286D01*
X90956Y100150D01*
X90983Y100013D01*
X91006Y99875D01*
X91025Y99736D01*
X91040Y99597D01*
X91051Y99458D01*
X91058Y99318D01*
X91062Y99179D01*
X91061Y99039D01*
X91057Y98899D01*
X91048Y98760D01*
X91035Y98620D01*
X91019Y98482D01*
X90999Y98343D01*
X90974Y98206D01*
X90946Y98069D01*
X90914Y97933D01*
X90878Y97798D01*
X90839Y97663D01*
X90795Y97531D01*
X90748Y97399D01*
X90697Y97269D01*
X90643Y97140D01*
X90584Y97013D01*
X90523Y96888D01*
X90457Y96764D01*
X90389Y96642D01*
X90316Y96523D01*
X90241Y96405D01*
X90162Y96290D01*
X90080Y96176D01*
X89995Y96066D01*
X89906Y95957D01*
X89907Y95957D02*
X86732Y92174D01*
X92939Y114937D02*
X93025Y115037D01*
X93114Y115134D01*
X93206Y115228D01*
X93301Y115320D01*
X93398Y115409D01*
X93498Y115494D01*
X93601Y115577D01*
X93705Y115657D01*
X93813Y115734D01*
X93922Y115807D01*
X94033Y115877D01*
X94147Y115944D01*
X94262Y116007D01*
X94380Y116067D01*
X94499Y116124D01*
X94619Y116177D01*
X94742Y116226D01*
X94865Y116272D01*
X94990Y116314D01*
X95116Y116352D01*
X95243Y116387D01*
X95371Y116417D01*
X95500Y116444D01*
X95630Y116467D01*
X95760Y116486D01*
X95891Y116502D01*
X96022Y116513D01*
X96154Y116521D01*
X96285Y116525D01*
X96417Y116524D01*
X96549Y116520D01*
X96680Y116512D01*
X96812Y116500D01*
X96942Y116485D01*
X97073Y116465D01*
X97202Y116441D01*
X97331Y116414D01*
X97459Y116383D01*
X97586Y116348D01*
X97712Y116309D01*
X97837Y116267D01*
X97960Y116221D01*
X98082Y116171D01*
X98203Y116118D01*
X98321Y116061D01*
X98439Y116001D01*
X98554Y115937D01*
X98667Y115870D01*
X98778Y115799D01*
X98888Y115725D01*
X98994Y115648D01*
X99099Y115568D01*
X99201Y115485D01*
X92939Y114937D02*
X92844Y114822D01*
X92753Y114703D01*
X92664Y114583D01*
X92579Y114460D01*
X92497Y114335D01*
X92418Y114207D01*
X92343Y114078D01*
X92271Y113947D01*
X92202Y113814D01*
X92138Y113679D01*
X92076Y113543D01*
X92018Y113405D01*
X91964Y113265D01*
X91914Y113125D01*
X91867Y112982D01*
X91824Y112839D01*
X91784Y112695D01*
X91749Y112549D01*
X91717Y112403D01*
X91689Y112256D01*
X91665Y112109D01*
X91645Y111960D01*
X91629Y111812D01*
X91617Y111663D01*
X91608Y111513D01*
X91604Y111364D01*
X91603Y111214D01*
X91607Y111065D01*
X91614Y110915D01*
X91625Y110766D01*
X91640Y110617D01*
X91659Y110469D01*
X91682Y110321D01*
X91709Y110174D01*
X91739Y110027D01*
X91774Y109882D01*
X91812Y109737D01*
X91854Y109593D01*
X91899Y109451D01*
X91949Y109310D01*
X92002Y109170D01*
X92059Y109031D01*
X92119Y108895D01*
X92183Y108759D01*
X92251Y108626D01*
X92322Y108494D01*
X92396Y108364D01*
X92474Y108236D01*
X100898Y112128D02*
X100887Y112261D01*
X100873Y112394D01*
X100856Y112526D01*
X100834Y112658D01*
X100809Y112788D01*
X100781Y112919D01*
X100749Y113048D01*
X100713Y113176D01*
X100673Y113304D01*
X100630Y113430D01*
X100584Y113555D01*
X100534Y113679D01*
X100480Y113801D01*
X100424Y113921D01*
X100364Y114040D01*
X100300Y114158D01*
X100233Y114273D01*
X100164Y114387D01*
X100091Y114498D01*
X100015Y114608D01*
X99935Y114715D01*
X99853Y114820D01*
X99768Y114923D01*
X99681Y115023D01*
X99590Y115121D01*
X99497Y115216D01*
X99401Y115309D01*
X99302Y115399D01*
X99201Y115486D01*
X100897Y112128D02*
X103067Y99347D01*
X109416Y106914D01*
X112071Y120834D02*
X107531Y124644D01*
X112071Y120834D02*
X117698Y120626D01*
X112071Y120834D02*
X113253Y115329D01*
X112071Y120834D02*
X114049Y126266D01*
X112071Y120834D02*
X107065Y117943D01*
D12*
X-77842Y37535D03*
D13*
X-78358Y37682D03*
D14*
X-78800Y37829D03*
D15*
X-79242Y37977D03*
D16*
X-79315Y38124D03*
D17*
X-79242Y38271D03*
D18*
X-79168Y38419D03*
D19*
X-79242Y38566D03*
D20*
X-79168Y38713D03*
D21*
X-79168Y38861D03*
D22*
X-79094Y39008D03*
X-79094Y39155D03*
D23*
X-79094Y39303D03*
D24*
X-79021Y39450D03*
D25*
X-79021Y39597D03*
X-79021Y39745D03*
D26*
X-78947Y39892D03*
D27*
X-78947Y40039D03*
D28*
X-78873Y40187D03*
D29*
X-78947Y40334D03*
D30*
X-78873Y40481D03*
D31*
X-78800Y40629D03*
D32*
X-78800Y40776D03*
X-78800Y40923D03*
D33*
X-78726Y41071D03*
D34*
X-78726Y41218D03*
D35*
X-78652Y41365D03*
D36*
X-78726Y41512D03*
D37*
X-78652Y41660D03*
D38*
X-78579Y41807D03*
D39*
X-78579Y41954D03*
X-78579Y42102D03*
D40*
X-78579Y42249D03*
D41*
X-78505Y42396D03*
X-78505Y42544D03*
D42*
X-78505Y42691D03*
D43*
X-78431Y42838D03*
D44*
X-78431Y42986D03*
X-78431Y43133D03*
D45*
X-78358Y43280D03*
D46*
X-78358Y43428D03*
D47*
X-78284Y43575D03*
D48*
X-78358Y43722D03*
D49*
X-78284Y43870D03*
D50*
X-78210Y44017D03*
D51*
X-57733Y44017D03*
D52*
X-78210Y44164D03*
D53*
X-58322Y44164D03*
D52*
X-78210Y44312D03*
D54*
X-58764Y44312D03*
D55*
X-78210Y44459D03*
D56*
X-59280Y44459D03*
D57*
X-78137Y44606D03*
D58*
X-59722Y44606D03*
D57*
X-78137Y44754D03*
D59*
X-60311Y44754D03*
D60*
X-78210Y44901D03*
D61*
X-60753Y44901D03*
D60*
X-78210Y45048D03*
D62*
X-61269Y45048D03*
D57*
X-78284Y45195D03*
D63*
X-61711Y45195D03*
D60*
X-78358Y45343D03*
D15*
X-61858Y45343D03*
D60*
X-78358Y45490D03*
D17*
X-61858Y45490D03*
D60*
X-78505Y45637D03*
D18*
X-61784Y45637D03*
D60*
X-78505Y45785D03*
D19*
X-61711Y45785D03*
D57*
X-78579Y45932D03*
D20*
X-61784Y45932D03*
D60*
X-78652Y46079D03*
D64*
X-61711Y46079D03*
D60*
X-78652Y46227D03*
D22*
X-61711Y46227D03*
D60*
X-78800Y46374D03*
D65*
X-61637Y46374D03*
D60*
X-78800Y46521D03*
D65*
X-61637Y46521D03*
D57*
X-78873Y46669D03*
D24*
X-61637Y46669D03*
D60*
X-78947Y46816D03*
D66*
X-61563Y46816D03*
D60*
X-78947Y46963D03*
D26*
X-61563Y46963D03*
D60*
X-79094Y47111D03*
D26*
X-61563Y47111D03*
D60*
X-79094Y47258D03*
D67*
X-61490Y47258D03*
D57*
X-79168Y47405D03*
D28*
X-61490Y47405D03*
D55*
X-79094Y47553D03*
D29*
X-61416Y47553D03*
D55*
X-79094Y47700D03*
D30*
X-61490Y47700D03*
D68*
X-79094Y47847D03*
D69*
X-61416Y47847D03*
D70*
X-79021Y47995D03*
D71*
X-61342Y47995D03*
D49*
X-79021Y48142D03*
D72*
X-61342Y48142D03*
D49*
X-79021Y48289D03*
D72*
X-61342Y48289D03*
D48*
X-78947Y48437D03*
D73*
X-61269Y48437D03*
D46*
X-78947Y48584D03*
D35*
X-61269Y48584D03*
D74*
X-78873Y48731D03*
D35*
X-61269Y48731D03*
D45*
X-78947Y48878D03*
D37*
X-61269Y48878D03*
D75*
X-78873Y49026D03*
D38*
X-61195Y49026D03*
D76*
X-78800Y49173D03*
D77*
X-61121Y49173D03*
D42*
X-78800Y49320D03*
D78*
X-61195Y49320D03*
D42*
X-78800Y49468D03*
D79*
X-61121Y49468D03*
D80*
X-78726Y49615D03*
D41*
X-61121Y49615D03*
D40*
X-78726Y49762D03*
D80*
X-61048Y49762D03*
D40*
X-78726Y49910D03*
D80*
X-61048Y49910D03*
D78*
X-78726Y50057D03*
D43*
X-61048Y50057D03*
D81*
X-78652Y50204D03*
D76*
X-60974Y50204D03*
D38*
X-78579Y50352D03*
D45*
X-60974Y50352D03*
D37*
X-78652Y50499D03*
D45*
X-60974Y50499D03*
D36*
X-78579Y50646D03*
D74*
X-60900Y50646D03*
D34*
X-78579Y50794D03*
D47*
X-60900Y50794D03*
D73*
X-78505Y50941D03*
D48*
X-60827Y50941D03*
D73*
X-78505Y51088D03*
D49*
X-60900Y51088D03*
D82*
X-78505Y51236D03*
D83*
X-60827Y51236D03*
D71*
X-78431Y51383D03*
D70*
X-60753Y51383D03*
D30*
X-78431Y51530D03*
D84*
X-60753Y51530D03*
D30*
X-78431Y51678D03*
D84*
X-60753Y51678D03*
D29*
X-78358Y51825D03*
D57*
X-60753Y51825D03*
D27*
X-78358Y51972D03*
D60*
X-60679Y51972D03*
D67*
X-78284Y52120D03*
D57*
X-60753Y52120D03*
D26*
X-78358Y52267D03*
D60*
X-60827Y52267D03*
D85*
X-78284Y52414D03*
D60*
X-60827Y52414D03*
D86*
X-78210Y52561D03*
D57*
X-60900Y52561D03*
D23*
X-78210Y52709D03*
D60*
X-60974Y52709D03*
D23*
X-78210Y52856D03*
D60*
X-60974Y52856D03*
D65*
X-78137Y53003D03*
D60*
X-61121Y53003D03*
D21*
X-78137Y53151D03*
D60*
X-61121Y53151D03*
D64*
X-78063Y53298D03*
D57*
X-61195Y53298D03*
D87*
X-78137Y53445D03*
D60*
X-61269Y53445D03*
D19*
X-78063Y53593D03*
D60*
X-61269Y53593D03*
D18*
X-77989Y53740D03*
D60*
X-61416Y53740D03*
D17*
X-78063Y53887D03*
D60*
X-61416Y53887D03*
D16*
X-77989Y54035D03*
D57*
X-61490Y54035D03*
D63*
X-78063Y54182D03*
D60*
X-61563Y54182D03*
D88*
X-78579Y54329D03*
D60*
X-61563Y54329D03*
D61*
X-79168Y54477D03*
D60*
X-61711Y54477D03*
D59*
X-79610Y54624D03*
D60*
X-61711Y54624D03*
D89*
X-80126Y54771D03*
D55*
X-61711Y54771D03*
D90*
X-80568Y54919D03*
D84*
X-61637Y54919D03*
D54*
X-81157Y55066D03*
D84*
X-61637Y55066D03*
D91*
X-81672Y55213D03*
D92*
X-61637Y55213D03*
D93*
X-82114Y55361D03*
D50*
X-61563Y55361D03*
D94*
X-72318Y55508D03*
D49*
X-61637Y55508D03*
D95*
X-72833Y55655D03*
D48*
X-61563Y55655D03*
D96*
X-73349Y55803D03*
D47*
X-61490Y55803D03*
D97*
X-73864Y55950D03*
D74*
X-61490Y55950D03*
D98*
X-74306Y56097D03*
D74*
X-61490Y56097D03*
D99*
X-74822Y56244D03*
D75*
X-61490Y56244D03*
D12*
X-75338Y56392D03*
D100*
X-61416Y56392D03*
D13*
X-75853Y56539D03*
D43*
X-61342Y56539D03*
D101*
X-76369Y56686D03*
D42*
X-61416Y56686D03*
D102*
X-76811Y56834D03*
D80*
X-61342Y56834D03*
D16*
X-76811Y56981D03*
D41*
X-61269Y56981D03*
D17*
X-76737Y57128D03*
D79*
X-61269Y57128D03*
D18*
X-76664Y57276D03*
D79*
X-61269Y57276D03*
D19*
X-76737Y57423D03*
D81*
X-61269Y57423D03*
D20*
X-76664Y57570D03*
D38*
X-61195Y57570D03*
D103*
X-76664Y57718D03*
D37*
X-61121Y57718D03*
D22*
X-76590Y57865D03*
D36*
X-61195Y57865D03*
D22*
X-76590Y58012D03*
D35*
X-61121Y58012D03*
D23*
X-76590Y58160D03*
D73*
X-61121Y58160D03*
D24*
X-76516Y58307D03*
D33*
X-61048Y58307D03*
D25*
X-76516Y58454D03*
D33*
X-61048Y58454D03*
D25*
X-76516Y58602D03*
D104*
X-61084Y58602D03*
D26*
X-76443Y58749D03*
D69*
X-60974Y58749D03*
D27*
X-76443Y58896D03*
D29*
X-60974Y58896D03*
D28*
X-76369Y59044D03*
D29*
X-60974Y59044D03*
X-76443Y59191D03*
D28*
X-60900Y59191D03*
D30*
X-76369Y59338D03*
D67*
X-60900Y59338D03*
D69*
X-76295Y59486D03*
D67*
X-60900Y59486D03*
D32*
X-76295Y59633D03*
D85*
X-60900Y59633D03*
D32*
X-76295Y59780D03*
D66*
X-60827Y59780D03*
D73*
X-76295Y59927D03*
D24*
X-60753Y59927D03*
D34*
X-76222Y60075D03*
D23*
X-60827Y60075D03*
D35*
X-76148Y60222D03*
D65*
X-60753Y60222D03*
D36*
X-76222Y60369D03*
D21*
X-60753Y60369D03*
D37*
X-76148Y60517D03*
D105*
X-60679Y60517D03*
D81*
X-76148Y60664D03*
D105*
X-60679Y60664D03*
D39*
X-76074Y60811D03*
D19*
X-60679Y60811D03*
D39*
X-76074Y60959D03*
D18*
X-60606Y60959D03*
D40*
X-76074Y61106D03*
D17*
X-60532Y61106D03*
D41*
X-76001Y61253D03*
D16*
X-60606Y61253D03*
D41*
X-76001Y61401D03*
D102*
X-60606Y61401D03*
D42*
X-76001Y61548D03*
D106*
X-61048Y61548D03*
D43*
X-75927Y61695D03*
D107*
X-61563Y61695D03*
D44*
X-75927Y61843D03*
D12*
X-62079Y61843D03*
D44*
X-75927Y61990D03*
D108*
X-62595Y61990D03*
D45*
X-75853Y62137D03*
D109*
X-63036Y62137D03*
D46*
X-75853Y62285D03*
D110*
X-63552Y62285D03*
D47*
X-75780Y62432D03*
D96*
X-64068Y62432D03*
D48*
X-75853Y62579D03*
D111*
X-64583Y62579D03*
D49*
X-75780Y62727D03*
D112*
X-65025Y62727D03*
D50*
X-75706Y62874D03*
D52*
X-75706Y63021D03*
X-75706Y63169D03*
D55*
X-75706Y63316D03*
D57*
X-75632Y63463D03*
X-75632Y63610D03*
D60*
X-75706Y63758D03*
X-75706Y63905D03*
X-75853Y64052D03*
X-75853Y64200D03*
D57*
X-75927Y64347D03*
D60*
X-76001Y64494D03*
X-76001Y64642D03*
X-76148Y64789D03*
X-76148Y64936D03*
D57*
X-76222Y65084D03*
D60*
X-76295Y65231D03*
X-76295Y65378D03*
D57*
X-76369Y65526D03*
D60*
X-76443Y65673D03*
X-76443Y65820D03*
X-76590Y65968D03*
X-76590Y66115D03*
D57*
X-76664Y66262D03*
D55*
X-76590Y66410D03*
X-76590Y66557D03*
D68*
X-76590Y66704D03*
D70*
X-76516Y66852D03*
D49*
X-76516Y66999D03*
X-76516Y67146D03*
D48*
X-76443Y67293D03*
D46*
X-76443Y67441D03*
D74*
X-76369Y67588D03*
D45*
X-76443Y67735D03*
D75*
X-76369Y67883D03*
D76*
X-76295Y68030D03*
D113*
X-76369Y68177D03*
D42*
X-76295Y68325D03*
D41*
X-76295Y68472D03*
D40*
X-76222Y68619D03*
X-76222Y68767D03*
D78*
X-76222Y68914D03*
D81*
X-76148Y69061D03*
D37*
X-76148Y69209D03*
X-76148Y69356D03*
D36*
X-76074Y69503D03*
D34*
X-76074Y69651D03*
D73*
X-76001Y69798D03*
X-76001Y69945D03*
D82*
X-76001Y70093D03*
D71*
X-75927Y70240D03*
D30*
X-75927Y70387D03*
X-75927Y70535D03*
D29*
X-75853Y70682D03*
D27*
X-75853Y70829D03*
D67*
X-75780Y70976D03*
D26*
X-75853Y71124D03*
D85*
X-75780Y71271D03*
D86*
X-75706Y71418D03*
D23*
X-75706Y71566D03*
X-75706Y71713D03*
D22*
X-75706Y71860D03*
D21*
X-75632Y72008D03*
D64*
X-75559Y72155D03*
D87*
X-75632Y72302D03*
D19*
X-75559Y72450D03*
D17*
X-75559Y72597D03*
X-75559Y72744D03*
D16*
X-75485Y72892D03*
D114*
X-75632Y73039D03*
D115*
X-76148Y73186D03*
D61*
X-76664Y73334D03*
D116*
X-77179Y73481D03*
D89*
X-77621Y73628D03*
D117*
X-78137Y73776D03*
D54*
X-78652Y73923D03*
D91*
X-79168Y74070D03*
D118*
X-79684Y74218D03*
D51*
X-75183Y36689D03*
D53*
X-75772Y36836D03*
D54*
X-76214Y36984D03*
D56*
X-76730Y37131D03*
D58*
X-77172Y37278D03*
D59*
X-77761Y37426D03*
D61*
X-78203Y37573D03*
D62*
X-78718Y37720D03*
D63*
X-79160Y37868D03*
D15*
X-79308Y38015D03*
D10*
X61893Y8473D02*
X64519Y10381D01*
X64609Y10449D01*
X64697Y10520D01*
X64783Y10595D01*
X64866Y10672D01*
X64946Y10752D01*
X65023Y10835D01*
X65098Y10921D01*
X65169Y11009D01*
X65237Y11099D01*
X65302Y11192D01*
X65364Y11287D01*
X65422Y11384D01*
X65477Y11483D01*
X65528Y11584D01*
X65576Y11687D01*
X65621Y11791D01*
X65661Y11897D01*
X65698Y12004D01*
X65731Y12112D01*
X65761Y12222D01*
X65786Y12332D01*
X65808Y12443D01*
X65825Y12555D01*
X65839Y12668D01*
X65849Y12781D01*
X65855Y12894D01*
X65857Y13007D01*
X65855Y13120D01*
X65849Y13233D01*
X65839Y13346D01*
X65825Y13459D01*
X65808Y13571D01*
X65786Y13682D01*
X65761Y13792D01*
X65731Y13902D01*
X65698Y14010D01*
X65661Y14117D01*
X65621Y14223D01*
X65576Y14327D01*
X65528Y14430D01*
X65477Y14531D01*
X65422Y14630D01*
X65364Y14727D01*
X65302Y14822D01*
X65237Y14915D01*
X65169Y15005D01*
X65098Y15093D01*
X65023Y15179D01*
X64946Y15262D01*
X64866Y15342D01*
X64783Y15419D01*
X64697Y15494D01*
X64609Y15565D01*
X64519Y15633D01*
X64426Y15698D01*
X64331Y15760D01*
X64234Y15818D01*
X64135Y15873D01*
X64034Y15924D01*
X63931Y15972D01*
X63827Y16017D01*
X63721Y16057D01*
X63614Y16094D01*
X63506Y16127D01*
X63396Y16157D01*
X63286Y16182D01*
X63175Y16204D01*
X63063Y16221D01*
X62950Y16235D01*
X62837Y16245D01*
X62724Y16251D01*
X62611Y16253D01*
X62498Y16251D01*
X62385Y16245D01*
X62272Y16235D01*
X62159Y16221D01*
X62047Y16204D01*
X61936Y16182D01*
X61826Y16157D01*
X61716Y16127D01*
X61608Y16094D01*
X61501Y16057D01*
X61395Y16017D01*
X61291Y15972D01*
X61188Y15924D01*
X61087Y15873D01*
X60988Y15818D01*
X60891Y15760D01*
X60796Y15698D01*
X60703Y15633D01*
X58176Y20215D02*
X55025Y17926D01*
X58176Y20215D02*
X58259Y20273D01*
X58343Y20327D01*
X58430Y20378D01*
X58519Y20426D01*
X58609Y20470D01*
X58702Y20510D01*
X58795Y20547D01*
X58890Y20581D01*
X58986Y20610D01*
X59084Y20636D01*
X59182Y20658D01*
X59281Y20677D01*
X59381Y20691D01*
X59481Y20702D01*
X59581Y20708D01*
X59682Y20711D01*
X59783Y20710D01*
X59883Y20705D01*
X59983Y20696D01*
X60083Y20683D01*
X60182Y20666D01*
X60281Y20646D01*
X60379Y20621D01*
X60475Y20593D01*
X60571Y20561D01*
X60665Y20526D01*
X60758Y20487D01*
X60849Y20444D01*
X60938Y20398D01*
X61026Y20348D01*
X61112Y20295D01*
X61195Y20239D01*
X61276Y20179D01*
X61355Y20117D01*
X61432Y20051D01*
X61505Y19982D01*
X61576Y19911D01*
X61645Y19837D01*
X61710Y19760D01*
X61772Y19681D01*
X61831Y19600D01*
X61887Y19516D01*
X61940Y19430D01*
X61989Y19343D01*
X62035Y19253D01*
X62078Y19162D01*
X62116Y19069D01*
X62152Y18974D01*
X62183Y18879D01*
X62211Y18782D01*
X62235Y18684D01*
X62255Y18586D01*
X62271Y18486D01*
X62284Y18386D01*
X62292Y18286D01*
X62297Y18185D01*
X62298Y18085D01*
X62295Y17984D01*
X62288Y17884D01*
X62277Y17784D01*
X62262Y17684D01*
X62243Y17585D01*
X62221Y17487D01*
X62195Y17390D01*
X62165Y17294D01*
X62131Y17199D01*
X62094Y17105D01*
X62053Y17013D01*
X62008Y16923D01*
X61960Y16834D01*
X61909Y16748D01*
X61854Y16663D01*
X61796Y16581D01*
X61735Y16501D01*
X61671Y16423D01*
X61604Y16348D01*
X61534Y16276D01*
X61461Y16206D01*
X61386Y16139D01*
X61308Y16076D01*
X61228Y16015D01*
X61229Y16014D02*
X59128Y14488D01*
X63747Y24263D02*
X73766Y17099D01*
X70049Y28841D01*
X80387Y21910D02*
X83013Y23818D01*
X83013Y23817D02*
X83103Y23885D01*
X83191Y23956D01*
X83277Y24031D01*
X83360Y24108D01*
X83440Y24188D01*
X83517Y24271D01*
X83592Y24357D01*
X83663Y24445D01*
X83731Y24535D01*
X83796Y24628D01*
X83858Y24723D01*
X83916Y24820D01*
X83971Y24919D01*
X84022Y25020D01*
X84070Y25123D01*
X84115Y25227D01*
X84155Y25333D01*
X84192Y25440D01*
X84225Y25548D01*
X84255Y25658D01*
X84280Y25768D01*
X84302Y25879D01*
X84319Y25991D01*
X84333Y26104D01*
X84343Y26217D01*
X84349Y26330D01*
X84351Y26443D01*
X84349Y26556D01*
X84343Y26669D01*
X84333Y26782D01*
X84319Y26895D01*
X84302Y27007D01*
X84280Y27118D01*
X84255Y27228D01*
X84225Y27338D01*
X84192Y27446D01*
X84155Y27553D01*
X84115Y27659D01*
X84070Y27763D01*
X84022Y27866D01*
X83971Y27967D01*
X83916Y28066D01*
X83858Y28163D01*
X83796Y28258D01*
X83731Y28351D01*
X83663Y28441D01*
X83592Y28529D01*
X83517Y28615D01*
X83440Y28698D01*
X83360Y28778D01*
X83277Y28855D01*
X83191Y28930D01*
X83103Y29001D01*
X83013Y29069D01*
X82920Y29134D01*
X82825Y29196D01*
X82728Y29254D01*
X82629Y29309D01*
X82528Y29360D01*
X82425Y29408D01*
X82321Y29453D01*
X82215Y29493D01*
X82108Y29530D01*
X82000Y29563D01*
X81890Y29593D01*
X81780Y29618D01*
X81669Y29640D01*
X81557Y29657D01*
X81444Y29671D01*
X81331Y29681D01*
X81218Y29687D01*
X81105Y29689D01*
X80992Y29687D01*
X80879Y29681D01*
X80766Y29671D01*
X80653Y29657D01*
X80541Y29640D01*
X80430Y29618D01*
X80320Y29593D01*
X80210Y29563D01*
X80102Y29530D01*
X79995Y29493D01*
X79889Y29453D01*
X79785Y29408D01*
X79682Y29360D01*
X79581Y29309D01*
X79482Y29254D01*
X79385Y29196D01*
X79290Y29134D01*
X79197Y29069D01*
X76670Y33652D02*
X73520Y31363D01*
X76671Y33651D02*
X76754Y33709D01*
X76838Y33763D01*
X76925Y33814D01*
X77014Y33862D01*
X77104Y33906D01*
X77197Y33946D01*
X77290Y33983D01*
X77385Y34017D01*
X77481Y34046D01*
X77579Y34072D01*
X77677Y34094D01*
X77776Y34113D01*
X77876Y34127D01*
X77976Y34138D01*
X78076Y34144D01*
X78177Y34147D01*
X78278Y34146D01*
X78378Y34141D01*
X78478Y34132D01*
X78578Y34119D01*
X78677Y34102D01*
X78776Y34082D01*
X78874Y34057D01*
X78970Y34029D01*
X79066Y33997D01*
X79160Y33962D01*
X79253Y33923D01*
X79344Y33880D01*
X79433Y33834D01*
X79521Y33784D01*
X79607Y33731D01*
X79690Y33675D01*
X79771Y33615D01*
X79850Y33553D01*
X79927Y33487D01*
X80000Y33418D01*
X80071Y33347D01*
X80140Y33273D01*
X80205Y33196D01*
X80267Y33117D01*
X80326Y33036D01*
X80382Y32952D01*
X80435Y32866D01*
X80484Y32779D01*
X80530Y32689D01*
X80573Y32598D01*
X80611Y32505D01*
X80647Y32410D01*
X80678Y32315D01*
X80706Y32218D01*
X80730Y32120D01*
X80750Y32022D01*
X80766Y31922D01*
X80779Y31822D01*
X80787Y31722D01*
X80792Y31621D01*
X80793Y31521D01*
X80790Y31420D01*
X80783Y31320D01*
X80772Y31220D01*
X80757Y31120D01*
X80738Y31021D01*
X80716Y30923D01*
X80690Y30826D01*
X80660Y30730D01*
X80626Y30635D01*
X80589Y30541D01*
X80548Y30449D01*
X80503Y30359D01*
X80455Y30270D01*
X80404Y30184D01*
X80349Y30099D01*
X80291Y30017D01*
X80230Y29937D01*
X80166Y29859D01*
X80099Y29784D01*
X80029Y29712D01*
X79956Y29642D01*
X79881Y29575D01*
X79803Y29512D01*
X79723Y29451D01*
X77622Y27925D01*
X-82531Y22630D02*
X-85157Y24537D01*
X-82531Y22629D02*
X-82438Y22564D01*
X-82343Y22502D01*
X-82246Y22444D01*
X-82147Y22389D01*
X-82046Y22338D01*
X-81943Y22290D01*
X-81839Y22245D01*
X-81733Y22205D01*
X-81626Y22168D01*
X-81518Y22135D01*
X-81408Y22105D01*
X-81298Y22080D01*
X-81187Y22058D01*
X-81075Y22041D01*
X-80962Y22027D01*
X-80849Y22017D01*
X-80736Y22011D01*
X-80623Y22009D01*
X-80510Y22011D01*
X-80397Y22017D01*
X-80284Y22027D01*
X-80171Y22041D01*
X-80059Y22058D01*
X-79948Y22080D01*
X-79838Y22105D01*
X-79728Y22135D01*
X-79620Y22168D01*
X-79513Y22205D01*
X-79407Y22245D01*
X-79303Y22290D01*
X-79200Y22338D01*
X-79099Y22389D01*
X-79000Y22444D01*
X-78903Y22502D01*
X-78808Y22564D01*
X-78715Y22629D01*
X-78625Y22697D01*
X-78537Y22768D01*
X-78451Y22843D01*
X-78368Y22920D01*
X-78288Y23000D01*
X-78211Y23083D01*
X-78136Y23169D01*
X-78065Y23257D01*
X-77997Y23347D01*
X-77932Y23440D01*
X-77870Y23535D01*
X-77812Y23632D01*
X-77757Y23731D01*
X-77706Y23832D01*
X-77658Y23935D01*
X-77613Y24039D01*
X-77573Y24145D01*
X-77536Y24252D01*
X-77503Y24360D01*
X-77473Y24470D01*
X-77448Y24580D01*
X-77426Y24691D01*
X-77409Y24803D01*
X-77395Y24916D01*
X-77385Y25029D01*
X-77379Y25142D01*
X-77377Y25255D01*
X-77379Y25368D01*
X-77385Y25481D01*
X-77395Y25594D01*
X-77409Y25707D01*
X-77426Y25819D01*
X-77448Y25930D01*
X-77473Y26040D01*
X-77503Y26150D01*
X-77536Y26258D01*
X-77573Y26365D01*
X-77613Y26471D01*
X-77658Y26575D01*
X-77706Y26678D01*
X-77757Y26779D01*
X-77812Y26878D01*
X-77870Y26975D01*
X-77932Y27070D01*
X-77997Y27163D01*
X-78065Y27253D01*
X-78136Y27342D01*
X-78211Y27427D01*
X-78288Y27510D01*
X-78368Y27590D01*
X-78451Y27667D01*
X-78537Y27742D01*
X-78625Y27813D01*
X-78715Y27881D01*
X-75138Y31701D02*
X-78289Y33990D01*
X-75138Y31700D02*
X-75058Y31639D01*
X-74980Y31576D01*
X-74905Y31509D01*
X-74832Y31439D01*
X-74762Y31367D01*
X-74695Y31292D01*
X-74631Y31214D01*
X-74570Y31134D01*
X-74512Y31052D01*
X-74457Y30967D01*
X-74406Y30881D01*
X-74358Y30792D01*
X-74313Y30702D01*
X-74272Y30610D01*
X-74235Y30516D01*
X-74201Y30421D01*
X-74171Y30325D01*
X-74145Y30228D01*
X-74123Y30130D01*
X-74104Y30031D01*
X-74089Y29931D01*
X-74078Y29831D01*
X-74071Y29731D01*
X-74068Y29630D01*
X-74069Y29530D01*
X-74074Y29429D01*
X-74082Y29329D01*
X-74095Y29229D01*
X-74111Y29129D01*
X-74131Y29031D01*
X-74155Y28933D01*
X-74183Y28836D01*
X-74214Y28741D01*
X-74250Y28646D01*
X-74288Y28553D01*
X-74331Y28462D01*
X-74377Y28372D01*
X-74426Y28285D01*
X-74479Y28199D01*
X-74535Y28115D01*
X-74594Y28034D01*
X-74656Y27955D01*
X-74721Y27878D01*
X-74790Y27804D01*
X-74861Y27733D01*
X-74934Y27664D01*
X-75011Y27598D01*
X-75090Y27536D01*
X-75171Y27476D01*
X-75254Y27420D01*
X-75340Y27367D01*
X-75428Y27317D01*
X-75517Y27271D01*
X-75608Y27228D01*
X-75701Y27189D01*
X-75795Y27154D01*
X-75891Y27122D01*
X-75987Y27094D01*
X-76085Y27069D01*
X-76183Y27049D01*
X-76283Y27032D01*
X-76383Y27019D01*
X-76483Y27010D01*
X-76583Y27005D01*
X-76684Y27004D01*
X-76785Y27007D01*
X-76885Y27013D01*
X-76985Y27024D01*
X-77085Y27038D01*
X-77184Y27057D01*
X-77282Y27079D01*
X-77380Y27105D01*
X-77476Y27134D01*
X-77571Y27168D01*
X-77664Y27205D01*
X-77757Y27245D01*
X-77847Y27289D01*
X-77936Y27337D01*
X-78023Y27388D01*
X-78107Y27442D01*
X-78190Y27500D01*
X-78190Y27499D02*
X-80291Y29026D01*
X-69567Y27653D02*
X-73284Y15911D01*
X-63265Y23074D01*
X-66662Y11100D02*
X-64037Y9193D01*
X-64037Y9192D02*
X-63944Y9127D01*
X-63849Y9065D01*
X-63752Y9007D01*
X-63653Y8952D01*
X-63552Y8901D01*
X-63449Y8853D01*
X-63345Y8808D01*
X-63239Y8768D01*
X-63132Y8731D01*
X-63024Y8698D01*
X-62914Y8668D01*
X-62804Y8643D01*
X-62693Y8621D01*
X-62581Y8604D01*
X-62468Y8590D01*
X-62355Y8580D01*
X-62242Y8574D01*
X-62129Y8572D01*
X-62016Y8574D01*
X-61903Y8580D01*
X-61790Y8590D01*
X-61677Y8604D01*
X-61565Y8621D01*
X-61454Y8643D01*
X-61344Y8668D01*
X-61234Y8698D01*
X-61126Y8731D01*
X-61019Y8768D01*
X-60913Y8808D01*
X-60809Y8853D01*
X-60706Y8901D01*
X-60605Y8952D01*
X-60506Y9007D01*
X-60409Y9065D01*
X-60314Y9127D01*
X-60221Y9192D01*
X-60131Y9260D01*
X-60043Y9331D01*
X-59957Y9406D01*
X-59874Y9483D01*
X-59794Y9563D01*
X-59717Y9646D01*
X-59642Y9732D01*
X-59571Y9820D01*
X-59503Y9910D01*
X-59438Y10003D01*
X-59376Y10098D01*
X-59318Y10195D01*
X-59263Y10294D01*
X-59212Y10395D01*
X-59164Y10498D01*
X-59119Y10602D01*
X-59079Y10708D01*
X-59042Y10815D01*
X-59009Y10923D01*
X-58979Y11033D01*
X-58954Y11143D01*
X-58932Y11254D01*
X-58915Y11366D01*
X-58901Y11479D01*
X-58891Y11592D01*
X-58885Y11705D01*
X-58883Y11818D01*
X-58885Y11931D01*
X-58891Y12044D01*
X-58901Y12157D01*
X-58915Y12270D01*
X-58932Y12382D01*
X-58954Y12493D01*
X-58979Y12603D01*
X-59009Y12713D01*
X-59042Y12821D01*
X-59079Y12928D01*
X-59119Y13034D01*
X-59164Y13138D01*
X-59212Y13241D01*
X-59263Y13342D01*
X-59318Y13441D01*
X-59376Y13538D01*
X-59438Y13633D01*
X-59503Y13726D01*
X-59571Y13816D01*
X-59642Y13905D01*
X-59717Y13990D01*
X-59794Y14073D01*
X-59874Y14153D01*
X-59957Y14230D01*
X-60043Y14305D01*
X-60131Y14376D01*
X-60221Y14444D01*
X-56644Y18264D02*
X-59795Y20553D01*
X-56644Y18263D02*
X-56564Y18202D01*
X-56486Y18139D01*
X-56411Y18072D01*
X-56338Y18002D01*
X-56268Y17930D01*
X-56201Y17855D01*
X-56137Y17777D01*
X-56076Y17697D01*
X-56018Y17615D01*
X-55963Y17530D01*
X-55912Y17444D01*
X-55864Y17355D01*
X-55819Y17265D01*
X-55778Y17173D01*
X-55741Y17079D01*
X-55707Y16984D01*
X-55677Y16888D01*
X-55651Y16791D01*
X-55629Y16693D01*
X-55610Y16594D01*
X-55595Y16494D01*
X-55584Y16394D01*
X-55577Y16294D01*
X-55574Y16193D01*
X-55575Y16093D01*
X-55580Y15992D01*
X-55588Y15892D01*
X-55601Y15792D01*
X-55617Y15692D01*
X-55637Y15594D01*
X-55661Y15496D01*
X-55689Y15399D01*
X-55720Y15304D01*
X-55756Y15209D01*
X-55794Y15116D01*
X-55837Y15025D01*
X-55883Y14935D01*
X-55932Y14848D01*
X-55985Y14762D01*
X-56041Y14678D01*
X-56100Y14597D01*
X-56162Y14518D01*
X-56227Y14441D01*
X-56296Y14367D01*
X-56367Y14296D01*
X-56440Y14227D01*
X-56517Y14161D01*
X-56596Y14099D01*
X-56677Y14039D01*
X-56760Y13983D01*
X-56846Y13930D01*
X-56934Y13880D01*
X-57023Y13834D01*
X-57114Y13791D01*
X-57207Y13752D01*
X-57301Y13717D01*
X-57397Y13685D01*
X-57493Y13657D01*
X-57591Y13632D01*
X-57689Y13612D01*
X-57789Y13595D01*
X-57889Y13582D01*
X-57989Y13573D01*
X-58089Y13568D01*
X-58190Y13567D01*
X-58291Y13570D01*
X-58391Y13576D01*
X-58491Y13587D01*
X-58591Y13601D01*
X-58690Y13620D01*
X-58788Y13642D01*
X-58886Y13668D01*
X-58982Y13697D01*
X-59077Y13731D01*
X-59170Y13768D01*
X-59263Y13808D01*
X-59353Y13852D01*
X-59442Y13900D01*
X-59529Y13951D01*
X-59613Y14005D01*
X-59696Y14063D01*
X-61797Y15589D01*
D119*
X54229Y134303D02*
X54229Y141161D01*
D120*
X62596Y131396D02*
X69962Y131396D01*
X62596Y131396D02*
X62596Y134670D01*
X65870Y134670D02*
X65870Y131396D01*
X65870Y137838D02*
X65870Y139884D01*
X65872Y139973D01*
X65878Y140062D01*
X65888Y140151D01*
X65901Y140239D01*
X65918Y140327D01*
X65940Y140414D01*
X65965Y140499D01*
X65993Y140584D01*
X66026Y140667D01*
X66062Y140749D01*
X66101Y140829D01*
X66144Y140907D01*
X66190Y140983D01*
X66240Y141058D01*
X66293Y141130D01*
X66349Y141199D01*
X66408Y141266D01*
X66469Y141331D01*
X66534Y141392D01*
X66601Y141451D01*
X66670Y141507D01*
X66742Y141560D01*
X66817Y141610D01*
X66893Y141656D01*
X66971Y141699D01*
X67051Y141738D01*
X67133Y141774D01*
X67216Y141807D01*
X67301Y141835D01*
X67386Y141860D01*
X67473Y141882D01*
X67561Y141899D01*
X67649Y141912D01*
X67738Y141922D01*
X67827Y141928D01*
X67916Y141930D01*
X68005Y141928D01*
X68094Y141922D01*
X68183Y141912D01*
X68271Y141899D01*
X68359Y141882D01*
X68446Y141860D01*
X68531Y141835D01*
X68616Y141807D01*
X68699Y141774D01*
X68781Y141738D01*
X68861Y141699D01*
X68939Y141656D01*
X69015Y141610D01*
X69090Y141560D01*
X69162Y141507D01*
X69231Y141451D01*
X69298Y141392D01*
X69363Y141331D01*
X69424Y141266D01*
X69483Y141199D01*
X69539Y141130D01*
X69592Y141058D01*
X69642Y140983D01*
X69688Y140907D01*
X69731Y140829D01*
X69770Y140749D01*
X69806Y140667D01*
X69839Y140584D01*
X69867Y140499D01*
X69892Y140414D01*
X69914Y140327D01*
X69931Y140239D01*
X69944Y140151D01*
X69954Y140062D01*
X69960Y139973D01*
X69962Y139884D01*
X69962Y137838D01*
X62596Y137838D01*
X62596Y139884D01*
X62598Y139963D01*
X62604Y140042D01*
X62613Y140121D01*
X62626Y140199D01*
X62644Y140276D01*
X62664Y140352D01*
X62689Y140427D01*
X62717Y140501D01*
X62748Y140574D01*
X62784Y140645D01*
X62822Y140714D01*
X62864Y140781D01*
X62909Y140846D01*
X62957Y140909D01*
X63008Y140970D01*
X63062Y141027D01*
X63118Y141083D01*
X63177Y141135D01*
X63239Y141185D01*
X63303Y141231D01*
X63369Y141275D01*
X63437Y141315D01*
X63507Y141351D01*
X63579Y141385D01*
X63653Y141415D01*
X63727Y141441D01*
X63803Y141464D01*
X63880Y141482D01*
X63957Y141498D01*
X64036Y141509D01*
X64114Y141517D01*
X64193Y141521D01*
X64273Y141521D01*
X64352Y141517D01*
X64430Y141509D01*
X64509Y141498D01*
X64586Y141482D01*
X64663Y141464D01*
X64739Y141441D01*
X64813Y141415D01*
X64887Y141385D01*
X64959Y141351D01*
X65029Y141315D01*
X65097Y141275D01*
X65163Y141231D01*
X65227Y141185D01*
X65289Y141135D01*
X65348Y141083D01*
X65404Y141027D01*
X65458Y140970D01*
X65509Y140909D01*
X65557Y140846D01*
X65602Y140781D01*
X65644Y140714D01*
X65682Y140645D01*
X65718Y140574D01*
X65749Y140501D01*
X65777Y140427D01*
X65802Y140352D01*
X65822Y140276D01*
X65840Y140199D01*
X65853Y140121D01*
X65862Y140042D01*
X65868Y139963D01*
X65870Y139884D01*
X64233Y144792D02*
X62596Y146838D01*
X69962Y146838D01*
X69962Y144792D02*
X69962Y148884D01*
D121*
X17500Y141063D02*
X17500Y93063D01*
X17500Y141063D02*
X13000Y145063D01*
X17500Y93063D02*
X-17500Y93063D01*
X-17500Y145063D01*
X13000Y145063D01*
D120*
X-16995Y147883D02*
X-16995Y155249D01*
X-14949Y155249D01*
X-14860Y155247D01*
X-14771Y155241D01*
X-14682Y155231D01*
X-14594Y155218D01*
X-14506Y155201D01*
X-14419Y155179D01*
X-14334Y155154D01*
X-14249Y155126D01*
X-14166Y155093D01*
X-14084Y155057D01*
X-14004Y155018D01*
X-13926Y154975D01*
X-13850Y154929D01*
X-13775Y154879D01*
X-13703Y154826D01*
X-13634Y154770D01*
X-13567Y154711D01*
X-13502Y154650D01*
X-13441Y154585D01*
X-13382Y154518D01*
X-13326Y154449D01*
X-13273Y154377D01*
X-13223Y154302D01*
X-13177Y154226D01*
X-13134Y154148D01*
X-13095Y154068D01*
X-13059Y153986D01*
X-13026Y153903D01*
X-12998Y153818D01*
X-12973Y153733D01*
X-12951Y153646D01*
X-12934Y153558D01*
X-12921Y153470D01*
X-12911Y153381D01*
X-12905Y153292D01*
X-12903Y153203D01*
X-12903Y149929D01*
X-12905Y149840D01*
X-12911Y149751D01*
X-12921Y149662D01*
X-12934Y149574D01*
X-12951Y149486D01*
X-12973Y149399D01*
X-12998Y149314D01*
X-13026Y149229D01*
X-13059Y149146D01*
X-13095Y149064D01*
X-13134Y148984D01*
X-13177Y148906D01*
X-13223Y148830D01*
X-13273Y148755D01*
X-13326Y148683D01*
X-13382Y148614D01*
X-13441Y148547D01*
X-13502Y148482D01*
X-13567Y148421D01*
X-13634Y148362D01*
X-13703Y148306D01*
X-13775Y148253D01*
X-13850Y148203D01*
X-13926Y148157D01*
X-14004Y148114D01*
X-14084Y148075D01*
X-14166Y148039D01*
X-14249Y148006D01*
X-14334Y147978D01*
X-14419Y147953D01*
X-14506Y147931D01*
X-14594Y147914D01*
X-14682Y147901D01*
X-14771Y147891D01*
X-14860Y147885D01*
X-14949Y147883D01*
X-16995Y147883D01*
X-7186Y155250D02*
X-7101Y155248D01*
X-7016Y155242D01*
X-6932Y155232D01*
X-6848Y155219D01*
X-6764Y155201D01*
X-6682Y155180D01*
X-6601Y155155D01*
X-6521Y155126D01*
X-6442Y155093D01*
X-6365Y155057D01*
X-6290Y155017D01*
X-6216Y154974D01*
X-6145Y154928D01*
X-6076Y154878D01*
X-6009Y154825D01*
X-5945Y154769D01*
X-5884Y154710D01*
X-5825Y154649D01*
X-5769Y154585D01*
X-5716Y154518D01*
X-5666Y154449D01*
X-5620Y154378D01*
X-5577Y154304D01*
X-5537Y154229D01*
X-5501Y154152D01*
X-5468Y154073D01*
X-5439Y153993D01*
X-5414Y153912D01*
X-5393Y153830D01*
X-5375Y153746D01*
X-5362Y153662D01*
X-5352Y153578D01*
X-5346Y153493D01*
X-5344Y153408D01*
X-7186Y155249D02*
X-7282Y155247D01*
X-7378Y155241D01*
X-7473Y155231D01*
X-7568Y155218D01*
X-7663Y155200D01*
X-7756Y155179D01*
X-7849Y155154D01*
X-7940Y155125D01*
X-8031Y155093D01*
X-8120Y155057D01*
X-8207Y155017D01*
X-8293Y154974D01*
X-8377Y154928D01*
X-8459Y154878D01*
X-8539Y154824D01*
X-8616Y154768D01*
X-8691Y154708D01*
X-8764Y154646D01*
X-8834Y154580D01*
X-8902Y154512D01*
X-8967Y154441D01*
X-9028Y154368D01*
X-9087Y154292D01*
X-9143Y154213D01*
X-9195Y154133D01*
X-9244Y154050D01*
X-9290Y153966D01*
X-9332Y153880D01*
X-9370Y153792D01*
X-9405Y153703D01*
X-9437Y153612D01*
X-5958Y151976D02*
X-5898Y152035D01*
X-5841Y152097D01*
X-5786Y152161D01*
X-5735Y152228D01*
X-5686Y152297D01*
X-5640Y152367D01*
X-5597Y152440D01*
X-5557Y152514D01*
X-5521Y152590D01*
X-5488Y152668D01*
X-5458Y152747D01*
X-5431Y152827D01*
X-5408Y152908D01*
X-5389Y152990D01*
X-5373Y153072D01*
X-5360Y153156D01*
X-5351Y153240D01*
X-5346Y153324D01*
X-5344Y153408D01*
X-5958Y151975D02*
X-9436Y147883D01*
X-5344Y147883D01*
D11*
X-28575Y82169D02*
X-28575Y72771D01*
X-18161Y62357D01*
X-28575Y72517D02*
X-37973Y63119D01*
X-37973Y62103D01*
D120*
X-36315Y49917D02*
X-36315Y46643D01*
X-36315Y49917D02*
X-36313Y50006D01*
X-36307Y50095D01*
X-36297Y50184D01*
X-36284Y50272D01*
X-36267Y50360D01*
X-36245Y50447D01*
X-36220Y50532D01*
X-36192Y50617D01*
X-36159Y50700D01*
X-36123Y50782D01*
X-36084Y50862D01*
X-36041Y50940D01*
X-35995Y51016D01*
X-35945Y51091D01*
X-35892Y51163D01*
X-35836Y51232D01*
X-35777Y51299D01*
X-35716Y51364D01*
X-35651Y51425D01*
X-35584Y51484D01*
X-35515Y51540D01*
X-35443Y51593D01*
X-35368Y51643D01*
X-35292Y51689D01*
X-35214Y51732D01*
X-35134Y51771D01*
X-35052Y51807D01*
X-34969Y51840D01*
X-34884Y51868D01*
X-34799Y51893D01*
X-34712Y51915D01*
X-34624Y51932D01*
X-34536Y51945D01*
X-34447Y51955D01*
X-34358Y51961D01*
X-34269Y51963D01*
X-34180Y51961D01*
X-34091Y51955D01*
X-34002Y51945D01*
X-33914Y51932D01*
X-33826Y51915D01*
X-33739Y51893D01*
X-33654Y51868D01*
X-33569Y51840D01*
X-33486Y51807D01*
X-33404Y51771D01*
X-33324Y51732D01*
X-33246Y51689D01*
X-33170Y51643D01*
X-33095Y51593D01*
X-33023Y51540D01*
X-32954Y51484D01*
X-32887Y51425D01*
X-32822Y51364D01*
X-32761Y51299D01*
X-32702Y51232D01*
X-32646Y51163D01*
X-32593Y51091D01*
X-32543Y51016D01*
X-32497Y50940D01*
X-32454Y50862D01*
X-32415Y50782D01*
X-32379Y50700D01*
X-32346Y50617D01*
X-32318Y50532D01*
X-32293Y50447D01*
X-32271Y50360D01*
X-32254Y50272D01*
X-32241Y50184D01*
X-32231Y50095D01*
X-32225Y50006D01*
X-32223Y49917D01*
X-32223Y46643D01*
X-32225Y46554D01*
X-32231Y46465D01*
X-32241Y46376D01*
X-32254Y46288D01*
X-32271Y46200D01*
X-32293Y46113D01*
X-32318Y46028D01*
X-32346Y45943D01*
X-32379Y45860D01*
X-32415Y45778D01*
X-32454Y45698D01*
X-32497Y45620D01*
X-32543Y45544D01*
X-32593Y45469D01*
X-32646Y45397D01*
X-32702Y45328D01*
X-32761Y45261D01*
X-32822Y45196D01*
X-32887Y45135D01*
X-32954Y45076D01*
X-33023Y45020D01*
X-33095Y44967D01*
X-33170Y44917D01*
X-33246Y44871D01*
X-33324Y44828D01*
X-33404Y44789D01*
X-33486Y44753D01*
X-33569Y44720D01*
X-33654Y44692D01*
X-33739Y44667D01*
X-33826Y44645D01*
X-33914Y44628D01*
X-34002Y44615D01*
X-34091Y44605D01*
X-34180Y44599D01*
X-34269Y44597D01*
X-34358Y44599D01*
X-34447Y44605D01*
X-34536Y44615D01*
X-34624Y44628D01*
X-34712Y44645D01*
X-34799Y44667D01*
X-34884Y44692D01*
X-34969Y44720D01*
X-35052Y44753D01*
X-35134Y44789D01*
X-35214Y44828D01*
X-35292Y44871D01*
X-35368Y44917D01*
X-35443Y44967D01*
X-35515Y45020D01*
X-35584Y45076D01*
X-35651Y45135D01*
X-35716Y45196D01*
X-35777Y45261D01*
X-35836Y45328D01*
X-35892Y45397D01*
X-35945Y45469D01*
X-35995Y45544D01*
X-36041Y45620D01*
X-36084Y45698D01*
X-36123Y45778D01*
X-36159Y45860D01*
X-36192Y45943D01*
X-36220Y46028D01*
X-36245Y46113D01*
X-36267Y46200D01*
X-36284Y46288D01*
X-36297Y46376D01*
X-36307Y46465D01*
X-36313Y46554D01*
X-36315Y46643D01*
X-33041Y46234D02*
X-31404Y44597D01*
X-29220Y44597D02*
X-27174Y44597D01*
X-27085Y44599D01*
X-26996Y44605D01*
X-26907Y44615D01*
X-26819Y44628D01*
X-26731Y44645D01*
X-26644Y44667D01*
X-26559Y44692D01*
X-26474Y44720D01*
X-26391Y44753D01*
X-26309Y44789D01*
X-26229Y44828D01*
X-26151Y44871D01*
X-26075Y44917D01*
X-26000Y44967D01*
X-25928Y45020D01*
X-25859Y45076D01*
X-25792Y45135D01*
X-25727Y45196D01*
X-25666Y45261D01*
X-25607Y45328D01*
X-25551Y45397D01*
X-25498Y45469D01*
X-25448Y45544D01*
X-25402Y45620D01*
X-25359Y45698D01*
X-25320Y45778D01*
X-25284Y45860D01*
X-25251Y45943D01*
X-25223Y46028D01*
X-25198Y46113D01*
X-25176Y46200D01*
X-25159Y46288D01*
X-25146Y46376D01*
X-25136Y46465D01*
X-25130Y46554D01*
X-25128Y46643D01*
X-25130Y46732D01*
X-25136Y46821D01*
X-25146Y46910D01*
X-25159Y46998D01*
X-25176Y47086D01*
X-25198Y47173D01*
X-25223Y47258D01*
X-25251Y47343D01*
X-25284Y47426D01*
X-25320Y47508D01*
X-25359Y47588D01*
X-25402Y47666D01*
X-25448Y47742D01*
X-25498Y47817D01*
X-25551Y47889D01*
X-25607Y47958D01*
X-25666Y48025D01*
X-25727Y48090D01*
X-25792Y48151D01*
X-25859Y48210D01*
X-25928Y48266D01*
X-26000Y48319D01*
X-26075Y48369D01*
X-26151Y48415D01*
X-26229Y48458D01*
X-26309Y48497D01*
X-26391Y48533D01*
X-26474Y48566D01*
X-26559Y48594D01*
X-26644Y48619D01*
X-26731Y48641D01*
X-26819Y48658D01*
X-26907Y48671D01*
X-26996Y48681D01*
X-27085Y48687D01*
X-27174Y48689D01*
X-26764Y51963D02*
X-29220Y51963D01*
X-26764Y51963D02*
X-26685Y51961D01*
X-26606Y51955D01*
X-26527Y51946D01*
X-26449Y51933D01*
X-26372Y51915D01*
X-26296Y51895D01*
X-26221Y51870D01*
X-26147Y51842D01*
X-26074Y51811D01*
X-26003Y51775D01*
X-25934Y51737D01*
X-25867Y51695D01*
X-25802Y51650D01*
X-25739Y51602D01*
X-25678Y51551D01*
X-25621Y51497D01*
X-25565Y51441D01*
X-25513Y51382D01*
X-25463Y51320D01*
X-25417Y51256D01*
X-25373Y51190D01*
X-25333Y51122D01*
X-25297Y51052D01*
X-25263Y50980D01*
X-25233Y50906D01*
X-25207Y50832D01*
X-25184Y50756D01*
X-25166Y50679D01*
X-25150Y50602D01*
X-25139Y50523D01*
X-25131Y50445D01*
X-25127Y50366D01*
X-25127Y50286D01*
X-25131Y50207D01*
X-25139Y50129D01*
X-25150Y50050D01*
X-25166Y49973D01*
X-25184Y49896D01*
X-25207Y49820D01*
X-25233Y49746D01*
X-25263Y49672D01*
X-25297Y49600D01*
X-25333Y49530D01*
X-25373Y49462D01*
X-25417Y49396D01*
X-25463Y49332D01*
X-25513Y49270D01*
X-25565Y49211D01*
X-25621Y49155D01*
X-25678Y49101D01*
X-25739Y49050D01*
X-25802Y49002D01*
X-25867Y48957D01*
X-25934Y48915D01*
X-26003Y48877D01*
X-26074Y48841D01*
X-26147Y48810D01*
X-26221Y48782D01*
X-26296Y48757D01*
X-26372Y48737D01*
X-26449Y48719D01*
X-26527Y48706D01*
X-26606Y48697D01*
X-26685Y48691D01*
X-26764Y48689D01*
X-28401Y48689D01*
D11*
X25400Y72771D02*
X25400Y82169D01*
X25400Y72771D02*
X35814Y62357D01*
X25400Y72517D02*
X16002Y63119D01*
X16002Y62103D01*
D120*
X20135Y49745D02*
X20135Y46472D01*
X20135Y49745D02*
X20137Y49834D01*
X20143Y49923D01*
X20153Y50012D01*
X20166Y50100D01*
X20183Y50188D01*
X20205Y50275D01*
X20230Y50360D01*
X20258Y50445D01*
X20291Y50528D01*
X20327Y50610D01*
X20366Y50690D01*
X20409Y50768D01*
X20455Y50844D01*
X20505Y50919D01*
X20558Y50991D01*
X20614Y51060D01*
X20673Y51127D01*
X20734Y51192D01*
X20799Y51253D01*
X20866Y51312D01*
X20935Y51368D01*
X21007Y51421D01*
X21082Y51471D01*
X21158Y51517D01*
X21236Y51560D01*
X21316Y51599D01*
X21398Y51635D01*
X21481Y51668D01*
X21566Y51696D01*
X21651Y51721D01*
X21738Y51743D01*
X21826Y51760D01*
X21914Y51773D01*
X22003Y51783D01*
X22092Y51789D01*
X22181Y51791D01*
X22270Y51789D01*
X22359Y51783D01*
X22448Y51773D01*
X22536Y51760D01*
X22624Y51743D01*
X22711Y51721D01*
X22796Y51696D01*
X22881Y51668D01*
X22964Y51635D01*
X23046Y51599D01*
X23126Y51560D01*
X23204Y51517D01*
X23280Y51471D01*
X23355Y51421D01*
X23427Y51368D01*
X23496Y51312D01*
X23563Y51253D01*
X23628Y51192D01*
X23689Y51127D01*
X23748Y51060D01*
X23804Y50991D01*
X23857Y50919D01*
X23907Y50844D01*
X23953Y50768D01*
X23996Y50690D01*
X24035Y50610D01*
X24071Y50528D01*
X24104Y50445D01*
X24132Y50360D01*
X24157Y50275D01*
X24179Y50188D01*
X24196Y50100D01*
X24209Y50012D01*
X24219Y49923D01*
X24225Y49834D01*
X24227Y49745D01*
X24227Y46472D01*
X24225Y46383D01*
X24219Y46294D01*
X24209Y46205D01*
X24196Y46117D01*
X24179Y46029D01*
X24157Y45942D01*
X24132Y45857D01*
X24104Y45772D01*
X24071Y45689D01*
X24035Y45607D01*
X23996Y45527D01*
X23953Y45449D01*
X23907Y45373D01*
X23857Y45298D01*
X23804Y45226D01*
X23748Y45157D01*
X23689Y45090D01*
X23628Y45025D01*
X23563Y44964D01*
X23496Y44905D01*
X23427Y44849D01*
X23355Y44796D01*
X23280Y44746D01*
X23204Y44700D01*
X23126Y44657D01*
X23046Y44618D01*
X22964Y44582D01*
X22881Y44549D01*
X22796Y44521D01*
X22711Y44496D01*
X22624Y44474D01*
X22536Y44457D01*
X22448Y44444D01*
X22359Y44434D01*
X22270Y44428D01*
X22181Y44426D01*
X22092Y44428D01*
X22003Y44434D01*
X21914Y44444D01*
X21826Y44457D01*
X21738Y44474D01*
X21651Y44496D01*
X21566Y44521D01*
X21481Y44549D01*
X21398Y44582D01*
X21316Y44618D01*
X21236Y44657D01*
X21158Y44700D01*
X21082Y44746D01*
X21007Y44796D01*
X20935Y44849D01*
X20866Y44905D01*
X20799Y44964D01*
X20734Y45025D01*
X20673Y45090D01*
X20614Y45157D01*
X20558Y45226D01*
X20505Y45298D01*
X20455Y45373D01*
X20409Y45449D01*
X20366Y45527D01*
X20327Y45607D01*
X20291Y45689D01*
X20258Y45772D01*
X20230Y45857D01*
X20205Y45942D01*
X20183Y46029D01*
X20166Y46117D01*
X20153Y46205D01*
X20143Y46294D01*
X20137Y46383D01*
X20135Y46472D01*
X23409Y46062D02*
X25046Y44425D01*
X31323Y49950D02*
X31321Y50035D01*
X31315Y50120D01*
X31305Y50204D01*
X31292Y50288D01*
X31274Y50372D01*
X31253Y50454D01*
X31228Y50535D01*
X31199Y50615D01*
X31166Y50694D01*
X31130Y50771D01*
X31090Y50846D01*
X31047Y50920D01*
X31001Y50991D01*
X30951Y51060D01*
X30898Y51127D01*
X30842Y51191D01*
X30783Y51252D01*
X30722Y51311D01*
X30658Y51367D01*
X30591Y51420D01*
X30522Y51470D01*
X30451Y51516D01*
X30377Y51559D01*
X30302Y51599D01*
X30225Y51635D01*
X30146Y51668D01*
X30066Y51697D01*
X29985Y51722D01*
X29903Y51743D01*
X29819Y51761D01*
X29735Y51774D01*
X29651Y51784D01*
X29566Y51790D01*
X29481Y51792D01*
X29385Y51790D01*
X29289Y51784D01*
X29194Y51774D01*
X29099Y51761D01*
X29004Y51743D01*
X28911Y51722D01*
X28818Y51697D01*
X28727Y51668D01*
X28636Y51636D01*
X28547Y51600D01*
X28460Y51560D01*
X28374Y51517D01*
X28290Y51471D01*
X28208Y51421D01*
X28128Y51367D01*
X28051Y51311D01*
X27976Y51251D01*
X27903Y51189D01*
X27833Y51123D01*
X27765Y51055D01*
X27700Y50984D01*
X27639Y50911D01*
X27580Y50835D01*
X27524Y50756D01*
X27472Y50676D01*
X27423Y50593D01*
X27377Y50509D01*
X27335Y50423D01*
X27297Y50335D01*
X27262Y50246D01*
X27230Y50155D01*
X30709Y48518D02*
X30769Y48577D01*
X30826Y48639D01*
X30881Y48703D01*
X30932Y48770D01*
X30981Y48839D01*
X31027Y48909D01*
X31070Y48982D01*
X31110Y49056D01*
X31146Y49132D01*
X31179Y49210D01*
X31209Y49289D01*
X31236Y49369D01*
X31259Y49450D01*
X31278Y49532D01*
X31294Y49614D01*
X31307Y49698D01*
X31316Y49782D01*
X31321Y49866D01*
X31323Y49950D01*
X30709Y48518D02*
X27230Y44425D01*
X31323Y44425D01*
D11*
X12700Y157544D02*
X12700Y166942D01*
X2286Y177356D01*
X12700Y167196D02*
X22098Y176594D01*
X22098Y177610D01*
D120*
X7808Y190549D02*
X7808Y193823D01*
X7809Y193823D02*
X7811Y193912D01*
X7817Y194001D01*
X7827Y194090D01*
X7840Y194178D01*
X7857Y194266D01*
X7879Y194353D01*
X7904Y194438D01*
X7932Y194523D01*
X7965Y194606D01*
X8001Y194688D01*
X8040Y194768D01*
X8083Y194846D01*
X8129Y194922D01*
X8179Y194997D01*
X8232Y195069D01*
X8288Y195138D01*
X8347Y195205D01*
X8408Y195270D01*
X8473Y195331D01*
X8540Y195390D01*
X8609Y195446D01*
X8681Y195499D01*
X8756Y195549D01*
X8832Y195595D01*
X8910Y195638D01*
X8990Y195677D01*
X9072Y195713D01*
X9155Y195746D01*
X9240Y195774D01*
X9325Y195799D01*
X9412Y195821D01*
X9500Y195838D01*
X9588Y195851D01*
X9677Y195861D01*
X9766Y195867D01*
X9855Y195869D01*
X9944Y195867D01*
X10033Y195861D01*
X10122Y195851D01*
X10210Y195838D01*
X10298Y195821D01*
X10385Y195799D01*
X10470Y195774D01*
X10555Y195746D01*
X10638Y195713D01*
X10720Y195677D01*
X10800Y195638D01*
X10878Y195595D01*
X10954Y195549D01*
X11029Y195499D01*
X11101Y195446D01*
X11170Y195390D01*
X11237Y195331D01*
X11302Y195270D01*
X11363Y195205D01*
X11422Y195138D01*
X11478Y195069D01*
X11531Y194997D01*
X11581Y194922D01*
X11627Y194846D01*
X11670Y194768D01*
X11709Y194688D01*
X11745Y194606D01*
X11778Y194523D01*
X11806Y194438D01*
X11831Y194353D01*
X11853Y194266D01*
X11870Y194178D01*
X11883Y194090D01*
X11893Y194001D01*
X11899Y193912D01*
X11901Y193823D01*
X11901Y190549D01*
X11899Y190460D01*
X11893Y190371D01*
X11883Y190282D01*
X11870Y190194D01*
X11853Y190106D01*
X11831Y190019D01*
X11806Y189934D01*
X11778Y189849D01*
X11745Y189766D01*
X11709Y189684D01*
X11670Y189604D01*
X11627Y189526D01*
X11581Y189450D01*
X11531Y189375D01*
X11478Y189303D01*
X11422Y189234D01*
X11363Y189167D01*
X11302Y189102D01*
X11237Y189041D01*
X11170Y188982D01*
X11101Y188926D01*
X11029Y188873D01*
X10954Y188823D01*
X10878Y188777D01*
X10800Y188734D01*
X10720Y188695D01*
X10638Y188659D01*
X10555Y188626D01*
X10470Y188598D01*
X10385Y188573D01*
X10298Y188551D01*
X10210Y188534D01*
X10122Y188521D01*
X10033Y188511D01*
X9944Y188505D01*
X9855Y188503D01*
X9766Y188505D01*
X9677Y188511D01*
X9588Y188521D01*
X9500Y188534D01*
X9412Y188551D01*
X9325Y188573D01*
X9240Y188598D01*
X9155Y188626D01*
X9072Y188659D01*
X8990Y188695D01*
X8910Y188734D01*
X8832Y188777D01*
X8756Y188823D01*
X8681Y188873D01*
X8609Y188926D01*
X8540Y188982D01*
X8473Y189041D01*
X8408Y189102D01*
X8347Y189167D01*
X8288Y189234D01*
X8232Y189303D01*
X8179Y189375D01*
X8129Y189450D01*
X8083Y189526D01*
X8040Y189604D01*
X8001Y189684D01*
X7965Y189766D01*
X7932Y189849D01*
X7904Y189934D01*
X7879Y190019D01*
X7857Y190106D01*
X7840Y190194D01*
X7827Y190282D01*
X7817Y190371D01*
X7811Y190460D01*
X7809Y190549D01*
X11082Y190140D02*
X12719Y188503D01*
X14904Y194232D02*
X16950Y195869D01*
X16950Y188503D01*
X14904Y188503D02*
X18996Y188503D01*
D119*
X28575Y146177D02*
X28575Y139827D01*
D120*
X36962Y137356D02*
X44328Y137356D01*
X36962Y137356D02*
X36962Y139402D01*
X36964Y139491D01*
X36970Y139580D01*
X36980Y139669D01*
X36993Y139757D01*
X37010Y139845D01*
X37032Y139932D01*
X37057Y140017D01*
X37085Y140102D01*
X37118Y140185D01*
X37154Y140267D01*
X37193Y140347D01*
X37236Y140425D01*
X37282Y140501D01*
X37332Y140576D01*
X37385Y140648D01*
X37441Y140717D01*
X37500Y140784D01*
X37561Y140849D01*
X37626Y140910D01*
X37693Y140969D01*
X37762Y141025D01*
X37834Y141078D01*
X37909Y141128D01*
X37985Y141174D01*
X38063Y141217D01*
X38143Y141256D01*
X38225Y141292D01*
X38308Y141325D01*
X38393Y141353D01*
X38478Y141378D01*
X38565Y141400D01*
X38653Y141417D01*
X38741Y141430D01*
X38830Y141440D01*
X38919Y141446D01*
X39008Y141448D01*
X39097Y141446D01*
X39186Y141440D01*
X39275Y141430D01*
X39363Y141417D01*
X39451Y141400D01*
X39538Y141378D01*
X39623Y141353D01*
X39708Y141325D01*
X39791Y141292D01*
X39873Y141256D01*
X39953Y141217D01*
X40031Y141174D01*
X40107Y141128D01*
X40182Y141078D01*
X40254Y141025D01*
X40323Y140969D01*
X40390Y140910D01*
X40455Y140849D01*
X40516Y140784D01*
X40575Y140717D01*
X40631Y140648D01*
X40684Y140576D01*
X40734Y140501D01*
X40780Y140425D01*
X40823Y140347D01*
X40862Y140267D01*
X40898Y140185D01*
X40931Y140102D01*
X40959Y140017D01*
X40984Y139932D01*
X41006Y139845D01*
X41023Y139757D01*
X41036Y139669D01*
X41046Y139580D01*
X41052Y139491D01*
X41054Y139402D01*
X41054Y137356D01*
X41054Y139811D02*
X44328Y141448D01*
X42691Y144620D02*
X36962Y146256D01*
X42691Y144620D02*
X42691Y148712D01*
X41054Y147484D02*
X44328Y147484D01*
D119*
X28575Y112586D02*
X28575Y106236D01*
D120*
X37104Y104640D02*
X44470Y104640D01*
X37104Y104640D02*
X37104Y106687D01*
X37106Y106776D01*
X37112Y106865D01*
X37122Y106954D01*
X37135Y107042D01*
X37152Y107130D01*
X37174Y107217D01*
X37199Y107302D01*
X37227Y107387D01*
X37260Y107470D01*
X37296Y107552D01*
X37335Y107632D01*
X37378Y107710D01*
X37424Y107786D01*
X37474Y107861D01*
X37527Y107933D01*
X37583Y108002D01*
X37642Y108069D01*
X37703Y108134D01*
X37768Y108195D01*
X37835Y108254D01*
X37904Y108310D01*
X37976Y108363D01*
X38051Y108413D01*
X38127Y108459D01*
X38205Y108502D01*
X38285Y108541D01*
X38367Y108577D01*
X38450Y108610D01*
X38535Y108638D01*
X38620Y108663D01*
X38707Y108685D01*
X38795Y108702D01*
X38883Y108715D01*
X38972Y108725D01*
X39061Y108731D01*
X39150Y108733D01*
X39239Y108731D01*
X39328Y108725D01*
X39417Y108715D01*
X39505Y108702D01*
X39593Y108685D01*
X39680Y108663D01*
X39765Y108638D01*
X39850Y108610D01*
X39933Y108577D01*
X40015Y108541D01*
X40095Y108502D01*
X40173Y108459D01*
X40249Y108413D01*
X40324Y108363D01*
X40396Y108310D01*
X40465Y108254D01*
X40532Y108195D01*
X40597Y108134D01*
X40658Y108069D01*
X40717Y108002D01*
X40773Y107933D01*
X40826Y107861D01*
X40876Y107786D01*
X40922Y107710D01*
X40965Y107632D01*
X41004Y107552D01*
X41040Y107470D01*
X41073Y107387D01*
X41101Y107302D01*
X41126Y107217D01*
X41148Y107130D01*
X41165Y107042D01*
X41178Y106954D01*
X41188Y106865D01*
X41194Y106776D01*
X41196Y106687D01*
X41197Y106687D02*
X41197Y104640D01*
X41197Y107096D02*
X44470Y108733D01*
X44470Y111905D02*
X44470Y114360D01*
X44468Y114438D01*
X44463Y114516D01*
X44453Y114593D01*
X44440Y114670D01*
X44424Y114746D01*
X44404Y114821D01*
X44380Y114895D01*
X44353Y114968D01*
X44322Y115040D01*
X44288Y115110D01*
X44251Y115179D01*
X44210Y115245D01*
X44166Y115310D01*
X44120Y115372D01*
X44070Y115432D01*
X44018Y115490D01*
X43963Y115545D01*
X43905Y115597D01*
X43845Y115647D01*
X43783Y115693D01*
X43718Y115737D01*
X43652Y115778D01*
X43583Y115815D01*
X43513Y115849D01*
X43441Y115880D01*
X43368Y115907D01*
X43294Y115931D01*
X43219Y115951D01*
X43143Y115967D01*
X43066Y115980D01*
X42989Y115990D01*
X42911Y115995D01*
X42833Y115997D01*
X42015Y115997D01*
X41935Y115995D01*
X41855Y115989D01*
X41775Y115979D01*
X41696Y115966D01*
X41617Y115948D01*
X41540Y115927D01*
X41464Y115901D01*
X41389Y115872D01*
X41315Y115840D01*
X41243Y115804D01*
X41173Y115764D01*
X41106Y115721D01*
X41040Y115675D01*
X40977Y115625D01*
X40916Y115573D01*
X40857Y115518D01*
X40802Y115459D01*
X40750Y115399D01*
X40700Y115335D01*
X40654Y115269D01*
X40611Y115202D01*
X40571Y115132D01*
X40535Y115060D01*
X40503Y114986D01*
X40474Y114912D01*
X40448Y114835D01*
X40427Y114758D01*
X40409Y114679D01*
X40396Y114600D01*
X40386Y114520D01*
X40380Y114440D01*
X40378Y114360D01*
X40378Y111905D01*
X37104Y111905D01*
X37104Y115997D01*
D119*
X-30163Y139573D02*
X-30163Y145923D01*
D120*
X-38133Y137038D02*
X-45499Y137038D01*
X-45499Y139084D01*
X-45497Y139173D01*
X-45491Y139262D01*
X-45481Y139351D01*
X-45468Y139439D01*
X-45451Y139527D01*
X-45429Y139614D01*
X-45404Y139699D01*
X-45376Y139784D01*
X-45343Y139867D01*
X-45307Y139949D01*
X-45268Y140029D01*
X-45225Y140107D01*
X-45179Y140183D01*
X-45129Y140258D01*
X-45076Y140330D01*
X-45020Y140399D01*
X-44961Y140466D01*
X-44900Y140531D01*
X-44835Y140592D01*
X-44768Y140651D01*
X-44699Y140707D01*
X-44627Y140760D01*
X-44552Y140810D01*
X-44476Y140856D01*
X-44398Y140899D01*
X-44318Y140938D01*
X-44236Y140974D01*
X-44153Y141007D01*
X-44068Y141035D01*
X-43983Y141060D01*
X-43896Y141082D01*
X-43808Y141099D01*
X-43720Y141112D01*
X-43631Y141122D01*
X-43542Y141128D01*
X-43453Y141130D01*
X-43364Y141128D01*
X-43275Y141122D01*
X-43186Y141112D01*
X-43098Y141099D01*
X-43010Y141082D01*
X-42923Y141060D01*
X-42838Y141035D01*
X-42753Y141007D01*
X-42670Y140974D01*
X-42588Y140938D01*
X-42508Y140899D01*
X-42430Y140856D01*
X-42354Y140810D01*
X-42279Y140760D01*
X-42207Y140707D01*
X-42138Y140651D01*
X-42071Y140592D01*
X-42006Y140531D01*
X-41945Y140466D01*
X-41886Y140399D01*
X-41830Y140330D01*
X-41777Y140258D01*
X-41727Y140183D01*
X-41681Y140107D01*
X-41638Y140029D01*
X-41599Y139949D01*
X-41563Y139867D01*
X-41530Y139784D01*
X-41502Y139699D01*
X-41477Y139614D01*
X-41455Y139527D01*
X-41438Y139439D01*
X-41425Y139351D01*
X-41415Y139262D01*
X-41409Y139173D01*
X-41407Y139084D01*
X-41407Y137038D01*
X-41407Y139493D02*
X-38133Y141130D01*
X-42225Y144302D02*
X-42225Y146757D01*
X-42223Y146835D01*
X-42218Y146913D01*
X-42208Y146990D01*
X-42195Y147067D01*
X-42179Y147143D01*
X-42159Y147218D01*
X-42135Y147292D01*
X-42108Y147365D01*
X-42077Y147437D01*
X-42043Y147507D01*
X-42006Y147576D01*
X-41965Y147642D01*
X-41921Y147707D01*
X-41875Y147769D01*
X-41825Y147829D01*
X-41773Y147887D01*
X-41718Y147942D01*
X-41660Y147994D01*
X-41600Y148044D01*
X-41538Y148090D01*
X-41473Y148134D01*
X-41407Y148175D01*
X-41338Y148212D01*
X-41268Y148246D01*
X-41196Y148277D01*
X-41123Y148304D01*
X-41049Y148328D01*
X-40974Y148348D01*
X-40898Y148364D01*
X-40821Y148377D01*
X-40744Y148387D01*
X-40666Y148392D01*
X-40588Y148394D01*
X-40179Y148394D01*
X-40090Y148392D01*
X-40001Y148386D01*
X-39912Y148376D01*
X-39824Y148363D01*
X-39736Y148346D01*
X-39649Y148324D01*
X-39564Y148299D01*
X-39479Y148271D01*
X-39396Y148238D01*
X-39314Y148202D01*
X-39234Y148163D01*
X-39156Y148120D01*
X-39080Y148074D01*
X-39005Y148024D01*
X-38933Y147971D01*
X-38864Y147915D01*
X-38797Y147856D01*
X-38732Y147795D01*
X-38671Y147730D01*
X-38612Y147663D01*
X-38556Y147594D01*
X-38503Y147522D01*
X-38453Y147447D01*
X-38407Y147371D01*
X-38364Y147293D01*
X-38325Y147213D01*
X-38289Y147131D01*
X-38256Y147048D01*
X-38228Y146963D01*
X-38203Y146878D01*
X-38181Y146791D01*
X-38164Y146703D01*
X-38151Y146615D01*
X-38141Y146526D01*
X-38135Y146437D01*
X-38133Y146348D01*
X-38135Y146259D01*
X-38141Y146170D01*
X-38151Y146081D01*
X-38164Y145993D01*
X-38181Y145905D01*
X-38203Y145818D01*
X-38228Y145733D01*
X-38256Y145648D01*
X-38289Y145565D01*
X-38325Y145483D01*
X-38364Y145403D01*
X-38407Y145325D01*
X-38453Y145249D01*
X-38503Y145174D01*
X-38556Y145102D01*
X-38612Y145033D01*
X-38671Y144966D01*
X-38732Y144901D01*
X-38797Y144840D01*
X-38864Y144781D01*
X-38933Y144725D01*
X-39005Y144672D01*
X-39080Y144622D01*
X-39156Y144576D01*
X-39234Y144533D01*
X-39314Y144494D01*
X-39396Y144458D01*
X-39479Y144425D01*
X-39564Y144397D01*
X-39649Y144372D01*
X-39736Y144350D01*
X-39824Y144333D01*
X-39912Y144320D01*
X-40001Y144310D01*
X-40090Y144304D01*
X-40179Y144302D01*
X-42225Y144302D01*
X-42339Y144304D01*
X-42453Y144310D01*
X-42567Y144320D01*
X-42681Y144334D01*
X-42794Y144352D01*
X-42906Y144374D01*
X-43017Y144399D01*
X-43127Y144429D01*
X-43237Y144462D01*
X-43345Y144499D01*
X-43451Y144540D01*
X-43557Y144585D01*
X-43660Y144633D01*
X-43762Y144685D01*
X-43862Y144741D01*
X-43960Y144799D01*
X-44056Y144862D01*
X-44149Y144927D01*
X-44241Y144996D01*
X-44329Y145068D01*
X-44416Y145143D01*
X-44499Y145221D01*
X-44580Y145302D01*
X-44658Y145385D01*
X-44733Y145472D01*
X-44805Y145560D01*
X-44874Y145652D01*
X-44939Y145745D01*
X-45001Y145841D01*
X-45060Y145939D01*
X-45116Y146039D01*
X-45168Y146141D01*
X-45216Y146244D01*
X-45261Y146350D01*
X-45302Y146456D01*
X-45339Y146564D01*
X-45372Y146674D01*
X-45402Y146784D01*
X-45427Y146895D01*
X-45449Y147007D01*
X-45467Y147120D01*
X-45481Y147234D01*
X-45491Y147348D01*
X-45497Y147462D01*
X-45499Y147576D01*
D119*
X-30163Y112586D02*
X-30163Y106236D01*
D120*
X-38539Y103231D02*
X-45905Y103231D01*
X-45905Y105277D01*
X-45903Y105366D01*
X-45897Y105455D01*
X-45887Y105544D01*
X-45874Y105632D01*
X-45857Y105720D01*
X-45835Y105807D01*
X-45810Y105892D01*
X-45782Y105977D01*
X-45749Y106060D01*
X-45713Y106142D01*
X-45674Y106222D01*
X-45631Y106300D01*
X-45585Y106376D01*
X-45535Y106451D01*
X-45482Y106523D01*
X-45426Y106592D01*
X-45367Y106659D01*
X-45306Y106724D01*
X-45241Y106785D01*
X-45174Y106844D01*
X-45105Y106900D01*
X-45033Y106953D01*
X-44958Y107003D01*
X-44882Y107049D01*
X-44804Y107092D01*
X-44724Y107131D01*
X-44642Y107167D01*
X-44559Y107200D01*
X-44474Y107228D01*
X-44389Y107253D01*
X-44302Y107275D01*
X-44214Y107292D01*
X-44126Y107305D01*
X-44037Y107315D01*
X-43948Y107321D01*
X-43859Y107323D01*
X-43770Y107321D01*
X-43681Y107315D01*
X-43592Y107305D01*
X-43504Y107292D01*
X-43416Y107275D01*
X-43329Y107253D01*
X-43244Y107228D01*
X-43159Y107200D01*
X-43076Y107167D01*
X-42994Y107131D01*
X-42914Y107092D01*
X-42836Y107049D01*
X-42760Y107003D01*
X-42685Y106953D01*
X-42613Y106900D01*
X-42544Y106844D01*
X-42477Y106785D01*
X-42412Y106724D01*
X-42351Y106659D01*
X-42292Y106592D01*
X-42236Y106523D01*
X-42183Y106451D01*
X-42133Y106376D01*
X-42087Y106300D01*
X-42044Y106222D01*
X-42005Y106142D01*
X-41969Y106060D01*
X-41936Y105977D01*
X-41908Y105892D01*
X-41883Y105807D01*
X-41861Y105720D01*
X-41844Y105632D01*
X-41831Y105544D01*
X-41821Y105455D01*
X-41815Y105366D01*
X-41813Y105277D01*
X-41813Y103231D01*
X-41813Y105686D02*
X-38539Y107323D01*
X-41813Y112132D02*
X-41813Y114587D01*
X-41813Y112132D02*
X-41815Y112054D01*
X-41820Y111976D01*
X-41830Y111899D01*
X-41843Y111822D01*
X-41859Y111746D01*
X-41879Y111671D01*
X-41903Y111597D01*
X-41930Y111524D01*
X-41961Y111452D01*
X-41995Y111382D01*
X-42032Y111313D01*
X-42073Y111247D01*
X-42117Y111182D01*
X-42163Y111120D01*
X-42213Y111060D01*
X-42265Y111002D01*
X-42320Y110947D01*
X-42378Y110895D01*
X-42438Y110845D01*
X-42500Y110799D01*
X-42565Y110755D01*
X-42632Y110714D01*
X-42700Y110677D01*
X-42770Y110643D01*
X-42842Y110612D01*
X-42915Y110585D01*
X-42989Y110561D01*
X-43064Y110541D01*
X-43140Y110525D01*
X-43217Y110512D01*
X-43294Y110502D01*
X-43372Y110497D01*
X-43450Y110495D01*
X-43859Y110495D01*
X-43948Y110497D01*
X-44037Y110503D01*
X-44126Y110513D01*
X-44214Y110526D01*
X-44302Y110543D01*
X-44389Y110565D01*
X-44474Y110590D01*
X-44559Y110618D01*
X-44642Y110651D01*
X-44724Y110687D01*
X-44804Y110726D01*
X-44882Y110769D01*
X-44958Y110815D01*
X-45033Y110865D01*
X-45105Y110918D01*
X-45174Y110974D01*
X-45241Y111033D01*
X-45306Y111094D01*
X-45367Y111159D01*
X-45426Y111226D01*
X-45482Y111295D01*
X-45535Y111367D01*
X-45585Y111442D01*
X-45631Y111518D01*
X-45674Y111596D01*
X-45713Y111676D01*
X-45749Y111758D01*
X-45782Y111841D01*
X-45810Y111926D01*
X-45835Y112011D01*
X-45857Y112098D01*
X-45874Y112186D01*
X-45887Y112274D01*
X-45897Y112363D01*
X-45903Y112452D01*
X-45905Y112541D01*
X-45903Y112630D01*
X-45897Y112719D01*
X-45887Y112808D01*
X-45874Y112896D01*
X-45857Y112984D01*
X-45835Y113071D01*
X-45810Y113156D01*
X-45782Y113241D01*
X-45749Y113324D01*
X-45713Y113406D01*
X-45674Y113486D01*
X-45631Y113564D01*
X-45585Y113640D01*
X-45535Y113715D01*
X-45482Y113787D01*
X-45426Y113856D01*
X-45367Y113923D01*
X-45306Y113988D01*
X-45241Y114049D01*
X-45174Y114108D01*
X-45105Y114164D01*
X-45033Y114217D01*
X-44958Y114267D01*
X-44882Y114313D01*
X-44804Y114356D01*
X-44724Y114395D01*
X-44642Y114431D01*
X-44559Y114464D01*
X-44474Y114492D01*
X-44389Y114517D01*
X-44302Y114539D01*
X-44214Y114556D01*
X-44126Y114569D01*
X-44037Y114579D01*
X-43948Y114585D01*
X-43859Y114587D01*
X-41813Y114587D01*
X-41701Y114585D01*
X-41590Y114579D01*
X-41478Y114570D01*
X-41367Y114557D01*
X-41257Y114539D01*
X-41147Y114519D01*
X-41038Y114494D01*
X-40930Y114466D01*
X-40823Y114434D01*
X-40717Y114398D01*
X-40612Y114359D01*
X-40509Y114316D01*
X-40407Y114270D01*
X-40307Y114220D01*
X-40208Y114167D01*
X-40112Y114110D01*
X-40017Y114051D01*
X-39925Y113988D01*
X-39835Y113922D01*
X-39747Y113853D01*
X-39661Y113781D01*
X-39578Y113706D01*
X-39498Y113628D01*
X-39420Y113548D01*
X-39345Y113465D01*
X-39273Y113379D01*
X-39204Y113291D01*
X-39138Y113201D01*
X-39075Y113109D01*
X-39016Y113014D01*
X-38959Y112918D01*
X-38906Y112819D01*
X-38856Y112719D01*
X-38810Y112617D01*
X-38767Y112514D01*
X-38728Y112409D01*
X-38692Y112303D01*
X-38660Y112196D01*
X-38632Y112088D01*
X-38607Y111979D01*
X-38587Y111869D01*
X-38569Y111759D01*
X-38556Y111648D01*
X-38547Y111536D01*
X-38541Y111425D01*
X-38539Y111313D01*
D119*
X0Y79248D02*
X0Y72898D01*
D120*
X-5024Y59761D02*
X-5024Y52395D01*
X-5024Y59761D02*
X-2978Y59761D01*
X-2889Y59759D01*
X-2800Y59753D01*
X-2711Y59743D01*
X-2623Y59730D01*
X-2535Y59713D01*
X-2448Y59691D01*
X-2363Y59666D01*
X-2278Y59638D01*
X-2195Y59605D01*
X-2113Y59569D01*
X-2033Y59530D01*
X-1955Y59487D01*
X-1879Y59441D01*
X-1804Y59391D01*
X-1732Y59338D01*
X-1663Y59282D01*
X-1596Y59223D01*
X-1531Y59162D01*
X-1470Y59097D01*
X-1411Y59030D01*
X-1355Y58961D01*
X-1302Y58889D01*
X-1252Y58814D01*
X-1206Y58738D01*
X-1163Y58660D01*
X-1124Y58580D01*
X-1088Y58498D01*
X-1055Y58415D01*
X-1027Y58330D01*
X-1002Y58245D01*
X-980Y58158D01*
X-963Y58070D01*
X-950Y57982D01*
X-940Y57893D01*
X-934Y57804D01*
X-932Y57715D01*
X-934Y57626D01*
X-940Y57537D01*
X-950Y57448D01*
X-963Y57360D01*
X-980Y57272D01*
X-1002Y57185D01*
X-1027Y57100D01*
X-1055Y57015D01*
X-1088Y56932D01*
X-1124Y56850D01*
X-1163Y56770D01*
X-1206Y56692D01*
X-1252Y56616D01*
X-1302Y56541D01*
X-1355Y56469D01*
X-1411Y56400D01*
X-1470Y56333D01*
X-1531Y56268D01*
X-1596Y56207D01*
X-1663Y56148D01*
X-1732Y56092D01*
X-1804Y56039D01*
X-1879Y55989D01*
X-1955Y55943D01*
X-2033Y55900D01*
X-2113Y55861D01*
X-2195Y55825D01*
X-2278Y55792D01*
X-2363Y55764D01*
X-2448Y55739D01*
X-2535Y55717D01*
X-2623Y55700D01*
X-2711Y55687D01*
X-2800Y55677D01*
X-2889Y55671D01*
X-2978Y55669D01*
X-5024Y55669D01*
X-2569Y55669D02*
X-932Y52395D01*
X2240Y54441D02*
X2242Y54530D01*
X2248Y54619D01*
X2258Y54708D01*
X2271Y54796D01*
X2288Y54884D01*
X2310Y54971D01*
X2335Y55056D01*
X2363Y55141D01*
X2396Y55224D01*
X2432Y55306D01*
X2471Y55386D01*
X2514Y55464D01*
X2560Y55540D01*
X2610Y55615D01*
X2663Y55687D01*
X2719Y55756D01*
X2778Y55823D01*
X2839Y55888D01*
X2904Y55949D01*
X2971Y56008D01*
X3040Y56064D01*
X3112Y56117D01*
X3187Y56167D01*
X3263Y56213D01*
X3341Y56256D01*
X3421Y56295D01*
X3503Y56331D01*
X3586Y56364D01*
X3671Y56392D01*
X3756Y56417D01*
X3843Y56439D01*
X3931Y56456D01*
X4019Y56469D01*
X4108Y56479D01*
X4197Y56485D01*
X4286Y56487D01*
X4375Y56485D01*
X4464Y56479D01*
X4553Y56469D01*
X4641Y56456D01*
X4729Y56439D01*
X4816Y56417D01*
X4901Y56392D01*
X4986Y56364D01*
X5069Y56331D01*
X5151Y56295D01*
X5231Y56256D01*
X5309Y56213D01*
X5385Y56167D01*
X5460Y56117D01*
X5532Y56064D01*
X5601Y56008D01*
X5668Y55949D01*
X5733Y55888D01*
X5794Y55823D01*
X5853Y55756D01*
X5909Y55687D01*
X5962Y55615D01*
X6012Y55540D01*
X6058Y55464D01*
X6101Y55386D01*
X6140Y55306D01*
X6176Y55224D01*
X6209Y55141D01*
X6237Y55056D01*
X6262Y54971D01*
X6284Y54884D01*
X6301Y54796D01*
X6314Y54708D01*
X6324Y54619D01*
X6330Y54530D01*
X6332Y54441D01*
X6330Y54352D01*
X6324Y54263D01*
X6314Y54174D01*
X6301Y54086D01*
X6284Y53998D01*
X6262Y53911D01*
X6237Y53826D01*
X6209Y53741D01*
X6176Y53658D01*
X6140Y53576D01*
X6101Y53496D01*
X6058Y53418D01*
X6012Y53342D01*
X5962Y53267D01*
X5909Y53195D01*
X5853Y53126D01*
X5794Y53059D01*
X5733Y52994D01*
X5668Y52933D01*
X5601Y52874D01*
X5532Y52818D01*
X5460Y52765D01*
X5385Y52715D01*
X5309Y52669D01*
X5231Y52626D01*
X5151Y52587D01*
X5069Y52551D01*
X4986Y52518D01*
X4901Y52490D01*
X4816Y52465D01*
X4729Y52443D01*
X4641Y52426D01*
X4553Y52413D01*
X4464Y52403D01*
X4375Y52397D01*
X4286Y52395D01*
X4197Y52397D01*
X4108Y52403D01*
X4019Y52413D01*
X3931Y52426D01*
X3843Y52443D01*
X3756Y52465D01*
X3671Y52490D01*
X3586Y52518D01*
X3503Y52551D01*
X3421Y52587D01*
X3341Y52626D01*
X3263Y52669D01*
X3187Y52715D01*
X3112Y52765D01*
X3040Y52818D01*
X2971Y52874D01*
X2904Y52933D01*
X2839Y52994D01*
X2778Y53059D01*
X2719Y53126D01*
X2663Y53195D01*
X2610Y53267D01*
X2560Y53342D01*
X2514Y53418D01*
X2471Y53496D01*
X2432Y53576D01*
X2396Y53658D01*
X2363Y53741D01*
X2335Y53826D01*
X2310Y53911D01*
X2288Y53998D01*
X2271Y54086D01*
X2258Y54174D01*
X2248Y54263D01*
X2242Y54352D01*
X2240Y54441D01*
X2649Y58124D02*
X2651Y58203D01*
X2657Y58282D01*
X2666Y58361D01*
X2679Y58439D01*
X2697Y58516D01*
X2717Y58592D01*
X2742Y58667D01*
X2770Y58741D01*
X2801Y58814D01*
X2837Y58885D01*
X2875Y58954D01*
X2917Y59021D01*
X2962Y59086D01*
X3010Y59149D01*
X3061Y59210D01*
X3115Y59267D01*
X3171Y59323D01*
X3230Y59375D01*
X3292Y59425D01*
X3356Y59471D01*
X3422Y59515D01*
X3490Y59555D01*
X3560Y59591D01*
X3632Y59625D01*
X3706Y59655D01*
X3780Y59681D01*
X3856Y59704D01*
X3933Y59722D01*
X4010Y59738D01*
X4089Y59749D01*
X4167Y59757D01*
X4246Y59761D01*
X4326Y59761D01*
X4405Y59757D01*
X4483Y59749D01*
X4562Y59738D01*
X4639Y59722D01*
X4716Y59704D01*
X4792Y59681D01*
X4866Y59655D01*
X4940Y59625D01*
X5012Y59591D01*
X5082Y59555D01*
X5150Y59515D01*
X5216Y59471D01*
X5280Y59425D01*
X5342Y59375D01*
X5401Y59323D01*
X5457Y59267D01*
X5511Y59210D01*
X5562Y59149D01*
X5610Y59086D01*
X5655Y59021D01*
X5697Y58954D01*
X5735Y58885D01*
X5771Y58814D01*
X5802Y58741D01*
X5830Y58667D01*
X5855Y58592D01*
X5875Y58516D01*
X5893Y58439D01*
X5906Y58361D01*
X5915Y58282D01*
X5921Y58203D01*
X5923Y58124D01*
X5921Y58045D01*
X5915Y57966D01*
X5906Y57887D01*
X5893Y57809D01*
X5875Y57732D01*
X5855Y57656D01*
X5830Y57581D01*
X5802Y57507D01*
X5771Y57434D01*
X5735Y57363D01*
X5697Y57294D01*
X5655Y57227D01*
X5610Y57162D01*
X5562Y57099D01*
X5511Y57038D01*
X5457Y56981D01*
X5401Y56925D01*
X5342Y56873D01*
X5280Y56823D01*
X5216Y56777D01*
X5150Y56733D01*
X5082Y56693D01*
X5012Y56657D01*
X4940Y56623D01*
X4866Y56593D01*
X4792Y56567D01*
X4716Y56544D01*
X4639Y56526D01*
X4562Y56510D01*
X4483Y56499D01*
X4405Y56491D01*
X4326Y56487D01*
X4246Y56487D01*
X4167Y56491D01*
X4089Y56499D01*
X4010Y56510D01*
X3933Y56526D01*
X3856Y56544D01*
X3780Y56567D01*
X3706Y56593D01*
X3632Y56623D01*
X3560Y56657D01*
X3490Y56693D01*
X3422Y56733D01*
X3356Y56777D01*
X3292Y56823D01*
X3230Y56873D01*
X3171Y56925D01*
X3115Y56981D01*
X3061Y57038D01*
X3010Y57099D01*
X2962Y57162D01*
X2917Y57227D01*
X2875Y57294D01*
X2837Y57363D01*
X2801Y57434D01*
X2770Y57507D01*
X2742Y57581D01*
X2717Y57656D01*
X2697Y57732D01*
X2679Y57809D01*
X2666Y57887D01*
X2657Y57966D01*
X2651Y58045D01*
X2649Y58124D01*
D119*
X-16002Y177800D02*
X-22352Y177800D01*
D120*
X-22664Y187383D02*
X-22664Y194749D01*
X-20618Y194749D01*
X-20529Y194747D01*
X-20440Y194741D01*
X-20351Y194731D01*
X-20263Y194718D01*
X-20175Y194701D01*
X-20088Y194679D01*
X-20003Y194654D01*
X-19918Y194626D01*
X-19835Y194593D01*
X-19753Y194557D01*
X-19673Y194518D01*
X-19595Y194475D01*
X-19519Y194429D01*
X-19444Y194379D01*
X-19372Y194326D01*
X-19303Y194270D01*
X-19236Y194211D01*
X-19171Y194150D01*
X-19110Y194085D01*
X-19051Y194018D01*
X-18995Y193949D01*
X-18942Y193877D01*
X-18892Y193802D01*
X-18846Y193726D01*
X-18803Y193648D01*
X-18764Y193568D01*
X-18728Y193486D01*
X-18695Y193403D01*
X-18667Y193318D01*
X-18642Y193233D01*
X-18620Y193146D01*
X-18603Y193058D01*
X-18590Y192970D01*
X-18580Y192881D01*
X-18574Y192792D01*
X-18572Y192703D01*
X-18574Y192614D01*
X-18580Y192525D01*
X-18590Y192436D01*
X-18603Y192348D01*
X-18620Y192260D01*
X-18642Y192173D01*
X-18667Y192088D01*
X-18695Y192003D01*
X-18728Y191920D01*
X-18764Y191838D01*
X-18803Y191758D01*
X-18846Y191680D01*
X-18892Y191604D01*
X-18942Y191529D01*
X-18995Y191457D01*
X-19051Y191388D01*
X-19110Y191321D01*
X-19171Y191256D01*
X-19236Y191195D01*
X-19303Y191136D01*
X-19372Y191080D01*
X-19444Y191027D01*
X-19519Y190977D01*
X-19595Y190931D01*
X-19673Y190888D01*
X-19753Y190849D01*
X-19835Y190813D01*
X-19918Y190780D01*
X-20003Y190752D01*
X-20088Y190727D01*
X-20175Y190705D01*
X-20263Y190688D01*
X-20351Y190675D01*
X-20440Y190665D01*
X-20529Y190659D01*
X-20618Y190657D01*
X-22664Y190657D01*
X-20209Y190657D02*
X-18572Y187383D01*
X-15400Y193931D02*
X-15400Y194749D01*
X-11308Y194749D01*
X-13354Y187383D01*
D121*
X-53975Y103863D02*
X-56475Y103863D01*
X-53975Y103863D02*
X-51475Y103863D01*
X-53975Y103863D02*
X-56475Y108863D01*
X-51475Y108863D02*
X-53975Y103863D01*
X-51475Y108863D02*
X-56475Y108863D01*
X-58975Y118863D02*
X-48975Y118863D01*
X-48975Y93863D01*
X-58975Y93863D01*
X-58975Y118863D01*
D120*
X-62855Y100365D02*
X-70221Y100365D01*
X-70221Y102411D01*
X-70219Y102500D01*
X-70213Y102589D01*
X-70203Y102678D01*
X-70190Y102766D01*
X-70173Y102854D01*
X-70151Y102941D01*
X-70126Y103026D01*
X-70098Y103111D01*
X-70065Y103194D01*
X-70029Y103276D01*
X-69990Y103356D01*
X-69947Y103434D01*
X-69901Y103510D01*
X-69851Y103585D01*
X-69798Y103657D01*
X-69742Y103726D01*
X-69683Y103793D01*
X-69622Y103858D01*
X-69557Y103919D01*
X-69490Y103978D01*
X-69421Y104034D01*
X-69349Y104087D01*
X-69274Y104137D01*
X-69198Y104183D01*
X-69120Y104226D01*
X-69040Y104265D01*
X-68958Y104301D01*
X-68875Y104334D01*
X-68790Y104362D01*
X-68705Y104387D01*
X-68618Y104409D01*
X-68530Y104426D01*
X-68442Y104439D01*
X-68353Y104449D01*
X-68264Y104455D01*
X-68175Y104457D01*
X-64901Y104457D01*
X-64812Y104455D01*
X-64723Y104449D01*
X-64634Y104439D01*
X-64546Y104426D01*
X-64458Y104409D01*
X-64371Y104387D01*
X-64286Y104362D01*
X-64201Y104334D01*
X-64118Y104301D01*
X-64036Y104265D01*
X-63956Y104226D01*
X-63878Y104183D01*
X-63802Y104137D01*
X-63727Y104087D01*
X-63655Y104034D01*
X-63586Y103978D01*
X-63519Y103919D01*
X-63454Y103858D01*
X-63393Y103793D01*
X-63334Y103726D01*
X-63278Y103657D01*
X-63225Y103585D01*
X-63175Y103510D01*
X-63129Y103434D01*
X-63086Y103356D01*
X-63047Y103276D01*
X-63011Y103194D01*
X-62978Y103111D01*
X-62950Y103026D01*
X-62925Y102941D01*
X-62903Y102854D01*
X-62886Y102766D01*
X-62873Y102678D01*
X-62863Y102589D01*
X-62857Y102500D01*
X-62855Y102411D01*
X-62855Y100365D01*
X-68584Y107924D02*
X-70221Y109970D01*
X-62855Y109970D01*
X-62855Y107924D02*
X-62855Y112016D01*
D11*
X49213Y85725D02*
X61913Y85725D01*
X68263Y79375D01*
X68263Y66675D01*
X61913Y60325D01*
X42863Y66675D02*
X42863Y79375D01*
X49213Y85725D01*
X42863Y66675D02*
X49213Y60325D01*
X61913Y60325D01*
D119*
X-53975Y131636D02*
X-53975Y137986D01*
D120*
X-62842Y129974D02*
X-70208Y129974D01*
X-70208Y132021D01*
X-70206Y132110D01*
X-70200Y132199D01*
X-70190Y132288D01*
X-70177Y132376D01*
X-70160Y132464D01*
X-70138Y132551D01*
X-70113Y132636D01*
X-70085Y132721D01*
X-70052Y132804D01*
X-70016Y132886D01*
X-69977Y132966D01*
X-69934Y133044D01*
X-69888Y133120D01*
X-69838Y133195D01*
X-69785Y133267D01*
X-69729Y133336D01*
X-69670Y133403D01*
X-69609Y133468D01*
X-69544Y133529D01*
X-69477Y133588D01*
X-69408Y133644D01*
X-69336Y133697D01*
X-69261Y133747D01*
X-69185Y133793D01*
X-69107Y133836D01*
X-69027Y133875D01*
X-68945Y133911D01*
X-68862Y133944D01*
X-68777Y133972D01*
X-68692Y133997D01*
X-68605Y134019D01*
X-68517Y134036D01*
X-68429Y134049D01*
X-68340Y134059D01*
X-68251Y134065D01*
X-68162Y134067D01*
X-68073Y134065D01*
X-67984Y134059D01*
X-67895Y134049D01*
X-67807Y134036D01*
X-67719Y134019D01*
X-67632Y133997D01*
X-67547Y133972D01*
X-67462Y133944D01*
X-67379Y133911D01*
X-67297Y133875D01*
X-67217Y133836D01*
X-67139Y133793D01*
X-67063Y133747D01*
X-66988Y133697D01*
X-66916Y133644D01*
X-66847Y133588D01*
X-66780Y133529D01*
X-66715Y133468D01*
X-66654Y133403D01*
X-66595Y133336D01*
X-66539Y133267D01*
X-66486Y133195D01*
X-66436Y133120D01*
X-66390Y133044D01*
X-66347Y132966D01*
X-66308Y132886D01*
X-66272Y132804D01*
X-66239Y132721D01*
X-66211Y132636D01*
X-66186Y132551D01*
X-66164Y132464D01*
X-66147Y132376D01*
X-66134Y132288D01*
X-66124Y132199D01*
X-66118Y132110D01*
X-66116Y132021D01*
X-66116Y129974D01*
X-66116Y132430D02*
X-62842Y134067D01*
X-68571Y137238D02*
X-70208Y139285D01*
X-62842Y139285D01*
X-62842Y141331D02*
X-62842Y137238D01*
D11*
X-55563Y152400D02*
X-42863Y152400D01*
X-55563Y152400D02*
X-61913Y158750D01*
X-61913Y171450D01*
X-55563Y177800D01*
X-61913Y158750D02*
X-68263Y152400D01*
X-80963Y152400D01*
X-87313Y158750D01*
X-87313Y171450D01*
X-80963Y177800D01*
X-68263Y177800D01*
X-61913Y171450D01*
X-36513Y171450D02*
X-36513Y158750D01*
X-42863Y152400D01*
X-36513Y171450D02*
X-42863Y177800D01*
X-55563Y177800D01*
X-87313Y158750D02*
X-93663Y152400D01*
X-106363Y152400D01*
X-112713Y158750D01*
X-112713Y171450D01*
X-106363Y177800D01*
X-93663Y177800D01*
X-87313Y171450D01*
M02*
