G04 EAGLE Gerber RS-274X export*
G75*
%MOMM*%
%FSLAX34Y34*%
%LPD*%
%INSilkscreen Bottom*%
%IPPOS*%
%AMOC8*
5,1,8,0,0,1.08239X$1,22.5*%
G01*
%ADD10C,0.101600*%
%ADD11C,0.152400*%
%ADD12C,0.254000*%
%ADD13C,0.076200*%
%ADD14C,0.406400*%
%ADD15C,0.050800*%
%ADD16C,0.150000*%

G36*
X-40130Y114531D02*
X-40130Y114531D01*
X-40128Y114530D01*
X-40085Y114550D01*
X-40041Y114569D01*
X-40041Y114571D01*
X-40039Y114572D01*
X-40006Y114657D01*
X-40006Y118467D01*
X-40007Y118469D01*
X-40006Y118471D01*
X-40026Y118514D01*
X-40044Y118557D01*
X-40046Y118558D01*
X-40047Y118560D01*
X-40132Y118593D01*
X-42672Y118593D01*
X-42674Y118592D01*
X-42676Y118593D01*
X-42719Y118573D01*
X-42763Y118554D01*
X-42763Y118552D01*
X-42765Y118551D01*
X-42798Y118467D01*
X-42798Y114657D01*
X-42797Y114655D01*
X-42798Y114652D01*
X-42778Y114609D01*
X-42760Y114566D01*
X-42758Y114565D01*
X-42757Y114563D01*
X-42672Y114530D01*
X-40132Y114530D01*
X-40130Y114531D01*
G37*
G36*
X42674Y99528D02*
X42674Y99528D01*
X42676Y99527D01*
X42719Y99547D01*
X42763Y99566D01*
X42763Y99568D01*
X42765Y99569D01*
X42798Y99654D01*
X42798Y103464D01*
X42797Y103466D01*
X42798Y103468D01*
X42778Y103511D01*
X42760Y103554D01*
X42758Y103555D01*
X42757Y103557D01*
X42672Y103590D01*
X40132Y103590D01*
X40130Y103589D01*
X40128Y103590D01*
X40085Y103570D01*
X40041Y103551D01*
X40041Y103549D01*
X40039Y103548D01*
X40006Y103464D01*
X40006Y99654D01*
X40007Y99652D01*
X40006Y99649D01*
X40026Y99606D01*
X40044Y99563D01*
X40046Y99562D01*
X40047Y99560D01*
X40132Y99527D01*
X42672Y99527D01*
X42674Y99528D01*
G37*
G36*
X-5595Y76265D02*
X-5595Y76265D01*
X-5593Y76264D01*
X-5550Y76284D01*
X-5506Y76303D01*
X-5506Y76305D01*
X-5504Y76306D01*
X-5471Y76391D01*
X-5471Y78931D01*
X-5472Y78933D01*
X-5471Y78935D01*
X-5491Y78978D01*
X-5509Y79021D01*
X-5511Y79022D01*
X-5512Y79024D01*
X-5597Y79057D01*
X-9407Y79057D01*
X-9409Y79056D01*
X-9411Y79057D01*
X-9454Y79037D01*
X-9498Y79018D01*
X-9498Y79016D01*
X-9500Y79015D01*
X-9533Y78931D01*
X-9533Y76391D01*
X-9532Y76389D01*
X-9533Y76386D01*
X-9513Y76343D01*
X-9495Y76300D01*
X-9493Y76299D01*
X-9492Y76297D01*
X-9407Y76264D01*
X-5597Y76264D01*
X-5595Y76265D01*
G37*
D10*
X-60655Y16347D02*
X-62231Y17492D01*
X-66046Y12240D01*
X-62895Y9951D01*
X-62813Y9894D01*
X-62730Y9840D01*
X-62644Y9790D01*
X-62556Y9742D01*
X-62467Y9699D01*
X-62376Y9658D01*
X-62284Y9622D01*
X-62190Y9588D01*
X-62095Y9559D01*
X-61999Y9533D01*
X-61902Y9510D01*
X-61805Y9492D01*
X-61706Y9477D01*
X-61607Y9466D01*
X-61508Y9459D01*
X-61409Y9455D01*
X-61309Y9456D01*
X-61210Y9460D01*
X-61111Y9468D01*
X-61012Y9480D01*
X-60914Y9495D01*
X-60816Y9515D01*
X-60720Y9538D01*
X-60624Y9564D01*
X-60529Y9595D01*
X-60436Y9629D01*
X-60343Y9666D01*
X-60253Y9707D01*
X-60164Y9752D01*
X-60077Y9799D01*
X-59991Y9851D01*
X-59908Y9905D01*
X-59827Y9963D01*
X-59748Y10023D01*
X-59672Y10087D01*
X-59598Y10153D01*
X-59526Y10222D01*
X-59458Y10294D01*
X-59392Y10369D01*
X-59329Y10446D01*
X-59269Y10525D01*
X-55453Y15777D01*
X-55454Y15777D02*
X-55397Y15859D01*
X-55343Y15942D01*
X-55293Y16028D01*
X-55245Y16116D01*
X-55202Y16205D01*
X-55161Y16296D01*
X-55125Y16388D01*
X-55091Y16482D01*
X-55062Y16577D01*
X-55036Y16673D01*
X-55013Y16770D01*
X-54995Y16867D01*
X-54980Y16966D01*
X-54969Y17065D01*
X-54962Y17164D01*
X-54958Y17263D01*
X-54959Y17363D01*
X-54963Y17462D01*
X-54971Y17561D01*
X-54983Y17660D01*
X-54998Y17758D01*
X-55018Y17856D01*
X-55041Y17952D01*
X-55067Y18048D01*
X-55098Y18143D01*
X-55132Y18236D01*
X-55169Y18329D01*
X-55210Y18419D01*
X-55255Y18508D01*
X-55302Y18595D01*
X-55354Y18681D01*
X-55408Y18764D01*
X-55466Y18845D01*
X-55526Y18924D01*
X-55590Y19000D01*
X-55656Y19074D01*
X-55725Y19146D01*
X-55797Y19214D01*
X-55872Y19280D01*
X-55949Y19343D01*
X-56028Y19403D01*
X-59178Y21693D01*
X-63791Y25044D02*
X-70658Y15591D01*
X-75910Y19406D02*
X-63791Y25044D01*
X-69042Y28859D02*
X-75910Y19406D01*
X-80522Y22757D02*
X-73654Y32210D01*
X-76280Y34117D01*
X-76279Y34118D02*
X-76372Y34183D01*
X-76467Y34245D01*
X-76564Y34303D01*
X-76663Y34358D01*
X-76764Y34409D01*
X-76867Y34457D01*
X-76971Y34502D01*
X-77077Y34542D01*
X-77184Y34579D01*
X-77292Y34612D01*
X-77402Y34642D01*
X-77512Y34667D01*
X-77623Y34689D01*
X-77735Y34706D01*
X-77848Y34720D01*
X-77961Y34730D01*
X-78074Y34736D01*
X-78187Y34738D01*
X-78300Y34736D01*
X-78413Y34730D01*
X-78526Y34720D01*
X-78639Y34706D01*
X-78751Y34689D01*
X-78862Y34667D01*
X-78972Y34642D01*
X-79082Y34612D01*
X-79190Y34579D01*
X-79297Y34542D01*
X-79403Y34502D01*
X-79507Y34457D01*
X-79610Y34409D01*
X-79711Y34358D01*
X-79810Y34303D01*
X-79907Y34245D01*
X-80002Y34183D01*
X-80095Y34118D01*
X-80185Y34050D01*
X-80274Y33979D01*
X-80359Y33904D01*
X-80442Y33827D01*
X-80522Y33747D01*
X-80599Y33664D01*
X-80674Y33578D01*
X-80745Y33490D01*
X-80813Y33400D01*
X-80813Y33399D02*
X-83865Y29198D01*
X-83866Y29199D02*
X-83931Y29106D01*
X-83993Y29011D01*
X-84051Y28914D01*
X-84106Y28815D01*
X-84157Y28714D01*
X-84205Y28611D01*
X-84250Y28507D01*
X-84290Y28401D01*
X-84327Y28294D01*
X-84360Y28186D01*
X-84390Y28076D01*
X-84415Y27966D01*
X-84437Y27855D01*
X-84454Y27743D01*
X-84468Y27630D01*
X-84478Y27517D01*
X-84484Y27404D01*
X-84486Y27291D01*
X-84484Y27178D01*
X-84478Y27065D01*
X-84468Y26952D01*
X-84454Y26839D01*
X-84437Y26727D01*
X-84415Y26616D01*
X-84390Y26506D01*
X-84360Y26396D01*
X-84327Y26288D01*
X-84290Y26181D01*
X-84250Y26075D01*
X-84205Y25971D01*
X-84157Y25868D01*
X-84106Y25767D01*
X-84051Y25668D01*
X-83993Y25571D01*
X-83931Y25476D01*
X-83866Y25383D01*
X-83798Y25293D01*
X-83727Y25205D01*
X-83652Y25119D01*
X-83575Y25036D01*
X-83495Y24956D01*
X-83412Y24879D01*
X-83326Y24804D01*
X-83238Y24733D01*
X-83148Y24665D01*
X-83147Y24665D02*
X-80522Y22757D01*
X76706Y29596D02*
X78282Y30741D01*
X76706Y29596D02*
X80522Y24345D01*
X83673Y26634D01*
X83672Y26634D02*
X83751Y26694D01*
X83828Y26757D01*
X83903Y26823D01*
X83975Y26891D01*
X84044Y26963D01*
X84110Y27037D01*
X84174Y27113D01*
X84234Y27192D01*
X84292Y27273D01*
X84346Y27356D01*
X84398Y27442D01*
X84445Y27529D01*
X84490Y27618D01*
X84531Y27708D01*
X84568Y27801D01*
X84602Y27894D01*
X84633Y27989D01*
X84659Y28085D01*
X84682Y28181D01*
X84702Y28279D01*
X84717Y28377D01*
X84729Y28476D01*
X84737Y28575D01*
X84741Y28674D01*
X84742Y28774D01*
X84738Y28873D01*
X84731Y28972D01*
X84720Y29071D01*
X84705Y29170D01*
X84687Y29267D01*
X84664Y29364D01*
X84638Y29460D01*
X84609Y29555D01*
X84575Y29649D01*
X84539Y29741D01*
X84498Y29832D01*
X84455Y29921D01*
X84407Y30009D01*
X84357Y30095D01*
X84303Y30178D01*
X84246Y30260D01*
X84247Y30261D02*
X80432Y35512D01*
X80372Y35592D01*
X80309Y35669D01*
X80243Y35743D01*
X80174Y35815D01*
X80103Y35885D01*
X80029Y35951D01*
X79952Y36015D01*
X79874Y36075D01*
X79792Y36133D01*
X79709Y36187D01*
X79624Y36238D01*
X79537Y36286D01*
X79448Y36331D01*
X79357Y36372D01*
X79265Y36409D01*
X79171Y36443D01*
X79077Y36474D01*
X78981Y36500D01*
X78884Y36523D01*
X78786Y36543D01*
X78688Y36558D01*
X78589Y36570D01*
X78490Y36578D01*
X78391Y36582D01*
X78291Y36583D01*
X78192Y36579D01*
X78093Y36572D01*
X77994Y36561D01*
X77895Y36546D01*
X77798Y36528D01*
X77701Y36505D01*
X77605Y36479D01*
X77510Y36450D01*
X77416Y36416D01*
X77323Y36380D01*
X77233Y36339D01*
X77143Y36295D01*
X77056Y36248D01*
X76970Y36198D01*
X76886Y36144D01*
X76805Y36087D01*
X73654Y33797D01*
X69042Y30446D02*
X75910Y20994D01*
X70658Y17178D02*
X69042Y30446D01*
X63791Y26631D02*
X70658Y17178D01*
X66046Y13827D02*
X59179Y23280D01*
X56553Y21372D01*
X56553Y21373D02*
X56463Y21305D01*
X56375Y21234D01*
X56289Y21159D01*
X56206Y21082D01*
X56126Y21002D01*
X56049Y20919D01*
X55974Y20834D01*
X55903Y20745D01*
X55835Y20655D01*
X55770Y20562D01*
X55708Y20467D01*
X55650Y20370D01*
X55595Y20271D01*
X55544Y20170D01*
X55496Y20067D01*
X55451Y19963D01*
X55411Y19857D01*
X55374Y19750D01*
X55341Y19642D01*
X55311Y19532D01*
X55286Y19422D01*
X55264Y19311D01*
X55247Y19199D01*
X55233Y19086D01*
X55223Y18973D01*
X55217Y18860D01*
X55215Y18747D01*
X55217Y18634D01*
X55223Y18521D01*
X55233Y18408D01*
X55247Y18295D01*
X55264Y18183D01*
X55286Y18072D01*
X55311Y17962D01*
X55341Y17852D01*
X55374Y17744D01*
X55411Y17637D01*
X55451Y17531D01*
X55496Y17427D01*
X55544Y17324D01*
X55595Y17223D01*
X55650Y17124D01*
X55708Y17027D01*
X55770Y16932D01*
X55835Y16839D01*
X58887Y12638D01*
X58887Y12637D02*
X58955Y12547D01*
X59026Y12459D01*
X59101Y12373D01*
X59178Y12290D01*
X59258Y12210D01*
X59341Y12133D01*
X59427Y12058D01*
X59515Y11987D01*
X59605Y11919D01*
X59698Y11854D01*
X59793Y11792D01*
X59890Y11734D01*
X59989Y11679D01*
X60090Y11628D01*
X60193Y11580D01*
X60297Y11535D01*
X60403Y11495D01*
X60510Y11458D01*
X60618Y11425D01*
X60728Y11395D01*
X60838Y11370D01*
X60949Y11348D01*
X61061Y11331D01*
X61174Y11317D01*
X61287Y11307D01*
X61400Y11301D01*
X61513Y11299D01*
X61626Y11301D01*
X61739Y11307D01*
X61852Y11317D01*
X61965Y11331D01*
X62077Y11348D01*
X62188Y11370D01*
X62298Y11395D01*
X62408Y11425D01*
X62516Y11458D01*
X62623Y11495D01*
X62729Y11535D01*
X62833Y11580D01*
X62936Y11628D01*
X63037Y11679D01*
X63136Y11734D01*
X63233Y11792D01*
X63328Y11854D01*
X63421Y11919D01*
X63421Y11920D02*
X66046Y13827D01*
X10894Y238774D02*
X8946Y238774D01*
X8946Y232283D01*
X12841Y232283D01*
X12940Y232285D01*
X13040Y232291D01*
X13139Y232300D01*
X13237Y232313D01*
X13335Y232330D01*
X13433Y232351D01*
X13529Y232376D01*
X13624Y232404D01*
X13718Y232436D01*
X13811Y232471D01*
X13903Y232510D01*
X13993Y232553D01*
X14081Y232598D01*
X14168Y232648D01*
X14252Y232700D01*
X14335Y232756D01*
X14415Y232814D01*
X14493Y232876D01*
X14568Y232941D01*
X14641Y233009D01*
X14711Y233079D01*
X14779Y233152D01*
X14844Y233227D01*
X14906Y233305D01*
X14964Y233385D01*
X15020Y233468D01*
X15072Y233552D01*
X15122Y233639D01*
X15167Y233727D01*
X15210Y233817D01*
X15249Y233909D01*
X15284Y234002D01*
X15316Y234096D01*
X15344Y234191D01*
X15369Y234287D01*
X15390Y234385D01*
X15407Y234483D01*
X15420Y234581D01*
X15429Y234680D01*
X15435Y234780D01*
X15437Y234879D01*
X15438Y234879D02*
X15438Y241371D01*
X15437Y241371D02*
X15435Y241470D01*
X15429Y241570D01*
X15420Y241669D01*
X15407Y241767D01*
X15390Y241865D01*
X15369Y241963D01*
X15344Y242059D01*
X15316Y242154D01*
X15284Y242248D01*
X15249Y242341D01*
X15210Y242433D01*
X15167Y242523D01*
X15122Y242611D01*
X15072Y242698D01*
X15020Y242782D01*
X14964Y242865D01*
X14906Y242945D01*
X14844Y243023D01*
X14779Y243098D01*
X14711Y243171D01*
X14641Y243241D01*
X14568Y243309D01*
X14493Y243374D01*
X14415Y243436D01*
X14335Y243494D01*
X14252Y243550D01*
X14168Y243602D01*
X14081Y243652D01*
X13993Y243697D01*
X13903Y243740D01*
X13811Y243779D01*
X13718Y243814D01*
X13624Y243846D01*
X13529Y243874D01*
X13433Y243899D01*
X13335Y243920D01*
X13237Y243937D01*
X13139Y243950D01*
X13040Y243959D01*
X12940Y243965D01*
X12841Y243967D01*
X8946Y243967D01*
X3246Y243967D02*
X3246Y232283D01*
X-3246Y232283D02*
X3246Y243967D01*
X-3246Y243967D02*
X-3246Y232283D01*
X-8946Y232283D02*
X-8946Y243967D01*
X-12192Y243967D01*
X-12305Y243965D01*
X-12418Y243959D01*
X-12531Y243949D01*
X-12644Y243935D01*
X-12756Y243918D01*
X-12867Y243896D01*
X-12977Y243871D01*
X-13087Y243841D01*
X-13195Y243808D01*
X-13302Y243771D01*
X-13408Y243731D01*
X-13512Y243686D01*
X-13615Y243638D01*
X-13716Y243587D01*
X-13815Y243532D01*
X-13912Y243474D01*
X-14007Y243412D01*
X-14100Y243347D01*
X-14190Y243279D01*
X-14278Y243208D01*
X-14364Y243133D01*
X-14447Y243056D01*
X-14527Y242976D01*
X-14604Y242893D01*
X-14679Y242807D01*
X-14750Y242719D01*
X-14818Y242629D01*
X-14883Y242536D01*
X-14945Y242441D01*
X-15003Y242344D01*
X-15058Y242245D01*
X-15109Y242144D01*
X-15157Y242041D01*
X-15202Y241937D01*
X-15242Y241831D01*
X-15279Y241724D01*
X-15312Y241616D01*
X-15342Y241506D01*
X-15367Y241396D01*
X-15389Y241285D01*
X-15406Y241173D01*
X-15420Y241060D01*
X-15430Y240947D01*
X-15436Y240834D01*
X-15438Y240721D01*
X-15438Y235529D01*
X-15436Y235416D01*
X-15430Y235303D01*
X-15420Y235190D01*
X-15406Y235077D01*
X-15389Y234965D01*
X-15367Y234854D01*
X-15342Y234744D01*
X-15312Y234634D01*
X-15279Y234526D01*
X-15242Y234419D01*
X-15202Y234313D01*
X-15157Y234209D01*
X-15109Y234106D01*
X-15058Y234005D01*
X-15003Y233906D01*
X-14945Y233809D01*
X-14883Y233714D01*
X-14818Y233621D01*
X-14750Y233531D01*
X-14679Y233443D01*
X-14604Y233357D01*
X-14527Y233274D01*
X-14447Y233194D01*
X-14364Y233117D01*
X-14278Y233042D01*
X-14190Y232971D01*
X-14100Y232903D01*
X-14007Y232838D01*
X-13912Y232776D01*
X-13815Y232718D01*
X-13716Y232663D01*
X-13615Y232612D01*
X-13512Y232564D01*
X-13408Y232519D01*
X-13302Y232479D01*
X-13195Y232442D01*
X-13087Y232409D01*
X-12977Y232379D01*
X-12867Y232354D01*
X-12756Y232332D01*
X-12644Y232315D01*
X-12531Y232301D01*
X-12418Y232291D01*
X-12305Y232285D01*
X-12192Y232283D01*
X-8946Y232283D01*
X-116314Y153436D02*
X-116915Y151584D01*
X-110742Y149578D01*
X-109538Y153282D01*
X-109539Y153283D02*
X-109510Y153378D01*
X-109485Y153474D01*
X-109463Y153571D01*
X-109446Y153669D01*
X-109431Y153768D01*
X-109421Y153866D01*
X-109415Y153966D01*
X-109412Y154065D01*
X-109413Y154165D01*
X-109418Y154264D01*
X-109427Y154363D01*
X-109439Y154462D01*
X-109456Y154560D01*
X-109476Y154657D01*
X-109500Y154754D01*
X-109527Y154849D01*
X-109558Y154944D01*
X-109593Y155037D01*
X-109631Y155129D01*
X-109673Y155219D01*
X-109718Y155308D01*
X-109766Y155394D01*
X-109818Y155479D01*
X-109873Y155562D01*
X-109931Y155643D01*
X-109993Y155721D01*
X-110057Y155797D01*
X-110124Y155871D01*
X-110194Y155942D01*
X-110266Y156010D01*
X-110341Y156075D01*
X-110418Y156137D01*
X-110498Y156197D01*
X-110580Y156253D01*
X-110664Y156306D01*
X-110750Y156356D01*
X-110838Y156403D01*
X-110928Y156446D01*
X-111019Y156485D01*
X-111112Y156521D01*
X-111206Y156554D01*
X-111205Y156554D02*
X-117379Y158560D01*
X-117379Y158559D02*
X-117474Y158588D01*
X-117570Y158613D01*
X-117667Y158635D01*
X-117765Y158652D01*
X-117864Y158667D01*
X-117962Y158677D01*
X-118062Y158683D01*
X-118161Y158686D01*
X-118261Y158685D01*
X-118360Y158680D01*
X-118459Y158671D01*
X-118558Y158659D01*
X-118656Y158642D01*
X-118753Y158622D01*
X-118850Y158598D01*
X-118945Y158571D01*
X-119040Y158540D01*
X-119133Y158505D01*
X-119225Y158467D01*
X-119315Y158425D01*
X-119404Y158380D01*
X-119490Y158332D01*
X-119575Y158280D01*
X-119658Y158225D01*
X-119739Y158167D01*
X-119817Y158105D01*
X-119893Y158041D01*
X-119967Y157974D01*
X-120038Y157904D01*
X-120106Y157832D01*
X-120171Y157757D01*
X-120233Y157680D01*
X-120293Y157600D01*
X-120349Y157518D01*
X-120402Y157434D01*
X-120452Y157348D01*
X-120499Y157260D01*
X-120542Y157170D01*
X-120581Y157079D01*
X-120617Y156986D01*
X-120650Y156892D01*
X-120651Y156893D02*
X-121854Y153189D01*
X-123616Y147767D02*
X-112504Y144156D01*
X-114509Y137983D02*
X-123616Y147767D01*
X-125622Y141594D02*
X-114509Y137983D01*
X-116271Y132561D02*
X-127383Y136172D01*
X-128386Y133085D01*
X-128387Y133085D02*
X-128420Y132977D01*
X-128450Y132867D01*
X-128475Y132757D01*
X-128497Y132646D01*
X-128514Y132534D01*
X-128528Y132421D01*
X-128538Y132308D01*
X-128544Y132195D01*
X-128546Y132082D01*
X-128544Y131969D01*
X-128538Y131856D01*
X-128528Y131743D01*
X-128514Y131630D01*
X-128497Y131518D01*
X-128475Y131407D01*
X-128450Y131297D01*
X-128420Y131187D01*
X-128387Y131079D01*
X-128350Y130972D01*
X-128310Y130866D01*
X-128265Y130762D01*
X-128217Y130659D01*
X-128166Y130558D01*
X-128111Y130459D01*
X-128053Y130362D01*
X-127991Y130267D01*
X-127926Y130174D01*
X-127858Y130084D01*
X-127787Y129996D01*
X-127712Y129910D01*
X-127635Y129827D01*
X-127555Y129747D01*
X-127472Y129670D01*
X-127386Y129595D01*
X-127298Y129524D01*
X-127208Y129456D01*
X-127115Y129391D01*
X-127020Y129329D01*
X-126923Y129271D01*
X-126824Y129216D01*
X-126723Y129165D01*
X-126620Y129117D01*
X-126516Y129072D01*
X-126410Y129032D01*
X-126303Y128995D01*
X-126302Y128995D02*
X-121364Y127391D01*
X-121364Y127390D02*
X-121256Y127357D01*
X-121146Y127327D01*
X-121036Y127302D01*
X-120925Y127280D01*
X-120813Y127263D01*
X-120700Y127249D01*
X-120587Y127239D01*
X-120474Y127233D01*
X-120361Y127231D01*
X-120248Y127233D01*
X-120135Y127239D01*
X-120022Y127249D01*
X-119909Y127263D01*
X-119797Y127280D01*
X-119686Y127302D01*
X-119576Y127327D01*
X-119466Y127357D01*
X-119358Y127390D01*
X-119251Y127427D01*
X-119145Y127467D01*
X-119041Y127512D01*
X-118938Y127560D01*
X-118837Y127611D01*
X-118738Y127666D01*
X-118641Y127724D01*
X-118546Y127786D01*
X-118453Y127851D01*
X-118363Y127919D01*
X-118274Y127990D01*
X-118189Y128065D01*
X-118106Y128142D01*
X-118026Y128222D01*
X-117949Y128305D01*
X-117874Y128391D01*
X-117803Y128479D01*
X-117735Y128569D01*
X-117670Y128662D01*
X-117608Y128757D01*
X-117550Y128854D01*
X-117495Y128953D01*
X-117443Y129054D01*
X-117396Y129157D01*
X-117351Y129261D01*
X-117311Y129367D01*
X-117274Y129474D01*
X-116271Y132561D01*
X120857Y139330D02*
X121459Y137477D01*
X120857Y139330D02*
X114684Y137324D01*
X115887Y133620D01*
X115888Y133620D02*
X115921Y133526D01*
X115957Y133433D01*
X115996Y133342D01*
X116039Y133252D01*
X116086Y133164D01*
X116136Y133078D01*
X116189Y132994D01*
X116245Y132912D01*
X116305Y132832D01*
X116367Y132755D01*
X116432Y132680D01*
X116500Y132608D01*
X116571Y132538D01*
X116645Y132471D01*
X116721Y132407D01*
X116799Y132345D01*
X116880Y132287D01*
X116963Y132232D01*
X117048Y132180D01*
X117134Y132132D01*
X117223Y132087D01*
X117313Y132045D01*
X117405Y132007D01*
X117498Y131972D01*
X117593Y131941D01*
X117688Y131914D01*
X117785Y131890D01*
X117882Y131870D01*
X117980Y131853D01*
X118079Y131841D01*
X118178Y131832D01*
X118277Y131827D01*
X118377Y131826D01*
X118476Y131829D01*
X118576Y131835D01*
X118674Y131845D01*
X118773Y131860D01*
X118871Y131877D01*
X118968Y131899D01*
X119064Y131924D01*
X119159Y131953D01*
X125332Y133958D01*
X125332Y133959D02*
X125426Y133992D01*
X125519Y134028D01*
X125610Y134067D01*
X125700Y134110D01*
X125788Y134157D01*
X125874Y134207D01*
X125958Y134260D01*
X126040Y134316D01*
X126120Y134376D01*
X126197Y134438D01*
X126272Y134503D01*
X126344Y134571D01*
X126414Y134642D01*
X126481Y134716D01*
X126545Y134792D01*
X126607Y134870D01*
X126665Y134951D01*
X126720Y135034D01*
X126772Y135119D01*
X126820Y135205D01*
X126865Y135294D01*
X126907Y135384D01*
X126945Y135476D01*
X126980Y135569D01*
X127011Y135664D01*
X127038Y135759D01*
X127062Y135856D01*
X127082Y135953D01*
X127099Y136051D01*
X127111Y136150D01*
X127120Y136249D01*
X127125Y136348D01*
X127126Y136448D01*
X127123Y136547D01*
X127117Y136647D01*
X127107Y136745D01*
X127092Y136844D01*
X127075Y136942D01*
X127053Y137039D01*
X127028Y137135D01*
X126999Y137230D01*
X125796Y140934D01*
X124034Y146356D02*
X112922Y142745D01*
X110916Y148919D02*
X124034Y146356D01*
X122028Y152529D02*
X110916Y148919D01*
X109154Y154341D02*
X120267Y157951D01*
X119264Y161038D01*
X119227Y161145D01*
X119187Y161251D01*
X119142Y161355D01*
X119094Y161458D01*
X119043Y161559D01*
X118988Y161658D01*
X118930Y161755D01*
X118868Y161850D01*
X118803Y161943D01*
X118735Y162033D01*
X118664Y162121D01*
X118589Y162207D01*
X118512Y162290D01*
X118432Y162370D01*
X118349Y162447D01*
X118263Y162522D01*
X118175Y162593D01*
X118085Y162661D01*
X117992Y162726D01*
X117897Y162788D01*
X117800Y162846D01*
X117701Y162901D01*
X117600Y162952D01*
X117497Y163000D01*
X117393Y163045D01*
X117287Y163085D01*
X117180Y163122D01*
X117072Y163155D01*
X116962Y163185D01*
X116852Y163210D01*
X116741Y163232D01*
X116629Y163249D01*
X116516Y163263D01*
X116403Y163273D01*
X116290Y163279D01*
X116177Y163281D01*
X116064Y163279D01*
X115951Y163273D01*
X115838Y163263D01*
X115725Y163249D01*
X115613Y163232D01*
X115502Y163210D01*
X115392Y163185D01*
X115282Y163155D01*
X115174Y163122D01*
X110235Y161517D01*
X110128Y161480D01*
X110022Y161440D01*
X109918Y161395D01*
X109815Y161347D01*
X109714Y161296D01*
X109615Y161241D01*
X109518Y161183D01*
X109423Y161121D01*
X109330Y161056D01*
X109240Y160988D01*
X109152Y160917D01*
X109066Y160842D01*
X108983Y160765D01*
X108903Y160685D01*
X108826Y160602D01*
X108751Y160516D01*
X108680Y160428D01*
X108612Y160338D01*
X108547Y160245D01*
X108485Y160150D01*
X108427Y160053D01*
X108372Y159954D01*
X108321Y159853D01*
X108273Y159750D01*
X108228Y159646D01*
X108188Y159540D01*
X108151Y159433D01*
X108118Y159325D01*
X108088Y159215D01*
X108063Y159105D01*
X108041Y158994D01*
X108024Y158882D01*
X108010Y158769D01*
X108000Y158656D01*
X107994Y158543D01*
X107992Y158430D01*
X107994Y158317D01*
X108000Y158204D01*
X108010Y158091D01*
X108024Y157978D01*
X108041Y157866D01*
X108063Y157755D01*
X108088Y157645D01*
X108118Y157535D01*
X108151Y157427D01*
X108152Y157427D02*
X109154Y154341D01*
D11*
X58554Y199613D02*
X48103Y185229D01*
X58554Y199613D02*
X54558Y202516D01*
X54558Y202517D02*
X54444Y202597D01*
X54327Y202675D01*
X54209Y202749D01*
X54088Y202819D01*
X53965Y202886D01*
X53841Y202950D01*
X53715Y203010D01*
X53587Y203066D01*
X53458Y203119D01*
X53327Y203168D01*
X53195Y203214D01*
X53061Y203256D01*
X52927Y203294D01*
X52791Y203328D01*
X52655Y203358D01*
X52517Y203384D01*
X52379Y203407D01*
X52241Y203425D01*
X52102Y203440D01*
X51962Y203450D01*
X51823Y203457D01*
X51683Y203460D01*
X51543Y203459D01*
X51404Y203454D01*
X51264Y203444D01*
X51125Y203431D01*
X50986Y203414D01*
X50848Y203394D01*
X50710Y203369D01*
X50574Y203340D01*
X50438Y203308D01*
X50303Y203271D01*
X50169Y203231D01*
X50036Y203187D01*
X49905Y203139D01*
X49775Y203088D01*
X49646Y203033D01*
X49519Y202974D01*
X49394Y202912D01*
X49271Y202846D01*
X49149Y202777D01*
X49030Y202705D01*
X48912Y202629D01*
X48797Y202549D01*
X48684Y202467D01*
X48574Y202381D01*
X48466Y202292D01*
X48361Y202201D01*
X48258Y202106D01*
X48158Y202008D01*
X48060Y201908D01*
X47966Y201805D01*
X47875Y201699D01*
X47786Y201591D01*
X47701Y201480D01*
X47619Y201367D01*
X47540Y201252D01*
X47464Y201134D01*
X47392Y201015D01*
X47323Y200893D01*
X47257Y200769D01*
X47196Y200644D01*
X47137Y200517D01*
X47083Y200388D01*
X47032Y200258D01*
X46984Y200127D01*
X46941Y199994D01*
X46901Y199860D01*
X46865Y199725D01*
X46833Y199589D01*
X46805Y199452D01*
X46780Y199314D01*
X46760Y199176D01*
X46743Y199037D01*
X46730Y198898D01*
X46722Y198759D01*
X46717Y198619D01*
X46716Y198479D01*
X46719Y198339D01*
X46726Y198200D01*
X46738Y198060D01*
X46753Y197921D01*
X46771Y197783D01*
X46794Y197645D01*
X46821Y197508D01*
X46852Y197371D01*
X46886Y197236D01*
X46924Y197101D01*
X46966Y196968D01*
X47012Y196836D01*
X47062Y196705D01*
X47115Y196576D01*
X47172Y196448D01*
X47232Y196322D01*
X47296Y196198D01*
X47364Y196076D01*
X47435Y195955D01*
X47509Y195837D01*
X47587Y195721D01*
X47668Y195607D01*
X47752Y195495D01*
X47839Y195386D01*
X47929Y195279D01*
X48022Y195175D01*
X48118Y195073D01*
X48217Y194975D01*
X48319Y194879D01*
X48424Y194786D01*
X48531Y194696D01*
X48640Y194609D01*
X48752Y194525D01*
X52748Y191622D01*
X43291Y205818D02*
X41618Y211918D01*
X31167Y197534D01*
X35163Y194631D02*
X27171Y200437D01*
X11349Y37465D02*
X11349Y19685D01*
X11349Y37465D02*
X6410Y37465D01*
X6270Y37463D01*
X6131Y37457D01*
X5991Y37447D01*
X5852Y37433D01*
X5713Y37416D01*
X5575Y37394D01*
X5438Y37368D01*
X5301Y37339D01*
X5165Y37306D01*
X5031Y37269D01*
X4897Y37228D01*
X4765Y37183D01*
X4633Y37134D01*
X4504Y37082D01*
X4376Y37027D01*
X4249Y36967D01*
X4124Y36904D01*
X4001Y36838D01*
X3880Y36768D01*
X3761Y36695D01*
X3644Y36618D01*
X3530Y36538D01*
X3417Y36455D01*
X3307Y36369D01*
X3200Y36279D01*
X3095Y36187D01*
X2993Y36092D01*
X2893Y35994D01*
X2796Y35893D01*
X2702Y35789D01*
X2612Y35683D01*
X2524Y35574D01*
X2439Y35463D01*
X2358Y35349D01*
X2279Y35234D01*
X2204Y35116D01*
X2133Y34995D01*
X2065Y34873D01*
X2000Y34750D01*
X1939Y34624D01*
X1881Y34496D01*
X1827Y34368D01*
X1777Y34237D01*
X1730Y34105D01*
X1687Y33972D01*
X1648Y33838D01*
X1613Y33703D01*
X1582Y33567D01*
X1554Y33429D01*
X1531Y33292D01*
X1511Y33153D01*
X1495Y33014D01*
X1483Y32875D01*
X1475Y32736D01*
X1471Y32596D01*
X1471Y32456D01*
X1475Y32316D01*
X1483Y32177D01*
X1495Y32038D01*
X1511Y31899D01*
X1531Y31760D01*
X1554Y31623D01*
X1582Y31485D01*
X1613Y31349D01*
X1648Y31214D01*
X1687Y31080D01*
X1730Y30947D01*
X1777Y30815D01*
X1827Y30684D01*
X1881Y30556D01*
X1939Y30428D01*
X2000Y30302D01*
X2065Y30179D01*
X2133Y30056D01*
X2204Y29936D01*
X2279Y29818D01*
X2358Y29703D01*
X2439Y29589D01*
X2524Y29478D01*
X2612Y29369D01*
X2702Y29263D01*
X2796Y29159D01*
X2893Y29058D01*
X2993Y28960D01*
X3095Y28865D01*
X3200Y28773D01*
X3307Y28683D01*
X3417Y28597D01*
X3530Y28514D01*
X3644Y28434D01*
X3761Y28357D01*
X3880Y28284D01*
X4001Y28214D01*
X4124Y28148D01*
X4249Y28085D01*
X4376Y28025D01*
X4504Y27970D01*
X4633Y27918D01*
X4765Y27869D01*
X4897Y27824D01*
X5031Y27783D01*
X5165Y27746D01*
X5301Y27713D01*
X5438Y27684D01*
X5575Y27658D01*
X5713Y27636D01*
X5852Y27619D01*
X5991Y27605D01*
X6131Y27595D01*
X6270Y27589D01*
X6410Y27587D01*
X11349Y27587D01*
X-4646Y19685D02*
X-9585Y19685D01*
X-9725Y19687D01*
X-9864Y19693D01*
X-10004Y19703D01*
X-10143Y19717D01*
X-10282Y19734D01*
X-10420Y19756D01*
X-10557Y19782D01*
X-10694Y19811D01*
X-10830Y19844D01*
X-10964Y19881D01*
X-11098Y19922D01*
X-11230Y19967D01*
X-11362Y20016D01*
X-11491Y20068D01*
X-11619Y20123D01*
X-11746Y20183D01*
X-11871Y20246D01*
X-11994Y20312D01*
X-12115Y20382D01*
X-12234Y20455D01*
X-12351Y20532D01*
X-12465Y20612D01*
X-12578Y20695D01*
X-12688Y20781D01*
X-12795Y20871D01*
X-12900Y20963D01*
X-13002Y21058D01*
X-13102Y21156D01*
X-13199Y21257D01*
X-13293Y21361D01*
X-13383Y21467D01*
X-13471Y21576D01*
X-13556Y21687D01*
X-13637Y21801D01*
X-13716Y21916D01*
X-13791Y22034D01*
X-13862Y22154D01*
X-13930Y22277D01*
X-13995Y22400D01*
X-14056Y22526D01*
X-14114Y22654D01*
X-14168Y22782D01*
X-14218Y22913D01*
X-14265Y23045D01*
X-14308Y23178D01*
X-14347Y23312D01*
X-14382Y23447D01*
X-14413Y23583D01*
X-14441Y23721D01*
X-14464Y23858D01*
X-14484Y23997D01*
X-14500Y24136D01*
X-14512Y24275D01*
X-14520Y24414D01*
X-14524Y24554D01*
X-14524Y24694D01*
X-14520Y24834D01*
X-14512Y24973D01*
X-14500Y25112D01*
X-14484Y25251D01*
X-14464Y25390D01*
X-14441Y25527D01*
X-14413Y25665D01*
X-14382Y25801D01*
X-14347Y25936D01*
X-14308Y26070D01*
X-14265Y26203D01*
X-14218Y26335D01*
X-14168Y26466D01*
X-14114Y26594D01*
X-14056Y26722D01*
X-13995Y26848D01*
X-13930Y26971D01*
X-13862Y27093D01*
X-13791Y27214D01*
X-13716Y27332D01*
X-13637Y27447D01*
X-13556Y27561D01*
X-13471Y27672D01*
X-13383Y27781D01*
X-13293Y27887D01*
X-13199Y27991D01*
X-13102Y28092D01*
X-13002Y28190D01*
X-12900Y28285D01*
X-12795Y28377D01*
X-12688Y28467D01*
X-12578Y28553D01*
X-12465Y28636D01*
X-12351Y28716D01*
X-12234Y28793D01*
X-12115Y28866D01*
X-11994Y28936D01*
X-11871Y29002D01*
X-11746Y29065D01*
X-11619Y29125D01*
X-11491Y29180D01*
X-11362Y29232D01*
X-11230Y29281D01*
X-11098Y29326D01*
X-10964Y29367D01*
X-10830Y29404D01*
X-10694Y29437D01*
X-10557Y29466D01*
X-10420Y29492D01*
X-10282Y29514D01*
X-10143Y29531D01*
X-10004Y29545D01*
X-9864Y29555D01*
X-9725Y29561D01*
X-9585Y29563D01*
X-10573Y37465D02*
X-4646Y37465D01*
X-10573Y37465D02*
X-10697Y37463D01*
X-10821Y37457D01*
X-10945Y37447D01*
X-11068Y37434D01*
X-11191Y37416D01*
X-11313Y37395D01*
X-11435Y37370D01*
X-11556Y37341D01*
X-11675Y37308D01*
X-11794Y37272D01*
X-11911Y37231D01*
X-12027Y37188D01*
X-12142Y37140D01*
X-12255Y37089D01*
X-12367Y37034D01*
X-12476Y36976D01*
X-12584Y36915D01*
X-12690Y36850D01*
X-12794Y36782D01*
X-12895Y36710D01*
X-12995Y36636D01*
X-13091Y36558D01*
X-13186Y36478D01*
X-13278Y36394D01*
X-13367Y36308D01*
X-13453Y36219D01*
X-13537Y36127D01*
X-13617Y36032D01*
X-13695Y35936D01*
X-13769Y35836D01*
X-13841Y35735D01*
X-13909Y35631D01*
X-13974Y35525D01*
X-14035Y35417D01*
X-14093Y35308D01*
X-14148Y35196D01*
X-14199Y35083D01*
X-14247Y34968D01*
X-14290Y34852D01*
X-14331Y34735D01*
X-14367Y34616D01*
X-14400Y34497D01*
X-14429Y34376D01*
X-14454Y34254D01*
X-14475Y34132D01*
X-14493Y34009D01*
X-14506Y33886D01*
X-14516Y33762D01*
X-14522Y33638D01*
X-14524Y33514D01*
X-14522Y33390D01*
X-14516Y33266D01*
X-14506Y33142D01*
X-14493Y33019D01*
X-14475Y32896D01*
X-14454Y32774D01*
X-14429Y32652D01*
X-14400Y32531D01*
X-14367Y32412D01*
X-14331Y32293D01*
X-14290Y32176D01*
X-14247Y32060D01*
X-14199Y31945D01*
X-14148Y31832D01*
X-14093Y31720D01*
X-14035Y31611D01*
X-13974Y31503D01*
X-13909Y31397D01*
X-13841Y31293D01*
X-13769Y31192D01*
X-13695Y31092D01*
X-13617Y30996D01*
X-13537Y30901D01*
X-13453Y30809D01*
X-13367Y30720D01*
X-13278Y30634D01*
X-13186Y30550D01*
X-13091Y30470D01*
X-12995Y30392D01*
X-12895Y30318D01*
X-12794Y30246D01*
X-12690Y30178D01*
X-12584Y30113D01*
X-12476Y30052D01*
X-12367Y29994D01*
X-12255Y29939D01*
X-12142Y29888D01*
X-12027Y29840D01*
X-11911Y29797D01*
X-11794Y29756D01*
X-11675Y29720D01*
X-11556Y29687D01*
X-11435Y29658D01*
X-11313Y29633D01*
X-11191Y29612D01*
X-11068Y29594D01*
X-10945Y29581D01*
X-10821Y29571D01*
X-10697Y29565D01*
X-10573Y29563D01*
X-6622Y29563D01*
X-76448Y85694D02*
X-93357Y80200D01*
X-76448Y85694D02*
X-77974Y90391D01*
X-78019Y90524D01*
X-78068Y90655D01*
X-78120Y90784D01*
X-78176Y90912D01*
X-78236Y91039D01*
X-78299Y91163D01*
X-78366Y91286D01*
X-78436Y91407D01*
X-78510Y91526D01*
X-78587Y91642D01*
X-78667Y91757D01*
X-78751Y91869D01*
X-78837Y91979D01*
X-78927Y92086D01*
X-79019Y92191D01*
X-79115Y92293D01*
X-79213Y92392D01*
X-79315Y92488D01*
X-79418Y92582D01*
X-79525Y92672D01*
X-79634Y92760D01*
X-79745Y92844D01*
X-79859Y92925D01*
X-79975Y93003D01*
X-80093Y93078D01*
X-80214Y93149D01*
X-80336Y93217D01*
X-80460Y93281D01*
X-80586Y93342D01*
X-80713Y93399D01*
X-80842Y93453D01*
X-80973Y93503D01*
X-81105Y93549D01*
X-81238Y93592D01*
X-81372Y93630D01*
X-81508Y93665D01*
X-81644Y93696D01*
X-81781Y93723D01*
X-81919Y93746D01*
X-82058Y93766D01*
X-82196Y93781D01*
X-82336Y93793D01*
X-82475Y93800D01*
X-82615Y93804D01*
X-82755Y93803D01*
X-82895Y93799D01*
X-83034Y93791D01*
X-83173Y93778D01*
X-83312Y93762D01*
X-83451Y93742D01*
X-83588Y93718D01*
X-83725Y93690D01*
X-83861Y93658D01*
X-83997Y93623D01*
X-84131Y93583D01*
X-84264Y93540D01*
X-84395Y93493D01*
X-84526Y93443D01*
X-84654Y93388D01*
X-84782Y93330D01*
X-84907Y93269D01*
X-85031Y93204D01*
X-85153Y93135D01*
X-85272Y93063D01*
X-85390Y92988D01*
X-85506Y92909D01*
X-85619Y92828D01*
X-85730Y92743D01*
X-85839Y92654D01*
X-85945Y92563D01*
X-86048Y92469D01*
X-86149Y92372D01*
X-86246Y92272D01*
X-86341Y92170D01*
X-86433Y92065D01*
X-86522Y91957D01*
X-86608Y91847D01*
X-86691Y91734D01*
X-86771Y91619D01*
X-86847Y91502D01*
X-86920Y91383D01*
X-86990Y91262D01*
X-87056Y91138D01*
X-87118Y91013D01*
X-87177Y90887D01*
X-87233Y90758D01*
X-87284Y90628D01*
X-87333Y90497D01*
X-87377Y90365D01*
X-87417Y90231D01*
X-87454Y90096D01*
X-87487Y89960D01*
X-87516Y89823D01*
X-87541Y89686D01*
X-87563Y89548D01*
X-87580Y89409D01*
X-87593Y89270D01*
X-87603Y89130D01*
X-87608Y88991D01*
X-87610Y88851D01*
X-87608Y88711D01*
X-87601Y88572D01*
X-87591Y88432D01*
X-87577Y88293D01*
X-87559Y88155D01*
X-87537Y88017D01*
X-87511Y87879D01*
X-87481Y87743D01*
X-87447Y87607D01*
X-87410Y87472D01*
X-87368Y87339D01*
X-85842Y82641D01*
X-94542Y96633D02*
X-82611Y104664D01*
X-94542Y96633D02*
X-97595Y106027D01*
X-100437Y101988D02*
X-92921Y104430D01*
X-38284Y192499D02*
X-48735Y206883D01*
X-52730Y203980D01*
X-52730Y203981D02*
X-52842Y203897D01*
X-52951Y203810D01*
X-53058Y203720D01*
X-53163Y203627D01*
X-53265Y203531D01*
X-53364Y203433D01*
X-53460Y203331D01*
X-53553Y203227D01*
X-53643Y203120D01*
X-53730Y203011D01*
X-53814Y202899D01*
X-53895Y202785D01*
X-53973Y202669D01*
X-54047Y202551D01*
X-54118Y202430D01*
X-54186Y202308D01*
X-54250Y202184D01*
X-54310Y202058D01*
X-54367Y201930D01*
X-54420Y201801D01*
X-54470Y201670D01*
X-54516Y201538D01*
X-54558Y201405D01*
X-54596Y201270D01*
X-54630Y201135D01*
X-54661Y200998D01*
X-54688Y200861D01*
X-54711Y200723D01*
X-54729Y200585D01*
X-54744Y200446D01*
X-54756Y200306D01*
X-54763Y200167D01*
X-54766Y200027D01*
X-54765Y199887D01*
X-54760Y199747D01*
X-54752Y199608D01*
X-54739Y199469D01*
X-54722Y199330D01*
X-54702Y199192D01*
X-54677Y199054D01*
X-54649Y198917D01*
X-54617Y198781D01*
X-54581Y198646D01*
X-54541Y198512D01*
X-54498Y198379D01*
X-54450Y198248D01*
X-54399Y198118D01*
X-54345Y197989D01*
X-54286Y197862D01*
X-54225Y197737D01*
X-54159Y197613D01*
X-54090Y197491D01*
X-54018Y197372D01*
X-53942Y197254D01*
X-53863Y197139D01*
X-53781Y197026D01*
X-53696Y196915D01*
X-53607Y196807D01*
X-53516Y196701D01*
X-53422Y196598D01*
X-53324Y196498D01*
X-53224Y196400D01*
X-53121Y196305D01*
X-53016Y196214D01*
X-52908Y196125D01*
X-52798Y196039D01*
X-52685Y195957D01*
X-52570Y195877D01*
X-52452Y195801D01*
X-52333Y195729D01*
X-52211Y195660D01*
X-52088Y195594D01*
X-51963Y195532D01*
X-51836Y195473D01*
X-51707Y195418D01*
X-51577Y195367D01*
X-51446Y195319D01*
X-51313Y195275D01*
X-51179Y195235D01*
X-51044Y195198D01*
X-50908Y195166D01*
X-50772Y195137D01*
X-50634Y195112D01*
X-50496Y195092D01*
X-50357Y195075D01*
X-50218Y195062D01*
X-50079Y195052D01*
X-49939Y195047D01*
X-49799Y195046D01*
X-49659Y195049D01*
X-49520Y195056D01*
X-49380Y195066D01*
X-49241Y195081D01*
X-49103Y195099D01*
X-48965Y195122D01*
X-48827Y195148D01*
X-48691Y195178D01*
X-48555Y195212D01*
X-48421Y195250D01*
X-48287Y195292D01*
X-48155Y195338D01*
X-48024Y195387D01*
X-47895Y195440D01*
X-47767Y195496D01*
X-47641Y195556D01*
X-47517Y195620D01*
X-47394Y195687D01*
X-47273Y195757D01*
X-47155Y195831D01*
X-47038Y195909D01*
X-46924Y195989D01*
X-42929Y198892D01*
X-51224Y183097D02*
X-56019Y179614D01*
X-56120Y179542D01*
X-56224Y179474D01*
X-56330Y179409D01*
X-56438Y179348D01*
X-56547Y179290D01*
X-56659Y179235D01*
X-56772Y179184D01*
X-56887Y179136D01*
X-57003Y179093D01*
X-57120Y179052D01*
X-57239Y179016D01*
X-57358Y178983D01*
X-57479Y178954D01*
X-57601Y178929D01*
X-57723Y178908D01*
X-57846Y178890D01*
X-57969Y178877D01*
X-58093Y178867D01*
X-58217Y178861D01*
X-58341Y178859D01*
X-58465Y178861D01*
X-58589Y178867D01*
X-58713Y178877D01*
X-58836Y178890D01*
X-58959Y178908D01*
X-59081Y178929D01*
X-59203Y178954D01*
X-59324Y178983D01*
X-59443Y179016D01*
X-59562Y179052D01*
X-59679Y179093D01*
X-59795Y179136D01*
X-59910Y179184D01*
X-60023Y179235D01*
X-60135Y179290D01*
X-60244Y179348D01*
X-60352Y179409D01*
X-60458Y179474D01*
X-60562Y179542D01*
X-60663Y179614D01*
X-60763Y179688D01*
X-60859Y179766D01*
X-60954Y179846D01*
X-61046Y179930D01*
X-61135Y180016D01*
X-61221Y180105D01*
X-61305Y180197D01*
X-61385Y180292D01*
X-61463Y180388D01*
X-61537Y180488D01*
X-61538Y180488D02*
X-62699Y182086D01*
X-62699Y182087D02*
X-62771Y182188D01*
X-62839Y182292D01*
X-62904Y182398D01*
X-62965Y182506D01*
X-63023Y182615D01*
X-63078Y182727D01*
X-63129Y182840D01*
X-63177Y182955D01*
X-63220Y183071D01*
X-63261Y183188D01*
X-63297Y183307D01*
X-63330Y183426D01*
X-63359Y183547D01*
X-63384Y183669D01*
X-63405Y183791D01*
X-63423Y183914D01*
X-63436Y184037D01*
X-63446Y184161D01*
X-63452Y184285D01*
X-63454Y184409D01*
X-63452Y184533D01*
X-63446Y184657D01*
X-63436Y184781D01*
X-63423Y184904D01*
X-63405Y185027D01*
X-63384Y185149D01*
X-63359Y185271D01*
X-63330Y185392D01*
X-63297Y185511D01*
X-63261Y185630D01*
X-63220Y185747D01*
X-63177Y185863D01*
X-63129Y185978D01*
X-63078Y186091D01*
X-63023Y186203D01*
X-62965Y186312D01*
X-62904Y186420D01*
X-62839Y186526D01*
X-62771Y186630D01*
X-62699Y186731D01*
X-62625Y186831D01*
X-62547Y186927D01*
X-62467Y187022D01*
X-62383Y187114D01*
X-62297Y187203D01*
X-62208Y187289D01*
X-62116Y187373D01*
X-62021Y187453D01*
X-61925Y187531D01*
X-61825Y187605D01*
X-57030Y191089D01*
X-61675Y197482D01*
X-69666Y191676D01*
X43541Y72390D02*
X43541Y54610D01*
X43541Y72390D02*
X38603Y72390D01*
X38463Y72388D01*
X38324Y72382D01*
X38184Y72372D01*
X38045Y72358D01*
X37906Y72341D01*
X37768Y72319D01*
X37631Y72293D01*
X37494Y72264D01*
X37358Y72231D01*
X37224Y72194D01*
X37090Y72153D01*
X36958Y72108D01*
X36826Y72059D01*
X36697Y72007D01*
X36569Y71952D01*
X36442Y71892D01*
X36317Y71829D01*
X36194Y71763D01*
X36073Y71693D01*
X35954Y71620D01*
X35837Y71543D01*
X35723Y71463D01*
X35610Y71380D01*
X35500Y71294D01*
X35393Y71204D01*
X35288Y71112D01*
X35186Y71017D01*
X35086Y70919D01*
X34989Y70818D01*
X34895Y70714D01*
X34805Y70608D01*
X34717Y70499D01*
X34632Y70388D01*
X34551Y70274D01*
X34472Y70159D01*
X34397Y70041D01*
X34326Y69920D01*
X34258Y69798D01*
X34193Y69675D01*
X34132Y69549D01*
X34074Y69421D01*
X34020Y69293D01*
X33970Y69162D01*
X33923Y69030D01*
X33880Y68897D01*
X33841Y68763D01*
X33806Y68628D01*
X33775Y68492D01*
X33747Y68354D01*
X33724Y68217D01*
X33704Y68078D01*
X33688Y67939D01*
X33676Y67800D01*
X33668Y67661D01*
X33664Y67521D01*
X33664Y67381D01*
X33668Y67241D01*
X33676Y67102D01*
X33688Y66963D01*
X33704Y66824D01*
X33724Y66685D01*
X33747Y66548D01*
X33775Y66410D01*
X33806Y66274D01*
X33841Y66139D01*
X33880Y66005D01*
X33923Y65872D01*
X33970Y65740D01*
X34020Y65609D01*
X34074Y65481D01*
X34132Y65353D01*
X34193Y65227D01*
X34258Y65104D01*
X34326Y64981D01*
X34397Y64861D01*
X34472Y64743D01*
X34551Y64628D01*
X34632Y64514D01*
X34717Y64403D01*
X34805Y64294D01*
X34895Y64188D01*
X34989Y64084D01*
X35086Y63983D01*
X35186Y63885D01*
X35288Y63790D01*
X35393Y63698D01*
X35500Y63608D01*
X35610Y63522D01*
X35723Y63439D01*
X35837Y63359D01*
X35954Y63282D01*
X36073Y63209D01*
X36194Y63139D01*
X36317Y63073D01*
X36442Y63010D01*
X36569Y62950D01*
X36697Y62895D01*
X36826Y62843D01*
X36958Y62794D01*
X37090Y62749D01*
X37224Y62708D01*
X37358Y62671D01*
X37494Y62638D01*
X37631Y62609D01*
X37768Y62583D01*
X37906Y62561D01*
X38045Y62544D01*
X38184Y62530D01*
X38324Y62520D01*
X38463Y62514D01*
X38603Y62512D01*
X43541Y62512D01*
X27546Y63500D02*
X27542Y63850D01*
X27529Y64199D01*
X27508Y64548D01*
X27479Y64897D01*
X27442Y65245D01*
X27396Y65592D01*
X27342Y65937D01*
X27280Y66281D01*
X27209Y66624D01*
X27130Y66965D01*
X27044Y67304D01*
X26949Y67640D01*
X26846Y67975D01*
X26735Y68306D01*
X26617Y68636D01*
X26490Y68962D01*
X26356Y69285D01*
X26214Y69604D01*
X26064Y69921D01*
X26065Y69920D02*
X26025Y70033D01*
X25981Y70143D01*
X25933Y70253D01*
X25882Y70360D01*
X25827Y70466D01*
X25769Y70571D01*
X25707Y70673D01*
X25642Y70773D01*
X25574Y70871D01*
X25503Y70967D01*
X25428Y71060D01*
X25351Y71151D01*
X25271Y71239D01*
X25188Y71324D01*
X25102Y71407D01*
X25013Y71487D01*
X24922Y71564D01*
X24828Y71638D01*
X24732Y71709D01*
X24634Y71777D01*
X24534Y71841D01*
X24431Y71903D01*
X24327Y71960D01*
X24221Y72015D01*
X24113Y72066D01*
X24003Y72113D01*
X23892Y72157D01*
X23780Y72197D01*
X23666Y72233D01*
X23552Y72266D01*
X23436Y72295D01*
X23319Y72320D01*
X23202Y72341D01*
X23084Y72359D01*
X22965Y72372D01*
X22846Y72382D01*
X22727Y72388D01*
X22608Y72390D01*
X22489Y72388D01*
X22370Y72382D01*
X22251Y72372D01*
X22132Y72359D01*
X22014Y72341D01*
X21897Y72320D01*
X21780Y72295D01*
X21664Y72266D01*
X21550Y72233D01*
X21436Y72197D01*
X21324Y72157D01*
X21213Y72113D01*
X21103Y72066D01*
X20995Y72015D01*
X20889Y71960D01*
X20785Y71903D01*
X20682Y71841D01*
X20582Y71777D01*
X20484Y71709D01*
X20388Y71638D01*
X20294Y71564D01*
X20203Y71487D01*
X20114Y71407D01*
X20029Y71324D01*
X19945Y71239D01*
X19865Y71151D01*
X19788Y71060D01*
X19713Y70967D01*
X19642Y70871D01*
X19574Y70773D01*
X19509Y70673D01*
X19447Y70571D01*
X19389Y70466D01*
X19334Y70361D01*
X19283Y70253D01*
X19235Y70143D01*
X19191Y70033D01*
X19151Y69920D01*
X19151Y69921D02*
X19001Y69604D01*
X18859Y69285D01*
X18725Y68962D01*
X18598Y68636D01*
X18480Y68306D01*
X18369Y67975D01*
X18266Y67640D01*
X18171Y67304D01*
X18085Y66965D01*
X18006Y66624D01*
X17935Y66281D01*
X17873Y65937D01*
X17819Y65592D01*
X17773Y65245D01*
X17736Y64897D01*
X17707Y64548D01*
X17686Y64199D01*
X17673Y63850D01*
X17669Y63500D01*
X27546Y63500D02*
X27542Y63150D01*
X27529Y62801D01*
X27508Y62452D01*
X27479Y62103D01*
X27442Y61755D01*
X27396Y61408D01*
X27342Y61063D01*
X27280Y60719D01*
X27209Y60376D01*
X27130Y60035D01*
X27044Y59696D01*
X26949Y59360D01*
X26846Y59025D01*
X26735Y58694D01*
X26617Y58365D01*
X26490Y58038D01*
X26356Y57715D01*
X26214Y57396D01*
X26064Y57080D01*
X26065Y57080D02*
X26025Y56967D01*
X25981Y56857D01*
X25933Y56747D01*
X25882Y56640D01*
X25827Y56534D01*
X25769Y56429D01*
X25707Y56327D01*
X25642Y56227D01*
X25574Y56129D01*
X25503Y56033D01*
X25428Y55940D01*
X25351Y55849D01*
X25271Y55761D01*
X25188Y55676D01*
X25102Y55593D01*
X25013Y55513D01*
X24922Y55436D01*
X24828Y55362D01*
X24732Y55291D01*
X24634Y55223D01*
X24534Y55159D01*
X24431Y55097D01*
X24327Y55040D01*
X24221Y54985D01*
X24113Y54934D01*
X24003Y54887D01*
X23892Y54843D01*
X23780Y54803D01*
X23666Y54767D01*
X23552Y54734D01*
X23436Y54705D01*
X23319Y54680D01*
X23202Y54659D01*
X23084Y54641D01*
X22965Y54628D01*
X22846Y54618D01*
X22727Y54612D01*
X22608Y54610D01*
X19151Y57080D02*
X19001Y57396D01*
X18859Y57715D01*
X18725Y58038D01*
X18598Y58365D01*
X18480Y58694D01*
X18369Y59025D01*
X18266Y59360D01*
X18171Y59696D01*
X18085Y60035D01*
X18006Y60376D01*
X17935Y60719D01*
X17873Y61063D01*
X17819Y61408D01*
X17773Y61755D01*
X17736Y62103D01*
X17707Y62452D01*
X17686Y62801D01*
X17673Y63150D01*
X17669Y63500D01*
X19151Y57080D02*
X19191Y56967D01*
X19235Y56857D01*
X19283Y56747D01*
X19334Y56639D01*
X19389Y56533D01*
X19447Y56429D01*
X19509Y56327D01*
X19574Y56227D01*
X19642Y56129D01*
X19713Y56033D01*
X19788Y55940D01*
X19865Y55849D01*
X19945Y55761D01*
X20029Y55676D01*
X20114Y55593D01*
X20203Y55513D01*
X20294Y55436D01*
X20388Y55362D01*
X20484Y55291D01*
X20582Y55223D01*
X20682Y55159D01*
X20785Y55097D01*
X20889Y55039D01*
X20995Y54985D01*
X21103Y54934D01*
X21213Y54887D01*
X21324Y54843D01*
X21436Y54803D01*
X21550Y54767D01*
X21664Y54734D01*
X21780Y54705D01*
X21897Y54680D01*
X22014Y54659D01*
X22132Y54641D01*
X22251Y54628D01*
X22370Y54618D01*
X22489Y54612D01*
X22608Y54610D01*
X26559Y58561D02*
X18656Y68439D01*
X10796Y68439D02*
X5857Y72390D01*
X5857Y54610D01*
X10796Y54610D02*
X918Y54610D01*
X-6598Y54610D02*
X-6598Y72390D01*
X-11537Y72390D01*
X-11677Y72388D01*
X-11816Y72382D01*
X-11956Y72372D01*
X-12095Y72358D01*
X-12234Y72341D01*
X-12372Y72319D01*
X-12509Y72293D01*
X-12646Y72264D01*
X-12782Y72231D01*
X-12916Y72194D01*
X-13050Y72153D01*
X-13182Y72108D01*
X-13314Y72059D01*
X-13443Y72007D01*
X-13571Y71952D01*
X-13698Y71892D01*
X-13823Y71829D01*
X-13946Y71763D01*
X-14067Y71693D01*
X-14186Y71620D01*
X-14303Y71543D01*
X-14417Y71463D01*
X-14530Y71380D01*
X-14640Y71294D01*
X-14747Y71204D01*
X-14852Y71112D01*
X-14954Y71017D01*
X-15054Y70919D01*
X-15151Y70818D01*
X-15245Y70714D01*
X-15335Y70608D01*
X-15423Y70499D01*
X-15508Y70388D01*
X-15589Y70274D01*
X-15668Y70159D01*
X-15743Y70041D01*
X-15814Y69920D01*
X-15882Y69798D01*
X-15947Y69675D01*
X-16008Y69549D01*
X-16066Y69421D01*
X-16120Y69293D01*
X-16170Y69162D01*
X-16217Y69030D01*
X-16260Y68897D01*
X-16299Y68763D01*
X-16334Y68628D01*
X-16365Y68492D01*
X-16393Y68354D01*
X-16416Y68217D01*
X-16436Y68078D01*
X-16452Y67939D01*
X-16464Y67800D01*
X-16472Y67661D01*
X-16476Y67521D01*
X-16476Y67381D01*
X-16472Y67241D01*
X-16464Y67102D01*
X-16452Y66963D01*
X-16436Y66824D01*
X-16416Y66685D01*
X-16393Y66548D01*
X-16365Y66410D01*
X-16334Y66274D01*
X-16299Y66139D01*
X-16260Y66005D01*
X-16217Y65872D01*
X-16170Y65740D01*
X-16120Y65609D01*
X-16066Y65481D01*
X-16008Y65353D01*
X-15947Y65227D01*
X-15882Y65104D01*
X-15814Y64981D01*
X-15743Y64861D01*
X-15668Y64743D01*
X-15589Y64628D01*
X-15508Y64514D01*
X-15423Y64403D01*
X-15335Y64294D01*
X-15245Y64188D01*
X-15151Y64084D01*
X-15054Y63983D01*
X-14954Y63885D01*
X-14852Y63790D01*
X-14747Y63698D01*
X-14640Y63608D01*
X-14530Y63522D01*
X-14417Y63439D01*
X-14303Y63359D01*
X-14186Y63282D01*
X-14067Y63209D01*
X-13946Y63139D01*
X-13823Y63073D01*
X-13698Y63010D01*
X-13571Y62950D01*
X-13443Y62895D01*
X-13314Y62843D01*
X-13182Y62794D01*
X-13050Y62749D01*
X-12916Y62708D01*
X-12782Y62671D01*
X-12646Y62638D01*
X-12509Y62609D01*
X-12372Y62583D01*
X-12234Y62561D01*
X-12095Y62544D01*
X-11956Y62530D01*
X-11816Y62520D01*
X-11677Y62514D01*
X-11537Y62512D01*
X-6598Y62512D01*
X-12525Y62512D02*
X-16476Y54610D01*
X-23263Y63500D02*
X-23267Y63850D01*
X-23280Y64199D01*
X-23301Y64548D01*
X-23330Y64897D01*
X-23367Y65245D01*
X-23413Y65592D01*
X-23467Y65937D01*
X-23529Y66281D01*
X-23600Y66624D01*
X-23679Y66965D01*
X-23765Y67304D01*
X-23860Y67640D01*
X-23963Y67975D01*
X-24074Y68306D01*
X-24192Y68636D01*
X-24319Y68962D01*
X-24453Y69285D01*
X-24595Y69604D01*
X-24745Y69921D01*
X-24745Y69920D02*
X-24785Y70033D01*
X-24829Y70143D01*
X-24877Y70253D01*
X-24928Y70361D01*
X-24983Y70466D01*
X-25041Y70571D01*
X-25103Y70673D01*
X-25168Y70773D01*
X-25236Y70871D01*
X-25307Y70967D01*
X-25382Y71060D01*
X-25459Y71151D01*
X-25539Y71239D01*
X-25623Y71324D01*
X-25708Y71407D01*
X-25797Y71487D01*
X-25888Y71564D01*
X-25982Y71638D01*
X-26078Y71709D01*
X-26176Y71777D01*
X-26276Y71841D01*
X-26379Y71903D01*
X-26483Y71960D01*
X-26589Y72015D01*
X-26697Y72066D01*
X-26807Y72113D01*
X-26918Y72157D01*
X-27030Y72197D01*
X-27144Y72233D01*
X-27258Y72266D01*
X-27374Y72295D01*
X-27491Y72320D01*
X-27608Y72341D01*
X-27726Y72359D01*
X-27845Y72372D01*
X-27964Y72382D01*
X-28083Y72388D01*
X-28202Y72390D01*
X-28321Y72388D01*
X-28440Y72382D01*
X-28559Y72372D01*
X-28678Y72359D01*
X-28796Y72341D01*
X-28913Y72320D01*
X-29030Y72295D01*
X-29146Y72266D01*
X-29260Y72233D01*
X-29374Y72197D01*
X-29486Y72157D01*
X-29597Y72113D01*
X-29707Y72066D01*
X-29815Y72015D01*
X-29921Y71960D01*
X-30025Y71903D01*
X-30128Y71841D01*
X-30228Y71777D01*
X-30326Y71709D01*
X-30422Y71638D01*
X-30516Y71564D01*
X-30607Y71487D01*
X-30696Y71407D01*
X-30782Y71324D01*
X-30865Y71239D01*
X-30945Y71151D01*
X-31022Y71060D01*
X-31097Y70967D01*
X-31168Y70871D01*
X-31236Y70773D01*
X-31301Y70673D01*
X-31363Y70571D01*
X-31421Y70466D01*
X-31476Y70360D01*
X-31527Y70253D01*
X-31575Y70143D01*
X-31619Y70033D01*
X-31659Y69920D01*
X-31659Y69921D02*
X-31809Y69604D01*
X-31951Y69285D01*
X-32085Y68962D01*
X-32212Y68636D01*
X-32330Y68306D01*
X-32441Y67975D01*
X-32544Y67640D01*
X-32639Y67304D01*
X-32725Y66965D01*
X-32804Y66624D01*
X-32875Y66281D01*
X-32937Y65937D01*
X-32991Y65592D01*
X-33037Y65245D01*
X-33074Y64897D01*
X-33103Y64548D01*
X-33124Y64199D01*
X-33137Y63850D01*
X-33141Y63500D01*
X-23263Y63500D02*
X-23267Y63150D01*
X-23280Y62801D01*
X-23301Y62452D01*
X-23330Y62103D01*
X-23367Y61755D01*
X-23413Y61408D01*
X-23467Y61063D01*
X-23529Y60719D01*
X-23600Y60376D01*
X-23679Y60035D01*
X-23765Y59696D01*
X-23860Y59360D01*
X-23963Y59025D01*
X-24074Y58694D01*
X-24192Y58365D01*
X-24319Y58038D01*
X-24453Y57715D01*
X-24595Y57396D01*
X-24745Y57080D01*
X-24785Y56967D01*
X-24829Y56857D01*
X-24877Y56747D01*
X-24928Y56639D01*
X-24983Y56533D01*
X-25041Y56429D01*
X-25103Y56327D01*
X-25168Y56227D01*
X-25236Y56129D01*
X-25307Y56033D01*
X-25382Y55940D01*
X-25459Y55849D01*
X-25539Y55761D01*
X-25623Y55676D01*
X-25708Y55593D01*
X-25797Y55513D01*
X-25888Y55436D01*
X-25982Y55362D01*
X-26078Y55291D01*
X-26176Y55223D01*
X-26276Y55159D01*
X-26379Y55097D01*
X-26483Y55039D01*
X-26589Y54985D01*
X-26697Y54934D01*
X-26807Y54887D01*
X-26918Y54843D01*
X-27030Y54803D01*
X-27144Y54767D01*
X-27258Y54734D01*
X-27374Y54705D01*
X-27491Y54680D01*
X-27608Y54659D01*
X-27726Y54641D01*
X-27845Y54628D01*
X-27964Y54618D01*
X-28083Y54612D01*
X-28202Y54610D01*
X-31659Y57080D02*
X-31809Y57396D01*
X-31951Y57715D01*
X-32085Y58038D01*
X-32212Y58365D01*
X-32330Y58694D01*
X-32441Y59025D01*
X-32544Y59360D01*
X-32639Y59696D01*
X-32725Y60035D01*
X-32804Y60376D01*
X-32875Y60719D01*
X-32937Y61063D01*
X-32991Y61408D01*
X-33037Y61755D01*
X-33074Y62103D01*
X-33103Y62452D01*
X-33124Y62801D01*
X-33137Y63150D01*
X-33141Y63500D01*
X-31659Y57080D02*
X-31619Y56967D01*
X-31575Y56857D01*
X-31527Y56747D01*
X-31476Y56640D01*
X-31421Y56534D01*
X-31363Y56429D01*
X-31301Y56327D01*
X-31236Y56227D01*
X-31168Y56129D01*
X-31097Y56033D01*
X-31022Y55940D01*
X-30945Y55849D01*
X-30865Y55761D01*
X-30782Y55676D01*
X-30696Y55593D01*
X-30607Y55513D01*
X-30516Y55436D01*
X-30422Y55362D01*
X-30326Y55291D01*
X-30228Y55223D01*
X-30128Y55159D01*
X-30025Y55097D01*
X-29921Y55040D01*
X-29815Y54985D01*
X-29707Y54934D01*
X-29597Y54887D01*
X-29486Y54843D01*
X-29374Y54803D01*
X-29260Y54767D01*
X-29146Y54734D01*
X-29030Y54705D01*
X-28913Y54680D01*
X-28796Y54659D01*
X-28678Y54641D01*
X-28559Y54628D01*
X-28440Y54618D01*
X-28321Y54612D01*
X-28202Y54610D01*
X-24251Y58561D02*
X-32153Y68439D01*
X-40014Y68439D02*
X-44953Y72390D01*
X-44953Y54610D01*
X-49891Y54610D02*
X-40014Y54610D01*
X111027Y128797D02*
X122456Y115177D01*
X111027Y128797D02*
X107243Y125622D01*
X107137Y125531D01*
X107034Y125437D01*
X106934Y125340D01*
X106836Y125240D01*
X106741Y125137D01*
X106650Y125032D01*
X106561Y124924D01*
X106475Y124813D01*
X106392Y124700D01*
X106313Y124585D01*
X106237Y124468D01*
X106164Y124349D01*
X106095Y124227D01*
X106029Y124104D01*
X105967Y123979D01*
X105908Y123852D01*
X105853Y123724D01*
X105801Y123594D01*
X105753Y123462D01*
X105709Y123330D01*
X105669Y123196D01*
X105633Y123061D01*
X105600Y122925D01*
X105571Y122788D01*
X105546Y122651D01*
X105525Y122513D01*
X105508Y122374D01*
X105495Y122235D01*
X105486Y122095D01*
X105480Y121955D01*
X105479Y121816D01*
X105482Y121676D01*
X105488Y121536D01*
X105499Y121397D01*
X105513Y121258D01*
X105532Y121119D01*
X105554Y120981D01*
X105580Y120844D01*
X105610Y120708D01*
X105644Y120572D01*
X105682Y120437D01*
X105724Y120304D01*
X105769Y120172D01*
X105818Y120041D01*
X105871Y119911D01*
X105927Y119783D01*
X105987Y119657D01*
X106051Y119533D01*
X106118Y119410D01*
X106188Y119289D01*
X106262Y119171D01*
X106339Y119054D01*
X106420Y118940D01*
X106503Y118828D01*
X106590Y118718D01*
X106680Y118611D01*
X106773Y118507D01*
X106868Y118405D01*
X106967Y118306D01*
X107068Y118209D01*
X107172Y118116D01*
X107279Y118026D01*
X107388Y117938D01*
X107500Y117854D01*
X107614Y117773D01*
X107730Y117696D01*
X107848Y117621D01*
X107969Y117550D01*
X108091Y117483D01*
X108215Y117418D01*
X108341Y117358D01*
X108469Y117301D01*
X108598Y117248D01*
X108729Y117198D01*
X108861Y117152D01*
X108994Y117110D01*
X109128Y117071D01*
X109264Y117037D01*
X109400Y117006D01*
X109537Y116979D01*
X109675Y116956D01*
X109814Y116937D01*
X109953Y116922D01*
X110092Y116911D01*
X110232Y116904D01*
X110371Y116900D01*
X110511Y116901D01*
X110651Y116905D01*
X110790Y116914D01*
X110930Y116927D01*
X111068Y116943D01*
X111207Y116963D01*
X111344Y116988D01*
X111481Y117016D01*
X111617Y117048D01*
X111752Y117084D01*
X111887Y117123D01*
X112019Y117167D01*
X112151Y117214D01*
X112281Y117265D01*
X112410Y117319D01*
X112537Y117378D01*
X112662Y117439D01*
X112786Y117505D01*
X112908Y117573D01*
X113027Y117646D01*
X113145Y117721D01*
X113260Y117800D01*
X113374Y117882D01*
X113484Y117967D01*
X113593Y118056D01*
X117376Y121230D01*
X94613Y115024D02*
X94513Y114938D01*
X94416Y114849D01*
X94322Y114757D01*
X94230Y114662D01*
X94141Y114565D01*
X94056Y114465D01*
X93973Y114362D01*
X93893Y114258D01*
X93816Y114150D01*
X93743Y114041D01*
X93673Y113930D01*
X93606Y113816D01*
X93543Y113701D01*
X93483Y113583D01*
X93426Y113464D01*
X93373Y113344D01*
X93324Y113221D01*
X93278Y113098D01*
X93236Y112973D01*
X93198Y112847D01*
X93163Y112720D01*
X93133Y112592D01*
X93106Y112463D01*
X93083Y112333D01*
X93064Y112203D01*
X93048Y112072D01*
X93037Y111941D01*
X93029Y111809D01*
X93025Y111678D01*
X93026Y111546D01*
X93030Y111414D01*
X93038Y111283D01*
X93050Y111151D01*
X93065Y111021D01*
X93085Y110890D01*
X93109Y110761D01*
X93136Y110632D01*
X93167Y110504D01*
X93202Y110377D01*
X93241Y110251D01*
X93283Y110126D01*
X93329Y110003D01*
X93379Y109881D01*
X93432Y109760D01*
X93489Y109642D01*
X93549Y109524D01*
X93613Y109409D01*
X93680Y109296D01*
X93751Y109185D01*
X93825Y109075D01*
X93902Y108969D01*
X93982Y108864D01*
X94065Y108762D01*
X94613Y115023D02*
X94728Y115118D01*
X94847Y115209D01*
X94967Y115298D01*
X95090Y115383D01*
X95215Y115465D01*
X95343Y115544D01*
X95472Y115619D01*
X95603Y115691D01*
X95736Y115760D01*
X95871Y115824D01*
X96007Y115886D01*
X96145Y115944D01*
X96285Y115998D01*
X96425Y116048D01*
X96568Y116095D01*
X96711Y116138D01*
X96855Y116178D01*
X97001Y116213D01*
X97147Y116245D01*
X97294Y116273D01*
X97441Y116297D01*
X97590Y116317D01*
X97738Y116333D01*
X97887Y116345D01*
X98037Y116354D01*
X98186Y116358D01*
X98336Y116359D01*
X98486Y116355D01*
X98635Y116348D01*
X98784Y116337D01*
X98933Y116322D01*
X99081Y116303D01*
X99229Y116280D01*
X99376Y116253D01*
X99523Y116223D01*
X99668Y116188D01*
X99813Y116150D01*
X99957Y116108D01*
X100099Y116062D01*
X100240Y116013D01*
X100380Y115960D01*
X100519Y115903D01*
X100655Y115843D01*
X100791Y115779D01*
X100924Y115711D01*
X101056Y115640D01*
X101186Y115566D01*
X101314Y115488D01*
X97422Y107064D02*
X97289Y107075D01*
X97156Y107089D01*
X97024Y107106D01*
X96892Y107128D01*
X96762Y107153D01*
X96631Y107181D01*
X96502Y107213D01*
X96374Y107249D01*
X96246Y107289D01*
X96120Y107332D01*
X95995Y107378D01*
X95871Y107428D01*
X95749Y107482D01*
X95629Y107538D01*
X95510Y107598D01*
X95392Y107662D01*
X95277Y107729D01*
X95163Y107798D01*
X95052Y107871D01*
X94942Y107947D01*
X94835Y108027D01*
X94730Y108109D01*
X94627Y108194D01*
X94527Y108281D01*
X94429Y108372D01*
X94334Y108465D01*
X94241Y108561D01*
X94151Y108660D01*
X94064Y108761D01*
X97422Y107065D02*
X110203Y104895D01*
X102636Y98546D01*
X88716Y95892D02*
X84906Y100432D01*
X88716Y95892D02*
X88924Y90264D01*
X88716Y95892D02*
X94221Y94709D01*
X88716Y95892D02*
X83284Y93913D01*
X88716Y95892D02*
X91607Y100897D01*
D12*
X90361Y142875D02*
X96711Y142875D01*
D13*
X99242Y135372D02*
X99242Y128006D01*
X99242Y135372D02*
X97196Y135372D01*
X97107Y135370D01*
X97018Y135364D01*
X96929Y135354D01*
X96841Y135341D01*
X96753Y135324D01*
X96666Y135302D01*
X96581Y135277D01*
X96496Y135249D01*
X96413Y135216D01*
X96331Y135180D01*
X96251Y135141D01*
X96173Y135098D01*
X96097Y135052D01*
X96022Y135002D01*
X95950Y134949D01*
X95881Y134893D01*
X95814Y134834D01*
X95749Y134773D01*
X95688Y134708D01*
X95629Y134641D01*
X95573Y134572D01*
X95520Y134500D01*
X95470Y134425D01*
X95424Y134349D01*
X95381Y134271D01*
X95342Y134191D01*
X95306Y134109D01*
X95273Y134026D01*
X95245Y133941D01*
X95220Y133856D01*
X95198Y133769D01*
X95181Y133681D01*
X95168Y133593D01*
X95158Y133504D01*
X95152Y133415D01*
X95150Y133326D01*
X95152Y133237D01*
X95158Y133148D01*
X95168Y133059D01*
X95181Y132971D01*
X95198Y132883D01*
X95220Y132796D01*
X95245Y132711D01*
X95273Y132626D01*
X95306Y132543D01*
X95342Y132461D01*
X95381Y132381D01*
X95424Y132303D01*
X95470Y132227D01*
X95520Y132152D01*
X95573Y132080D01*
X95629Y132011D01*
X95688Y131944D01*
X95749Y131879D01*
X95814Y131818D01*
X95881Y131759D01*
X95950Y131703D01*
X96022Y131650D01*
X96097Y131600D01*
X96173Y131554D01*
X96251Y131511D01*
X96331Y131472D01*
X96413Y131436D01*
X96496Y131403D01*
X96581Y131375D01*
X96666Y131350D01*
X96753Y131328D01*
X96841Y131311D01*
X96929Y131298D01*
X97018Y131288D01*
X97107Y131282D01*
X97196Y131280D01*
X99242Y131280D01*
X96787Y131280D02*
X95150Y128006D01*
X87886Y133531D02*
X87888Y133616D01*
X87894Y133701D01*
X87904Y133785D01*
X87917Y133869D01*
X87935Y133953D01*
X87956Y134035D01*
X87981Y134116D01*
X88010Y134196D01*
X88043Y134275D01*
X88079Y134352D01*
X88119Y134427D01*
X88162Y134501D01*
X88208Y134572D01*
X88258Y134641D01*
X88311Y134708D01*
X88367Y134772D01*
X88426Y134833D01*
X88487Y134892D01*
X88551Y134948D01*
X88618Y135001D01*
X88687Y135051D01*
X88758Y135097D01*
X88832Y135140D01*
X88907Y135180D01*
X88984Y135216D01*
X89063Y135249D01*
X89143Y135278D01*
X89224Y135303D01*
X89306Y135324D01*
X89390Y135342D01*
X89474Y135355D01*
X89558Y135365D01*
X89643Y135371D01*
X89728Y135373D01*
X89824Y135371D01*
X89920Y135365D01*
X90015Y135355D01*
X90110Y135342D01*
X90205Y135324D01*
X90298Y135303D01*
X90391Y135278D01*
X90482Y135249D01*
X90573Y135217D01*
X90662Y135181D01*
X90749Y135141D01*
X90835Y135098D01*
X90919Y135052D01*
X91001Y135002D01*
X91081Y134948D01*
X91158Y134892D01*
X91233Y134832D01*
X91306Y134770D01*
X91376Y134704D01*
X91444Y134636D01*
X91509Y134565D01*
X91570Y134492D01*
X91629Y134416D01*
X91685Y134337D01*
X91737Y134257D01*
X91786Y134174D01*
X91832Y134090D01*
X91874Y134004D01*
X91912Y133916D01*
X91947Y133827D01*
X91979Y133736D01*
X88500Y132099D02*
X88440Y132158D01*
X88383Y132220D01*
X88328Y132284D01*
X88277Y132351D01*
X88228Y132420D01*
X88182Y132490D01*
X88139Y132563D01*
X88099Y132637D01*
X88063Y132713D01*
X88030Y132791D01*
X88000Y132870D01*
X87973Y132950D01*
X87950Y133031D01*
X87931Y133113D01*
X87915Y133195D01*
X87902Y133279D01*
X87893Y133363D01*
X87888Y133447D01*
X87886Y133531D01*
X88500Y132099D02*
X91978Y128006D01*
X87886Y128006D01*
D12*
X75248Y135255D02*
X75248Y99695D01*
X75248Y135255D02*
X54928Y135255D01*
X54928Y99695D01*
X75248Y99695D01*
D13*
X77622Y112140D02*
X84988Y117050D01*
X84988Y112140D02*
X77622Y117050D01*
X83351Y119864D02*
X84988Y121910D01*
X77622Y121910D01*
X77622Y119864D02*
X77622Y123956D01*
D11*
X36830Y82233D02*
X31850Y82233D01*
X-36830Y82233D02*
X-36830Y87213D01*
X-36830Y155893D02*
X-31850Y155893D01*
X36830Y155893D02*
X36830Y150913D01*
X36830Y87213D02*
X36830Y82233D01*
X-31850Y82233D02*
X-36830Y82233D01*
X-36830Y150913D02*
X-36830Y155893D01*
X31850Y155893D02*
X36830Y155893D01*
D14*
X30678Y152908D02*
X30680Y153004D01*
X30686Y153100D01*
X30696Y153196D01*
X30710Y153291D01*
X30727Y153386D01*
X30749Y153479D01*
X30774Y153572D01*
X30803Y153664D01*
X30836Y153754D01*
X30873Y153843D01*
X30913Y153930D01*
X30957Y154016D01*
X31004Y154100D01*
X31055Y154182D01*
X31108Y154261D01*
X31166Y154338D01*
X31226Y154413D01*
X31289Y154486D01*
X31355Y154556D01*
X31425Y154622D01*
X31496Y154687D01*
X31571Y154748D01*
X31647Y154806D01*
X31726Y154860D01*
X31808Y154912D01*
X31891Y154960D01*
X31976Y155004D01*
X32063Y155046D01*
X32152Y155083D01*
X32242Y155117D01*
X32333Y155147D01*
X32425Y155173D01*
X32519Y155196D01*
X32613Y155214D01*
X32708Y155229D01*
X32804Y155240D01*
X32900Y155247D01*
X32996Y155250D01*
X33092Y155249D01*
X33188Y155244D01*
X33284Y155235D01*
X33379Y155222D01*
X33474Y155206D01*
X33568Y155185D01*
X33661Y155161D01*
X33753Y155132D01*
X33844Y155100D01*
X33933Y155065D01*
X34021Y155025D01*
X34107Y154983D01*
X34191Y154936D01*
X34273Y154886D01*
X34353Y154833D01*
X34431Y154777D01*
X34507Y154717D01*
X34580Y154655D01*
X34650Y154589D01*
X34718Y154521D01*
X34783Y154450D01*
X34845Y154376D01*
X34903Y154300D01*
X34959Y154222D01*
X35011Y154141D01*
X35060Y154058D01*
X35106Y153973D01*
X35148Y153887D01*
X35186Y153799D01*
X35221Y153709D01*
X35252Y153618D01*
X35279Y153526D01*
X35303Y153432D01*
X35322Y153338D01*
X35338Y153243D01*
X35350Y153148D01*
X35358Y153052D01*
X35362Y152956D01*
X35362Y152860D01*
X35358Y152764D01*
X35350Y152668D01*
X35338Y152573D01*
X35322Y152478D01*
X35303Y152384D01*
X35279Y152290D01*
X35252Y152198D01*
X35221Y152107D01*
X35186Y152017D01*
X35148Y151929D01*
X35106Y151843D01*
X35060Y151758D01*
X35011Y151675D01*
X34959Y151594D01*
X34903Y151516D01*
X34845Y151440D01*
X34783Y151366D01*
X34718Y151295D01*
X34650Y151227D01*
X34580Y151161D01*
X34507Y151099D01*
X34431Y151039D01*
X34353Y150983D01*
X34273Y150930D01*
X34191Y150880D01*
X34107Y150833D01*
X34021Y150791D01*
X33933Y150751D01*
X33844Y150716D01*
X33753Y150684D01*
X33661Y150655D01*
X33568Y150631D01*
X33474Y150610D01*
X33379Y150594D01*
X33284Y150581D01*
X33188Y150572D01*
X33092Y150567D01*
X32996Y150566D01*
X32900Y150569D01*
X32804Y150576D01*
X32708Y150587D01*
X32613Y150602D01*
X32519Y150620D01*
X32425Y150643D01*
X32333Y150669D01*
X32242Y150699D01*
X32152Y150733D01*
X32063Y150770D01*
X31976Y150812D01*
X31891Y150856D01*
X31808Y150904D01*
X31726Y150956D01*
X31647Y151010D01*
X31571Y151068D01*
X31496Y151129D01*
X31425Y151194D01*
X31355Y151260D01*
X31289Y151330D01*
X31226Y151403D01*
X31166Y151478D01*
X31108Y151555D01*
X31055Y151634D01*
X31004Y151716D01*
X30957Y151800D01*
X30913Y151886D01*
X30873Y151973D01*
X30836Y152062D01*
X30803Y152152D01*
X30774Y152244D01*
X30749Y152337D01*
X30727Y152430D01*
X30710Y152525D01*
X30696Y152620D01*
X30686Y152716D01*
X30680Y152812D01*
X30678Y152908D01*
D15*
X26108Y161914D02*
X26108Y167418D01*
X26108Y161914D02*
X26106Y161823D01*
X26100Y161732D01*
X26090Y161641D01*
X26077Y161551D01*
X26059Y161462D01*
X26038Y161373D01*
X26013Y161286D01*
X25984Y161199D01*
X25951Y161114D01*
X25915Y161031D01*
X25875Y160949D01*
X25832Y160869D01*
X25785Y160790D01*
X25735Y160714D01*
X25682Y160640D01*
X25626Y160569D01*
X25566Y160500D01*
X25504Y160433D01*
X25439Y160370D01*
X25371Y160309D01*
X25301Y160251D01*
X25228Y160196D01*
X25153Y160144D01*
X25076Y160096D01*
X24996Y160051D01*
X24915Y160009D01*
X24833Y159971D01*
X24748Y159937D01*
X24662Y159906D01*
X24575Y159879D01*
X24487Y159856D01*
X24398Y159837D01*
X24309Y159821D01*
X24218Y159809D01*
X24128Y159801D01*
X24037Y159797D01*
X23945Y159797D01*
X23854Y159801D01*
X23764Y159809D01*
X23673Y159821D01*
X23584Y159837D01*
X23495Y159856D01*
X23407Y159879D01*
X23320Y159906D01*
X23234Y159937D01*
X23149Y159971D01*
X23067Y160009D01*
X22986Y160051D01*
X22906Y160096D01*
X22829Y160144D01*
X22754Y160196D01*
X22681Y160251D01*
X22611Y160309D01*
X22543Y160370D01*
X22478Y160433D01*
X22416Y160500D01*
X22356Y160569D01*
X22300Y160640D01*
X22247Y160714D01*
X22197Y160790D01*
X22150Y160869D01*
X22107Y160949D01*
X22067Y161031D01*
X22031Y161114D01*
X21998Y161199D01*
X21969Y161286D01*
X21944Y161373D01*
X21923Y161462D01*
X21905Y161551D01*
X21892Y161641D01*
X21882Y161732D01*
X21876Y161823D01*
X21874Y161914D01*
X21875Y161914D02*
X21875Y167418D01*
X18549Y165724D02*
X16432Y167418D01*
X16432Y159798D01*
X14316Y159798D02*
X18549Y159798D01*
D12*
X-64961Y144463D02*
X-71311Y144463D01*
D13*
X-84834Y147264D02*
X-84834Y139898D01*
X-84834Y147264D02*
X-86880Y147264D01*
X-86969Y147262D01*
X-87058Y147256D01*
X-87147Y147246D01*
X-87235Y147233D01*
X-87323Y147216D01*
X-87410Y147194D01*
X-87495Y147169D01*
X-87580Y147141D01*
X-87663Y147108D01*
X-87745Y147072D01*
X-87825Y147033D01*
X-87903Y146990D01*
X-87979Y146944D01*
X-88054Y146894D01*
X-88126Y146841D01*
X-88195Y146785D01*
X-88262Y146726D01*
X-88327Y146665D01*
X-88388Y146600D01*
X-88447Y146533D01*
X-88503Y146464D01*
X-88556Y146392D01*
X-88606Y146317D01*
X-88652Y146241D01*
X-88695Y146163D01*
X-88734Y146083D01*
X-88770Y146001D01*
X-88803Y145918D01*
X-88831Y145833D01*
X-88856Y145748D01*
X-88878Y145661D01*
X-88895Y145573D01*
X-88908Y145485D01*
X-88918Y145396D01*
X-88924Y145307D01*
X-88926Y145218D01*
X-88924Y145129D01*
X-88918Y145040D01*
X-88908Y144951D01*
X-88895Y144863D01*
X-88878Y144775D01*
X-88856Y144688D01*
X-88831Y144603D01*
X-88803Y144518D01*
X-88770Y144435D01*
X-88734Y144353D01*
X-88695Y144273D01*
X-88652Y144195D01*
X-88606Y144119D01*
X-88556Y144044D01*
X-88503Y143972D01*
X-88447Y143903D01*
X-88388Y143836D01*
X-88327Y143771D01*
X-88262Y143710D01*
X-88195Y143651D01*
X-88126Y143595D01*
X-88054Y143542D01*
X-87979Y143492D01*
X-87903Y143446D01*
X-87825Y143403D01*
X-87745Y143364D01*
X-87663Y143328D01*
X-87580Y143295D01*
X-87495Y143267D01*
X-87410Y143242D01*
X-87323Y143220D01*
X-87235Y143203D01*
X-87147Y143190D01*
X-87058Y143180D01*
X-86969Y143174D01*
X-86880Y143172D01*
X-84834Y143172D01*
X-87289Y143172D02*
X-88926Y139898D01*
X-92098Y139898D02*
X-94144Y139898D01*
X-94233Y139900D01*
X-94322Y139906D01*
X-94411Y139916D01*
X-94499Y139929D01*
X-94587Y139946D01*
X-94674Y139968D01*
X-94759Y139993D01*
X-94844Y140021D01*
X-94927Y140054D01*
X-95009Y140090D01*
X-95089Y140129D01*
X-95167Y140172D01*
X-95243Y140218D01*
X-95318Y140268D01*
X-95390Y140321D01*
X-95459Y140377D01*
X-95526Y140436D01*
X-95591Y140497D01*
X-95652Y140562D01*
X-95711Y140629D01*
X-95767Y140698D01*
X-95820Y140770D01*
X-95870Y140845D01*
X-95916Y140921D01*
X-95959Y140999D01*
X-95998Y141079D01*
X-96034Y141161D01*
X-96067Y141244D01*
X-96095Y141329D01*
X-96120Y141414D01*
X-96142Y141501D01*
X-96159Y141589D01*
X-96172Y141677D01*
X-96182Y141766D01*
X-96188Y141855D01*
X-96190Y141944D01*
X-96188Y142033D01*
X-96182Y142122D01*
X-96172Y142211D01*
X-96159Y142299D01*
X-96142Y142387D01*
X-96120Y142474D01*
X-96095Y142559D01*
X-96067Y142644D01*
X-96034Y142727D01*
X-95998Y142809D01*
X-95959Y142889D01*
X-95916Y142967D01*
X-95870Y143043D01*
X-95820Y143118D01*
X-95767Y143190D01*
X-95711Y143259D01*
X-95652Y143326D01*
X-95591Y143391D01*
X-95526Y143452D01*
X-95459Y143511D01*
X-95390Y143567D01*
X-95318Y143620D01*
X-95243Y143670D01*
X-95167Y143716D01*
X-95089Y143759D01*
X-95009Y143798D01*
X-94927Y143834D01*
X-94844Y143867D01*
X-94759Y143895D01*
X-94674Y143920D01*
X-94587Y143942D01*
X-94499Y143959D01*
X-94411Y143972D01*
X-94322Y143982D01*
X-94233Y143988D01*
X-94144Y143990D01*
X-94553Y147264D02*
X-92098Y147264D01*
X-94553Y147264D02*
X-94632Y147262D01*
X-94711Y147256D01*
X-94790Y147247D01*
X-94868Y147234D01*
X-94945Y147216D01*
X-95021Y147196D01*
X-95096Y147171D01*
X-95170Y147143D01*
X-95243Y147112D01*
X-95314Y147076D01*
X-95383Y147038D01*
X-95450Y146996D01*
X-95515Y146951D01*
X-95578Y146903D01*
X-95639Y146852D01*
X-95696Y146798D01*
X-95752Y146742D01*
X-95804Y146683D01*
X-95854Y146621D01*
X-95900Y146557D01*
X-95944Y146491D01*
X-95984Y146423D01*
X-96020Y146353D01*
X-96054Y146281D01*
X-96084Y146207D01*
X-96110Y146133D01*
X-96133Y146057D01*
X-96151Y145980D01*
X-96167Y145903D01*
X-96178Y145824D01*
X-96186Y145746D01*
X-96190Y145667D01*
X-96190Y145587D01*
X-96186Y145508D01*
X-96178Y145430D01*
X-96167Y145351D01*
X-96151Y145274D01*
X-96133Y145197D01*
X-96110Y145121D01*
X-96084Y145047D01*
X-96054Y144973D01*
X-96020Y144901D01*
X-95984Y144831D01*
X-95944Y144763D01*
X-95900Y144697D01*
X-95854Y144633D01*
X-95804Y144571D01*
X-95752Y144512D01*
X-95696Y144456D01*
X-95639Y144402D01*
X-95578Y144351D01*
X-95515Y144303D01*
X-95450Y144258D01*
X-95383Y144216D01*
X-95314Y144178D01*
X-95243Y144142D01*
X-95170Y144111D01*
X-95096Y144083D01*
X-95021Y144058D01*
X-94945Y144038D01*
X-94868Y144020D01*
X-94790Y144007D01*
X-94711Y143998D01*
X-94632Y143992D01*
X-94553Y143990D01*
X-92916Y143990D01*
D12*
X52261Y90488D02*
X58865Y90488D01*
D13*
X76932Y86368D02*
X78569Y86368D01*
X78647Y86370D01*
X78725Y86375D01*
X78802Y86385D01*
X78879Y86398D01*
X78955Y86414D01*
X79030Y86434D01*
X79104Y86458D01*
X79177Y86485D01*
X79249Y86516D01*
X79319Y86550D01*
X79388Y86587D01*
X79454Y86628D01*
X79519Y86672D01*
X79581Y86718D01*
X79641Y86768D01*
X79699Y86820D01*
X79754Y86875D01*
X79806Y86933D01*
X79856Y86993D01*
X79902Y87055D01*
X79946Y87120D01*
X79987Y87187D01*
X80024Y87255D01*
X80058Y87325D01*
X80089Y87397D01*
X80116Y87470D01*
X80140Y87544D01*
X80160Y87619D01*
X80176Y87695D01*
X80189Y87772D01*
X80199Y87849D01*
X80204Y87927D01*
X80206Y88005D01*
X80206Y92097D01*
X80204Y92175D01*
X80199Y92253D01*
X80189Y92330D01*
X80176Y92407D01*
X80160Y92483D01*
X80140Y92558D01*
X80116Y92632D01*
X80089Y92705D01*
X80058Y92777D01*
X80024Y92847D01*
X79987Y92916D01*
X79946Y92982D01*
X79902Y93047D01*
X79856Y93109D01*
X79806Y93169D01*
X79754Y93227D01*
X79699Y93282D01*
X79641Y93334D01*
X79581Y93384D01*
X79519Y93430D01*
X79454Y93474D01*
X79388Y93515D01*
X79319Y93552D01*
X79249Y93586D01*
X79177Y93617D01*
X79104Y93644D01*
X79030Y93668D01*
X78955Y93688D01*
X78879Y93704D01*
X78802Y93717D01*
X78725Y93727D01*
X78647Y93732D01*
X78569Y93734D01*
X76932Y93734D01*
X74087Y92097D02*
X72040Y93734D01*
X72040Y86368D01*
X69994Y86368D02*
X74087Y86368D01*
D12*
X90361Y166688D02*
X96965Y166688D01*
D13*
X96134Y183706D02*
X94497Y183706D01*
X96134Y183705D02*
X96212Y183707D01*
X96290Y183712D01*
X96367Y183722D01*
X96444Y183735D01*
X96520Y183751D01*
X96595Y183771D01*
X96669Y183795D01*
X96742Y183822D01*
X96814Y183853D01*
X96884Y183887D01*
X96953Y183924D01*
X97019Y183965D01*
X97084Y184009D01*
X97146Y184055D01*
X97206Y184105D01*
X97264Y184157D01*
X97319Y184212D01*
X97371Y184270D01*
X97421Y184330D01*
X97467Y184392D01*
X97511Y184457D01*
X97552Y184524D01*
X97589Y184592D01*
X97623Y184662D01*
X97654Y184734D01*
X97681Y184807D01*
X97705Y184881D01*
X97725Y184956D01*
X97741Y185032D01*
X97754Y185109D01*
X97764Y185186D01*
X97769Y185264D01*
X97771Y185342D01*
X97771Y189435D01*
X97769Y189513D01*
X97764Y189591D01*
X97754Y189668D01*
X97741Y189745D01*
X97725Y189821D01*
X97705Y189896D01*
X97681Y189970D01*
X97654Y190043D01*
X97623Y190115D01*
X97589Y190185D01*
X97552Y190254D01*
X97511Y190320D01*
X97467Y190385D01*
X97421Y190447D01*
X97371Y190507D01*
X97319Y190565D01*
X97264Y190620D01*
X97206Y190672D01*
X97146Y190722D01*
X97084Y190768D01*
X97019Y190812D01*
X96953Y190853D01*
X96884Y190890D01*
X96814Y190924D01*
X96742Y190955D01*
X96669Y190982D01*
X96595Y191006D01*
X96520Y191026D01*
X96444Y191042D01*
X96367Y191055D01*
X96290Y191065D01*
X96212Y191070D01*
X96134Y191072D01*
X94497Y191072D01*
X91652Y187798D02*
X89196Y187798D01*
X89116Y187796D01*
X89036Y187790D01*
X88956Y187780D01*
X88877Y187767D01*
X88798Y187749D01*
X88721Y187728D01*
X88645Y187702D01*
X88570Y187673D01*
X88496Y187641D01*
X88424Y187605D01*
X88354Y187565D01*
X88287Y187522D01*
X88221Y187476D01*
X88158Y187426D01*
X88097Y187374D01*
X88038Y187319D01*
X87983Y187260D01*
X87931Y187200D01*
X87881Y187136D01*
X87835Y187070D01*
X87792Y187003D01*
X87752Y186933D01*
X87716Y186861D01*
X87684Y186787D01*
X87655Y186713D01*
X87629Y186636D01*
X87608Y186559D01*
X87590Y186480D01*
X87577Y186401D01*
X87567Y186321D01*
X87561Y186241D01*
X87559Y186161D01*
X87559Y185752D01*
X87560Y185752D02*
X87562Y185663D01*
X87568Y185574D01*
X87578Y185485D01*
X87591Y185397D01*
X87608Y185309D01*
X87630Y185222D01*
X87655Y185137D01*
X87683Y185052D01*
X87716Y184969D01*
X87752Y184887D01*
X87791Y184807D01*
X87834Y184729D01*
X87880Y184653D01*
X87930Y184578D01*
X87983Y184506D01*
X88039Y184437D01*
X88098Y184370D01*
X88159Y184305D01*
X88224Y184244D01*
X88291Y184185D01*
X88360Y184129D01*
X88432Y184076D01*
X88507Y184026D01*
X88583Y183980D01*
X88661Y183937D01*
X88741Y183898D01*
X88823Y183862D01*
X88906Y183829D01*
X88991Y183801D01*
X89076Y183776D01*
X89163Y183754D01*
X89251Y183737D01*
X89339Y183724D01*
X89428Y183714D01*
X89517Y183708D01*
X89606Y183706D01*
X89695Y183708D01*
X89784Y183714D01*
X89873Y183724D01*
X89961Y183737D01*
X90049Y183754D01*
X90136Y183776D01*
X90221Y183801D01*
X90306Y183829D01*
X90389Y183862D01*
X90471Y183898D01*
X90551Y183937D01*
X90629Y183980D01*
X90705Y184026D01*
X90780Y184076D01*
X90852Y184129D01*
X90921Y184185D01*
X90988Y184244D01*
X91053Y184305D01*
X91114Y184370D01*
X91173Y184437D01*
X91229Y184506D01*
X91282Y184578D01*
X91332Y184653D01*
X91378Y184729D01*
X91421Y184807D01*
X91460Y184887D01*
X91496Y184969D01*
X91529Y185052D01*
X91557Y185137D01*
X91582Y185222D01*
X91604Y185309D01*
X91621Y185397D01*
X91634Y185485D01*
X91644Y185574D01*
X91650Y185663D01*
X91652Y185752D01*
X91652Y187798D01*
X91650Y187910D01*
X91644Y188021D01*
X91635Y188133D01*
X91622Y188244D01*
X91604Y188354D01*
X91584Y188464D01*
X91559Y188573D01*
X91531Y188681D01*
X91499Y188788D01*
X91463Y188894D01*
X91424Y188999D01*
X91381Y189102D01*
X91335Y189204D01*
X91285Y189304D01*
X91232Y189403D01*
X91175Y189499D01*
X91116Y189594D01*
X91053Y189686D01*
X90987Y189776D01*
X90918Y189864D01*
X90846Y189950D01*
X90771Y190033D01*
X90693Y190113D01*
X90613Y190191D01*
X90530Y190266D01*
X90444Y190338D01*
X90356Y190407D01*
X90266Y190473D01*
X90174Y190536D01*
X90079Y190595D01*
X89983Y190652D01*
X89884Y190705D01*
X89784Y190755D01*
X89682Y190801D01*
X89579Y190844D01*
X89474Y190883D01*
X89368Y190919D01*
X89261Y190951D01*
X89153Y190979D01*
X89044Y191004D01*
X88934Y191024D01*
X88824Y191042D01*
X88713Y191055D01*
X88601Y191064D01*
X88490Y191070D01*
X88378Y191072D01*
D12*
X90361Y155575D02*
X96965Y155575D01*
D13*
X95840Y173695D02*
X94204Y173695D01*
X95840Y173695D02*
X95918Y173697D01*
X95996Y173702D01*
X96073Y173712D01*
X96150Y173725D01*
X96226Y173741D01*
X96301Y173761D01*
X96375Y173785D01*
X96448Y173812D01*
X96520Y173843D01*
X96590Y173877D01*
X96659Y173914D01*
X96725Y173955D01*
X96790Y173999D01*
X96852Y174045D01*
X96912Y174095D01*
X96970Y174147D01*
X97025Y174202D01*
X97077Y174260D01*
X97127Y174320D01*
X97173Y174382D01*
X97217Y174447D01*
X97258Y174514D01*
X97295Y174582D01*
X97329Y174652D01*
X97360Y174724D01*
X97387Y174797D01*
X97411Y174871D01*
X97431Y174946D01*
X97447Y175022D01*
X97460Y175099D01*
X97470Y175176D01*
X97475Y175254D01*
X97477Y175332D01*
X97477Y179424D01*
X97475Y179502D01*
X97470Y179580D01*
X97460Y179657D01*
X97447Y179734D01*
X97431Y179810D01*
X97411Y179885D01*
X97387Y179959D01*
X97360Y180032D01*
X97329Y180104D01*
X97295Y180174D01*
X97258Y180243D01*
X97217Y180309D01*
X97173Y180374D01*
X97127Y180436D01*
X97077Y180496D01*
X97025Y180554D01*
X96970Y180609D01*
X96912Y180661D01*
X96852Y180711D01*
X96790Y180757D01*
X96725Y180801D01*
X96659Y180842D01*
X96590Y180879D01*
X96520Y180913D01*
X96448Y180944D01*
X96375Y180971D01*
X96301Y180995D01*
X96226Y181015D01*
X96150Y181031D01*
X96073Y181044D01*
X95996Y181054D01*
X95918Y181059D01*
X95840Y181061D01*
X94204Y181061D01*
X91358Y173695D02*
X88903Y173695D01*
X88823Y173697D01*
X88743Y173703D01*
X88663Y173713D01*
X88584Y173726D01*
X88505Y173744D01*
X88428Y173765D01*
X88352Y173791D01*
X88277Y173820D01*
X88203Y173852D01*
X88131Y173888D01*
X88061Y173928D01*
X87994Y173971D01*
X87928Y174017D01*
X87865Y174067D01*
X87804Y174119D01*
X87745Y174174D01*
X87690Y174233D01*
X87638Y174293D01*
X87588Y174357D01*
X87542Y174422D01*
X87499Y174490D01*
X87459Y174560D01*
X87423Y174632D01*
X87391Y174706D01*
X87362Y174780D01*
X87337Y174857D01*
X87315Y174934D01*
X87297Y175013D01*
X87284Y175092D01*
X87274Y175171D01*
X87268Y175252D01*
X87266Y175332D01*
X87266Y176150D01*
X87268Y176228D01*
X87273Y176306D01*
X87283Y176383D01*
X87296Y176460D01*
X87312Y176536D01*
X87332Y176611D01*
X87356Y176685D01*
X87383Y176758D01*
X87414Y176830D01*
X87448Y176900D01*
X87485Y176969D01*
X87526Y177035D01*
X87570Y177100D01*
X87616Y177162D01*
X87666Y177222D01*
X87718Y177280D01*
X87773Y177335D01*
X87831Y177387D01*
X87891Y177437D01*
X87953Y177483D01*
X88018Y177527D01*
X88085Y177568D01*
X88153Y177605D01*
X88223Y177639D01*
X88295Y177670D01*
X88368Y177697D01*
X88442Y177721D01*
X88517Y177741D01*
X88593Y177757D01*
X88670Y177770D01*
X88747Y177780D01*
X88825Y177785D01*
X88903Y177787D01*
X91358Y177787D01*
X91358Y181061D01*
X87266Y181061D01*
D12*
X-64961Y120650D02*
X-71565Y120650D01*
D13*
X-86562Y117563D02*
X-88199Y117563D01*
X-86562Y117563D02*
X-86484Y117565D01*
X-86406Y117570D01*
X-86329Y117580D01*
X-86252Y117593D01*
X-86176Y117609D01*
X-86101Y117629D01*
X-86027Y117653D01*
X-85954Y117680D01*
X-85882Y117711D01*
X-85812Y117745D01*
X-85744Y117782D01*
X-85677Y117823D01*
X-85612Y117867D01*
X-85550Y117913D01*
X-85490Y117963D01*
X-85432Y118015D01*
X-85377Y118070D01*
X-85325Y118128D01*
X-85275Y118188D01*
X-85229Y118250D01*
X-85185Y118315D01*
X-85144Y118382D01*
X-85107Y118450D01*
X-85073Y118520D01*
X-85042Y118592D01*
X-85015Y118665D01*
X-84991Y118739D01*
X-84971Y118814D01*
X-84955Y118890D01*
X-84942Y118967D01*
X-84932Y119044D01*
X-84927Y119122D01*
X-84925Y119200D01*
X-84925Y123293D01*
X-84927Y123373D01*
X-84933Y123453D01*
X-84943Y123533D01*
X-84956Y123612D01*
X-84974Y123691D01*
X-84995Y123768D01*
X-85021Y123844D01*
X-85050Y123919D01*
X-85082Y123993D01*
X-85118Y124065D01*
X-85158Y124135D01*
X-85201Y124202D01*
X-85247Y124268D01*
X-85297Y124331D01*
X-85349Y124392D01*
X-85404Y124451D01*
X-85463Y124506D01*
X-85523Y124558D01*
X-85587Y124608D01*
X-85653Y124654D01*
X-85720Y124697D01*
X-85790Y124737D01*
X-85862Y124773D01*
X-85936Y124805D01*
X-86010Y124834D01*
X-86087Y124860D01*
X-86164Y124881D01*
X-86243Y124899D01*
X-86322Y124912D01*
X-86402Y124922D01*
X-86482Y124928D01*
X-86562Y124930D01*
X-86562Y124929D02*
X-88199Y124929D01*
X-91044Y117563D02*
X-93091Y117563D01*
X-93091Y117564D02*
X-93180Y117566D01*
X-93269Y117572D01*
X-93358Y117582D01*
X-93446Y117595D01*
X-93534Y117612D01*
X-93621Y117634D01*
X-93706Y117659D01*
X-93791Y117687D01*
X-93874Y117720D01*
X-93956Y117756D01*
X-94036Y117795D01*
X-94114Y117838D01*
X-94190Y117884D01*
X-94265Y117934D01*
X-94337Y117987D01*
X-94406Y118043D01*
X-94473Y118102D01*
X-94538Y118163D01*
X-94599Y118228D01*
X-94658Y118295D01*
X-94714Y118364D01*
X-94767Y118436D01*
X-94817Y118511D01*
X-94863Y118587D01*
X-94906Y118665D01*
X-94945Y118745D01*
X-94981Y118827D01*
X-95014Y118910D01*
X-95042Y118995D01*
X-95067Y119080D01*
X-95089Y119167D01*
X-95106Y119255D01*
X-95119Y119343D01*
X-95129Y119432D01*
X-95135Y119521D01*
X-95137Y119610D01*
X-95135Y119699D01*
X-95129Y119788D01*
X-95119Y119877D01*
X-95106Y119965D01*
X-95089Y120053D01*
X-95067Y120140D01*
X-95042Y120225D01*
X-95014Y120310D01*
X-94981Y120393D01*
X-94945Y120475D01*
X-94906Y120555D01*
X-94863Y120633D01*
X-94817Y120709D01*
X-94767Y120784D01*
X-94714Y120856D01*
X-94658Y120925D01*
X-94599Y120992D01*
X-94538Y121057D01*
X-94473Y121118D01*
X-94406Y121177D01*
X-94337Y121233D01*
X-94265Y121286D01*
X-94190Y121336D01*
X-94114Y121382D01*
X-94036Y121425D01*
X-93956Y121464D01*
X-93874Y121500D01*
X-93791Y121533D01*
X-93706Y121561D01*
X-93621Y121586D01*
X-93534Y121608D01*
X-93446Y121625D01*
X-93358Y121638D01*
X-93269Y121648D01*
X-93180Y121654D01*
X-93091Y121656D01*
X-93500Y124929D02*
X-91044Y124929D01*
X-93500Y124930D02*
X-93579Y124928D01*
X-93658Y124922D01*
X-93737Y124913D01*
X-93815Y124900D01*
X-93892Y124882D01*
X-93968Y124862D01*
X-94043Y124837D01*
X-94117Y124809D01*
X-94190Y124778D01*
X-94261Y124742D01*
X-94330Y124704D01*
X-94397Y124662D01*
X-94462Y124617D01*
X-94525Y124569D01*
X-94586Y124518D01*
X-94643Y124464D01*
X-94699Y124408D01*
X-94751Y124349D01*
X-94801Y124287D01*
X-94847Y124223D01*
X-94891Y124157D01*
X-94931Y124089D01*
X-94967Y124019D01*
X-95001Y123947D01*
X-95031Y123873D01*
X-95057Y123799D01*
X-95080Y123723D01*
X-95098Y123646D01*
X-95114Y123569D01*
X-95125Y123490D01*
X-95133Y123412D01*
X-95137Y123333D01*
X-95137Y123253D01*
X-95133Y123174D01*
X-95125Y123096D01*
X-95114Y123017D01*
X-95098Y122940D01*
X-95080Y122863D01*
X-95057Y122787D01*
X-95031Y122713D01*
X-95001Y122639D01*
X-94967Y122567D01*
X-94931Y122497D01*
X-94891Y122429D01*
X-94847Y122363D01*
X-94801Y122299D01*
X-94751Y122237D01*
X-94699Y122178D01*
X-94643Y122122D01*
X-94586Y122068D01*
X-94525Y122017D01*
X-94462Y121969D01*
X-94397Y121924D01*
X-94330Y121882D01*
X-94261Y121844D01*
X-94190Y121808D01*
X-94117Y121777D01*
X-94043Y121749D01*
X-93968Y121724D01*
X-93892Y121704D01*
X-93815Y121686D01*
X-93737Y121673D01*
X-93658Y121664D01*
X-93579Y121658D01*
X-93500Y121656D01*
X-91863Y121656D01*
D11*
X41758Y136093D02*
X41758Y156223D01*
D12*
X58611Y146050D02*
X65215Y146050D01*
D13*
X65230Y171254D02*
X63593Y171254D01*
X65230Y171254D02*
X65308Y171256D01*
X65386Y171261D01*
X65463Y171271D01*
X65540Y171284D01*
X65616Y171300D01*
X65691Y171320D01*
X65765Y171344D01*
X65838Y171371D01*
X65910Y171402D01*
X65980Y171436D01*
X66049Y171473D01*
X66115Y171514D01*
X66180Y171558D01*
X66242Y171604D01*
X66302Y171654D01*
X66360Y171706D01*
X66415Y171761D01*
X66467Y171819D01*
X66517Y171879D01*
X66563Y171941D01*
X66607Y172006D01*
X66648Y172073D01*
X66685Y172141D01*
X66719Y172211D01*
X66750Y172283D01*
X66777Y172356D01*
X66801Y172430D01*
X66821Y172505D01*
X66837Y172581D01*
X66850Y172658D01*
X66860Y172735D01*
X66865Y172813D01*
X66867Y172891D01*
X66867Y176983D01*
X66865Y177061D01*
X66860Y177139D01*
X66850Y177216D01*
X66837Y177293D01*
X66821Y177369D01*
X66801Y177444D01*
X66777Y177518D01*
X66750Y177591D01*
X66719Y177663D01*
X66685Y177733D01*
X66648Y177802D01*
X66607Y177868D01*
X66563Y177933D01*
X66517Y177995D01*
X66467Y178055D01*
X66415Y178113D01*
X66360Y178168D01*
X66302Y178220D01*
X66242Y178270D01*
X66180Y178316D01*
X66115Y178360D01*
X66049Y178401D01*
X65980Y178438D01*
X65910Y178472D01*
X65838Y178503D01*
X65765Y178530D01*
X65691Y178554D01*
X65616Y178574D01*
X65540Y178590D01*
X65463Y178603D01*
X65386Y178613D01*
X65308Y178618D01*
X65230Y178620D01*
X63593Y178620D01*
X60748Y178620D02*
X60748Y177802D01*
X60748Y178620D02*
X56656Y178620D01*
X58702Y171254D01*
D11*
X41758Y172098D02*
X41758Y151968D01*
D12*
X58611Y161925D02*
X65215Y161925D01*
D13*
X64546Y181461D02*
X62909Y181461D01*
X64546Y181461D02*
X64624Y181463D01*
X64702Y181468D01*
X64779Y181478D01*
X64856Y181491D01*
X64932Y181507D01*
X65007Y181527D01*
X65081Y181551D01*
X65154Y181578D01*
X65226Y181609D01*
X65296Y181643D01*
X65365Y181680D01*
X65431Y181721D01*
X65496Y181765D01*
X65558Y181811D01*
X65618Y181861D01*
X65676Y181913D01*
X65731Y181968D01*
X65783Y182026D01*
X65833Y182086D01*
X65879Y182148D01*
X65923Y182213D01*
X65964Y182280D01*
X66001Y182348D01*
X66035Y182418D01*
X66066Y182490D01*
X66093Y182563D01*
X66117Y182637D01*
X66137Y182712D01*
X66153Y182788D01*
X66166Y182865D01*
X66176Y182942D01*
X66181Y183020D01*
X66183Y183098D01*
X66183Y187190D01*
X66181Y187268D01*
X66176Y187346D01*
X66166Y187423D01*
X66153Y187500D01*
X66137Y187576D01*
X66117Y187651D01*
X66093Y187725D01*
X66066Y187798D01*
X66035Y187870D01*
X66001Y187940D01*
X65964Y188009D01*
X65923Y188075D01*
X65879Y188140D01*
X65833Y188202D01*
X65783Y188262D01*
X65731Y188320D01*
X65676Y188375D01*
X65618Y188427D01*
X65558Y188477D01*
X65496Y188523D01*
X65431Y188567D01*
X65365Y188608D01*
X65296Y188645D01*
X65226Y188679D01*
X65154Y188710D01*
X65081Y188737D01*
X65007Y188761D01*
X64932Y188781D01*
X64856Y188797D01*
X64779Y188810D01*
X64702Y188820D01*
X64624Y188825D01*
X64546Y188827D01*
X62909Y188827D01*
X57813Y188827D02*
X57728Y188825D01*
X57643Y188819D01*
X57559Y188809D01*
X57475Y188796D01*
X57391Y188778D01*
X57309Y188757D01*
X57228Y188732D01*
X57148Y188703D01*
X57069Y188670D01*
X56992Y188634D01*
X56917Y188594D01*
X56843Y188551D01*
X56772Y188505D01*
X56703Y188455D01*
X56636Y188402D01*
X56572Y188346D01*
X56511Y188287D01*
X56452Y188226D01*
X56396Y188162D01*
X56343Y188095D01*
X56293Y188026D01*
X56247Y187955D01*
X56204Y187881D01*
X56164Y187806D01*
X56128Y187729D01*
X56095Y187650D01*
X56066Y187570D01*
X56041Y187489D01*
X56020Y187407D01*
X56002Y187323D01*
X55989Y187239D01*
X55979Y187155D01*
X55973Y187070D01*
X55971Y186985D01*
X57813Y188827D02*
X57909Y188825D01*
X58005Y188819D01*
X58100Y188809D01*
X58195Y188796D01*
X58290Y188778D01*
X58383Y188757D01*
X58476Y188732D01*
X58567Y188703D01*
X58658Y188671D01*
X58747Y188635D01*
X58834Y188595D01*
X58920Y188552D01*
X59004Y188506D01*
X59086Y188456D01*
X59166Y188402D01*
X59243Y188346D01*
X59318Y188286D01*
X59391Y188224D01*
X59461Y188158D01*
X59529Y188090D01*
X59594Y188019D01*
X59655Y187946D01*
X59714Y187870D01*
X59770Y187791D01*
X59822Y187711D01*
X59871Y187628D01*
X59917Y187544D01*
X59959Y187458D01*
X59997Y187370D01*
X60032Y187281D01*
X60064Y187190D01*
X56586Y185553D02*
X56526Y185612D01*
X56469Y185674D01*
X56414Y185738D01*
X56363Y185805D01*
X56314Y185874D01*
X56268Y185944D01*
X56225Y186017D01*
X56185Y186091D01*
X56149Y186167D01*
X56116Y186245D01*
X56086Y186324D01*
X56059Y186404D01*
X56036Y186485D01*
X56017Y186567D01*
X56001Y186649D01*
X55988Y186733D01*
X55979Y186817D01*
X55974Y186901D01*
X55972Y186985D01*
X56586Y185553D02*
X60064Y181461D01*
X55972Y181461D01*
D11*
X-48108Y116319D02*
X-48108Y96190D01*
D12*
X-64961Y106363D02*
X-71565Y106363D01*
D13*
X-67738Y86908D02*
X-66102Y86908D01*
X-66102Y86907D02*
X-66024Y86909D01*
X-65946Y86914D01*
X-65869Y86924D01*
X-65792Y86937D01*
X-65716Y86953D01*
X-65641Y86973D01*
X-65567Y86997D01*
X-65494Y87024D01*
X-65422Y87055D01*
X-65352Y87089D01*
X-65283Y87126D01*
X-65217Y87167D01*
X-65152Y87211D01*
X-65090Y87257D01*
X-65030Y87307D01*
X-64972Y87359D01*
X-64917Y87414D01*
X-64865Y87472D01*
X-64815Y87532D01*
X-64769Y87594D01*
X-64725Y87659D01*
X-64684Y87726D01*
X-64647Y87794D01*
X-64613Y87864D01*
X-64582Y87936D01*
X-64555Y88009D01*
X-64531Y88083D01*
X-64511Y88158D01*
X-64495Y88234D01*
X-64482Y88311D01*
X-64472Y88388D01*
X-64467Y88466D01*
X-64465Y88544D01*
X-64465Y92637D01*
X-64467Y92717D01*
X-64473Y92797D01*
X-64483Y92877D01*
X-64496Y92956D01*
X-64514Y93035D01*
X-64535Y93112D01*
X-64561Y93188D01*
X-64590Y93263D01*
X-64622Y93337D01*
X-64658Y93409D01*
X-64698Y93479D01*
X-64741Y93546D01*
X-64787Y93612D01*
X-64837Y93675D01*
X-64889Y93736D01*
X-64944Y93795D01*
X-65003Y93850D01*
X-65063Y93902D01*
X-65127Y93952D01*
X-65193Y93998D01*
X-65260Y94041D01*
X-65330Y94081D01*
X-65402Y94117D01*
X-65476Y94149D01*
X-65550Y94178D01*
X-65627Y94204D01*
X-65704Y94225D01*
X-65783Y94243D01*
X-65862Y94256D01*
X-65942Y94266D01*
X-66022Y94272D01*
X-66102Y94274D01*
X-67738Y94274D01*
X-72221Y94274D02*
X-70584Y88544D01*
X-74676Y88544D01*
X-73448Y86908D02*
X-73448Y90181D01*
D16*
X-27800Y181125D02*
X-10300Y181125D01*
X-10300Y168125D02*
X-27800Y168125D01*
D13*
X-11456Y184506D02*
X-11456Y191872D01*
X-13502Y191872D01*
X-13591Y191870D01*
X-13680Y191864D01*
X-13769Y191854D01*
X-13857Y191841D01*
X-13945Y191824D01*
X-14032Y191802D01*
X-14117Y191777D01*
X-14202Y191749D01*
X-14285Y191716D01*
X-14367Y191680D01*
X-14447Y191641D01*
X-14525Y191598D01*
X-14601Y191552D01*
X-14676Y191502D01*
X-14748Y191449D01*
X-14817Y191393D01*
X-14884Y191334D01*
X-14949Y191273D01*
X-15010Y191208D01*
X-15069Y191141D01*
X-15125Y191072D01*
X-15178Y191000D01*
X-15228Y190925D01*
X-15274Y190849D01*
X-15317Y190771D01*
X-15356Y190691D01*
X-15392Y190609D01*
X-15425Y190526D01*
X-15453Y190441D01*
X-15478Y190356D01*
X-15500Y190269D01*
X-15517Y190181D01*
X-15530Y190093D01*
X-15540Y190004D01*
X-15546Y189915D01*
X-15548Y189826D01*
X-15548Y186552D01*
X-15546Y186463D01*
X-15540Y186374D01*
X-15530Y186285D01*
X-15517Y186197D01*
X-15500Y186109D01*
X-15478Y186022D01*
X-15453Y185937D01*
X-15425Y185852D01*
X-15392Y185769D01*
X-15356Y185687D01*
X-15317Y185607D01*
X-15274Y185529D01*
X-15228Y185453D01*
X-15178Y185378D01*
X-15125Y185306D01*
X-15069Y185237D01*
X-15010Y185170D01*
X-14949Y185105D01*
X-14884Y185044D01*
X-14817Y184985D01*
X-14748Y184929D01*
X-14676Y184876D01*
X-14601Y184826D01*
X-14525Y184780D01*
X-14447Y184737D01*
X-14367Y184698D01*
X-14285Y184662D01*
X-14202Y184629D01*
X-14117Y184601D01*
X-14032Y184576D01*
X-13945Y184554D01*
X-13857Y184537D01*
X-13769Y184524D01*
X-13680Y184514D01*
X-13591Y184508D01*
X-13502Y184506D01*
X-11456Y184506D01*
X-19015Y184506D02*
X-21061Y184506D01*
X-21150Y184508D01*
X-21239Y184514D01*
X-21328Y184524D01*
X-21416Y184537D01*
X-21504Y184554D01*
X-21591Y184576D01*
X-21676Y184601D01*
X-21761Y184629D01*
X-21844Y184662D01*
X-21926Y184698D01*
X-22006Y184737D01*
X-22084Y184780D01*
X-22160Y184826D01*
X-22235Y184876D01*
X-22307Y184929D01*
X-22376Y184985D01*
X-22443Y185044D01*
X-22508Y185105D01*
X-22569Y185170D01*
X-22628Y185237D01*
X-22684Y185306D01*
X-22737Y185378D01*
X-22787Y185453D01*
X-22833Y185529D01*
X-22876Y185607D01*
X-22915Y185687D01*
X-22951Y185769D01*
X-22984Y185852D01*
X-23012Y185937D01*
X-23037Y186022D01*
X-23059Y186109D01*
X-23076Y186197D01*
X-23089Y186285D01*
X-23099Y186374D01*
X-23105Y186463D01*
X-23107Y186552D01*
X-23105Y186641D01*
X-23099Y186730D01*
X-23089Y186819D01*
X-23076Y186907D01*
X-23059Y186995D01*
X-23037Y187082D01*
X-23012Y187167D01*
X-22984Y187252D01*
X-22951Y187335D01*
X-22915Y187417D01*
X-22876Y187497D01*
X-22833Y187575D01*
X-22787Y187651D01*
X-22737Y187726D01*
X-22684Y187798D01*
X-22628Y187867D01*
X-22569Y187934D01*
X-22508Y187999D01*
X-22443Y188060D01*
X-22376Y188119D01*
X-22307Y188175D01*
X-22235Y188228D01*
X-22160Y188278D01*
X-22084Y188324D01*
X-22006Y188367D01*
X-21926Y188406D01*
X-21844Y188442D01*
X-21761Y188475D01*
X-21676Y188503D01*
X-21591Y188528D01*
X-21504Y188550D01*
X-21416Y188567D01*
X-21328Y188580D01*
X-21239Y188590D01*
X-21150Y188596D01*
X-21061Y188598D01*
X-21470Y191872D02*
X-19015Y191872D01*
X-21470Y191872D02*
X-21549Y191870D01*
X-21628Y191864D01*
X-21707Y191855D01*
X-21785Y191842D01*
X-21862Y191824D01*
X-21938Y191804D01*
X-22013Y191779D01*
X-22087Y191751D01*
X-22160Y191720D01*
X-22231Y191684D01*
X-22300Y191646D01*
X-22367Y191604D01*
X-22432Y191559D01*
X-22495Y191511D01*
X-22556Y191460D01*
X-22613Y191406D01*
X-22669Y191350D01*
X-22721Y191291D01*
X-22771Y191229D01*
X-22817Y191165D01*
X-22861Y191099D01*
X-22901Y191031D01*
X-22937Y190961D01*
X-22971Y190889D01*
X-23001Y190815D01*
X-23027Y190741D01*
X-23050Y190665D01*
X-23068Y190588D01*
X-23084Y190511D01*
X-23095Y190432D01*
X-23103Y190354D01*
X-23107Y190275D01*
X-23107Y190195D01*
X-23103Y190116D01*
X-23095Y190038D01*
X-23084Y189959D01*
X-23068Y189882D01*
X-23050Y189805D01*
X-23027Y189729D01*
X-23001Y189655D01*
X-22971Y189581D01*
X-22937Y189509D01*
X-22901Y189439D01*
X-22861Y189371D01*
X-22817Y189305D01*
X-22771Y189241D01*
X-22721Y189179D01*
X-22669Y189120D01*
X-22613Y189064D01*
X-22556Y189010D01*
X-22495Y188959D01*
X-22432Y188911D01*
X-22367Y188866D01*
X-22300Y188824D01*
X-22231Y188786D01*
X-22160Y188750D01*
X-22087Y188719D01*
X-22013Y188691D01*
X-21938Y188666D01*
X-21862Y188646D01*
X-21785Y188628D01*
X-21707Y188615D01*
X-21628Y188606D01*
X-21549Y188600D01*
X-21470Y188598D01*
X-19833Y188598D01*
M02*
