G04 EAGLE Gerber RS-274X export*
G75*
%MOMM*%
%FSLAX34Y34*%
%LPD*%
%INSoldermask Bottom*%
%IPPOS*%
%AMOC8*
5,1,8,0,0,1.08239X$1,22.5*%
G01*
%ADD10R,1.203200X1.303200*%
%ADD11R,1.603197X0.603200*%
%ADD12R,0.753200X0.500381*%
%ADD13R,0.500381X0.753200*%
%ADD14R,5.803200X5.803200*%
%ADD15P,1.869504X8X22.500000*%
%ADD16R,1.303200X1.203200*%
%ADD17R,1.503200X1.703200*%
%ADD18C,1.727200*%
%ADD19C,1.003200*%
%ADD20R,1.003200X0.703200*%

G36*
X72022Y198074D02*
X72022Y198074D01*
X72055Y198083D01*
X72104Y198084D01*
X74857Y198636D01*
X74889Y198650D01*
X74936Y198659D01*
X77561Y199657D01*
X77590Y199675D01*
X77635Y199692D01*
X80060Y201109D01*
X80086Y201132D01*
X80127Y201156D01*
X82286Y202952D01*
X82308Y202979D01*
X82345Y203010D01*
X84178Y205137D01*
X84192Y205162D01*
X84213Y205182D01*
X84241Y205248D01*
X84275Y205310D01*
X84279Y205339D01*
X84290Y205366D01*
X84289Y205437D01*
X84297Y205508D01*
X84289Y205536D01*
X84289Y205565D01*
X84261Y205630D01*
X84240Y205698D01*
X84222Y205721D01*
X84210Y205747D01*
X84140Y205819D01*
X84134Y205826D01*
X84123Y205842D01*
X84120Y205843D01*
X84113Y205851D01*
X84103Y205856D01*
X84094Y205866D01*
X56594Y225866D01*
X56567Y225878D01*
X56545Y225897D01*
X56477Y225919D01*
X56413Y225949D01*
X56384Y225950D01*
X56356Y225959D01*
X56285Y225952D01*
X56214Y225954D01*
X56187Y225944D01*
X56158Y225941D01*
X56095Y225908D01*
X56029Y225882D01*
X56008Y225861D01*
X55982Y225848D01*
X55935Y225793D01*
X55928Y225789D01*
X55920Y225776D01*
X55917Y225772D01*
X55887Y225743D01*
X55882Y225732D01*
X55873Y225722D01*
X54415Y223322D01*
X54403Y223290D01*
X54378Y223248D01*
X53335Y220642D01*
X53333Y220632D01*
X53331Y220629D01*
X53326Y220602D01*
X53310Y220563D01*
X52710Y217820D01*
X52710Y217785D01*
X52699Y217738D01*
X52559Y214933D01*
X52564Y214899D01*
X52561Y214851D01*
X52884Y212062D01*
X52895Y212029D01*
X52900Y211981D01*
X53678Y209283D01*
X53692Y209256D01*
X53693Y209255D01*
X53694Y209252D01*
X53707Y209206D01*
X54919Y206672D01*
X54939Y206644D01*
X54960Y206601D01*
X56572Y204302D01*
X56597Y204278D01*
X56624Y204238D01*
X58593Y202235D01*
X58621Y202216D01*
X58655Y202182D01*
X60926Y200530D01*
X60957Y200516D01*
X60996Y200487D01*
X63508Y199232D01*
X63542Y199223D01*
X63585Y199201D01*
X66269Y198376D01*
X66304Y198373D01*
X66350Y198359D01*
X69133Y197987D01*
X69167Y197989D01*
X69215Y197983D01*
X72022Y198074D01*
G37*
G36*
X-69181Y197989D02*
X-69181Y197989D01*
X-69133Y197987D01*
X-66350Y198359D01*
X-66317Y198370D01*
X-66269Y198376D01*
X-63585Y199201D01*
X-63554Y199218D01*
X-63508Y199232D01*
X-60996Y200487D01*
X-60969Y200508D01*
X-60926Y200530D01*
X-58655Y202182D01*
X-58632Y202207D01*
X-58593Y202235D01*
X-56624Y204238D01*
X-56606Y204267D01*
X-56572Y204302D01*
X-54960Y206601D01*
X-54946Y206633D01*
X-54919Y206672D01*
X-53707Y209206D01*
X-53699Y209239D01*
X-53678Y209283D01*
X-52900Y211981D01*
X-52898Y212015D01*
X-52884Y212062D01*
X-52561Y214851D01*
X-52564Y214886D01*
X-52559Y214933D01*
X-52699Y217738D01*
X-52708Y217772D01*
X-52710Y217820D01*
X-53310Y220563D01*
X-53324Y220595D01*
X-53335Y220642D01*
X-54378Y223248D01*
X-54397Y223277D01*
X-54415Y223322D01*
X-55873Y225722D01*
X-55893Y225743D01*
X-55906Y225769D01*
X-55946Y225804D01*
X-55952Y225812D01*
X-55962Y225817D01*
X-56008Y225868D01*
X-56035Y225880D01*
X-56057Y225899D01*
X-56125Y225920D01*
X-56190Y225949D01*
X-56219Y225950D01*
X-56247Y225959D01*
X-56317Y225952D01*
X-56389Y225954D01*
X-56416Y225943D01*
X-56445Y225940D01*
X-56523Y225901D01*
X-56524Y225901D01*
X-56525Y225901D01*
X-56534Y225896D01*
X-56573Y225880D01*
X-56581Y225872D01*
X-56594Y225866D01*
X-84094Y205866D01*
X-84113Y205845D01*
X-84138Y205830D01*
X-84146Y205819D01*
X-84148Y205817D01*
X-84180Y205772D01*
X-84228Y205720D01*
X-84238Y205692D01*
X-84255Y205668D01*
X-84271Y205599D01*
X-84294Y205532D01*
X-84293Y205503D01*
X-84299Y205475D01*
X-84287Y205405D01*
X-84282Y205334D01*
X-84269Y205308D01*
X-84264Y205279D01*
X-84213Y205194D01*
X-84194Y205156D01*
X-84185Y205148D01*
X-84178Y205137D01*
X-82345Y203010D01*
X-82317Y202989D01*
X-82286Y202952D01*
X-80127Y201156D01*
X-80097Y201140D01*
X-80060Y201109D01*
X-77635Y199692D01*
X-77602Y199681D01*
X-77561Y199657D01*
X-74936Y198659D01*
X-74902Y198653D01*
X-74857Y198636D01*
X-72104Y198084D01*
X-72069Y198084D01*
X-72022Y198074D01*
X-69215Y197983D01*
X-69181Y197989D01*
G37*
G36*
X17029Y-631D02*
X17029Y-631D01*
X17058Y-633D01*
X17125Y-611D01*
X17195Y-597D01*
X17219Y-581D01*
X17247Y-572D01*
X17300Y-525D01*
X17359Y-485D01*
X17375Y-460D01*
X17397Y-441D01*
X17428Y-377D01*
X17466Y-317D01*
X17471Y-288D01*
X17483Y-262D01*
X17492Y-163D01*
X17499Y-121D01*
X17496Y-110D01*
X17498Y-96D01*
X17266Y2702D01*
X17256Y2735D01*
X17252Y2783D01*
X16563Y5505D01*
X16548Y5536D01*
X16536Y5583D01*
X15408Y8154D01*
X15388Y8182D01*
X15369Y8227D01*
X13833Y10577D01*
X13809Y10602D01*
X13783Y10642D01*
X11881Y12708D01*
X11853Y12728D01*
X11820Y12764D01*
X9605Y14488D01*
X9574Y14504D01*
X9536Y14533D01*
X7066Y15870D01*
X7033Y15880D01*
X6991Y15903D01*
X4351Y16809D01*
X4335Y16815D01*
X4301Y16819D01*
X4255Y16835D01*
X1486Y17297D01*
X1451Y17296D01*
X1404Y17304D01*
X-1404Y17304D01*
X-1438Y17297D01*
X-1486Y17297D01*
X-4255Y16835D01*
X-4288Y16822D01*
X-4335Y16815D01*
X-6991Y15903D01*
X-7021Y15885D01*
X-7066Y15870D01*
X-9536Y14533D01*
X-9562Y14511D01*
X-9605Y14488D01*
X-11820Y12764D01*
X-11843Y12737D01*
X-11881Y12708D01*
X-13783Y10642D01*
X-13801Y10613D01*
X-13833Y10577D01*
X-15369Y8227D01*
X-15382Y8194D01*
X-15408Y8154D01*
X-16536Y5583D01*
X-16543Y5549D01*
X-16546Y5543D01*
X-16552Y5534D01*
X-16553Y5527D01*
X-16563Y5505D01*
X-17252Y2783D01*
X-17254Y2748D01*
X-17266Y2702D01*
X-17498Y-96D01*
X-17494Y-125D01*
X-17499Y-154D01*
X-17483Y-223D01*
X-17474Y-294D01*
X-17460Y-319D01*
X-17453Y-347D01*
X-17411Y-405D01*
X-17376Y-466D01*
X-17352Y-484D01*
X-17335Y-508D01*
X-17274Y-544D01*
X-17217Y-587D01*
X-17189Y-594D01*
X-17164Y-609D01*
X-17066Y-626D01*
X-17025Y-636D01*
X-17014Y-634D01*
X-17000Y-637D01*
X17000Y-637D01*
X17029Y-631D01*
G37*
G36*
X108131Y65569D02*
X108131Y65569D01*
X108160Y65567D01*
X108227Y65589D01*
X108297Y65604D01*
X108321Y65620D01*
X108348Y65629D01*
X108402Y65676D01*
X108460Y65717D01*
X108476Y65741D01*
X108498Y65761D01*
X108544Y65849D01*
X108567Y65885D01*
X108568Y65896D01*
X108575Y65908D01*
X119075Y98208D01*
X119078Y98237D01*
X119089Y98264D01*
X119089Y98335D01*
X119097Y98406D01*
X119089Y98434D01*
X119089Y98463D01*
X119061Y98528D01*
X119041Y98596D01*
X119023Y98619D01*
X119011Y98646D01*
X118960Y98695D01*
X118915Y98750D01*
X118889Y98764D01*
X118868Y98784D01*
X118776Y98822D01*
X118739Y98842D01*
X118727Y98843D01*
X118715Y98848D01*
X115985Y99492D01*
X115950Y99493D01*
X115903Y99505D01*
X113105Y99690D01*
X113070Y99686D01*
X113022Y99689D01*
X110231Y99412D01*
X110198Y99401D01*
X110150Y99397D01*
X107443Y98664D01*
X107412Y98648D01*
X107365Y98636D01*
X104816Y97467D01*
X104788Y97447D01*
X104744Y97427D01*
X102421Y95854D01*
X102397Y95829D01*
X102357Y95803D01*
X100325Y93869D01*
X100305Y93841D01*
X100270Y93808D01*
X98584Y91567D01*
X98569Y91535D01*
X98540Y91497D01*
X97246Y89009D01*
X97236Y88975D01*
X97214Y88933D01*
X96347Y86265D01*
X96343Y86231D01*
X96328Y86185D01*
X95912Y83411D01*
X95913Y83377D01*
X95906Y83329D01*
X95952Y80525D01*
X95952Y80524D01*
X95953Y80523D01*
X95960Y80491D01*
X95960Y80443D01*
X96467Y77684D01*
X96480Y77652D01*
X96489Y77605D01*
X97443Y74967D01*
X97461Y74938D01*
X97477Y74892D01*
X98852Y72448D01*
X98875Y72422D01*
X98899Y72379D01*
X100657Y70195D01*
X100684Y70173D01*
X100714Y70135D01*
X102809Y68269D01*
X102838Y68252D01*
X102874Y68220D01*
X105247Y66725D01*
X105280Y66712D01*
X105320Y66686D01*
X107907Y65602D01*
X107936Y65596D01*
X107961Y65583D01*
X108032Y65577D01*
X108102Y65563D01*
X108131Y65569D01*
G37*
G36*
X-108098Y65568D02*
X-108098Y65568D01*
X-108069Y65564D01*
X-107972Y65587D01*
X-107930Y65593D01*
X-107920Y65599D01*
X-107907Y65602D01*
X-105320Y66686D01*
X-105292Y66706D01*
X-105247Y66725D01*
X-102874Y68220D01*
X-102849Y68244D01*
X-102809Y68269D01*
X-100714Y70135D01*
X-100693Y70163D01*
X-100657Y70195D01*
X-98899Y72379D01*
X-98883Y72410D01*
X-98852Y72448D01*
X-97477Y74892D01*
X-97467Y74925D01*
X-97443Y74967D01*
X-96489Y77605D01*
X-96484Y77639D01*
X-96467Y77684D01*
X-95960Y80443D01*
X-95961Y80477D01*
X-95952Y80525D01*
X-95906Y83329D01*
X-95913Y83363D01*
X-95912Y83411D01*
X-96328Y86185D01*
X-96340Y86218D01*
X-96347Y86265D01*
X-97214Y88933D01*
X-97231Y88963D01*
X-97246Y89009D01*
X-98540Y91497D01*
X-98562Y91524D01*
X-98584Y91567D01*
X-100270Y93808D01*
X-100296Y93831D01*
X-100325Y93869D01*
X-102357Y95803D01*
X-102387Y95821D01*
X-102421Y95854D01*
X-104744Y97427D01*
X-104776Y97440D01*
X-104816Y97467D01*
X-107365Y98636D01*
X-107399Y98643D01*
X-107443Y98664D01*
X-110150Y99397D01*
X-110185Y99399D01*
X-110231Y99412D01*
X-113022Y99689D01*
X-113057Y99685D01*
X-113105Y99690D01*
X-115903Y99505D01*
X-115937Y99495D01*
X-115985Y99492D01*
X-118715Y98848D01*
X-118741Y98836D01*
X-118770Y98832D01*
X-118831Y98795D01*
X-118895Y98765D01*
X-118915Y98744D01*
X-118940Y98728D01*
X-118981Y98671D01*
X-119029Y98618D01*
X-119039Y98591D01*
X-119056Y98567D01*
X-119071Y98497D01*
X-119095Y98430D01*
X-119093Y98401D01*
X-119099Y98373D01*
X-119085Y98275D01*
X-119082Y98232D01*
X-119077Y98222D01*
X-119075Y98208D01*
X-108575Y65908D01*
X-108560Y65883D01*
X-108554Y65854D01*
X-108512Y65797D01*
X-108477Y65735D01*
X-108454Y65717D01*
X-108437Y65694D01*
X-108376Y65657D01*
X-108319Y65614D01*
X-108291Y65607D01*
X-108266Y65592D01*
X-108196Y65582D01*
X-108127Y65564D01*
X-108098Y65568D01*
G37*
G36*
X-67572Y-631D02*
X-67572Y-631D01*
X-67545Y-634D01*
X-67476Y-612D01*
X-67405Y-597D01*
X-67382Y-581D01*
X-67355Y-573D01*
X-67301Y-525D01*
X-67241Y-485D01*
X-67226Y-461D01*
X-67205Y-443D01*
X-67173Y-378D01*
X-67134Y-317D01*
X-67129Y-289D01*
X-67117Y-264D01*
X-67108Y-162D01*
X-67101Y-121D01*
X-67103Y-111D01*
X-67102Y-98D01*
X-67336Y2878D01*
X-67345Y2910D01*
X-67348Y2955D01*
X-68044Y5858D01*
X-68058Y5888D01*
X-68068Y5933D01*
X-69210Y8691D01*
X-69229Y8719D01*
X-69246Y8761D01*
X-70805Y11307D01*
X-70828Y11331D01*
X-70851Y11370D01*
X-72789Y13641D01*
X-72816Y13661D01*
X-72845Y13696D01*
X-75114Y15636D01*
X-75144Y15652D01*
X-75178Y15682D01*
X-77723Y17242D01*
X-77754Y17254D01*
X-77793Y17278D01*
X-80551Y18421D01*
X-80583Y18427D01*
X-80625Y18445D01*
X-83528Y19143D01*
X-83561Y19144D01*
X-83605Y19155D01*
X-86581Y19390D01*
X-86614Y19386D01*
X-86660Y19390D01*
X-89636Y19156D01*
X-89668Y19147D01*
X-89713Y19144D01*
X-92616Y18448D01*
X-92642Y18436D01*
X-92670Y18432D01*
X-92732Y18394D01*
X-92797Y18364D01*
X-92816Y18343D01*
X-92840Y18328D01*
X-92882Y18270D01*
X-92930Y18216D01*
X-92939Y18190D01*
X-92956Y18166D01*
X-92971Y18096D01*
X-92995Y18028D01*
X-92993Y18000D01*
X-92999Y17972D01*
X-92984Y17872D01*
X-92981Y17830D01*
X-92977Y17821D01*
X-92975Y17808D01*
X-87075Y-292D01*
X-87060Y-318D01*
X-87053Y-347D01*
X-87011Y-404D01*
X-86977Y-465D01*
X-86953Y-483D01*
X-86935Y-508D01*
X-86875Y-543D01*
X-86819Y-586D01*
X-86790Y-594D01*
X-86764Y-609D01*
X-86668Y-625D01*
X-86626Y-636D01*
X-86615Y-634D01*
X-86600Y-637D01*
X-67600Y-637D01*
X-67572Y-631D01*
G37*
G36*
X86629Y-631D02*
X86629Y-631D01*
X86659Y-633D01*
X86726Y-611D01*
X86795Y-597D01*
X86820Y-580D01*
X86848Y-571D01*
X86901Y-524D01*
X86959Y-485D01*
X86975Y-459D01*
X86997Y-440D01*
X87043Y-354D01*
X87066Y-317D01*
X87068Y-305D01*
X87075Y-292D01*
X92975Y17808D01*
X92978Y17836D01*
X92989Y17862D01*
X92989Y17934D01*
X92997Y18005D01*
X92989Y18033D01*
X92989Y18061D01*
X92962Y18127D01*
X92941Y18196D01*
X92923Y18218D01*
X92912Y18244D01*
X92861Y18294D01*
X92815Y18350D01*
X92790Y18363D01*
X92770Y18383D01*
X92676Y18423D01*
X92639Y18442D01*
X92628Y18443D01*
X92616Y18448D01*
X89713Y19144D01*
X89680Y19145D01*
X89636Y19156D01*
X86660Y19390D01*
X86627Y19386D01*
X86581Y19390D01*
X83605Y19155D01*
X83573Y19146D01*
X83528Y19143D01*
X80625Y18445D01*
X80595Y18431D01*
X80551Y18421D01*
X77838Y17297D01*
X77793Y17278D01*
X77765Y17259D01*
X77723Y17242D01*
X75178Y15682D01*
X75154Y15659D01*
X75114Y15636D01*
X72845Y13696D01*
X72824Y13670D01*
X72789Y13641D01*
X70851Y11370D01*
X70835Y11341D01*
X70805Y11307D01*
X69246Y8761D01*
X69234Y8730D01*
X69210Y8691D01*
X68068Y5933D01*
X68062Y5900D01*
X68044Y5858D01*
X67348Y2955D01*
X67347Y2922D01*
X67336Y2878D01*
X67102Y-98D01*
X67106Y-126D01*
X67101Y-154D01*
X67118Y-224D01*
X67127Y-296D01*
X67141Y-320D01*
X67147Y-347D01*
X67190Y-406D01*
X67226Y-468D01*
X67248Y-485D01*
X67265Y-508D01*
X67327Y-544D01*
X67385Y-588D01*
X67412Y-595D01*
X67436Y-609D01*
X67537Y-626D01*
X67577Y-636D01*
X67588Y-635D01*
X67600Y-637D01*
X86600Y-637D01*
X86629Y-631D01*
G37*
G36*
X3017Y247152D02*
X3017Y247152D01*
X3049Y247162D01*
X3094Y247165D01*
X5999Y247862D01*
X6029Y247876D01*
X6073Y247886D01*
X8833Y249029D01*
X8861Y249048D01*
X8903Y249065D01*
X11450Y250626D01*
X11474Y250648D01*
X11513Y250672D01*
X13784Y252612D01*
X13805Y252638D01*
X13840Y252667D01*
X15780Y254938D01*
X15794Y254964D01*
X15814Y254984D01*
X15842Y255050D01*
X15876Y255112D01*
X15879Y255141D01*
X15890Y255168D01*
X15890Y255239D01*
X15897Y255310D01*
X15889Y255338D01*
X15888Y255367D01*
X15860Y255432D01*
X15839Y255500D01*
X15820Y255522D01*
X15809Y255549D01*
X15739Y255620D01*
X15712Y255653D01*
X15702Y255658D01*
X15692Y255668D01*
X292Y266768D01*
X266Y266779D01*
X245Y266798D01*
X176Y266820D01*
X111Y266849D01*
X82Y266850D01*
X55Y266859D01*
X-16Y266852D01*
X-88Y266854D01*
X-114Y266843D01*
X-143Y266841D01*
X-234Y266796D01*
X-273Y266781D01*
X-280Y266773D01*
X-292Y266768D01*
X-15692Y255668D01*
X-15712Y255646D01*
X-15737Y255631D01*
X-15779Y255574D01*
X-15827Y255521D01*
X-15837Y255494D01*
X-15854Y255471D01*
X-15870Y255401D01*
X-15894Y255334D01*
X-15892Y255305D01*
X-15899Y255277D01*
X-15887Y255207D01*
X-15883Y255136D01*
X-15870Y255110D01*
X-15865Y255081D01*
X-15814Y254995D01*
X-15795Y254957D01*
X-15787Y254950D01*
X-15780Y254938D01*
X-13840Y252667D01*
X-13814Y252646D01*
X-13784Y252612D01*
X-11513Y250672D01*
X-11484Y250656D01*
X-11450Y250626D01*
X-8903Y249065D01*
X-8872Y249054D01*
X-8833Y249029D01*
X-6073Y247886D01*
X-6041Y247880D01*
X-5999Y247862D01*
X-3094Y247165D01*
X-3061Y247164D01*
X-3017Y247152D01*
X-39Y246918D01*
X-6Y246922D01*
X39Y246918D01*
X3017Y247152D01*
G37*
G36*
X134332Y146069D02*
X134332Y146069D01*
X134361Y146067D01*
X134429Y146090D01*
X134499Y146105D01*
X134522Y146121D01*
X134550Y146130D01*
X134603Y146177D01*
X134662Y146218D01*
X134677Y146243D01*
X134699Y146262D01*
X134745Y146351D01*
X134767Y146387D01*
X134769Y146398D01*
X134775Y146409D01*
X140575Y164409D01*
X140578Y164438D01*
X140590Y164464D01*
X140589Y164536D01*
X140597Y164607D01*
X140589Y164634D01*
X140589Y164663D01*
X140561Y164729D01*
X140540Y164798D01*
X140522Y164820D01*
X140511Y164846D01*
X140441Y164918D01*
X140414Y164951D01*
X140404Y164956D01*
X140395Y164965D01*
X125095Y176165D01*
X125068Y176178D01*
X125046Y176197D01*
X124979Y176219D01*
X124914Y176249D01*
X124885Y176249D01*
X124857Y176258D01*
X124787Y176252D01*
X124716Y176255D01*
X124688Y176244D01*
X124659Y176242D01*
X124596Y176208D01*
X124530Y176183D01*
X124509Y176162D01*
X124484Y176149D01*
X124418Y176074D01*
X124388Y176044D01*
X124383Y176034D01*
X124374Y176023D01*
X122819Y173483D01*
X122808Y173452D01*
X122784Y173414D01*
X121645Y170662D01*
X121639Y170629D01*
X121621Y170587D01*
X120927Y167692D01*
X120926Y167658D01*
X120915Y167614D01*
X120682Y164645D01*
X120686Y164612D01*
X120682Y164567D01*
X120917Y161598D01*
X120926Y161566D01*
X120929Y161521D01*
X121626Y158626D01*
X121640Y158595D01*
X121650Y158551D01*
X122790Y155800D01*
X122809Y155773D01*
X122826Y155730D01*
X124383Y153192D01*
X124406Y153168D01*
X124429Y153129D01*
X126364Y150865D01*
X126390Y150844D01*
X126419Y150809D01*
X128685Y148876D01*
X128714Y148860D01*
X128748Y148830D01*
X131288Y147275D01*
X131319Y147264D01*
X131357Y147240D01*
X134109Y146101D01*
X134137Y146096D01*
X134163Y146083D01*
X134234Y146077D01*
X134304Y146063D01*
X134332Y146069D01*
G37*
G36*
X-134300Y146068D02*
X-134300Y146068D01*
X-134271Y146064D01*
X-134173Y146087D01*
X-134131Y146093D01*
X-134122Y146098D01*
X-134109Y146101D01*
X-131357Y147240D01*
X-131330Y147258D01*
X-131288Y147275D01*
X-128748Y148830D01*
X-128724Y148853D01*
X-128685Y148876D01*
X-126419Y150809D01*
X-126399Y150836D01*
X-126364Y150865D01*
X-124429Y153129D01*
X-124413Y153158D01*
X-124383Y153192D01*
X-122826Y155730D01*
X-122815Y155762D01*
X-122790Y155800D01*
X-121650Y158551D01*
X-121643Y158584D01*
X-121626Y158626D01*
X-120929Y161521D01*
X-120928Y161554D01*
X-120917Y161598D01*
X-120682Y164567D01*
X-120686Y164600D01*
X-120682Y164645D01*
X-120915Y167614D01*
X-120924Y167646D01*
X-120927Y167692D01*
X-121621Y170587D01*
X-121635Y170618D01*
X-121645Y170662D01*
X-122784Y173414D01*
X-122802Y173441D01*
X-122819Y173483D01*
X-124374Y176023D01*
X-124394Y176045D01*
X-124407Y176071D01*
X-124461Y176117D01*
X-124510Y176169D01*
X-124536Y176181D01*
X-124559Y176199D01*
X-124626Y176221D01*
X-124691Y176250D01*
X-124720Y176250D01*
X-124748Y176259D01*
X-124819Y176252D01*
X-124890Y176254D01*
X-124917Y176243D01*
X-124946Y176240D01*
X-125035Y176195D01*
X-125075Y176179D01*
X-125083Y176172D01*
X-125095Y176165D01*
X-140395Y164965D01*
X-140414Y164944D01*
X-140439Y164929D01*
X-140481Y164871D01*
X-140529Y164818D01*
X-140538Y164791D01*
X-140555Y164768D01*
X-140571Y164698D01*
X-140595Y164631D01*
X-140593Y164602D01*
X-140599Y164574D01*
X-140585Y164474D01*
X-140582Y164432D01*
X-140577Y164423D01*
X-140575Y164409D01*
X-134775Y146409D01*
X-134761Y146384D01*
X-134755Y146356D01*
X-134713Y146299D01*
X-134678Y146236D01*
X-134655Y146219D01*
X-134638Y146195D01*
X-134577Y146158D01*
X-134520Y146115D01*
X-134493Y146107D01*
X-134468Y146092D01*
X-134397Y146082D01*
X-134328Y146064D01*
X-134300Y146068D01*
G37*
D10*
X102163Y142875D03*
X85163Y142875D03*
D11*
X65088Y105475D03*
X65088Y117475D03*
X65088Y129475D03*
D12*
X33800Y146570D03*
X33800Y141569D03*
X33800Y136567D03*
X33800Y131566D03*
X33800Y126565D03*
X33800Y121564D03*
X33800Y116562D03*
X33800Y111561D03*
X33800Y106560D03*
X33800Y101559D03*
X33800Y96557D03*
X33800Y91556D03*
D13*
X27507Y85263D03*
X22506Y85263D03*
X17504Y85263D03*
X12503Y85263D03*
X7502Y85263D03*
X2501Y85263D03*
X-2501Y85263D03*
X-7502Y85263D03*
X-12503Y85263D03*
X-17504Y85263D03*
X-22506Y85263D03*
X-27507Y85263D03*
D12*
X-33800Y91556D03*
X-33800Y96557D03*
X-33800Y101559D03*
X-33800Y106560D03*
X-33800Y111561D03*
X-33800Y116562D03*
X-33800Y121564D03*
X-33800Y126565D03*
X-33800Y131566D03*
X-33800Y136567D03*
X-33800Y141569D03*
X-33800Y146570D03*
D13*
X-27507Y152863D03*
X-22506Y152863D03*
X-17504Y152863D03*
X-12503Y152863D03*
X-7502Y152863D03*
X-2501Y152863D03*
X2501Y152863D03*
X7502Y152863D03*
X12503Y152863D03*
X17504Y152863D03*
X22506Y152863D03*
X27507Y152863D03*
D14*
X0Y119063D03*
D15*
X55563Y73025D03*
D10*
X-76763Y144463D03*
X-59763Y144463D03*
D16*
X47063Y90488D03*
X64063Y90488D03*
X102163Y166688D03*
X85163Y166688D03*
X102163Y155575D03*
X85163Y155575D03*
X-59763Y120650D03*
X-76763Y120650D03*
D17*
X52413Y146050D03*
X71413Y146050D03*
X52413Y161925D03*
X71413Y161925D03*
X-58763Y106363D03*
X-77763Y106363D03*
D18*
X-49213Y165100D03*
X-74613Y165100D03*
X-100013Y165100D03*
D19*
X0Y259563D03*
X133600Y162463D03*
X82600Y5363D03*
X-82600Y5363D03*
X-133600Y162463D03*
X66800Y211063D03*
X108100Y83963D03*
X0Y5363D03*
X-108100Y83963D03*
X-66800Y211063D03*
D20*
X-8050Y174625D03*
X-30050Y174625D03*
M02*
