G04 EAGLE Gerber RS-274X export*
G75*
%MOMM*%
%FSLAX34Y34*%
%LPD*%
%INSolderpaste Bottom*%
%IPPOS*%
%AMOC8*
5,1,8,0,0,1.08239X$1,22.5*%
G01*
%ADD10R,1.100000X1.000000*%
%ADD11R,1.399997X0.400000*%
%ADD12R,0.550000X0.254000*%
%ADD13R,0.254000X0.550000*%
%ADD14R,0.800000X0.500000*%
%ADD15R,1.300000X1.500000*%

G36*
X-15222Y97649D02*
X-15222Y97649D01*
X-15220Y97648D01*
X-15177Y97668D01*
X-15133Y97686D01*
X-15133Y97688D01*
X-15131Y97689D01*
X-15098Y97774D01*
X-15098Y109998D01*
X-15099Y110000D01*
X-15098Y110002D01*
X-15118Y110045D01*
X-15136Y110089D01*
X-15138Y110089D01*
X-15139Y110091D01*
X-15224Y110124D01*
X-27448Y110124D01*
X-27450Y110123D01*
X-27452Y110124D01*
X-27495Y110104D01*
X-27539Y110086D01*
X-27539Y110084D01*
X-27541Y110083D01*
X-27574Y109998D01*
X-27574Y97774D01*
X-27573Y97772D01*
X-27574Y97770D01*
X-27554Y97727D01*
X-27536Y97683D01*
X-27534Y97683D01*
X-27533Y97681D01*
X-27448Y97648D01*
X-15224Y97648D01*
X-15222Y97649D01*
G37*
G36*
X13226Y97649D02*
X13226Y97649D01*
X13228Y97648D01*
X13271Y97668D01*
X13315Y97686D01*
X13315Y97688D01*
X13317Y97689D01*
X13350Y97774D01*
X13350Y109998D01*
X13349Y110000D01*
X13350Y110002D01*
X13330Y110045D01*
X13312Y110089D01*
X13310Y110089D01*
X13309Y110091D01*
X13224Y110124D01*
X1000Y110124D01*
X998Y110123D01*
X996Y110124D01*
X953Y110104D01*
X909Y110086D01*
X909Y110084D01*
X907Y110083D01*
X874Y109998D01*
X874Y97774D01*
X875Y97772D01*
X874Y97770D01*
X894Y97727D01*
X912Y97683D01*
X914Y97683D01*
X915Y97681D01*
X1000Y97648D01*
X13224Y97648D01*
X13226Y97649D01*
G37*
G36*
X-998Y97649D02*
X-998Y97649D01*
X-996Y97648D01*
X-953Y97668D01*
X-909Y97686D01*
X-909Y97688D01*
X-907Y97689D01*
X-874Y97774D01*
X-874Y109998D01*
X-875Y110000D01*
X-874Y110002D01*
X-894Y110045D01*
X-912Y110089D01*
X-914Y110089D01*
X-915Y110091D01*
X-1000Y110124D01*
X-13224Y110124D01*
X-13226Y110123D01*
X-13228Y110124D01*
X-13271Y110104D01*
X-13315Y110086D01*
X-13315Y110084D01*
X-13317Y110083D01*
X-13350Y109998D01*
X-13350Y97774D01*
X-13349Y97772D01*
X-13350Y97770D01*
X-13330Y97727D01*
X-13312Y97683D01*
X-13310Y97683D01*
X-13309Y97681D01*
X-13224Y97648D01*
X-1000Y97648D01*
X-998Y97649D01*
G37*
G36*
X27450Y97649D02*
X27450Y97649D01*
X27452Y97648D01*
X27495Y97668D01*
X27539Y97686D01*
X27539Y97688D01*
X27541Y97689D01*
X27574Y97774D01*
X27574Y109998D01*
X27573Y110000D01*
X27574Y110002D01*
X27554Y110045D01*
X27536Y110089D01*
X27534Y110089D01*
X27533Y110091D01*
X27448Y110124D01*
X15224Y110124D01*
X15222Y110123D01*
X15220Y110124D01*
X15177Y110104D01*
X15133Y110086D01*
X15133Y110084D01*
X15131Y110083D01*
X15098Y109998D01*
X15098Y97774D01*
X15099Y97772D01*
X15098Y97770D01*
X15118Y97727D01*
X15136Y97683D01*
X15138Y97683D01*
X15139Y97681D01*
X15224Y97648D01*
X27448Y97648D01*
X27450Y97649D01*
G37*
G36*
X13226Y83425D02*
X13226Y83425D01*
X13228Y83424D01*
X13271Y83444D01*
X13315Y83462D01*
X13315Y83464D01*
X13317Y83465D01*
X13350Y83550D01*
X13350Y95774D01*
X13349Y95776D01*
X13350Y95778D01*
X13330Y95821D01*
X13312Y95865D01*
X13310Y95865D01*
X13309Y95867D01*
X13224Y95900D01*
X1000Y95900D01*
X998Y95899D01*
X996Y95900D01*
X953Y95880D01*
X909Y95862D01*
X909Y95860D01*
X907Y95859D01*
X874Y95774D01*
X874Y83550D01*
X875Y83548D01*
X874Y83546D01*
X894Y83503D01*
X912Y83459D01*
X914Y83459D01*
X915Y83457D01*
X1000Y83424D01*
X13224Y83424D01*
X13226Y83425D01*
G37*
G36*
X-15222Y83425D02*
X-15222Y83425D01*
X-15220Y83424D01*
X-15177Y83444D01*
X-15133Y83462D01*
X-15133Y83464D01*
X-15131Y83465D01*
X-15098Y83550D01*
X-15098Y95774D01*
X-15099Y95776D01*
X-15098Y95778D01*
X-15118Y95821D01*
X-15136Y95865D01*
X-15138Y95865D01*
X-15139Y95867D01*
X-15224Y95900D01*
X-27448Y95900D01*
X-27450Y95899D01*
X-27452Y95900D01*
X-27495Y95880D01*
X-27539Y95862D01*
X-27539Y95860D01*
X-27541Y95859D01*
X-27574Y95774D01*
X-27574Y83550D01*
X-27573Y83548D01*
X-27574Y83546D01*
X-27554Y83503D01*
X-27536Y83459D01*
X-27534Y83459D01*
X-27533Y83457D01*
X-27448Y83424D01*
X-15224Y83424D01*
X-15222Y83425D01*
G37*
G36*
X-998Y83425D02*
X-998Y83425D01*
X-996Y83424D01*
X-953Y83444D01*
X-909Y83462D01*
X-909Y83464D01*
X-907Y83465D01*
X-874Y83550D01*
X-874Y95774D01*
X-875Y95776D01*
X-874Y95778D01*
X-894Y95821D01*
X-912Y95865D01*
X-914Y95865D01*
X-915Y95867D01*
X-1000Y95900D01*
X-13224Y95900D01*
X-13226Y95899D01*
X-13228Y95900D01*
X-13271Y95880D01*
X-13315Y95862D01*
X-13315Y95860D01*
X-13317Y95859D01*
X-13350Y95774D01*
X-13350Y83550D01*
X-13349Y83548D01*
X-13350Y83546D01*
X-13330Y83503D01*
X-13312Y83459D01*
X-13310Y83459D01*
X-13309Y83457D01*
X-13224Y83424D01*
X-1000Y83424D01*
X-998Y83425D01*
G37*
G36*
X27450Y83425D02*
X27450Y83425D01*
X27452Y83424D01*
X27495Y83444D01*
X27539Y83462D01*
X27539Y83464D01*
X27541Y83465D01*
X27574Y83550D01*
X27574Y95774D01*
X27573Y95776D01*
X27574Y95778D01*
X27554Y95821D01*
X27536Y95865D01*
X27534Y95865D01*
X27533Y95867D01*
X27448Y95900D01*
X15224Y95900D01*
X15222Y95899D01*
X15220Y95900D01*
X15177Y95880D01*
X15133Y95862D01*
X15133Y95860D01*
X15131Y95859D01*
X15098Y95774D01*
X15098Y83550D01*
X15099Y83548D01*
X15098Y83546D01*
X15118Y83503D01*
X15136Y83459D01*
X15138Y83459D01*
X15139Y83457D01*
X15224Y83424D01*
X27448Y83424D01*
X27450Y83425D01*
G37*
G36*
X-15222Y69201D02*
X-15222Y69201D01*
X-15220Y69200D01*
X-15177Y69220D01*
X-15133Y69238D01*
X-15133Y69240D01*
X-15131Y69241D01*
X-15098Y69326D01*
X-15098Y81550D01*
X-15099Y81552D01*
X-15098Y81554D01*
X-15118Y81597D01*
X-15136Y81641D01*
X-15138Y81641D01*
X-15139Y81643D01*
X-15224Y81676D01*
X-27448Y81676D01*
X-27450Y81675D01*
X-27452Y81676D01*
X-27495Y81656D01*
X-27539Y81638D01*
X-27539Y81636D01*
X-27541Y81635D01*
X-27574Y81550D01*
X-27574Y69326D01*
X-27573Y69324D01*
X-27574Y69322D01*
X-27554Y69279D01*
X-27536Y69235D01*
X-27534Y69235D01*
X-27533Y69233D01*
X-27448Y69200D01*
X-15224Y69200D01*
X-15222Y69201D01*
G37*
G36*
X13226Y69201D02*
X13226Y69201D01*
X13228Y69200D01*
X13271Y69220D01*
X13315Y69238D01*
X13315Y69240D01*
X13317Y69241D01*
X13350Y69326D01*
X13350Y81550D01*
X13349Y81552D01*
X13350Y81554D01*
X13330Y81597D01*
X13312Y81641D01*
X13310Y81641D01*
X13309Y81643D01*
X13224Y81676D01*
X1000Y81676D01*
X998Y81675D01*
X996Y81676D01*
X953Y81656D01*
X909Y81638D01*
X909Y81636D01*
X907Y81635D01*
X874Y81550D01*
X874Y69326D01*
X875Y69324D01*
X874Y69322D01*
X894Y69279D01*
X912Y69235D01*
X914Y69235D01*
X915Y69233D01*
X1000Y69200D01*
X13224Y69200D01*
X13226Y69201D01*
G37*
G36*
X-998Y69201D02*
X-998Y69201D01*
X-996Y69200D01*
X-953Y69220D01*
X-909Y69238D01*
X-909Y69240D01*
X-907Y69241D01*
X-874Y69326D01*
X-874Y81550D01*
X-875Y81552D01*
X-874Y81554D01*
X-894Y81597D01*
X-912Y81641D01*
X-914Y81641D01*
X-915Y81643D01*
X-1000Y81676D01*
X-13224Y81676D01*
X-13226Y81675D01*
X-13228Y81676D01*
X-13271Y81656D01*
X-13315Y81638D01*
X-13315Y81636D01*
X-13317Y81635D01*
X-13350Y81550D01*
X-13350Y69326D01*
X-13349Y69324D01*
X-13350Y69322D01*
X-13330Y69279D01*
X-13312Y69235D01*
X-13310Y69235D01*
X-13309Y69233D01*
X-13224Y69200D01*
X-1000Y69200D01*
X-998Y69201D01*
G37*
G36*
X27450Y69201D02*
X27450Y69201D01*
X27452Y69200D01*
X27495Y69220D01*
X27539Y69238D01*
X27539Y69240D01*
X27541Y69241D01*
X27574Y69326D01*
X27574Y81550D01*
X27573Y81552D01*
X27574Y81554D01*
X27554Y81597D01*
X27536Y81641D01*
X27534Y81641D01*
X27533Y81643D01*
X27448Y81676D01*
X15224Y81676D01*
X15222Y81675D01*
X15220Y81676D01*
X15177Y81656D01*
X15133Y81638D01*
X15133Y81636D01*
X15131Y81635D01*
X15098Y81550D01*
X15098Y69326D01*
X15099Y69324D01*
X15098Y69322D01*
X15118Y69279D01*
X15136Y69235D01*
X15138Y69235D01*
X15139Y69233D01*
X15224Y69200D01*
X27448Y69200D01*
X27450Y69201D01*
G37*
G36*
X-998Y54977D02*
X-998Y54977D01*
X-996Y54976D01*
X-953Y54996D01*
X-909Y55014D01*
X-909Y55016D01*
X-907Y55017D01*
X-874Y55102D01*
X-874Y67326D01*
X-875Y67328D01*
X-874Y67330D01*
X-894Y67373D01*
X-912Y67417D01*
X-914Y67417D01*
X-915Y67419D01*
X-1000Y67452D01*
X-13224Y67452D01*
X-13226Y67451D01*
X-13228Y67452D01*
X-13271Y67432D01*
X-13315Y67414D01*
X-13315Y67412D01*
X-13317Y67411D01*
X-13350Y67326D01*
X-13350Y55102D01*
X-13349Y55100D01*
X-13350Y55098D01*
X-13330Y55055D01*
X-13312Y55011D01*
X-13310Y55011D01*
X-13309Y55009D01*
X-13224Y54976D01*
X-1000Y54976D01*
X-998Y54977D01*
G37*
G36*
X13226Y54977D02*
X13226Y54977D01*
X13228Y54976D01*
X13271Y54996D01*
X13315Y55014D01*
X13315Y55016D01*
X13317Y55017D01*
X13350Y55102D01*
X13350Y67326D01*
X13349Y67328D01*
X13350Y67330D01*
X13330Y67373D01*
X13312Y67417D01*
X13310Y67417D01*
X13309Y67419D01*
X13224Y67452D01*
X1000Y67452D01*
X998Y67451D01*
X996Y67452D01*
X953Y67432D01*
X909Y67414D01*
X909Y67412D01*
X907Y67411D01*
X874Y67326D01*
X874Y55102D01*
X875Y55100D01*
X874Y55098D01*
X894Y55055D01*
X912Y55011D01*
X914Y55011D01*
X915Y55009D01*
X1000Y54976D01*
X13224Y54976D01*
X13226Y54977D01*
G37*
G36*
X27450Y54977D02*
X27450Y54977D01*
X27452Y54976D01*
X27495Y54996D01*
X27539Y55014D01*
X27539Y55016D01*
X27541Y55017D01*
X27574Y55102D01*
X27574Y67326D01*
X27573Y67328D01*
X27574Y67330D01*
X27554Y67373D01*
X27536Y67417D01*
X27534Y67417D01*
X27533Y67419D01*
X27448Y67452D01*
X15224Y67452D01*
X15222Y67451D01*
X15220Y67452D01*
X15177Y67432D01*
X15133Y67414D01*
X15133Y67412D01*
X15131Y67411D01*
X15098Y67326D01*
X15098Y55102D01*
X15099Y55100D01*
X15098Y55098D01*
X15118Y55055D01*
X15136Y55011D01*
X15138Y55011D01*
X15139Y55009D01*
X15224Y54976D01*
X27448Y54976D01*
X27450Y54977D01*
G37*
G36*
X-15222Y54977D02*
X-15222Y54977D01*
X-15220Y54976D01*
X-15177Y54996D01*
X-15133Y55014D01*
X-15133Y55016D01*
X-15131Y55017D01*
X-15098Y55102D01*
X-15098Y67326D01*
X-15099Y67328D01*
X-15098Y67330D01*
X-15118Y67373D01*
X-15136Y67417D01*
X-15138Y67417D01*
X-15139Y67419D01*
X-15224Y67452D01*
X-27448Y67452D01*
X-27450Y67451D01*
X-27452Y67452D01*
X-27495Y67432D01*
X-27539Y67414D01*
X-27539Y67412D01*
X-27541Y67411D01*
X-27574Y67326D01*
X-27574Y55102D01*
X-27573Y55100D01*
X-27574Y55098D01*
X-27554Y55055D01*
X-27536Y55011D01*
X-27534Y55011D01*
X-27533Y55009D01*
X-27448Y54976D01*
X-15224Y54976D01*
X-15222Y54977D01*
G37*
D10*
X47625Y147075D03*
X47625Y164075D03*
X66675Y164075D03*
X66675Y147075D03*
D11*
X53975Y61025D03*
X53975Y73025D03*
X53975Y85025D03*
D12*
X33800Y110057D03*
X33800Y105056D03*
X33800Y100054D03*
X33800Y95053D03*
X33800Y90052D03*
X33800Y85051D03*
X33800Y80049D03*
X33800Y75048D03*
X33800Y70047D03*
X33800Y65046D03*
X33800Y60044D03*
X33800Y55043D03*
D13*
X27507Y48750D03*
X22506Y48750D03*
X17504Y48750D03*
X12503Y48750D03*
X7502Y48750D03*
X2501Y48750D03*
X-2501Y48750D03*
X-7502Y48750D03*
X-12503Y48750D03*
X-17504Y48750D03*
X-22506Y48750D03*
X-27507Y48750D03*
D12*
X-33800Y55043D03*
X-33800Y60044D03*
X-33800Y65046D03*
X-33800Y70047D03*
X-33800Y75048D03*
X-33800Y80049D03*
X-33800Y85051D03*
X-33800Y90052D03*
X-33800Y95053D03*
X-33800Y100054D03*
X-33800Y105056D03*
X-33800Y110057D03*
D13*
X-27507Y116350D03*
X-22506Y116350D03*
X-17504Y116350D03*
X-12503Y116350D03*
X-7502Y116350D03*
X-2501Y116350D03*
X2501Y116350D03*
X7502Y116350D03*
X12503Y116350D03*
X17504Y116350D03*
X22506Y116350D03*
X27507Y116350D03*
D10*
X-61913Y115325D03*
X-61913Y132325D03*
X-52388Y62475D03*
X-52388Y45475D03*
X85163Y120650D03*
X102163Y120650D03*
X48650Y100013D03*
X65650Y100013D03*
X48650Y109538D03*
X65650Y109538D03*
D14*
X68150Y177800D03*
X46150Y177800D03*
D15*
X47650Y120650D03*
X66650Y120650D03*
X47650Y134938D03*
X66650Y134938D03*
M02*
