G04 EAGLE Gerber RS-274X export*
G75*
%MOMM*%
%FSLAX34Y34*%
%LPD*%
%INSolderpaste Bottom*%
%IPPOS*%
%AMOC8*
5,1,8,0,0,1.08239X$1,22.5*%
G01*
%ADD10R,1.000000X1.100000*%
%ADD11R,1.399997X0.400000*%
%ADD12R,0.550000X0.297181*%
%ADD13R,0.297181X0.550000*%
%ADD14R,1.100000X1.000000*%
%ADD15R,1.300000X1.500000*%
%ADD16R,0.800000X0.500000*%

G36*
X-15222Y134161D02*
X-15222Y134161D01*
X-15220Y134160D01*
X-15177Y134180D01*
X-15133Y134199D01*
X-15133Y134201D01*
X-15131Y134202D01*
X-15098Y134287D01*
X-15098Y146511D01*
X-15099Y146513D01*
X-15098Y146515D01*
X-15118Y146558D01*
X-15136Y146601D01*
X-15138Y146602D01*
X-15139Y146604D01*
X-15224Y146637D01*
X-27448Y146637D01*
X-27450Y146636D01*
X-27452Y146637D01*
X-27495Y146617D01*
X-27539Y146598D01*
X-27539Y146596D01*
X-27541Y146595D01*
X-27574Y146511D01*
X-27574Y134287D01*
X-27573Y134285D01*
X-27574Y134282D01*
X-27554Y134239D01*
X-27536Y134196D01*
X-27534Y134195D01*
X-27533Y134193D01*
X-27448Y134160D01*
X-15224Y134160D01*
X-15222Y134161D01*
G37*
G36*
X13226Y134161D02*
X13226Y134161D01*
X13228Y134160D01*
X13271Y134180D01*
X13315Y134199D01*
X13315Y134201D01*
X13317Y134202D01*
X13350Y134287D01*
X13350Y146511D01*
X13349Y146513D01*
X13350Y146515D01*
X13330Y146558D01*
X13312Y146601D01*
X13310Y146602D01*
X13309Y146604D01*
X13224Y146637D01*
X1000Y146637D01*
X998Y146636D01*
X996Y146637D01*
X953Y146617D01*
X909Y146598D01*
X909Y146596D01*
X907Y146595D01*
X874Y146511D01*
X874Y134287D01*
X875Y134285D01*
X874Y134282D01*
X894Y134239D01*
X912Y134196D01*
X914Y134195D01*
X915Y134193D01*
X1000Y134160D01*
X13224Y134160D01*
X13226Y134161D01*
G37*
G36*
X-998Y134161D02*
X-998Y134161D01*
X-996Y134160D01*
X-953Y134180D01*
X-909Y134199D01*
X-909Y134201D01*
X-907Y134202D01*
X-874Y134287D01*
X-874Y146511D01*
X-875Y146513D01*
X-874Y146515D01*
X-894Y146558D01*
X-912Y146601D01*
X-914Y146602D01*
X-915Y146604D01*
X-1000Y146637D01*
X-13224Y146637D01*
X-13226Y146636D01*
X-13228Y146637D01*
X-13271Y146617D01*
X-13315Y146598D01*
X-13315Y146596D01*
X-13317Y146595D01*
X-13350Y146511D01*
X-13350Y134287D01*
X-13349Y134285D01*
X-13350Y134282D01*
X-13330Y134239D01*
X-13312Y134196D01*
X-13310Y134195D01*
X-13309Y134193D01*
X-13224Y134160D01*
X-1000Y134160D01*
X-998Y134161D01*
G37*
G36*
X27450Y134161D02*
X27450Y134161D01*
X27452Y134160D01*
X27495Y134180D01*
X27539Y134199D01*
X27539Y134201D01*
X27541Y134202D01*
X27574Y134287D01*
X27574Y146511D01*
X27573Y146513D01*
X27574Y146515D01*
X27554Y146558D01*
X27536Y146601D01*
X27534Y146602D01*
X27533Y146604D01*
X27448Y146637D01*
X15224Y146637D01*
X15222Y146636D01*
X15220Y146637D01*
X15177Y146617D01*
X15133Y146598D01*
X15133Y146596D01*
X15131Y146595D01*
X15098Y146511D01*
X15098Y134287D01*
X15099Y134285D01*
X15098Y134282D01*
X15118Y134239D01*
X15136Y134196D01*
X15138Y134195D01*
X15139Y134193D01*
X15224Y134160D01*
X27448Y134160D01*
X27450Y134161D01*
G37*
G36*
X13226Y119937D02*
X13226Y119937D01*
X13228Y119936D01*
X13271Y119956D01*
X13315Y119975D01*
X13315Y119977D01*
X13317Y119978D01*
X13350Y120063D01*
X13350Y132287D01*
X13349Y132289D01*
X13350Y132291D01*
X13330Y132334D01*
X13312Y132377D01*
X13310Y132378D01*
X13309Y132380D01*
X13224Y132413D01*
X1000Y132413D01*
X998Y132412D01*
X996Y132413D01*
X953Y132393D01*
X909Y132374D01*
X909Y132372D01*
X907Y132371D01*
X874Y132287D01*
X874Y120063D01*
X875Y120061D01*
X874Y120058D01*
X894Y120015D01*
X912Y119972D01*
X914Y119971D01*
X915Y119969D01*
X1000Y119936D01*
X13224Y119936D01*
X13226Y119937D01*
G37*
G36*
X-15222Y119937D02*
X-15222Y119937D01*
X-15220Y119936D01*
X-15177Y119956D01*
X-15133Y119975D01*
X-15133Y119977D01*
X-15131Y119978D01*
X-15098Y120063D01*
X-15098Y132287D01*
X-15099Y132289D01*
X-15098Y132291D01*
X-15118Y132334D01*
X-15136Y132377D01*
X-15138Y132378D01*
X-15139Y132380D01*
X-15224Y132413D01*
X-27448Y132413D01*
X-27450Y132412D01*
X-27452Y132413D01*
X-27495Y132393D01*
X-27539Y132374D01*
X-27539Y132372D01*
X-27541Y132371D01*
X-27574Y132287D01*
X-27574Y120063D01*
X-27573Y120061D01*
X-27574Y120058D01*
X-27554Y120015D01*
X-27536Y119972D01*
X-27534Y119971D01*
X-27533Y119969D01*
X-27448Y119936D01*
X-15224Y119936D01*
X-15222Y119937D01*
G37*
G36*
X-998Y119937D02*
X-998Y119937D01*
X-996Y119936D01*
X-953Y119956D01*
X-909Y119975D01*
X-909Y119977D01*
X-907Y119978D01*
X-874Y120063D01*
X-874Y132287D01*
X-875Y132289D01*
X-874Y132291D01*
X-894Y132334D01*
X-912Y132377D01*
X-914Y132378D01*
X-915Y132380D01*
X-1000Y132413D01*
X-13224Y132413D01*
X-13226Y132412D01*
X-13228Y132413D01*
X-13271Y132393D01*
X-13315Y132374D01*
X-13315Y132372D01*
X-13317Y132371D01*
X-13350Y132287D01*
X-13350Y120063D01*
X-13349Y120061D01*
X-13350Y120058D01*
X-13330Y120015D01*
X-13312Y119972D01*
X-13310Y119971D01*
X-13309Y119969D01*
X-13224Y119936D01*
X-1000Y119936D01*
X-998Y119937D01*
G37*
G36*
X27450Y119937D02*
X27450Y119937D01*
X27452Y119936D01*
X27495Y119956D01*
X27539Y119975D01*
X27539Y119977D01*
X27541Y119978D01*
X27574Y120063D01*
X27574Y132287D01*
X27573Y132289D01*
X27574Y132291D01*
X27554Y132334D01*
X27536Y132377D01*
X27534Y132378D01*
X27533Y132380D01*
X27448Y132413D01*
X15224Y132413D01*
X15222Y132412D01*
X15220Y132413D01*
X15177Y132393D01*
X15133Y132374D01*
X15133Y132372D01*
X15131Y132371D01*
X15098Y132287D01*
X15098Y120063D01*
X15099Y120061D01*
X15098Y120058D01*
X15118Y120015D01*
X15136Y119972D01*
X15138Y119971D01*
X15139Y119969D01*
X15224Y119936D01*
X27448Y119936D01*
X27450Y119937D01*
G37*
G36*
X-15222Y105713D02*
X-15222Y105713D01*
X-15220Y105712D01*
X-15177Y105732D01*
X-15133Y105751D01*
X-15133Y105753D01*
X-15131Y105754D01*
X-15098Y105839D01*
X-15098Y118063D01*
X-15099Y118065D01*
X-15098Y118067D01*
X-15118Y118110D01*
X-15136Y118153D01*
X-15138Y118154D01*
X-15139Y118156D01*
X-15224Y118189D01*
X-27448Y118189D01*
X-27450Y118188D01*
X-27452Y118189D01*
X-27495Y118169D01*
X-27539Y118150D01*
X-27539Y118148D01*
X-27541Y118147D01*
X-27574Y118063D01*
X-27574Y105839D01*
X-27573Y105837D01*
X-27574Y105834D01*
X-27554Y105791D01*
X-27536Y105748D01*
X-27534Y105747D01*
X-27533Y105745D01*
X-27448Y105712D01*
X-15224Y105712D01*
X-15222Y105713D01*
G37*
G36*
X13226Y105713D02*
X13226Y105713D01*
X13228Y105712D01*
X13271Y105732D01*
X13315Y105751D01*
X13315Y105753D01*
X13317Y105754D01*
X13350Y105839D01*
X13350Y118063D01*
X13349Y118065D01*
X13350Y118067D01*
X13330Y118110D01*
X13312Y118153D01*
X13310Y118154D01*
X13309Y118156D01*
X13224Y118189D01*
X1000Y118189D01*
X998Y118188D01*
X996Y118189D01*
X953Y118169D01*
X909Y118150D01*
X909Y118148D01*
X907Y118147D01*
X874Y118063D01*
X874Y105839D01*
X875Y105837D01*
X874Y105834D01*
X894Y105791D01*
X912Y105748D01*
X914Y105747D01*
X915Y105745D01*
X1000Y105712D01*
X13224Y105712D01*
X13226Y105713D01*
G37*
G36*
X-998Y105713D02*
X-998Y105713D01*
X-996Y105712D01*
X-953Y105732D01*
X-909Y105751D01*
X-909Y105753D01*
X-907Y105754D01*
X-874Y105839D01*
X-874Y118063D01*
X-875Y118065D01*
X-874Y118067D01*
X-894Y118110D01*
X-912Y118153D01*
X-914Y118154D01*
X-915Y118156D01*
X-1000Y118189D01*
X-13224Y118189D01*
X-13226Y118188D01*
X-13228Y118189D01*
X-13271Y118169D01*
X-13315Y118150D01*
X-13315Y118148D01*
X-13317Y118147D01*
X-13350Y118063D01*
X-13350Y105839D01*
X-13349Y105837D01*
X-13350Y105834D01*
X-13330Y105791D01*
X-13312Y105748D01*
X-13310Y105747D01*
X-13309Y105745D01*
X-13224Y105712D01*
X-1000Y105712D01*
X-998Y105713D01*
G37*
G36*
X27450Y105713D02*
X27450Y105713D01*
X27452Y105712D01*
X27495Y105732D01*
X27539Y105751D01*
X27539Y105753D01*
X27541Y105754D01*
X27574Y105839D01*
X27574Y118063D01*
X27573Y118065D01*
X27574Y118067D01*
X27554Y118110D01*
X27536Y118153D01*
X27534Y118154D01*
X27533Y118156D01*
X27448Y118189D01*
X15224Y118189D01*
X15222Y118188D01*
X15220Y118189D01*
X15177Y118169D01*
X15133Y118150D01*
X15133Y118148D01*
X15131Y118147D01*
X15098Y118063D01*
X15098Y105839D01*
X15099Y105837D01*
X15098Y105834D01*
X15118Y105791D01*
X15136Y105748D01*
X15138Y105747D01*
X15139Y105745D01*
X15224Y105712D01*
X27448Y105712D01*
X27450Y105713D01*
G37*
G36*
X-998Y91489D02*
X-998Y91489D01*
X-996Y91488D01*
X-953Y91508D01*
X-909Y91527D01*
X-909Y91529D01*
X-907Y91530D01*
X-874Y91615D01*
X-874Y103839D01*
X-875Y103841D01*
X-874Y103843D01*
X-894Y103886D01*
X-912Y103929D01*
X-914Y103930D01*
X-915Y103932D01*
X-1000Y103965D01*
X-13224Y103965D01*
X-13226Y103964D01*
X-13228Y103965D01*
X-13271Y103945D01*
X-13315Y103926D01*
X-13315Y103924D01*
X-13317Y103923D01*
X-13350Y103839D01*
X-13350Y91615D01*
X-13349Y91613D01*
X-13350Y91610D01*
X-13330Y91567D01*
X-13312Y91524D01*
X-13310Y91523D01*
X-13309Y91521D01*
X-13224Y91488D01*
X-1000Y91488D01*
X-998Y91489D01*
G37*
G36*
X13226Y91489D02*
X13226Y91489D01*
X13228Y91488D01*
X13271Y91508D01*
X13315Y91527D01*
X13315Y91529D01*
X13317Y91530D01*
X13350Y91615D01*
X13350Y103839D01*
X13349Y103841D01*
X13350Y103843D01*
X13330Y103886D01*
X13312Y103929D01*
X13310Y103930D01*
X13309Y103932D01*
X13224Y103965D01*
X1000Y103965D01*
X998Y103964D01*
X996Y103965D01*
X953Y103945D01*
X909Y103926D01*
X909Y103924D01*
X907Y103923D01*
X874Y103839D01*
X874Y91615D01*
X875Y91613D01*
X874Y91610D01*
X894Y91567D01*
X912Y91524D01*
X914Y91523D01*
X915Y91521D01*
X1000Y91488D01*
X13224Y91488D01*
X13226Y91489D01*
G37*
G36*
X27450Y91489D02*
X27450Y91489D01*
X27452Y91488D01*
X27495Y91508D01*
X27539Y91527D01*
X27539Y91529D01*
X27541Y91530D01*
X27574Y91615D01*
X27574Y103839D01*
X27573Y103841D01*
X27574Y103843D01*
X27554Y103886D01*
X27536Y103929D01*
X27534Y103930D01*
X27533Y103932D01*
X27448Y103965D01*
X15224Y103965D01*
X15222Y103964D01*
X15220Y103965D01*
X15177Y103945D01*
X15133Y103926D01*
X15133Y103924D01*
X15131Y103923D01*
X15098Y103839D01*
X15098Y91615D01*
X15099Y91613D01*
X15098Y91610D01*
X15118Y91567D01*
X15136Y91524D01*
X15138Y91523D01*
X15139Y91521D01*
X15224Y91488D01*
X27448Y91488D01*
X27450Y91489D01*
G37*
G36*
X-15222Y91489D02*
X-15222Y91489D01*
X-15220Y91488D01*
X-15177Y91508D01*
X-15133Y91527D01*
X-15133Y91529D01*
X-15131Y91530D01*
X-15098Y91615D01*
X-15098Y103839D01*
X-15099Y103841D01*
X-15098Y103843D01*
X-15118Y103886D01*
X-15136Y103929D01*
X-15138Y103930D01*
X-15139Y103932D01*
X-15224Y103965D01*
X-27448Y103965D01*
X-27450Y103964D01*
X-27452Y103965D01*
X-27495Y103945D01*
X-27539Y103926D01*
X-27539Y103924D01*
X-27541Y103923D01*
X-27574Y103839D01*
X-27574Y91615D01*
X-27573Y91613D01*
X-27574Y91610D01*
X-27554Y91567D01*
X-27536Y91524D01*
X-27534Y91523D01*
X-27533Y91521D01*
X-27448Y91488D01*
X-15224Y91488D01*
X-15222Y91489D01*
G37*
D10*
X102163Y142875D03*
X85163Y142875D03*
D11*
X65088Y105475D03*
X65088Y117475D03*
X65088Y129475D03*
D12*
X33800Y146570D03*
X33800Y141569D03*
X33800Y136567D03*
X33800Y131566D03*
X33800Y126565D03*
X33800Y121564D03*
X33800Y116562D03*
X33800Y111561D03*
X33800Y106560D03*
X33800Y101559D03*
X33800Y96557D03*
X33800Y91556D03*
D13*
X27507Y85263D03*
X22506Y85263D03*
X17504Y85263D03*
X12503Y85263D03*
X7502Y85263D03*
X2501Y85263D03*
X-2501Y85263D03*
X-7502Y85263D03*
X-12503Y85263D03*
X-17504Y85263D03*
X-22506Y85263D03*
X-27507Y85263D03*
D12*
X-33800Y91556D03*
X-33800Y96557D03*
X-33800Y101559D03*
X-33800Y106560D03*
X-33800Y111561D03*
X-33800Y116562D03*
X-33800Y121564D03*
X-33800Y126565D03*
X-33800Y131566D03*
X-33800Y136567D03*
X-33800Y141569D03*
X-33800Y146570D03*
D13*
X-27507Y152863D03*
X-22506Y152863D03*
X-17504Y152863D03*
X-12503Y152863D03*
X-7502Y152863D03*
X-2501Y152863D03*
X2501Y152863D03*
X7502Y152863D03*
X12503Y152863D03*
X17504Y152863D03*
X22506Y152863D03*
X27507Y152863D03*
D10*
X-76763Y144463D03*
X-59763Y144463D03*
D14*
X47063Y90488D03*
X64063Y90488D03*
X102163Y166688D03*
X85163Y166688D03*
X102163Y155575D03*
X85163Y155575D03*
X-59763Y120650D03*
X-76763Y120650D03*
D15*
X52413Y146050D03*
X71413Y146050D03*
X52413Y161925D03*
X71413Y161925D03*
X-58763Y106363D03*
X-77763Y106363D03*
D16*
X-8050Y174625D03*
X-30050Y174625D03*
M02*
